<svg width="509" height="442" viewBox="0 0 509 442" fill="none" xmlns="http://www.w3.org/2000/svg">
<path d="M255.098 399C353.459 399 433.196 393.151 433.196 385.935C433.196 378.719 353.459 372.87 255.098 372.87C156.737 372.87 77 378.719 77 385.935C77 393.151 156.737 399 255.098 399Z" fill="white" fill-opacity="0.5"/>
<path opacity="0.3" d="M255.098 399C353.459 399 433.196 393.151 433.196 385.935C433.196 378.719 353.459 372.87 255.098 372.87C156.737 372.87 77 378.719 77 385.935C77 393.151 156.737 399 255.098 399Z" fill="#5259CD"/>
<path d="M360.349 189.006C360.296 189.006 360.969 184.506 361.04 184.181C361.812 180.972 364.719 175.374 367.527 175.386C367.993 175.404 368.452 175.554 368.873 175.826C369.294 176.098 369.668 176.486 369.97 176.965C370.272 177.444 370.496 178.004 370.627 178.607C370.757 179.21 370.792 179.843 370.729 180.465C370.523 183.131 368.747 185.387 367.141 186.702C365.257 188.282 360.349 189.006 360.349 189.006Z" fill="#5259CD"/>
<path d="M354.904 158.714C357.55 159.993 358.869 166.58 358.78 169.958C358.78 170.247 358.277 174.783 358.232 174.783H358.178C358.385 175.821 358.609 176.943 358.833 178.161C359.228 180.429 359.659 182.986 359.991 185.833C360.376 188.887 360.627 191.969 360.744 195.062C360.887 198.524 360.8 201.996 360.484 205.437C360.479 205.477 360.479 205.518 360.484 205.558C360.834 204.556 361.866 201.782 361.964 201.577C363.346 198.754 367.239 194.338 369.958 195.4C370.403 195.585 370.815 195.893 371.166 196.305C371.517 196.718 371.8 197.225 371.996 197.793C372.193 198.362 372.298 198.98 372.305 199.606C372.313 200.233 372.222 200.855 372.039 201.432C371.321 203.917 369.168 205.473 367.365 206.161C365.329 206.945 360.789 206.016 360.43 205.944C360.048 209.433 359.49 212.883 358.762 216.27C358.343 218.249 357.888 220.227 357.398 222.206C357.712 221.349 358.008 220.589 358.053 220.481C359.434 217.658 363.328 213.242 366.046 214.292C366.493 214.475 366.905 214.782 367.257 215.194C367.609 215.606 367.893 216.113 368.089 216.683C368.285 217.252 368.39 217.87 368.397 218.498C368.404 219.125 368.312 219.747 368.128 220.324C367.41 222.821 365.257 224.365 363.454 225.065C361.65 225.764 357.739 225.065 356.716 224.884C356.528 225.632 356.339 226.392 356.142 227.14C355.245 230.759 354.276 234.378 353.451 237.925C353.155 239.131 352.894 240.434 352.634 241.689C352.921 240.929 353.164 240.289 353.208 240.205C354.581 237.382 358.483 232.967 361.193 234.016C361.638 234.201 362.05 234.51 362.401 234.922C362.753 235.334 363.036 235.84 363.233 236.408C363.43 236.977 363.536 237.594 363.545 238.221C363.553 238.848 363.464 239.47 363.283 240.048C362.565 242.533 360.403 244.089 358.6 244.777C356.797 245.465 353.271 244.861 352.051 244.632C351.809 245.935 351.576 247.226 351.387 248.493C351.271 249.361 351.118 250.194 351.037 251.074C350.957 251.955 350.858 252.811 350.768 253.656C350.643 255.309 350.499 257.022 350.409 258.638C350.338 259.76 350.284 260.834 350.23 261.907C350.508 260.701 351.127 258.216 351.172 258.011C352.168 255.359 353.65 253.092 355.478 251.424C355.578 251.122 355.701 250.835 355.846 250.568C356.1 250.041 356.434 249.592 356.825 249.251C357.217 248.909 357.658 248.682 358.119 248.584C358.58 248.486 359.051 248.52 359.502 248.683C359.953 248.846 360.373 249.134 360.735 249.53C362.87 251.943 362.332 258.795 361.354 261.907C361.3 262.088 360.502 263.982 359.991 265.165C360.376 264.537 360.735 263.958 361.139 263.259C361.92 261.98 362.727 260.725 363.588 259.374L364.907 257.456C365.338 256.792 365.858 256.177 366.333 255.538C367.455 254.078 368.648 252.667 369.877 251.279C369.034 250.362 366.1 247.021 365.257 244.753C364.414 242.485 363.812 239.312 364.692 236.923C364.884 236.35 365.164 235.837 365.514 235.418C365.863 235 366.275 234.686 366.721 234.495C367.167 234.305 367.638 234.244 368.103 234.315C368.568 234.386 369.017 234.589 369.419 234.909C371.797 236.911 372.039 243.727 371.42 246.973C371.42 247.178 370.738 249.458 370.37 250.7C371.115 249.88 371.851 249.048 372.622 248.287C374.847 245.971 377.153 243.727 379.44 241.471L381.531 239.384C381.235 239.059 377.682 235.198 376.731 232.665C375.897 230.409 375.287 227.224 376.166 224.824C376.359 224.251 376.64 223.74 376.99 223.322C377.34 222.905 377.751 222.591 378.196 222.401C378.642 222.211 379.113 222.149 379.577 222.22C380.042 222.29 380.491 222.491 380.894 222.809C383.271 224.824 383.513 231.64 382.894 234.873C382.85 235.126 381.925 238.407 381.656 239.228C383.19 237.683 384.707 236.139 386.142 234.535C388.107 232.376 389.965 230.047 391.704 227.562C391.57 227.417 387.847 223.412 386.878 220.806C386.034 218.55 385.433 215.366 386.312 212.977C386.504 212.403 386.783 211.891 387.132 211.473C387.481 211.054 387.891 210.74 388.337 210.549C388.782 210.359 389.252 210.298 389.717 210.369C390.181 210.44 390.629 210.642 391.031 210.962C393.418 212.965 393.66 219.781 393.041 223.026C392.996 223.231 392.296 225.74 391.937 226.923L392.081 227.031C393.783 224.469 395.311 221.707 396.647 218.78C397.392 217.187 398.047 215.607 398.657 214.039C397.903 213.387 394.503 210.419 393.436 208.151C392.368 205.883 391.561 202.964 392.234 200.455C392.379 199.864 392.613 199.321 392.923 198.859C393.233 198.398 393.611 198.028 394.033 197.774C394.455 197.519 394.912 197.386 395.375 197.383C395.837 197.379 396.295 197.505 396.719 197.752C399.258 199.393 400.048 206.137 399.698 209.478C399.698 209.659 399.339 211.481 399.079 212.808C399.339 212.096 399.626 211.372 399.868 210.685C400.765 208.103 401.528 205.666 402.156 203.447C402.515 202.24 402.811 201.034 403.053 200.033C402.559 198.826 400.64 194.182 400.451 191.588C400.263 188.994 400.568 185.809 402.03 184C402.364 183.56 402.762 183.219 403.2 183C403.638 182.781 404.106 182.689 404.572 182.728C405.038 182.768 405.493 182.94 405.907 183.231C406.32 183.523 406.684 183.929 406.973 184.422C408.66 187.45 407.054 193.916 405.601 196.679C405.475 196.908 403.187 200.298 403.161 200.298V200.226C402.909 201.251 402.64 202.349 402.317 203.531C401.725 205.715 401.025 208.188 400.146 210.769C399.209 213.599 398.152 216.354 396.979 219.021C395.673 222.009 394.172 224.835 392.494 227.465L392.431 227.562C393.131 226.971 395.122 225.439 395.293 225.342C397.607 224.015 402.649 223.255 404.497 226.114C404.793 226.6 405.011 227.163 405.135 227.768C405.259 228.373 405.287 229.007 405.218 229.627C405.148 230.248 404.983 230.843 404.732 231.372C404.481 231.901 404.151 232.354 403.762 232.701C402.138 234.245 399.698 233.908 397.912 233.172C395.894 232.315 392.53 228.177 392.216 227.852C390.466 230.476 388.587 232.939 386.591 235.222C385.424 236.574 384.231 237.876 383.002 239.155C383.621 238.685 384.177 238.263 384.258 238.214C386.564 236.887 391.606 236.127 393.454 238.986C393.751 239.471 393.969 240.034 394.094 240.64C394.219 241.245 394.248 241.879 394.178 242.5C394.109 243.122 393.943 243.716 393.691 244.246C393.44 244.775 393.108 245.227 392.718 245.573C391.103 247.117 388.663 246.78 386.878 246.044C385.092 245.308 382.105 241.833 381.333 240.904L379.925 242.364C377.664 244.692 375.439 246.997 373.241 249.349C372.479 250.182 371.752 251.038 371.016 251.883C371.573 251.46 372.03 251.11 372.111 251.074C374.417 249.735 379.458 248.987 381.306 251.834C381.605 252.318 381.825 252.881 381.95 253.487C382.076 254.093 382.105 254.727 382.036 255.349C381.966 255.971 381.8 256.566 381.547 257.096C381.295 257.625 380.962 258.077 380.571 258.421C378.947 259.965 376.516 259.627 374.731 258.904C372.945 258.18 370.245 255.019 369.348 253.921C368.621 254.826 367.885 255.719 367.213 256.648C366.755 257.287 366.315 257.854 365.867 258.542C365.418 259.229 364.97 259.845 364.575 260.496C363.794 261.775 362.978 263.102 362.234 264.381C361.713 265.261 361.229 266.118 360.744 266.974C361.489 266.142 362.996 264.561 363.131 264.429C365.257 262.643 370.155 260.87 372.308 263.307C372.656 263.728 372.934 264.242 373.124 264.817C373.315 265.391 373.413 266.013 373.413 266.642C373.413 267.272 373.315 267.894 373.124 268.468C372.934 269.043 372.656 269.557 372.308 269.978C370.882 271.824 368.442 272.029 366.594 271.643C364.548 271.209 360.852 268.024 360.394 267.565C359.587 268.989 358.815 270.388 358.098 271.727C355.613 276.348 353.675 280.317 352.347 283.128L352.213 283.405L350.49 282.283C350.58 282.102 350.669 281.933 350.759 281.74C352.15 278.941 354.177 274.985 356.761 270.388C357.577 268.941 358.466 267.409 359.39 265.84C358.428 264.433 357.529 262.951 356.698 261.401C354.716 262.438 350.598 262.487 350.068 262.487C349.988 264.272 349.916 266.009 349.862 267.65C349.683 273.356 349.701 278.109 349.745 281.427V281.825L347.853 280.618C347.853 277.325 347.951 272.849 348.202 267.577C348.283 265.756 348.4 263.814 348.534 261.835C348.005 261.654 343.726 260.17 342.111 258.433C340.649 256.865 339.106 254.307 339.159 251.641C339.154 251.012 339.248 250.389 339.435 249.813C339.621 249.236 339.896 248.719 340.242 248.295C340.588 247.871 340.996 247.551 341.44 247.354C341.884 247.157 342.354 247.089 342.82 247.153C345.61 247.636 347.942 253.692 348.409 257.01C348.409 257.203 348.552 259.422 348.606 260.749C348.669 259.929 348.714 259.145 348.777 258.337C348.902 256.684 349.064 255.031 349.234 253.258C349.333 252.413 349.44 251.557 349.539 250.688C349.638 249.82 349.808 248.927 349.943 248.034C350.284 245.983 350.696 243.92 351.154 241.858C350.077 241.701 346.265 241.097 344.623 239.843C342.981 238.588 341.187 236.369 340.945 233.727C340.868 233.105 340.89 232.47 341.009 231.861C341.129 231.252 341.342 230.684 341.636 230.194C341.93 229.704 342.298 229.304 342.715 229.018C343.133 228.733 343.59 228.57 344.058 228.539C346.866 228.443 349.862 233.956 350.687 237.141C350.741 237.346 351.145 239.722 351.342 241.037C351.629 239.831 351.899 238.552 352.239 237.322C353.137 233.702 354.15 230.156 355.137 226.573C355.442 225.475 355.729 224.377 356.034 223.291C355.649 223.291 351.1 222.652 349.27 221.241C347.646 220.034 345.834 217.766 345.583 215.124C345.509 214.504 345.533 213.869 345.654 213.262C345.774 212.655 345.988 212.089 346.281 211.6C346.575 211.111 346.941 210.71 347.357 210.423C347.773 210.137 348.229 209.971 348.696 209.937C351.513 209.84 354.509 215.353 355.335 218.538C355.397 218.78 355.972 222.157 356.088 223.086C356.734 220.674 357.371 218.261 357.882 215.848C358.641 212.591 359.241 209.27 359.677 205.908C359.497 205.908 354.742 205.304 352.876 203.857C351.244 202.65 349.431 200.382 349.189 197.74C349.116 197.12 349.14 196.485 349.26 195.878C349.381 195.271 349.594 194.705 349.888 194.216C350.181 193.727 350.548 193.326 350.964 193.04C351.38 192.753 351.836 192.587 352.302 192.553C355.11 192.469 358.107 197.97 358.932 201.154C358.986 201.372 359.425 203.977 359.614 205.22H359.775C360.146 201.822 360.29 198.386 360.206 194.954C360.206 193.06 360.071 191.262 359.937 189.501C359.04 189.501 354.967 189.501 353.172 188.463C351.378 187.426 349.467 185.52 349.001 182.926C348.876 182.319 348.849 181.682 348.92 181.06C348.991 180.437 349.159 179.841 349.413 179.311C349.667 178.782 350.001 178.33 350.394 177.987C350.787 177.643 351.229 177.414 351.692 177.316C354.482 176.81 357.909 181.84 358.995 184.892C359.049 185.061 359.515 186.835 359.829 188.126C359.766 187.341 359.704 186.521 359.623 185.773C359.345 182.938 358.95 180.357 358.591 178.089C358.376 176.798 358.169 175.676 357.963 174.554C357.066 173.951 353.549 171.466 352.338 169.451C351.127 167.436 350.068 164.553 350.544 161.959C350.646 161.341 350.845 160.759 351.127 160.252C351.41 159.745 351.769 159.324 352.181 159.017C352.593 158.71 353.049 158.525 353.518 158.473C353.988 158.42 354.46 158.503 354.904 158.714Z" fill="#5259CD"/>
<path d="M405.753 217.018C403.555 216.898 399.159 213.87 399.159 213.858C399.159 213.846 401.519 210.576 401.689 210.395C403.654 208.284 408.373 205.775 410.714 207.862C411.096 208.225 411.417 208.692 411.656 209.232C411.895 209.773 412.047 210.374 412.102 210.999C412.157 211.623 412.114 212.256 411.975 212.857C411.837 213.457 411.606 214.012 411.298 214.485C410.042 216.512 407.628 217.115 405.753 217.018Z" fill="#5259CD"/>
<g opacity="0.5">
<path opacity="0.5" d="M360.349 189.006C360.296 189.006 360.969 184.506 361.04 184.181C361.812 180.972 364.719 175.374 367.527 175.386C367.993 175.404 368.452 175.554 368.873 175.826C369.294 176.098 369.668 176.486 369.97 176.965C370.272 177.444 370.496 178.004 370.627 178.607C370.757 179.21 370.792 179.843 370.729 180.465C370.523 183.131 368.747 185.387 367.141 186.702C365.257 188.282 360.349 189.006 360.349 189.006Z" fill="#005086"/>
<path opacity="0.5" d="M354.904 158.714C357.55 159.993 358.869 166.58 358.78 169.958C358.78 170.247 358.277 174.783 358.232 174.783H358.178C358.385 175.821 358.609 176.943 358.833 178.161C359.228 180.429 359.659 182.986 359.991 185.833C360.376 188.887 360.627 191.969 360.744 195.062C360.887 198.524 360.8 201.996 360.484 205.437C360.479 205.477 360.479 205.518 360.484 205.558C360.834 204.556 361.866 201.782 361.964 201.577C363.346 198.754 367.239 194.338 369.958 195.4C370.403 195.585 370.815 195.893 371.166 196.305C371.517 196.718 371.8 197.225 371.996 197.793C372.193 198.362 372.298 198.98 372.305 199.606C372.313 200.233 372.222 200.855 372.039 201.432C371.321 203.917 369.168 205.473 367.365 206.161C365.329 206.945 360.789 206.016 360.43 205.944C360.048 209.433 359.49 212.883 358.762 216.27C358.343 218.249 357.888 220.227 357.398 222.206C357.712 221.349 358.008 220.589 358.053 220.481C359.434 217.658 363.328 213.242 366.046 214.292C366.493 214.475 366.905 214.782 367.257 215.194C367.609 215.606 367.893 216.113 368.089 216.683C368.285 217.252 368.39 217.87 368.397 218.498C368.404 219.125 368.312 219.747 368.128 220.324C367.41 222.821 365.257 224.365 363.454 225.065C361.65 225.764 357.739 225.065 356.716 224.884C356.528 225.632 356.339 226.392 356.142 227.14C355.245 230.759 354.276 234.378 353.451 237.925C353.155 239.131 352.894 240.434 352.634 241.689C352.921 240.929 353.164 240.289 353.208 240.205C354.581 237.382 358.483 232.967 361.193 234.016C361.638 234.201 362.05 234.51 362.401 234.922C362.753 235.334 363.036 235.84 363.233 236.408C363.43 236.977 363.536 237.594 363.545 238.221C363.553 238.848 363.464 239.47 363.283 240.048C362.565 242.533 360.403 244.089 358.6 244.777C356.797 245.465 353.271 244.861 352.051 244.632C351.809 245.935 351.576 247.226 351.387 248.493C351.271 249.361 351.118 250.194 351.037 251.074C350.957 251.955 350.858 252.811 350.768 253.656C350.643 255.309 350.499 257.022 350.409 258.638C350.338 259.76 350.284 260.834 350.23 261.907C350.508 260.701 351.127 258.216 351.172 258.011C352.168 255.359 353.65 253.092 355.478 251.424C355.578 251.122 355.701 250.835 355.846 250.568C356.1 250.041 356.434 249.592 356.825 249.251C357.217 248.909 357.658 248.682 358.119 248.584C358.58 248.486 359.051 248.52 359.502 248.683C359.953 248.846 360.373 249.134 360.735 249.53C362.87 251.943 362.332 258.795 361.354 261.907C361.3 262.088 360.502 263.982 359.991 265.165C360.376 264.537 360.735 263.958 361.139 263.259C361.92 261.98 362.727 260.725 363.588 259.374L364.907 257.456C365.338 256.792 365.858 256.177 366.333 255.538C367.455 254.078 368.648 252.667 369.877 251.279C369.034 250.362 366.1 247.021 365.257 244.753C364.414 242.485 363.812 239.312 364.692 236.923C364.884 236.35 365.164 235.837 365.514 235.418C365.863 235 366.275 234.686 366.721 234.495C367.167 234.305 367.638 234.244 368.103 234.315C368.568 234.386 369.017 234.589 369.419 234.909C371.797 236.911 372.039 243.727 371.42 246.973C371.42 247.178 370.738 249.458 370.37 250.7C371.115 249.88 371.851 249.048 372.622 248.287C374.847 245.971 377.153 243.727 379.44 241.471L381.531 239.384C381.235 239.059 377.682 235.198 376.731 232.665C375.897 230.409 375.287 227.224 376.166 224.824C376.359 224.251 376.64 223.74 376.99 223.322C377.34 222.905 377.751 222.591 378.196 222.401C378.642 222.211 379.113 222.149 379.577 222.22C380.042 222.29 380.491 222.491 380.894 222.809C383.271 224.824 383.513 231.64 382.894 234.873C382.85 235.126 381.925 238.407 381.656 239.228C383.19 237.683 384.707 236.139 386.142 234.535C388.107 232.376 389.965 230.047 391.704 227.562C391.57 227.417 387.847 223.412 386.878 220.806C386.034 218.55 385.433 215.366 386.312 212.977C386.504 212.403 386.783 211.891 387.132 211.473C387.481 211.054 387.891 210.74 388.337 210.549C388.782 210.359 389.252 210.298 389.717 210.369C390.181 210.44 390.629 210.642 391.031 210.962C393.418 212.965 393.66 219.781 393.041 223.026C392.996 223.231 392.296 225.74 391.937 226.923L392.081 227.031C393.783 224.469 395.311 221.707 396.647 218.78C397.392 217.187 398.047 215.607 398.657 214.039C397.903 213.387 394.503 210.419 393.436 208.151C392.368 205.883 391.561 202.964 392.234 200.455C392.379 199.864 392.613 199.321 392.923 198.859C393.233 198.398 393.611 198.028 394.033 197.774C394.455 197.519 394.912 197.386 395.375 197.383C395.837 197.379 396.295 197.505 396.719 197.752C399.258 199.393 400.048 206.137 399.698 209.478C399.698 209.659 399.339 211.481 399.079 212.808C399.339 212.096 399.626 211.372 399.868 210.685C400.765 208.103 401.528 205.666 402.156 203.447C402.515 202.24 402.811 201.034 403.053 200.033C402.559 198.826 400.64 194.182 400.451 191.588C400.263 188.994 400.568 185.809 402.03 184C402.364 183.56 402.762 183.219 403.2 183C403.638 182.781 404.106 182.689 404.572 182.728C405.038 182.768 405.493 182.94 405.907 183.231C406.32 183.523 406.684 183.929 406.973 184.422C408.66 187.45 407.054 193.916 405.601 196.679C405.475 196.908 403.187 200.298 403.161 200.298V200.226C402.909 201.251 402.64 202.349 402.317 203.531C401.725 205.715 401.025 208.188 400.146 210.769C399.209 213.599 398.152 216.354 396.979 219.021C395.673 222.009 394.172 224.835 392.494 227.465L392.431 227.562C393.131 226.971 395.122 225.439 395.293 225.342C397.607 224.015 402.649 223.255 404.497 226.114C404.793 226.6 405.011 227.163 405.135 227.768C405.259 228.373 405.287 229.007 405.218 229.627C405.148 230.248 404.983 230.843 404.732 231.372C404.481 231.901 404.151 232.354 403.762 232.701C402.138 234.245 399.698 233.908 397.912 233.172C395.894 232.315 392.53 228.177 392.216 227.852C390.466 230.476 388.587 232.939 386.591 235.222C385.424 236.574 384.231 237.876 383.002 239.155C383.621 238.685 384.177 238.263 384.258 238.214C386.564 236.887 391.606 236.127 393.454 238.986C393.751 239.471 393.969 240.034 394.094 240.64C394.219 241.245 394.248 241.879 394.178 242.5C394.109 243.122 393.943 243.716 393.691 244.246C393.44 244.775 393.108 245.227 392.718 245.573C391.103 247.117 388.663 246.78 386.878 246.044C385.092 245.308 382.105 241.833 381.333 240.904L379.925 242.364C377.664 244.692 375.439 246.997 373.241 249.349C372.479 250.182 371.752 251.038 371.016 251.883C371.573 251.46 372.03 251.11 372.111 251.074C374.417 249.735 379.458 248.987 381.306 251.834C381.605 252.318 381.825 252.881 381.95 253.487C382.076 254.093 382.105 254.727 382.036 255.349C381.966 255.971 381.8 256.566 381.547 257.096C381.295 257.625 380.962 258.077 380.571 258.421C378.947 259.965 376.516 259.627 374.731 258.904C372.945 258.18 370.245 255.019 369.348 253.921C368.621 254.826 367.885 255.719 367.213 256.648C366.755 257.287 366.315 257.854 365.867 258.542C365.418 259.229 364.97 259.845 364.575 260.496C363.794 261.775 362.978 263.102 362.234 264.381C361.713 265.261 361.229 266.118 360.744 266.974C361.489 266.142 362.996 264.561 363.131 264.429C365.257 262.643 370.155 260.87 372.308 263.307C372.656 263.728 372.934 264.242 373.124 264.817C373.315 265.391 373.413 266.013 373.413 266.642C373.413 267.272 373.315 267.894 373.124 268.468C372.934 269.043 372.656 269.557 372.308 269.978C370.882 271.824 368.442 272.029 366.594 271.643C364.548 271.209 360.852 268.024 360.394 267.565C359.587 268.989 358.815 270.388 358.098 271.727C355.613 276.348 353.675 280.317 352.347 283.128L352.213 283.405L350.49 282.283C350.58 282.102 350.669 281.933 350.759 281.74C352.15 278.941 354.177 274.985 356.761 270.388C357.577 268.941 358.466 267.409 359.39 265.84C358.428 264.433 357.529 262.951 356.698 261.401C354.716 262.438 350.598 262.487 350.068 262.487C349.988 264.272 349.916 266.009 349.862 267.65C349.683 273.356 349.701 278.109 349.745 281.427V281.825L347.853 280.618C347.853 277.325 347.951 272.849 348.202 267.577C348.283 265.756 348.4 263.814 348.534 261.835C348.005 261.654 343.726 260.17 342.111 258.433C340.649 256.865 339.106 254.307 339.159 251.641C339.154 251.012 339.248 250.389 339.435 249.813C339.621 249.236 339.896 248.719 340.242 248.295C340.588 247.871 340.996 247.551 341.44 247.354C341.884 247.157 342.354 247.089 342.82 247.153C345.61 247.636 347.942 253.692 348.409 257.01C348.409 257.203 348.552 259.422 348.606 260.749C348.669 259.929 348.714 259.145 348.777 258.337C348.902 256.684 349.064 255.031 349.234 253.258C349.333 252.413 349.44 251.557 349.539 250.688C349.638 249.82 349.808 248.927 349.943 248.034C350.284 245.983 350.696 243.92 351.154 241.858C350.077 241.701 346.265 241.097 344.623 239.843C342.981 238.588 341.187 236.369 340.945 233.727C340.868 233.105 340.89 232.47 341.009 231.861C341.129 231.252 341.342 230.684 341.636 230.194C341.93 229.704 342.298 229.304 342.715 229.018C343.133 228.733 343.59 228.57 344.058 228.539C346.866 228.443 349.862 233.956 350.687 237.141C350.741 237.346 351.145 239.722 351.342 241.037C351.629 239.831 351.899 238.552 352.239 237.322C353.137 233.702 354.15 230.156 355.137 226.573C355.442 225.475 355.729 224.377 356.034 223.291C355.649 223.291 351.1 222.652 349.27 221.241C347.646 220.034 345.834 217.766 345.583 215.124C345.509 214.504 345.533 213.869 345.654 213.262C345.774 212.655 345.988 212.089 346.281 211.6C346.575 211.111 346.941 210.71 347.357 210.423C347.773 210.137 348.229 209.971 348.696 209.937C351.513 209.84 354.509 215.353 355.335 218.538C355.397 218.78 355.972 222.157 356.088 223.086C356.734 220.674 357.371 218.261 357.882 215.848C358.641 212.591 359.241 209.27 359.677 205.908C359.497 205.908 354.742 205.304 352.876 203.857C351.244 202.65 349.431 200.382 349.189 197.74C349.116 197.12 349.14 196.485 349.26 195.878C349.381 195.271 349.594 194.705 349.888 194.216C350.181 193.727 350.548 193.326 350.964 193.04C351.38 192.753 351.836 192.587 352.302 192.553C355.11 192.469 358.107 197.97 358.932 201.154C358.986 201.372 359.425 203.977 359.614 205.22H359.775C360.146 201.822 360.29 198.386 360.206 194.954C360.206 193.06 360.071 191.262 359.937 189.501C359.04 189.501 354.967 189.501 353.172 188.463C351.378 187.426 349.467 185.52 349.001 182.926C348.876 182.319 348.849 181.682 348.92 181.06C348.991 180.437 349.159 179.841 349.413 179.311C349.667 178.782 350.001 178.33 350.394 177.987C350.787 177.643 351.229 177.414 351.692 177.316C354.482 176.81 357.909 181.84 358.995 184.892C359.049 185.061 359.515 186.835 359.829 188.126C359.766 187.341 359.704 186.521 359.623 185.773C359.345 182.938 358.95 180.357 358.591 178.089C358.376 176.798 358.169 175.676 357.963 174.554C357.066 173.951 353.549 171.466 352.338 169.451C351.127 167.436 350.068 164.553 350.544 161.959C350.646 161.341 350.845 160.759 351.127 160.252C351.41 159.745 351.769 159.324 352.181 159.017C352.593 158.71 353.049 158.525 353.518 158.473C353.988 158.42 354.46 158.503 354.904 158.714Z" fill="#005086"/>
<path opacity="0.5" d="M405.753 217.018C403.555 216.898 399.159 213.87 399.159 213.858C399.159 213.846 401.519 210.576 401.689 210.395C403.654 208.284 408.373 205.775 410.714 207.862C411.096 208.225 411.417 208.692 411.656 209.232C411.895 209.773 412.047 210.374 412.102 210.999C412.157 211.623 412.114 212.256 411.975 212.857C411.837 213.457 411.606 214.012 411.298 214.485C410.042 216.512 407.628 217.115 405.753 217.018Z" fill="#005086"/>
</g>
<path d="M380.086 291.042C380.086 291.042 366.746 247.793 359.282 249.675C351.818 251.557 372.066 318.607 372.066 318.607C372.066 318.607 348.597 259.073 332.592 259.073C316.588 259.073 338.46 324.88 358.726 346.812C358.726 346.812 326.725 300.439 308.056 310.464C289.387 320.489 345.394 367.489 345.394 367.489C345.394 367.489 312.855 353.701 316.588 364.353C320.32 375.005 330.457 376.887 330.457 376.887L293.675 379.396H421.695L392.888 375.633C392.888 375.633 422.763 355.583 414.76 347.44C406.758 339.297 389.156 356.837 389.156 356.837C389.156 356.837 419.56 311.719 413.693 294.793C407.826 277.868 381.683 325.508 381.683 325.508C381.683 325.508 403.026 264.718 398.729 254.066C394.431 243.414 380.086 291.042 380.086 291.042Z" fill="#5259CD"/>
<path opacity="0.4" d="M380.086 291.042C380.086 291.042 366.746 247.793 359.282 249.675C351.818 251.557 372.066 318.607 372.066 318.607C372.066 318.607 348.597 259.073 332.592 259.073C316.588 259.073 338.46 324.88 358.726 346.812C358.726 346.812 326.725 300.439 308.056 310.464C289.387 320.489 345.394 367.489 345.394 367.489C345.394 367.489 312.855 353.701 316.588 364.353C320.32 375.005 330.457 376.887 330.457 376.887L293.675 379.396H421.695L392.888 375.633C392.888 375.633 422.763 355.583 414.76 347.44C406.758 339.297 389.156 356.837 389.156 356.837C389.156 356.837 419.56 311.719 413.693 294.793C407.826 277.868 381.683 325.508 381.683 325.508C381.683 325.508 403.026 264.718 398.729 254.066C394.431 243.414 380.086 291.042 380.086 291.042Z" fill="#005086"/>
<path d="M384.357 293.309C372.613 339.936 372.613 372.93 372.613 372.93C372.613 372.93 386.483 373.642 400.891 359.298" stroke="white" stroke-linecap="round" stroke-linejoin="round"/>
<path d="M378.49 318.426C376.068 304.484 372.856 290.812 368.881 277.53" stroke="white" stroke-linecap="round" stroke-linejoin="round"/>
<path d="M343.815 291.162L373.681 350.697C373.681 350.697 393.956 327.776 400.891 314.831" stroke="white" stroke-linecap="round" stroke-linejoin="round"/>
<path d="M373.152 365.053C373.152 365.053 341.68 344.966 328.878 333.53" stroke="white" stroke-linecap="round" stroke-linejoin="round"/>
<path d="M344.901 44H249.052C245.127 44 241.946 48.2777 241.946 53.5545V369.842C241.946 375.119 245.127 379.396 249.052 379.396H344.901C348.825 379.396 352.006 375.119 352.006 369.842V53.5545C352.006 48.2777 348.825 44 344.901 44Z" fill="white" stroke="#263238" stroke-linecap="round" stroke-linejoin="round"/>
<path d="M348.328 102.714C347.94 102.714 347.568 102.507 347.294 102.138C347.02 101.769 346.866 101.269 346.866 100.748V74.3885C346.895 73.8921 347.062 73.4285 347.334 73.0904C347.605 72.7523 347.962 72.5645 348.333 72.5645C348.703 72.5645 349.06 72.7523 349.331 73.0904C349.603 73.4285 349.77 73.8921 349.799 74.3885V100.7C349.803 100.962 349.767 101.224 349.695 101.468C349.623 101.712 349.515 101.934 349.378 102.122C349.241 102.31 349.078 102.459 348.897 102.56C348.717 102.662 348.524 102.714 348.328 102.714Z" fill="#5259CD"/>
<path d="M348.328 127.131C347.94 127.131 347.568 126.924 347.294 126.555C347.02 126.186 346.866 125.686 346.866 125.165V110.435C346.895 109.938 347.062 109.475 347.334 109.137C347.605 108.799 347.962 108.611 348.333 108.611C348.703 108.611 349.06 108.799 349.331 109.137C349.603 109.475 349.77 109.938 349.799 110.435V125.165C349.797 125.687 349.641 126.188 349.365 126.556C349.09 126.924 348.717 127.131 348.328 127.131V127.131Z" fill="#5259CD"/>
<path d="M336.603 44H240.753C236.829 44 233.648 48.2777 233.648 53.5545V369.842C233.648 375.119 236.829 379.396 240.753 379.396H336.603C340.527 379.396 343.708 375.119 343.708 369.842V53.5545C343.708 48.2777 340.527 44 336.603 44Z" fill="#5259CD" stroke="#263238" stroke-linecap="round" stroke-linejoin="round"/>
<path d="M336.378 66.3301H240.978V354.002H336.378V66.3301Z" fill="#989BD1"/>
<path d="M274.512 57.1372H299.91" stroke="white" stroke-width="3" stroke-linecap="round" stroke-linejoin="round"/>
<path d="M285.26 364.184C285.26 366.536 284.165 368.442 282.811 368.442C281.456 368.442 280.371 366.536 280.371 364.184C280.371 361.831 281.465 359.913 282.811 359.913C284.156 359.913 285.26 361.819 285.26 364.184Z" fill="white"/>
<path d="M288.678 137.916C297.814 137.916 305.221 126.304 305.221 111.979C305.221 97.6547 297.814 86.0422 288.678 86.0422C279.541 86.0422 272.135 97.6547 272.135 111.979C272.135 126.304 279.541 137.916 288.678 137.916Z" fill="white"/>
<path d="M288.678 111.654C292.146 111.654 294.958 107.241 294.958 101.797C294.958 96.3541 292.146 91.9414 288.678 91.9414C285.21 91.9414 282.398 96.3541 282.398 101.797C282.398 107.241 285.21 111.654 288.678 111.654Z" fill="#5259CD"/>
<path d="M288.678 114.271C282.398 114.271 277.257 120.749 277.257 128.748C277.262 129.492 277.313 130.235 277.41 130.967C278.803 133.154 280.531 134.909 282.476 136.112C284.421 137.315 286.537 137.938 288.678 137.938C290.819 137.938 292.934 137.315 294.879 136.112C296.824 134.909 298.553 133.154 299.946 130.967C300.035 130.233 300.083 129.491 300.089 128.748C300.089 120.749 294.976 114.271 288.678 114.271Z" fill="#5259CD"/>
<path d="M308.792 224.956H268.564C267.5 224.9 266.495 224.277 265.772 223.225C265.049 222.173 264.665 220.778 264.707 219.347V185.954C264.707 166.712 275.472 151.054 288.678 151.054C301.884 151.054 312.64 166.737 312.64 185.954V219.322C312.663 220.032 312.582 220.741 312.401 221.409C312.219 222.076 311.942 222.689 311.585 223.213C311.227 223.736 310.797 224.159 310.317 224.458C309.838 224.758 309.32 224.927 308.792 224.956V224.956ZM272.413 213.737H304.934V185.99C304.934 172.937 297.64 162.309 288.678 162.309C279.716 162.309 272.413 172.937 272.413 185.99V213.737Z" fill="#5259CD"/>
<path d="M316.606 202.168H260.75V273.223H316.606V202.168Z" fill="#5259CD"/>
<path d="M296.131 250.913L291.987 237.51C292.903 236.579 293.644 235.371 294.151 233.984C294.657 232.597 294.915 231.069 294.902 229.524C294.902 224.18 291.933 219.873 288.264 219.873C284.594 219.873 281.634 224.192 281.634 229.524C281.62 231.068 281.876 232.595 282.38 233.983C282.885 235.37 283.625 236.578 284.541 237.51L280.405 250.913H296.131Z" fill="white" stroke="#5259CD" stroke-linecap="round" stroke-linejoin="round"/>
<path d="M271.659 337.077C271.745 337.161 271.849 337.208 271.955 337.209C272.032 337.209 272.107 337.184 272.174 337.135C272.241 337.087 272.299 337.017 272.341 336.932L336.378 219.805V217.585L271.588 336.16C271.548 336.226 271.518 336.303 271.499 336.385C271.481 336.467 271.475 336.553 271.482 336.638C271.489 336.723 271.508 336.806 271.538 336.881C271.569 336.956 271.61 337.023 271.659 337.077V337.077Z" fill="white"/>
<path d="M323.495 108.529C323.457 108.598 323.43 108.677 323.415 108.761C323.399 108.845 323.397 108.932 323.407 109.018C323.417 109.103 323.439 109.185 323.473 109.258C323.507 109.332 323.551 109.395 323.603 109.446C323.708 109.546 323.839 109.587 323.966 109.56C324.093 109.533 324.208 109.44 324.285 109.301L336.378 87.1881V85.0166L323.495 108.529Z" fill="white"/>
<path d="M240.978 261.702L320.033 117.142C320.109 117.002 320.14 116.826 320.12 116.654C320.1 116.482 320.03 116.328 319.925 116.226C319.82 116.123 319.69 116.081 319.562 116.108C319.434 116.135 319.319 116.23 319.243 116.37L241.013 259.483L240.978 261.702Z" fill="white"/>
<path d="M264.231 351.336C264.307 351.334 264.382 351.31 264.451 351.264C264.519 351.218 264.579 351.152 264.626 351.071L269.111 342.916C269.15 342.846 269.177 342.767 269.192 342.683C269.208 342.599 269.21 342.512 269.2 342.427C269.19 342.342 269.168 342.26 269.134 342.186C269.1 342.113 269.056 342.049 269.004 341.999C268.899 341.898 268.768 341.857 268.641 341.884C268.513 341.911 268.399 342.004 268.322 342.144L263.836 350.287C263.798 350.355 263.77 350.434 263.754 350.517C263.738 350.6 263.734 350.687 263.743 350.773C263.752 350.858 263.774 350.94 263.807 351.014C263.84 351.088 263.883 351.152 263.935 351.203C264.019 351.293 264.124 351.34 264.231 351.336V351.336Z" fill="white"/>
<path d="M336.378 243.257L283.806 339.417C283.753 339.514 283.721 339.63 283.714 339.751C283.706 339.871 283.724 339.992 283.765 340.1C283.806 340.207 283.869 340.298 283.946 340.36C284.023 340.423 284.111 340.456 284.201 340.454C284.278 340.456 284.354 340.433 284.423 340.387C284.492 340.341 284.551 340.273 284.596 340.189L336.378 245.464V243.257Z" fill="white"/>
<path d="M151.74 108.107C152.63 105.456 153.059 102.569 152.996 99.6622C152.996 94.2697 148.143 91.1452 142.437 90.2887C136.731 89.4321 134.201 92.5566 135.044 94.5472C135.921 96.1888 136.991 97.6272 138.211 98.8057C138.211 98.8057 132.506 94.5472 128.702 97.9612C124.898 101.375 130.397 99.9517 129.339 103.354C128.28 106.756 122.368 105.344 120.888 114.428C119.408 123.512 123.633 132.608 119.829 136.589C116.025 140.57 104.578 135.166 101.241 145.106C97.9033 155.047 102.64 159.462 94.6198 165.711C86.5995 171.96 80.7502 178.064 83.0738 193.398C85.3973 208.731 93.005 214.099 108.005 208.682C123.005 203.266 121.946 191.069 126.845 178.523C131.743 165.977 139.315 168.582 141.638 161.477C143.962 154.371 141.001 145.854 141.217 139.316C141.432 132.777 146.286 131.366 148.187 123.633C150.089 115.9 151.74 108.107 151.74 108.107Z" fill="#5259CD" stroke="#263238" stroke-linecap="round" stroke-linejoin="round"/>
<path d="M84.8232 193.108C84.4298 194.176 84.23 195.354 84.2401 196.546" stroke="white" stroke-width="0.5" stroke-linecap="round" stroke-linejoin="round"/>
<path d="M143.63 102.473C143.63 102.473 140.992 98.3716 146.07 100.278C152.467 102.69 144.958 112.643 142.069 114.646C136.274 118.639 128.612 117.36 124.126 124.622C120.053 131.185 125.553 138.025 123.113 143.225C120.672 148.424 110.903 145.408 107.655 151.669C104.407 157.93 113.549 171.369 104.192 178.752C97.4278 184.097 90.0175 186.147 86.438 190.382" stroke="white" stroke-width="0.5" stroke-linecap="round" stroke-linejoin="round"/>
<path d="M128.46 126.746C127.905 128.49 127.737 130.413 127.975 132.283C128.783 136.927 133.466 145.686 129.195 150.608C124.925 155.53 117.595 155.252 116.384 161.019C115.173 166.785 117.604 182.625 113.54 189.972C109.476 197.319 101.537 196.812 97.2663 201.734C92.996 206.656 93.6061 209.394 93.6061 209.394" stroke="white" stroke-width="0.5" stroke-linecap="round" stroke-linejoin="round"/>
<path d="M130.613 121.341C130.243 122.044 129.901 122.772 129.59 123.524" stroke="white" stroke-width="0.5" stroke-linecap="round" stroke-linejoin="round"/>
<path d="M154.476 192.674L155.508 203.531C155.508 203.531 160.891 210.769 164.847 215.245C168.803 219.72 178.941 229.191 178.941 229.191L173.8 231.157C173.8 231.157 156.997 217.766 153.678 216.68C150.358 215.595 147.873 209.153 146.842 207.198C145.81 205.244 151.776 190.719 154.476 192.674Z" fill="white" stroke="#263238" stroke-linecap="round" stroke-linejoin="round"/>
<path d="M164.739 369.323C164.739 369.323 169.817 375.09 171.916 377.02C174.016 378.95 176.465 379.819 176.079 380.868C175.693 381.918 174.644 382.967 169.701 382.074C164.757 381.182 163.331 378.926 162.416 378.576C161.501 378.226 159.294 379.107 157.607 377.707C155.921 376.308 158.594 367.972 158.594 367.972C159.335 369.137 160.358 369.911 161.483 370.158C162.608 370.406 163.761 370.11 164.739 369.323Z" fill="#005086" stroke="#263238" stroke-linecap="round" stroke-linejoin="round"/>
<path d="M176.061 380.868C176.065 380.812 176.065 380.755 176.061 380.699C173.207 381.052 170.329 380.688 167.574 379.626C164.381 378.612 163.439 376.332 160.397 376.332C159.204 376.347 158.017 376.086 156.89 375.56C156.857 375.963 156.898 376.37 157.009 376.746C157.12 377.122 157.298 377.457 157.527 377.719C159.213 379.119 161.429 378.238 162.335 378.588C163.241 378.938 164.677 381.218 169.62 382.087C174.563 382.955 175.667 381.918 176.061 380.868Z" fill="white" stroke="#263238" stroke-linecap="round" stroke-linejoin="round"/>
<path d="M138.158 136.167C138.158 136.167 139.135 145.022 137.879 148.593C136.623 152.164 132.694 152.55 129.339 153.31C125.983 154.07 118.277 158.015 119.111 168.184C119.946 178.354 129.617 200.383 129.617 206.595C129.617 212.808 126.674 216.005 123.454 228.057C120.233 240.109 120.655 262.523 121.659 277.024C122.396 286.594 123.802 296.049 125.858 305.265C125.858 305.265 117.784 322.781 114.195 330.309C110.607 337.837 98.0469 370.614 98.0469 370.614C98.0469 370.614 98.0469 371.736 100.003 372.496C101.379 372.946 102.802 373.073 104.21 372.87C104.21 372.87 128.289 333.892 132.775 327.305C137.26 320.718 141.459 309.21 142.015 303.95C142.571 298.69 141.881 266.48 141.881 266.48C141.881 266.48 146.914 282.669 150.852 290.957C153.241 296.029 155.433 301.264 157.419 306.64C156.867 313.456 156.867 320.332 157.419 327.148C158.397 336.558 157.571 366.79 158.549 369.239C159.527 371.688 163.322 370.662 164.165 369.54C165.009 368.419 165.403 361.096 165.403 361.096C165.403 361.096 167.081 338.175 168.095 327.39C169.109 316.605 170.786 307.424 170.203 304.975C169.62 302.526 166.139 276.348 163.475 263.959C160.81 251.569 152.709 228.37 150.915 222.351C149.12 216.331 148.107 210.854 148.394 208.972C148.681 207.09 154.135 195.798 155.571 192.782C156.389 190.738 156.84 188.464 156.889 186.143C156.937 183.823 156.581 181.519 155.849 179.416C154.171 174.518 155.849 167.919 155.571 163.974C155.293 160.029 150.951 158.316 148.708 156.82C146.465 155.324 145.622 151.922 145.622 149.1C145.759 146.722 146.186 144.39 146.887 142.199C146.887 142.199 139.979 136.167 138.158 136.167Z" fill="white" stroke="#263238" stroke-linecap="round" stroke-linejoin="round"/>
<path d="M155.131 176.448C154.393 173.927 153.779 171.344 153.292 168.715" stroke="#263238" stroke-linecap="round" stroke-linejoin="round"/>
<path d="M136.946 197.415C136.946 197.415 139.476 198.163 144.545 194.761" stroke="#263238" stroke-linecap="round" stroke-linejoin="round"/>
<path d="M163.501 263.838C160.963 251.967 153.436 230.288 151.184 223.135C140.418 228.563 130.353 223.931 125.625 220.939C124.943 222.942 124.207 225.258 123.454 228.057C120.233 240.12 120.655 262.523 121.659 277.023C122.396 286.594 123.802 296.049 125.858 305.265C125.858 305.265 117.784 322.781 114.195 330.309C110.607 337.837 98.0469 370.614 98.0469 370.614C98.0469 370.614 98.0469 371.736 100.003 372.496C101.379 372.946 102.802 373.072 104.21 372.87C104.21 372.87 128.289 333.892 132.775 327.305C137.26 320.718 141.459 309.209 142.015 303.95C142.571 298.69 141.881 266.48 141.881 266.48C141.881 266.48 146.914 282.669 150.852 290.957C153.241 296.029 155.433 301.263 157.419 306.64C156.867 313.456 156.867 320.332 157.419 327.148C158.397 336.558 157.571 366.79 158.549 369.239C159.527 371.688 163.322 370.662 164.165 369.54C165.009 368.418 165.403 361.096 165.403 361.096C165.403 361.096 167.081 338.174 168.095 327.389C169.109 316.604 170.786 307.424 170.203 304.975C169.62 302.526 166.166 276.263 163.501 263.838Z" fill="#5259CD" stroke="#989BD1" stroke-linecap="round" stroke-linejoin="round"/>
<path d="M218.352 251.883V249.422H219.886V230.095H218.352H203.208H201.674V249.422H203.208V251.883H201.665V256.37H207.577V254.862H213.983V256.37H219.895V251.883H218.352Z" fill="#5259CD" stroke="#263238" stroke-linecap="round" stroke-linejoin="round"/>
<path d="M120.475 224.317H226.121C226.545 224.317 226.951 224.543 227.25 224.946C227.55 225.348 227.718 225.895 227.718 226.464V230.783C227.718 231.352 227.55 231.899 227.25 232.301C226.951 232.704 226.545 232.93 226.121 232.93H120.475V224.305V224.317Z" fill="white" stroke="#263238" stroke-linecap="round" stroke-linejoin="round"/>
<path d="M196.301 223.026H189.868C189.378 223.026 188.98 223.561 188.98 224.22V233.039C188.98 233.699 189.378 234.233 189.868 234.233H196.301C196.791 234.233 197.189 233.699 197.189 233.039V224.22C197.189 223.561 196.791 223.026 196.301 223.026Z" fill="#5259CD" stroke="#263238" stroke-linecap="round" stroke-linejoin="round"/>
<path d="M123.78 232.257C125.269 220.034 119.107 208.503 110.017 206.501C100.927 204.5 92.3521 212.786 90.8636 225.009C89.3751 237.232 95.5372 248.763 104.627 250.765C113.717 252.766 122.292 244.48 123.78 232.257Z" fill="#5259CD" stroke="#263238" stroke-linecap="round" stroke-linejoin="round"/>
<path d="M110.75 228.575C111.717 227.953 112.538 226.984 113.122 225.775C113.706 224.566 114.03 223.164 114.061 221.723C114.061 217.32 111.046 213.749 107.323 213.749C103.6 213.749 100.586 217.368 100.586 221.723C100.614 223.165 100.938 224.568 101.522 225.777C102.106 226.987 102.928 227.955 103.896 228.575C102.929 229.2 102.108 230.171 101.524 231.382C100.94 232.593 100.615 233.997 100.586 235.44C100.586 239.843 103.6 243.414 107.323 243.414C111.046 243.414 114.061 239.795 114.061 235.44C114.029 233.998 113.704 232.595 113.12 231.384C112.536 230.174 111.716 229.202 110.75 228.575V228.575Z" fill="#EDEEFF"/>
<path d="M175.649 233.124C175.649 233.124 180.87 236.091 182.485 236.091C184.1 236.091 185.966 233.908 186.89 231.266C187.814 228.624 187.787 227.369 187.24 227.996L186.082 229.203C186.082 229.203 186.979 226.561 185.966 226.875C185.264 227.189 184.681 227.86 184.342 228.744C184.342 228.744 184.225 226.404 183.301 227.538C182.69 228.283 182.145 229.121 181.677 230.035C181.677 230.035 181.561 227.08 180.978 227.852C180.395 228.624 178.206 232.834 178.206 232.834L175.649 233.124Z" fill="white" stroke="#263238" stroke-linecap="round" stroke-linejoin="round"/>
<path d="M181.677 230.011C181.677 230.011 181.327 233.751 179.596 234.378Z" fill="white"/>
<path d="M181.677 230.011C181.677 230.011 181.327 233.751 179.596 234.378" stroke="#263238" stroke-linecap="round" stroke-linejoin="round"/>
<path d="M184.342 228.768C184.342 228.768 183.445 234.68 182.027 235.621Z" fill="white"/>
<path d="M184.342 228.768C184.342 228.768 183.445 234.68 182.027 235.621" stroke="#263238" stroke-linecap="round" stroke-linejoin="round"/>
<path d="M186.082 229.227C185.62 231.384 184.997 233.474 184.225 235.464Z" fill="white"/>
<path d="M186.082 229.227C185.62 231.384 184.997 233.474 184.225 235.464" stroke="#263238" stroke-linecap="round" stroke-linejoin="round"/>
<path d="M148.376 156.458C147.472 155.638 146.74 154.52 146.25 153.21C145.76 151.9 145.528 150.444 145.577 148.979C145.738 146.639 146.18 144.349 146.887 142.199C146.887 142.199 140.024 136.167 138.202 136.167C138.202 136.167 139.18 145.022 137.924 148.593C137.513 149.704 136.841 150.602 136.013 151.15C137.672 157.155 139.92 162.835 142.697 168.04C145.218 172.298 146.447 163.323 148.376 156.458Z" fill="white" stroke="#263238" stroke-linecap="round" stroke-linejoin="round"/>
<path d="M127.195 154.528C125.483 154.921 123.862 155.844 122.461 157.224C121.06 158.604 119.916 160.402 119.12 162.478C116.357 169.644 104.282 202.168 105.314 204.11C111.181 215.209 132.524 223.195 134.695 226.115C136.865 229.167 139.247 231.934 141.809 234.378C143.98 236.236 148.313 235.44 149.102 234.909C149.892 234.378 150.484 231.99 149.102 231.99C148.575 231.999 148.06 231.765 147.646 231.325C147.231 230.886 146.941 230.269 146.824 229.577C146.626 228.515 148.995 230.638 150.179 229.842C151.363 229.046 147.532 226.139 146.348 224.812C145.164 223.485 144.177 221.639 142.598 221.639C141.019 221.639 138.05 221.639 138.05 221.639C138.05 221.639 130.783 214.558 126.387 209.286C122.967 205.135 119.236 201.472 115.254 198.356L128.576 168.884" fill="white"/>
<path d="M127.195 154.528C125.483 154.921 123.862 155.844 122.461 157.224C121.06 158.604 119.916 160.402 119.12 162.478C116.357 169.644 104.282 202.168 105.314 204.11C111.181 215.209 132.524 223.195 134.695 226.115C136.865 229.167 139.247 231.934 141.809 234.378C143.98 236.236 148.313 235.44 149.102 234.909C149.892 234.378 150.484 231.99 149.102 231.99C148.575 231.999 148.06 231.765 147.646 231.325C147.231 230.886 146.941 230.269 146.824 229.577C146.626 228.515 148.995 230.638 150.179 229.842C151.363 229.046 147.532 226.139 146.348 224.812C145.164 223.485 144.177 221.639 142.598 221.639C141.019 221.639 138.05 221.639 138.05 221.639C138.05 221.639 130.783 214.558 126.387 209.286C122.967 205.135 119.236 201.472 115.254 198.356L128.576 168.884" stroke="#263238" stroke-linecap="round" stroke-linejoin="round"/>
<path d="M146.339 224.823C145.155 223.496 144.168 221.651 142.589 221.651C141.01 221.651 138.041 221.651 138.041 221.651C138.041 221.651 130.774 214.569 126.378 209.297C122.958 205.147 119.227 201.484 115.245 198.368L120.574 186.569C117.849 184.352 114.733 183.156 111.549 183.107C107.96 193.168 104.739 203.109 105.269 204.158C111.136 215.257 132.479 223.243 134.65 226.162C136.82 229.215 139.202 231.982 141.764 234.426C143.935 236.284 148.268 235.488 149.058 234.957C149.847 234.426 150.439 232.037 149.058 232.037C148.53 232.047 148.016 231.812 147.601 231.373C147.186 230.934 146.896 230.317 146.779 229.625C146.582 228.563 148.95 230.686 150.134 229.89C151.318 229.094 147.524 226.162 146.339 224.823Z" fill="white" stroke="#263238" stroke-linecap="round" stroke-linejoin="round"/>
<path d="M153.561 123.174C152.861 121.292 152.861 119.784 153.14 117.143C153.418 114.501 151.74 108.095 151.74 108.095C150.027 112.076 145.074 114.44 142.885 115.333C140.472 116.322 143.998 118.566 143.621 121.57C143.244 124.574 138.427 126.311 138.427 126.311C138.427 126.311 137.018 122.414 135.062 122.414C133.107 122.414 131.716 128.446 132.829 131.643C133.118 132.529 133.623 133.256 134.261 133.705C134.898 134.154 135.63 134.299 136.336 134.116C136.336 134.116 136.202 139.774 138.857 141.463C141.691 143.281 144.647 144.731 147.685 145.794C149.363 146.168 151.04 145.046 151.74 141.656C152.287 138.24 152.662 134.778 152.861 131.293C154.036 130.26 155.117 129.045 156.082 127.674C156.755 126.371 154.261 125.056 153.561 123.174Z" fill="white" stroke="#263238" stroke-linecap="round" stroke-linejoin="round"/>
<path d="M150.834 123.259C150.834 124.296 150.583 125.129 150.278 125.129C149.973 125.129 149.721 124.296 149.721 123.259C149.721 122.221 149.973 121.389 150.278 121.389C150.583 121.389 150.834 122.221 150.834 123.259Z" fill="#263238"/>
<path d="M148.421 120.147C148.421 120.147 149.91 117.891 151.022 118.397" stroke="#263238" stroke-linecap="round" stroke-linejoin="round"/>
<path d="M151.022 135.612C150.35 135.885 149.636 135.917 148.952 135.705C148.268 135.494 147.636 135.046 147.12 134.406" stroke="#263238" stroke-linecap="round" stroke-linejoin="round"/>
<path d="M98.1096 370.614C98.1096 370.614 94.7633 379.638 94.8889 380.868C95.0145 382.099 101.653 388.565 104.757 390.833C107.861 393.101 113.477 393.463 113.083 390.314C112.688 387.165 107.359 385.066 106.058 380.337C105.365 377.891 104.767 375.399 104.264 372.87C102.095 372.913 99.9619 372.131 98.1096 370.614V370.614Z" fill="#005086" stroke="#263238" stroke-linecap="round" stroke-linejoin="round"/>
<path d="M113.101 390.362C110.712 390.793 108.282 390.33 106.076 389.023C101.258 386.213 96.5934 380.47 95.3105 378.842C95.0827 379.492 94.9371 380.189 94.8799 380.904C95.0145 382.111 101.644 388.601 104.748 390.869C107.852 393.137 113.424 393.451 113.101 390.362Z" fill="white" stroke="#263238" stroke-linecap="round" stroke-linejoin="round"/>
</svg>
