<svg width="509" height="442" viewBox="0 0 509 442" fill="none" xmlns="http://www.w3.org/2000/svg">
<g clip-path="url(#clip0_669_848)">
<path d="M253.533 429.668C385.999 429.668 493.384 375.83 493.384 309.418C493.384 243.005 385.999 189.167 253.533 189.167C121.067 189.167 13.6819 243.005 13.6819 309.418C13.6819 375.83 121.067 429.668 253.533 429.668Z" fill="#989BD1"/>
<path d="M391.278 351.142C375.55 343.257 375.55 330.475 391.278 322.589C407.007 314.704 432.508 314.704 448.236 322.589C463.964 330.475 463.964 343.257 448.236 351.142C432.508 359.028 407.007 359.028 391.278 351.142Z" fill="#5259CD"/>
<path d="M71.3821 352.239L30.0106 331.5C27.6794 330.333 27.6794 328.433 30.0106 327.266L270.656 206.617C271.964 206.042 273.409 205.742 274.875 205.742C276.341 205.742 277.787 206.042 279.095 206.617L320.477 227.356C322.808 228.523 322.808 230.423 320.477 231.59L79.8315 352.239C78.5219 352.814 77.0747 353.114 75.6068 353.114C74.139 353.114 72.6918 352.814 71.3821 352.239Z" fill="white"/>
<path d="M220.092 315.27L255.661 297.413C259.325 295.574 261.158 293.17 261.158 290.756C261.158 288.343 261.158 286.46 261.158 286.46L224.265 268.391C223.235 267.812 222.377 267.03 221.761 266.108C221.145 265.187 220.789 264.151 220.723 263.087V224.996L158.625 256.165V294.239C158.696 295.302 159.054 296.336 159.669 297.257C160.285 298.179 161.14 298.962 162.167 299.543L193.563 315.243C200.872 318.947 212.762 318.947 220.092 315.27Z" fill="#5259CD"/>
<g opacity="0.6">
<path opacity="0.6" d="M220.092 315.27L255.661 297.413C259.325 295.574 261.158 293.17 261.158 290.756C261.158 288.343 261.158 286.46 261.158 286.46L224.265 268.391C223.235 267.812 222.377 267.03 221.761 266.108C221.145 265.187 220.789 264.151 220.723 263.087V224.996L158.625 256.165V294.239C158.696 295.302 159.054 296.336 159.669 297.257C160.285 298.179 161.14 298.962 162.167 299.543L193.563 315.243C200.872 318.947 212.762 318.947 220.092 315.27Z" fill="black"/>
</g>
<path opacity="0.3" d="M173.518 300.984V305.263L162.137 299.561C161.11 298.98 160.255 298.197 159.641 297.275C159.027 296.354 158.672 295.32 158.604 294.257V256.166L170.433 250.234C170.678 252.842 170.942 255.538 171.197 258.19L162.88 262.345V292.091C162.946 293.156 163.301 294.191 163.917 295.113C164.533 296.035 165.391 296.817 166.422 297.395L173.518 300.984Z" fill="black"/>
<path d="M162.88 292.1C162.95 293.164 163.307 294.198 163.922 295.119C164.538 296.041 165.394 296.823 166.423 297.404L193.522 310.965C200.851 314.633 212.742 314.642 220.081 310.965L255.711 293.108C263.051 289.43 263.051 283.472 255.711 279.795L228.592 266.234C227.566 265.652 226.712 264.869 226.098 263.947C225.485 263.026 225.129 261.993 225.059 260.93V231.175L162.961 262.345L162.88 292.1Z" fill="#5259CD"/>
<path opacity="0.3" d="M162.88 292.1C162.95 293.164 163.307 294.198 163.922 295.119C164.538 296.041 165.394 296.823 166.423 297.404L193.522 310.965C200.851 314.633 212.742 314.642 220.081 310.965L255.711 293.108C263.051 289.43 263.051 283.472 255.711 279.795L228.592 266.234C227.566 265.652 226.712 264.869 226.098 263.947C225.485 263.026 225.129 261.993 225.059 260.93V231.175L162.961 262.345L162.88 292.1Z" fill="white"/>
<path opacity="0.5" d="M235.769 269.867L228.551 266.252C227.525 265.67 226.671 264.886 226.058 263.965C225.444 263.044 225.088 262.01 225.019 260.948V231.175L162.921 262.345V292.1C162.991 293.164 163.348 294.198 163.963 295.119C164.579 296.041 165.435 296.823 166.463 297.404L173.589 300.94L235.769 269.867Z" fill="#1A22B0"/>
<path d="M261.168 286.469V290.765C261.168 293.179 259.325 295.574 255.671 297.422L220.041 315.27C216.141 317.077 211.786 318.016 207.366 318.001V313.723C211.786 313.737 216.141 312.799 220.041 310.991L255.671 293.126C259.325 291.296 261.168 288.882 261.168 286.469Z" fill="#5259CD"/>
<path opacity="0.5" d="M261.168 286.469V290.765C261.168 293.179 259.325 295.574 255.671 297.422L220.041 315.27C216.141 317.077 211.786 318.016 207.366 318.001V313.723C211.786 313.737 216.141 312.799 220.041 310.991L255.671 293.126C259.325 291.296 261.168 288.882 261.168 286.469Z" fill="black"/>
<path d="M63.1159 329.078C64.4584 329.641 65.9344 329.922 67.425 329.899C68.9156 329.876 70.3791 329.549 71.6977 328.945L311.946 208.5C313.234 207.771 314.306 206.788 315.075 205.631C315.845 204.475 316.29 203.177 316.374 201.844V33.0705C316.328 31.7731 315.93 30.5035 315.211 29.3652C314.493 28.2269 313.475 27.252 312.241 26.52C310.9 25.9564 309.425 25.6754 307.936 25.7C306.446 25.7245 304.984 26.054 303.669 26.6615L63.4213 147.142C62.1376 147.876 61.0719 148.863 60.3112 150.023C59.5505 151.183 59.1162 152.483 59.0439 153.816V322.563C59.0894 323.85 59.4814 325.109 60.1885 326.24C60.8956 327.372 61.8983 328.344 63.1159 329.078Z" fill="#5259CD"/>
<path d="M71.7283 328.936L311.976 208.491C313.266 207.763 314.34 206.781 315.109 205.624C315.879 204.467 316.323 203.169 316.405 201.835V33.0705C316.405 30.6218 314.42 29.6229 311.976 30.8516L71.7283 151.297C70.4396 152.026 69.3669 153.008 68.5975 154.165C67.8281 155.322 67.3836 156.619 67.3 157.953V326.718C67.3 329.166 69.2851 330.165 71.7283 328.936Z" fill="white"/>
<path d="M71.0767 333.321C69.8169 333.799 68.4528 334.033 67.0785 334.009C65.7041 333.984 64.3522 333.702 63.1159 333.18C61.8955 332.444 60.8913 331.469 60.184 330.334C59.4767 329.2 59.0862 327.937 59.0439 326.647V311.283L67.3406 315.455V330.819C67.2897 333.056 68.9287 334.072 71.0767 333.321Z" fill="#5259CD"/>
<path opacity="0.5" d="M71.0767 333.321C69.8169 333.799 68.4528 334.033 67.0785 334.009C65.7041 333.984 64.3522 333.702 63.1159 333.18C61.8955 332.444 60.8913 331.469 60.184 330.334C59.4767 329.2 59.0862 327.937 59.0439 326.647V311.283L67.3406 315.455V330.819C67.2897 333.056 68.9287 334.072 71.0767 333.321Z" fill="#5259CD"/>
<path d="M67.2898 315.455V330.819C67.2898 333.268 69.3258 334.258 71.7181 333.038L311.966 212.593C313.249 211.867 314.318 210.89 315.087 209.74C315.856 208.59 316.304 207.299 316.394 205.972V190.537L67.2898 315.455Z" fill="#5259CD"/>
<path opacity="0.3" d="M67.3 315.42V330.819C67.3 333.268 69.336 334.258 71.7283 333.038L311.976 212.593C313.257 211.866 314.324 210.888 315.091 209.738C315.859 208.589 316.305 207.299 316.394 205.972V190.537L67.3 315.42Z" fill="#5259CD"/>
<path d="M75.5967 296.14V160.349C75.6441 159.549 75.9085 158.77 76.3685 158.075C76.8285 157.381 77.4709 156.791 78.2435 156.353L305.4 42.432C306.866 41.6983 308.057 42.2905 308.057 43.758V179.62C308.008 180.421 307.741 181.2 307.28 181.894C306.818 182.588 306.174 183.178 305.4 183.616L78.2537 297.51C76.7877 298.244 75.5967 297.643 75.5967 296.14Z" fill="#5259CD"/>
<path d="M75.5967 296.14V160.349C75.6441 159.549 75.9085 158.77 76.3685 158.075C76.8285 157.381 77.4709 156.791 78.2435 156.353L305.4 42.432C306.866 41.6983 308.057 42.2905 308.057 43.758V179.62C308.008 180.421 307.741 181.2 307.28 181.894C306.818 182.588 306.174 183.178 305.4 183.616L78.2537 297.51C76.7877 298.244 75.5967 297.643 75.5967 296.14Z" fill="#989BD1"/>
<path d="M191.842 257.889C190.633 258.572 189.626 259.494 188.905 260.578C188.183 261.663 187.766 262.88 187.688 264.13C187.688 266.429 189.551 267.366 191.842 266.217C193.052 265.533 194.06 264.61 194.782 263.524C195.503 262.438 195.919 261.219 195.995 259.967C195.995 257.668 194.132 256.74 191.842 257.889Z" fill="#5259CD"/>
<path opacity="0.7" d="M68.603 154.152C67.814 155.304 67.363 156.606 67.2897 157.944V315.456L59.0439 311.283V153.816C59.0974 152.473 59.546 151.165 60.347 150.015L68.603 154.152Z" fill="#5259CD"/>
<path opacity="0.3" d="M316.354 32.4339C316.038 30.4537 314.195 29.7819 311.966 30.8515L71.718 151.297C70.4154 152.004 69.3403 152.986 68.5928 154.152L60.2859 149.988C61.0384 148.823 62.1167 147.841 63.4213 147.133L303.669 26.6967C304.986 26.0891 306.45 25.7597 307.941 25.7351C309.432 25.7106 310.909 25.9915 312.251 26.5553C313.38 27.223 314.33 28.0934 315.038 29.1076C315.746 30.1218 316.194 31.2561 316.354 32.4339Z" fill="white"/>
<path d="M329.313 53.2079C328.956 53.0524 328.557 52.9842 328.159 53.0107C327.761 53.0372 327.378 53.1573 327.053 53.3582L100.365 167.076C99.4703 167.59 98.7277 168.279 98.1971 169.089C97.6666 169.898 97.3629 170.804 97.3108 171.735V306.695C97.279 307.151 97.3832 307.606 97.6132 308.016C97.8433 308.426 98.1914 308.778 98.624 309.038C99.1228 309.276 101.79 310.62 102.584 310.991C102.865 311.115 103.179 311.173 103.494 311.157C103.808 311.142 104.113 311.054 104.376 310.903L331.013 197.185C331.907 196.671 332.65 195.982 333.181 195.172C333.711 194.363 334.015 193.457 334.067 192.526V56.8677C334.113 56.5249 334.047 56.1778 333.878 55.8655C333.709 55.5532 333.443 55.288 333.11 55.0997C332.601 54.8079 329.883 53.4996 329.313 53.2079Z" fill="white"/>
<path d="M104.325 168.985L331.023 55.3118C332.733 54.4278 334.077 55.1527 334.077 56.8677V192.526C334.025 193.457 333.721 194.363 333.191 195.172C332.66 195.982 331.917 196.671 331.023 197.185L104.325 310.903C102.614 311.787 101.271 310.364 101.271 308.649V173.644C101.324 172.714 101.629 171.808 102.159 170.999C102.689 170.19 103.431 169.5 104.325 168.985Z" fill="#EDEEFF"/>
<path d="M332.407 55.8244C333.008 55.8244 333.1 56.4786 333.1 56.8675V192.526C333.045 193.305 332.782 194.062 332.331 194.737C331.88 195.413 331.255 195.987 330.504 196.416L103.836 310.134C103.684 310.219 103.508 310.268 103.327 310.275C102.757 310.275 102.309 309.515 102.309 308.648V173.644C102.358 172.865 102.613 172.107 103.055 171.428C103.496 170.749 104.112 170.167 104.854 169.728L331.532 56.0719C331.794 55.925 332.096 55.8397 332.407 55.8244ZM332.407 54.9404C331.917 54.9586 331.44 55.0865 331.023 55.3117L104.325 168.985C103.431 169.5 102.689 170.19 102.159 170.999C101.629 171.808 101.324 172.714 101.271 173.644V308.648C101.271 310.01 102.146 311.159 103.307 311.159C103.666 311.153 104.017 311.065 104.325 310.903L331.013 197.185C331.907 196.671 332.65 195.982 333.18 195.172C333.711 194.363 334.015 193.456 334.067 192.526V56.8675C334.067 55.6476 333.374 54.9404 332.356 54.9404H332.407Z" fill="#5259CD"/>
<path d="M98.5627 309.038C98.8986 309.188 101.311 310.381 102.37 310.912C101.99 310.638 101.689 310.291 101.491 309.898C101.293 309.505 101.203 309.077 101.23 308.649V182.458L97.2597 180.442V306.695C97.2268 307.15 97.3294 307.604 97.5577 308.015C97.7859 308.425 98.132 308.777 98.5627 309.038Z" fill="#5259CD"/>
<path d="M334.118 56.8411C334.118 55.1438 332.723 54.4543 331.064 55.3117L104.325 168.985C103.431 169.5 102.689 170.19 102.159 170.999C101.629 171.808 101.324 172.714 101.271 173.644V182.484L334.118 65.6811V56.8411Z" fill="#5259CD"/>
<g opacity="0.4">
<path opacity="0.4" d="M330.545 55.3519L103.846 169.017C102.936 169.515 102.187 170.205 101.668 171.023L97.728 169.034C98.2463 168.245 98.9894 167.584 99.8862 167.116L326.574 53.3983C326.899 53.196 327.281 53.0743 327.679 53.0463C328.077 53.0183 328.477 53.0849 328.834 53.2392C329.384 53.5397 331.96 54.8039 332.621 55.1133C332.279 55.003 331.911 54.9672 331.549 55.0088C331.187 55.0504 330.842 55.1682 330.545 55.3519Z" fill="#005086"/>
</g>
<path opacity="0.15" d="M97.2598 180.451V171.69C97.3016 170.736 97.6278 169.807 98.2065 168.994L102.156 170.974C101.586 171.773 101.266 172.687 101.23 173.626V182.466L97.2598 180.451Z" fill="black"/>
<path d="M286.313 158.607L150.542 226.675C149.882 227.047 149.332 227.549 148.937 228.141C148.543 228.732 148.315 229.396 148.272 230.079V263.883C148.315 264.565 148.543 265.229 148.937 265.821C149.332 266.412 149.882 266.914 150.542 267.286L154.502 269.266C155.206 269.576 155.983 269.737 156.772 269.737C157.561 269.737 158.338 269.576 159.042 269.266L294.792 201.198C295.453 200.824 296.003 200.321 296.397 199.728C296.791 199.135 297.019 198.47 297.063 197.786V163.973C297.02 163.291 296.791 162.627 296.397 162.035C296.002 161.444 295.453 160.942 294.792 160.57L290.822 158.59C290.122 158.285 289.348 158.129 288.565 158.132C287.782 158.135 287.01 158.298 286.313 158.607Z" fill="white"/>
<path opacity="0.5" d="M296.747 163.764C296.584 162.747 295.637 162.376 294.497 162.951L158.726 231.019C158.057 231.38 157.506 231.885 157.128 232.486L148.628 228.225C149.009 227.634 149.555 227.135 150.216 226.775L285.997 158.707C286.699 158.398 287.475 158.236 288.262 158.236C289.049 158.236 289.825 158.398 290.527 158.707L294.497 160.687C295.102 161.032 295.616 161.484 296.004 162.015C296.392 162.545 296.645 163.142 296.747 163.764Z" fill="#989BD1"/>
<path d="M158.655 269.434C157.991 269.662 157.278 269.765 156.564 269.738C155.85 269.71 155.151 269.553 154.512 269.275L150.542 267.295C149.883 266.922 149.334 266.42 148.94 265.828C148.545 265.237 148.316 264.574 148.272 263.892V230.087C148.302 229.397 148.533 228.725 148.944 228.134L157.444 232.395C157.031 232.979 156.799 233.646 156.772 234.331V268.144C156.772 269.266 157.586 269.788 158.655 269.434Z" fill="#5259CD"/>
<path d="M160.04 230.11L295.81 162.042C297.063 161.414 298.081 161.918 298.081 163.173V196.986C298.037 197.67 297.809 198.335 297.415 198.928C297.021 199.521 296.471 200.025 295.81 200.399L160.06 268.467C158.808 269.094 157.79 268.581 157.79 267.326V233.522C157.831 232.84 158.056 232.176 158.447 231.583C158.837 230.99 159.383 230.486 160.04 230.11Z" fill="#5259CD"/>
<path d="M250.316 176.658L150.552 226.684C149.891 227.044 149.345 227.543 148.964 228.134L157.464 232.395C157.842 231.794 158.393 231.289 159.062 230.927L258.826 180.91L250.316 176.658Z" fill="#989BD1"/>
<path d="M258.806 180.911L159.042 230.927C158.382 231.301 157.832 231.805 157.438 232.398C157.043 232.991 156.815 233.656 156.772 234.34V268.135C156.772 269.39 157.79 269.903 159.042 269.275L258.806 219.259V180.911Z" fill="white"/>
<path d="M182.049 226.808L233.529 201.004C235.657 199.934 237.387 200.695 237.387 202.701C237.292 203.828 236.892 204.92 236.22 205.888C235.548 206.855 234.623 207.672 233.519 208.27L182.049 234.083C179.921 235.153 178.18 234.393 178.18 232.386C178.276 231.258 178.677 230.165 179.349 229.196C180.021 228.227 180.946 227.409 182.049 226.808Z" fill="#5259CD"/>
<path d="M192.595 235.356C192.605 235.347 192.617 235.339 192.63 235.334C192.643 235.329 192.657 235.326 192.672 235.326C192.686 235.326 192.701 235.329 192.714 235.334C192.727 235.339 192.739 235.347 192.748 235.356C192.794 235.416 192.815 235.488 192.809 235.559V240.589C192.81 241.075 192.762 241.56 192.667 242.039C192.583 242.477 192.439 242.904 192.239 243.312C192.057 243.686 191.817 244.037 191.527 244.355C191.24 244.65 190.895 244.899 190.509 245.089C190.206 245.26 189.852 245.352 189.491 245.354C189.352 245.345 189.218 245.311 189.095 245.254C188.973 245.198 188.865 245.121 188.778 245.027C188.555 244.767 188.408 244.464 188.35 244.143C188.253 243.715 188.209 243.28 188.218 242.844V237.805C188.218 237.717 188.239 237.629 188.279 237.548C188.304 237.476 188.358 237.413 188.432 237.372L189.073 237.045C189.094 237.028 189.121 237.018 189.15 237.018C189.178 237.018 189.205 237.028 189.226 237.045C189.273 237.104 189.295 237.176 189.287 237.248V242.216C189.279 242.489 189.31 242.762 189.379 243.029C189.407 243.2 189.492 243.36 189.623 243.489C189.669 243.536 189.727 243.574 189.792 243.598C189.857 243.623 189.928 243.634 190 243.63C190.174 243.62 190.342 243.572 190.488 243.489C190.669 243.395 190.834 243.279 190.977 243.144C191.136 242.985 191.266 242.806 191.364 242.614C191.478 242.387 191.564 242.15 191.618 241.907C191.678 241.615 191.705 241.319 191.7 241.023V236.046C191.703 235.957 191.727 235.87 191.771 235.789C191.796 235.716 191.85 235.654 191.924 235.612L192.595 235.356Z" fill="#5259CD"/>
<path d="M196.586 240.112C196.591 240.047 196.573 239.982 196.535 239.926C196.511 239.903 196.481 239.886 196.447 239.875C196.413 239.864 196.377 239.861 196.342 239.864C196.217 239.85 196.09 239.85 195.965 239.864L195.375 239.962C195.184 240.003 194.985 240.003 194.794 239.962C194.645 239.92 194.516 239.836 194.428 239.723C194.328 239.58 194.262 239.42 194.234 239.255C194.135 238.781 194.135 238.296 194.234 237.822C194.311 237.551 194.42 237.287 194.56 237.036C194.7 236.785 194.87 236.547 195.069 236.328C195.262 236.12 195.496 235.943 195.761 235.807C195.975 235.694 196.215 235.621 196.464 235.595C196.644 235.579 196.826 235.613 196.983 235.692C197.132 235.771 197.25 235.888 197.319 236.028C197.401 236.193 197.446 236.37 197.451 236.549C197.462 236.638 197.44 236.728 197.39 236.806C197.365 236.879 197.311 236.941 197.237 236.983L196.627 237.292C196.599 237.306 196.567 237.313 196.535 237.313C196.503 237.313 196.471 237.306 196.443 237.292L196.311 237.204C196.258 237.168 196.195 237.146 196.128 237.142C195.997 237.154 195.871 237.194 195.761 237.257C195.602 237.34 195.46 237.448 195.344 237.575C195.221 237.714 195.156 237.886 195.161 238.061C195.146 238.128 195.146 238.197 195.161 238.264C195.18 238.289 195.206 238.31 195.236 238.326C195.266 238.341 195.299 238.35 195.334 238.353C195.445 238.369 195.559 238.369 195.67 238.353L196.24 238.264C196.718 238.185 197.044 238.264 197.258 238.494C197.482 238.822 197.586 239.201 197.553 239.582C197.55 239.844 197.509 240.106 197.431 240.36C197.35 240.635 197.234 240.902 197.085 241.155C196.935 241.417 196.747 241.661 196.525 241.88C196.314 242.095 196.063 242.277 195.782 242.419C195.558 242.544 195.303 242.619 195.039 242.64C194.847 242.646 194.659 242.6 194.499 242.508C194.342 242.414 194.221 242.282 194.153 242.128C194.071 241.96 194.029 241.779 194.031 241.597C194.021 241.505 194.042 241.413 194.092 241.332C194.117 241.259 194.171 241.196 194.245 241.155L194.855 240.846C194.937 240.846 194.998 240.802 195.039 240.846L195.171 240.969C195.198 240.996 195.231 241.017 195.268 241.032C195.304 241.048 195.344 241.056 195.385 241.058C195.528 241.059 195.668 241.018 195.782 240.943C195.966 240.852 196.131 240.736 196.27 240.598C196.34 240.525 196.398 240.445 196.443 240.36C196.515 240.289 196.565 240.204 196.586 240.112Z" fill="#5259CD"/>
<path d="M198.663 237.716C198.661 237.257 198.705 236.799 198.795 236.346C198.88 235.92 199.013 235.503 199.192 235.1C199.342 234.738 199.547 234.396 199.803 234.083C200.016 233.814 200.294 233.588 200.617 233.42C200.853 233.282 201.141 233.229 201.421 233.27C201.67 233.32 201.888 233.449 202.032 233.632C202.224 233.872 202.359 234.143 202.429 234.428C202.527 234.799 202.575 235.179 202.572 235.559V236.108C202.575 236.2 202.55 236.291 202.501 236.373C202.476 236.446 202.421 236.508 202.348 236.55L199.701 237.884C199.695 238.04 199.719 238.195 199.772 238.344C199.812 238.444 199.882 238.533 199.976 238.6C200.059 238.658 200.165 238.686 200.271 238.68C200.394 238.667 200.512 238.631 200.617 238.574C200.771 238.501 200.909 238.406 201.024 238.291C201.129 238.189 201.218 238.076 201.289 237.955C201.333 237.885 201.38 237.817 201.432 237.752C201.475 237.707 201.527 237.668 201.584 237.637L202.215 237.319C202.237 237.304 202.264 237.295 202.292 237.295C202.32 237.295 202.347 237.304 202.368 237.319C202.395 237.347 202.414 237.379 202.425 237.414C202.435 237.449 202.437 237.486 202.429 237.522C202.418 237.694 202.377 237.864 202.307 238.026C202.219 238.271 202.103 238.508 201.961 238.733C201.802 238.992 201.611 239.235 201.391 239.458C201.172 239.686 200.91 239.88 200.617 240.032C200.377 240.169 200.089 240.229 199.803 240.2C199.552 240.148 199.334 240.016 199.192 239.829C198.992 239.561 198.857 239.26 198.795 238.945C198.702 238.541 198.658 238.129 198.663 237.716ZM200.617 234.896C200.461 234.97 200.325 235.072 200.22 235.197C200.107 235.321 200.015 235.458 199.945 235.604C199.874 235.75 199.816 235.9 199.772 236.054C199.736 236.194 199.713 236.336 199.701 236.479L201.493 235.595C201.482 235.473 201.462 235.352 201.432 235.232C201.416 235.126 201.367 235.025 201.289 234.941C201.259 234.902 201.219 234.87 201.174 234.846C201.128 234.821 201.077 234.806 201.024 234.799C200.88 234.789 200.735 234.823 200.617 234.896Z" fill="#5259CD"/>
<path d="M205.768 232.43C205.46 232.583 205.217 232.819 205.076 233.102C204.918 233.475 204.845 233.871 204.862 234.269V237.46C204.864 237.551 204.843 237.642 204.801 237.725C204.776 237.798 204.722 237.861 204.648 237.902L204.048 238.203C204.038 238.212 204.026 238.22 204.013 238.225C204 238.23 203.986 238.233 203.971 238.233C203.957 238.233 203.943 238.23 203.93 238.225C203.916 238.22 203.905 238.212 203.895 238.203C203.849 238.142 203.828 238.071 203.834 237.999V232.28C203.835 232.189 203.855 232.099 203.895 232.015C203.924 231.943 203.977 231.881 204.048 231.838L204.648 231.537C204.669 231.52 204.696 231.511 204.725 231.511C204.753 231.511 204.78 231.52 204.801 231.537C204.848 231.593 204.87 231.663 204.862 231.732V232.015C204.983 231.777 205.134 231.552 205.31 231.343C205.471 231.149 205.68 230.989 205.921 230.874L206.287 230.689C206.306 230.672 206.332 230.663 206.359 230.663C206.385 230.663 206.411 230.672 206.43 230.689C206.479 230.748 206.504 230.819 206.501 230.892V231.696C206.499 231.788 206.475 231.879 206.43 231.962C206.404 232.032 206.354 232.093 206.287 232.138L205.768 232.43Z" fill="#5259CD"/>
<path d="M213.363 232.006C213.372 231.996 213.384 231.989 213.397 231.984C213.41 231.979 213.424 231.976 213.439 231.976C213.453 231.976 213.468 231.979 213.481 231.984C213.494 231.989 213.506 231.996 213.515 232.006C213.561 232.066 213.582 232.137 213.576 232.209V233.093C213.576 233.184 213.555 233.274 213.515 233.358C213.48 233.424 213.428 233.481 213.363 233.526L209.881 235.294C209.86 235.311 209.833 235.32 209.805 235.32C209.776 235.32 209.749 235.311 209.728 235.294C209.683 235.237 209.661 235.169 209.667 235.1V227.144C209.668 227.053 209.689 226.963 209.728 226.879C209.757 226.81 209.81 226.751 209.881 226.711L210.522 226.384C210.543 226.367 210.57 226.357 210.599 226.357C210.627 226.357 210.654 226.367 210.675 226.384C210.721 226.44 210.742 226.509 210.736 226.578V233.305L213.363 232.006Z" fill="#5259CD"/>
<path d="M216.488 225.464C216.717 225.326 216.994 225.261 217.272 225.278C217.51 225.295 217.732 225.39 217.893 225.544C218.082 225.733 218.221 225.956 218.3 226.198C218.409 226.511 218.47 226.835 218.483 227.161C218.483 227.232 218.483 227.329 218.483 227.444V228.125C218.483 228.231 218.483 228.328 218.483 228.408C218.463 228.792 218.402 229.174 218.3 229.548C218.206 229.913 218.069 230.268 217.893 230.609C217.731 230.926 217.522 231.223 217.272 231.493C217.057 231.737 216.791 231.944 216.488 232.103C216.252 232.236 215.974 232.301 215.694 232.289C215.459 232.271 215.24 232.176 215.083 232.023C214.888 231.841 214.748 231.619 214.676 231.378C214.567 231.065 214.505 230.741 214.492 230.414C214.492 230.344 214.492 230.255 214.492 230.14V229.46C214.492 229.345 214.492 229.248 214.492 229.177C214.504 228.79 214.562 228.405 214.665 228.028C214.765 227.66 214.904 227.302 215.083 226.958C215.245 226.643 215.45 226.346 215.694 226.074C215.909 225.827 216.179 225.62 216.488 225.464ZM217.445 227.745C217.444 227.549 217.406 227.355 217.333 227.17C217.295 227.058 217.216 226.958 217.109 226.887C217.022 226.837 216.917 226.815 216.813 226.825C216.697 226.844 216.586 226.884 216.488 226.94C216.368 226.997 216.258 227.069 216.162 227.153C216.045 227.258 215.946 227.377 215.867 227.506C215.764 227.667 215.689 227.84 215.643 228.019C215.576 228.245 215.535 228.476 215.521 228.708C215.521 228.779 215.521 228.859 215.521 228.956V229.584C215.521 229.681 215.521 229.76 215.521 229.813C215.53 230.009 215.571 230.202 215.643 230.388C215.68 230.501 215.759 230.6 215.867 230.671C215.909 230.697 215.957 230.715 216.008 230.724C216.059 230.733 216.111 230.733 216.162 230.724C216.277 230.707 216.388 230.671 216.488 230.618C216.606 230.559 216.715 230.487 216.813 230.406C216.927 230.298 217.026 230.179 217.109 230.052C217.207 229.89 217.282 229.717 217.333 229.539C217.399 229.314 217.437 229.083 217.445 228.85C217.451 228.767 217.451 228.685 217.445 228.602V227.983C217.451 227.904 217.451 227.824 217.445 227.745Z" fill="#5259CD"/>
<path d="M221.598 230.635C221.728 230.566 221.845 230.48 221.944 230.379C222.067 230.254 222.173 230.118 222.26 229.972C222.361 229.795 222.44 229.608 222.494 229.416C222.557 229.199 222.587 228.976 222.586 228.753V228.302C222.586 228.39 222.484 228.496 222.413 228.62C222.343 228.749 222.261 228.873 222.168 228.991C222.062 229.116 221.946 229.234 221.822 229.345C221.694 229.461 221.547 229.56 221.384 229.637C221.28 229.699 221.162 229.741 221.038 229.763C220.913 229.784 220.785 229.783 220.662 229.76C220.435 229.699 220.241 229.571 220.112 229.398C219.946 229.169 219.825 228.918 219.756 228.655C219.669 228.321 219.621 227.981 219.613 227.639C219.613 227.524 219.613 227.382 219.613 227.214C219.613 227.046 219.613 226.905 219.613 226.781C219.626 226.393 219.673 226.005 219.756 225.623C219.839 225.247 219.958 224.877 220.112 224.518C220.256 224.206 220.44 223.91 220.662 223.634C220.849 223.391 221.096 223.185 221.384 223.033C221.52 222.962 221.668 222.912 221.822 222.883C221.936 222.864 222.054 222.864 222.168 222.883C222.258 222.905 222.342 222.944 222.413 222.998C222.478 223.041 222.536 223.091 222.586 223.148V222.865C222.586 222.774 222.607 222.684 222.647 222.6C222.675 222.531 222.729 222.472 222.799 222.432L223.4 222.123C223.421 222.106 223.448 222.096 223.476 222.096C223.505 222.096 223.532 222.106 223.553 222.123C223.602 222.182 223.627 222.253 223.624 222.326V228.072C223.651 228.932 223.467 229.788 223.084 230.582C222.784 231.207 222.264 231.733 221.598 232.085C221.371 232.208 221.112 232.278 220.845 232.289C220.634 232.3 220.424 232.253 220.244 232.156C220.072 232.044 219.933 231.899 219.837 231.732C219.738 231.53 219.682 231.314 219.674 231.095C219.665 231.003 219.686 230.911 219.735 230.83C219.76 230.757 219.814 230.694 219.888 230.653L220.427 230.388C220.44 230.376 220.455 230.367 220.471 230.361C220.488 230.355 220.506 230.351 220.524 230.351C220.542 230.351 220.56 230.355 220.577 230.361C220.594 230.367 220.608 230.376 220.621 230.388C220.671 230.434 220.715 230.484 220.753 230.538C220.815 230.633 220.918 230.703 221.038 230.733C221.16 230.812 221.344 230.724 221.598 230.635ZM220.641 226.348C220.641 226.584 220.641 226.814 220.641 227.038C220.612 227.391 220.728 227.741 220.967 228.028C221.058 228.095 221.173 228.133 221.293 228.133C221.412 228.133 221.528 228.095 221.618 228.028C221.914 227.861 222.145 227.621 222.28 227.338C222.466 226.969 222.569 226.573 222.586 226.171C222.586 226.039 222.586 225.88 222.586 225.694C222.586 225.508 222.586 225.349 222.586 225.234C222.606 224.918 222.498 224.605 222.28 224.35C222.19 224.278 222.072 224.238 221.949 224.238C221.827 224.238 221.709 224.278 221.618 224.35C221.329 224.516 221.102 224.753 220.967 225.031C220.758 225.447 220.647 225.894 220.641 226.348Z" fill="#5259CD"/>
<path d="M225.996 218.498C226.016 218.484 226.041 218.476 226.067 218.476C226.093 218.476 226.118 218.484 226.138 218.498C226.192 218.555 226.217 218.628 226.21 218.702V219.665C226.21 219.757 226.186 219.848 226.138 219.93C226.11 219.997 226.061 220.055 225.996 220.098L225.314 220.443C225.304 220.453 225.293 220.46 225.279 220.465C225.266 220.47 225.252 220.473 225.238 220.473C225.223 220.473 225.209 220.47 225.196 220.465C225.182 220.46 225.171 220.453 225.161 220.443C225.135 220.417 225.115 220.386 225.102 220.352C225.09 220.319 225.086 220.284 225.09 220.249V219.285C225.089 219.193 225.114 219.102 225.161 219.02C225.19 218.951 225.243 218.892 225.314 218.852L225.996 218.498ZM226.169 226.799C226.169 226.887 226.148 226.975 226.108 227.055C226.075 227.125 226.023 227.186 225.955 227.232L225.344 227.533C225.336 227.542 225.325 227.549 225.313 227.555C225.3 227.56 225.287 227.562 225.273 227.562C225.259 227.562 225.246 227.56 225.234 227.555C225.221 227.549 225.21 227.542 225.202 227.533C225.149 227.476 225.123 227.403 225.131 227.329V221.61C225.13 221.518 225.154 221.427 225.202 221.345C225.231 221.276 225.28 221.215 225.344 221.168L225.955 220.867C225.976 220.851 226.003 220.841 226.032 220.841C226.06 220.841 226.087 220.851 226.108 220.867C226.153 220.924 226.175 220.993 226.169 221.062V226.799Z" fill="#5259CD"/>
<path d="M231.524 224.103C231.523 224.194 231.502 224.284 231.463 224.368C231.434 224.437 231.381 224.496 231.31 224.536L230.699 224.845C230.68 224.862 230.655 224.871 230.628 224.871C230.601 224.871 230.576 224.862 230.557 224.845C230.503 224.788 230.478 224.715 230.485 224.642V221.53C230.517 221.163 230.44 220.795 230.261 220.461C230.119 220.24 229.895 220.204 229.579 220.363C229.265 220.547 229.031 220.818 228.918 221.133C228.748 221.55 228.665 221.99 228.673 222.432V225.553C228.673 225.644 228.652 225.734 228.612 225.818C228.587 225.891 228.533 225.953 228.46 225.995L227.859 226.295C227.849 226.305 227.838 226.312 227.824 226.317C227.811 226.322 227.797 226.325 227.783 226.325C227.768 226.325 227.754 226.322 227.741 226.317C227.728 226.312 227.716 226.305 227.706 226.295C227.659 226.239 227.637 226.17 227.645 226.101V220.381C227.644 220.29 227.664 220.2 227.706 220.116C227.731 220.043 227.785 219.98 227.859 219.939L228.46 219.639C228.469 219.629 228.481 219.622 228.494 219.617C228.507 219.611 228.521 219.609 228.536 219.609C228.55 219.609 228.565 219.611 228.578 219.617C228.591 219.622 228.603 219.629 228.612 219.639C228.658 219.699 228.679 219.77 228.673 219.842V220.116C228.807 219.847 228.971 219.589 229.162 219.347C229.33 219.124 229.556 218.939 229.824 218.808C230.055 218.661 230.344 218.597 230.628 218.631C230.741 218.655 230.846 218.7 230.937 218.763C231.028 218.825 231.103 218.904 231.157 218.993C231.305 219.233 231.402 219.493 231.442 219.762C231.497 220.114 231.524 220.468 231.524 220.823V224.103Z" fill="#5259CD"/>
<path d="M282.872 198.369L272.987 203.32L274.524 191.28C273.333 190.732 272.58 189.397 272.58 187.479C272.58 184.057 274.982 180.088 277.934 178.639C280.886 177.189 283.279 178.727 283.279 182.175C283.218 184.203 282.551 186.183 281.345 187.921L282.872 198.369Z" fill="white"/>
<path d="M282.882 198.37L274.178 194.011L272.987 203.329L282.882 198.37Z" fill="white"/>
<path d="M277.914 178.612C275.761 179.875 274.156 181.726 273.353 183.872L281.324 187.868C282.531 186.13 283.197 184.15 283.258 182.122C283.279 178.701 280.886 177.136 277.914 178.612Z" fill="white"/>
<path d="M229.864 138.523C226.474 136.825 221.802 137.064 216.63 139.654C206.308 144.834 197.94 157.414 197.94 167.765C197.94 172.963 200.057 176.605 203.457 178.285L210.044 181.609C213.424 183.306 218.096 183.059 223.278 180.469C233.6 175.297 241.968 162.709 241.968 152.357C241.968 147.186 239.871 143.517 236.492 141.864" fill="white"/>
<path d="M223.268 142.987C212.945 148.167 204.577 160.755 204.577 171.098C204.577 181.441 212.945 185.649 223.268 180.469C233.59 175.288 241.968 162.709 241.958 152.357C241.948 142.006 233.58 137.816 223.268 142.987Z" fill="#5259CD"/>
<path d="M233.58 165.953V167.138C231.107 170.971 227.56 174.2 223.268 176.526C219.247 178.533 215.612 178.754 212.945 177.472V175.032C213.082 172.494 213.916 170.021 215.379 167.82C216.842 165.619 218.891 163.754 221.354 162.382L224.072 161.021C226.474 159.818 228.816 159.659 230.648 160.588C232.481 161.516 233.58 163.469 233.58 165.953Z" fill="#BA68C8"/>
<path opacity="0.2" d="M209.81 181.476L203.468 178.285C200.067 176.605 197.95 172.981 197.95 167.765L204.577 171.107C204.618 176.146 206.572 179.735 209.81 181.476Z" fill="white"/>
<path opacity="0.1" d="M201.198 157.352L207.825 160.685C206.127 164.207 205.215 167.978 205.137 171.797L198.51 168.455C198.592 164.64 199.504 160.873 201.198 157.352Z" fill="white"/>
<path d="M220.906 160.464C220.274 160.469 219.652 160.329 219.104 160.057C218.443 159.674 217.914 159.144 217.571 158.521C217.229 157.899 217.087 157.208 217.16 156.521C217.246 154.91 217.775 153.341 218.704 151.945C219.632 150.548 220.931 149.365 222.494 148.494C223.122 148.059 223.886 147.798 224.687 147.747C225.488 147.695 226.288 147.854 226.984 148.204C227.679 148.553 228.236 149.077 228.583 149.706C228.93 150.335 229.05 151.04 228.928 151.73C228.84 153.34 228.31 154.909 227.382 156.305C226.454 157.701 225.155 158.884 223.593 159.756C222.785 160.194 221.858 160.438 220.906 160.464Z" fill="white"/>
<path d="M230.648 160.578C228.816 159.65 226.474 159.809 224.072 161.012L221.354 162.373C218.889 163.746 216.84 165.612 215.377 167.815C213.914 170.017 213.08 172.492 212.945 175.032V177.481C215.612 178.762 219.247 178.541 223.268 176.535C227.56 174.209 231.107 170.98 233.58 167.147V165.962C233.58 163.469 232.521 161.516 230.648 160.578Z" fill="white"/>
<path d="M439.929 313.511C439.929 313.511 441.283 303.185 447.197 295.168C453.112 287.15 461.235 282.155 468.82 281.634C476.404 281.112 482.532 287.176 474.419 291.358C466.305 295.539 451.89 299.764 445.253 315.323L439.929 313.511Z" fill="#005086"/>
<path opacity="0.1" d="M472.352 321.861C472.352 321.861 473.706 311.536 479.621 303.518C485.535 295.5 493.659 290.505 501.243 289.984C508.827 289.462 514.955 295.526 506.842 299.708C498.728 303.889 484.314 308.115 477.676 323.673L472.352 321.861Z" fill="white"/>
<path d="M442.158 310.823H442.077C441.977 310.788 441.897 310.72 441.855 310.634C441.813 310.547 441.812 310.45 441.853 310.364C449.854 293.258 465.084 286.107 472.026 284.728C472.078 284.717 472.132 284.716 472.185 284.723C472.238 284.731 472.289 284.748 472.334 284.772C472.379 284.797 472.419 284.829 472.45 284.867C472.481 284.905 472.503 284.948 472.515 284.993C472.527 285.038 472.529 285.085 472.52 285.131C472.511 285.177 472.492 285.22 472.463 285.26C472.435 285.299 472.398 285.333 472.355 285.36C472.311 285.387 472.262 285.407 472.21 285.417C465.409 286.778 450.475 293.797 442.606 310.638C442.567 310.708 442.501 310.765 442.42 310.799C442.338 310.832 442.246 310.841 442.158 310.823Z" fill="white"/>
<path d="M482.654 311.027C481.972 312.37 480.282 313.077 478.714 313.626C477.147 314.174 475.436 314.766 474.581 316.039C472.871 318.602 475.681 322.227 473.848 324.711C473.417 325.211 472.874 325.63 472.251 325.943C471.628 326.256 470.939 326.456 470.224 326.532C469.054 326.718 467.863 326.718 466.682 326.806C466.116 326.8 465.552 326.761 464.992 326.691C463.347 326.372 461.627 326.531 460.095 327.142C457.744 328.291 457.041 330.864 455.596 332.853C454.713 334.024 453.549 335.015 452.183 335.76C450.818 336.504 449.284 336.984 447.686 337.166C446.668 337.281 444.632 337.449 443.614 336.928C443.534 336.894 443.459 336.852 443.39 336.804C443.237 336.663 443.054 336.477 442.972 336.38C442.967 336.359 442.967 336.338 442.972 336.318C442.555 334.983 443.237 333.604 443.268 332.225V331.977C443.196 330.377 443.146 328.786 443.105 327.195C443.017 324.248 442.983 321.302 443.003 318.355C443.003 316.446 442.759 314.359 443.695 312.565C444.713 310.585 447.279 310.54 448.246 308.604C448.633 307.827 448.836 307.004 449.213 306.218C449.795 305.074 450.727 304.091 451.908 303.375C453.089 302.66 454.474 302.239 455.911 302.16C460.38 301.966 464.381 305.104 468.85 304.812C470 304.732 471.13 304.423 472.271 304.246C475.884 303.654 480.068 304.547 482.104 307.208C482.551 307.756 482.835 308.391 482.931 309.057C483.027 309.723 482.932 310.4 482.654 311.027Z" fill="#005086"/>
<path d="M442.525 330.192C442.428 330.167 442.347 330.111 442.298 330.035C442.248 329.959 442.235 329.869 442.26 329.785C448.429 309.683 472.8 306.801 478.531 307.137C478.582 307.139 478.631 307.15 478.677 307.169C478.722 307.188 478.762 307.215 478.796 307.248C478.829 307.281 478.854 307.32 478.87 307.361C478.886 307.403 478.892 307.447 478.888 307.49C478.877 307.576 478.829 307.656 478.753 307.712C478.678 307.768 478.58 307.796 478.48 307.791C472.892 307.446 449.03 310.284 442.993 329.962C442.964 330.045 442.9 330.116 442.812 330.159C442.725 330.202 442.622 330.214 442.525 330.192Z" fill="white"/>
<path d="M469.634 320.008C469.557 319.999 469.485 319.968 469.43 319.92C467.177 318.224 464.521 316.981 461.651 316.28C458.781 315.578 455.768 315.436 452.827 315.862C452.728 315.87 452.629 315.845 452.549 315.793C452.47 315.741 452.417 315.664 452.399 315.579C452.384 315.493 452.409 315.405 452.468 315.334C452.527 315.263 452.616 315.214 452.715 315.199C455.782 314.756 458.924 314.907 461.916 315.642C464.908 316.377 467.676 317.678 470.021 319.451C470.057 319.482 470.085 319.518 470.105 319.558C470.125 319.599 470.135 319.642 470.135 319.685C470.135 319.729 470.125 319.772 470.105 319.813C470.085 319.853 470.057 319.889 470.021 319.92C469.975 319.967 469.913 320.002 469.844 320.017C469.774 320.033 469.701 320.03 469.634 320.008Z" fill="white"/>
<path d="M383.908 70.72L387.145 71.7985V65.6105C387.145 60.6954 391.655 59.5197 396.552 61.9772C401.459 64.4348 405.429 70.4018 405.429 75.3168V76.2008C406.111 76.0197 406.832 75.975 407.537 76.0699C408.242 76.1648 408.914 76.3969 409.501 76.7489C411.36 77.8017 412.907 79.2206 414.016 80.8902C415.125 82.5599 415.765 84.4332 415.884 86.358V86.7646L420.404 89.0276C421.626 89.7208 422.644 90.6541 423.375 91.7522C424.105 92.8502 424.527 94.0821 424.608 95.3482C424.608 97.682 422.725 98.6279 420.404 97.461L383.908 79.1534C382.685 78.4618 381.667 77.5287 380.938 76.4302C380.209 75.3316 379.789 74.0989 379.714 72.8328C379.714 70.5078 381.577 69.562 383.908 70.72Z" fill="#005086"/>
<path d="M427.265 65.8225L433.139 68.7662C433.107 68.5434 433.09 68.319 433.088 68.0944V66.6181C433.088 63.9661 435.205 62.923 437.832 64.2402C438.96 64.8402 439.926 65.6454 440.662 66.6004C441.089 63.2943 444.082 62.0655 447.706 63.8777C449.777 65.0479 451.502 66.6253 452.74 68.4821C453.978 70.339 454.695 72.423 454.832 74.5653V76.7753C454.858 77.6583 454.653 78.5349 454.232 79.3389L459.118 81.7787C459.88 82.2173 460.512 82.8048 460.965 83.4942C461.417 84.1835 461.677 84.9554 461.724 85.7479C461.724 87.2065 460.543 87.7988 459.087 87.0739L427.265 71.1619C426.495 70.7264 425.855 70.139 425.397 69.4476C424.939 68.7563 424.675 67.9806 424.628 67.1839C424.628 65.6899 425.809 65.0976 427.265 65.8225Z" fill="#005086"/>
<path d="M404.523 199.987C400.247 206.264 396.134 211.718 393.243 214.335C387.756 216.545 374.868 219.957 369.829 220.523C368.944 220.62 368.048 220.438 367.305 220.01C365.319 218.878 363.782 218.693 361.695 218.065C360.056 217.579 359.364 216.898 359.059 217.181C358.743 217.502 358.585 217.918 358.617 218.339C358.649 218.76 358.87 219.153 359.232 219.435C360.015 220.081 360.883 220.645 361.818 221.115C359.582 221.596 357.251 221.633 354.997 221.221C350.63 220.222 348.573 222.043 351.526 226.163C352.544 227.63 356.738 229.99 365.167 229.354C368.174 229.213 371.169 228.918 374.135 228.47C382.218 226.967 391.207 225.517 396.735 224.05C398.791 223.348 400.631 222.24 402.11 220.814C411.404 211.612 414.489 205.053 418.561 199.094L418.215 189.37C411.618 189.176 408.096 194.736 404.523 199.987Z" fill="white"/>
<path d="M419.345 189.176C417.432 188.943 415.482 189.167 413.706 189.827C411.929 190.486 410.394 191.554 409.267 192.915C404.747 197.945 396.745 210.021 396.745 210.021C396.745 210.021 399.361 216.076 406.426 217.093L417.777 203.78C417.777 203.78 423.152 194.533 419.345 189.176Z" fill="#5259CD"/>
<path d="M443.889 324.905H436.488V336.362H443.889V324.905Z" fill="white"/>
<path d="M418.235 324.295L410.844 324.525L410.468 312.397L418.235 312.167V324.295Z" fill="white"/>
<path d="M444.927 225.729C444.927 232.112 443.848 283.534 443.848 283.534C444.011 285.373 445.884 288.767 445.507 295.831C444.947 305.422 444.204 330.634 444.204 330.634C442.934 331.198 441.532 331.504 440.105 331.529C438.678 331.553 437.264 331.296 435.969 330.775C435.969 330.775 429.962 295.415 428.639 285.947C427.479 277.647 424.506 250.172 424.506 250.172L420.505 282.65C421.353 286.135 421.662 289.702 421.421 293.258C421.075 297.678 418.693 320.556 418.693 320.556C417.415 321.211 415.981 321.605 414.501 321.707C413.022 321.81 411.534 321.619 410.152 321.148C410.152 321.148 405.938 286.672 405.856 282.624C405.754 278.027 408.32 225.676 408.32 225.676L444.927 225.729Z" fill="white"/>
<path d="M436.488 333.056V332.101C435.775 332.375 434.136 338.05 431.194 340.473C428.863 342.4 425.687 344.619 424.872 346.767C424.058 348.915 429.301 350.232 431.489 349.887C434.014 349.481 438.412 347.863 439.511 346.351C440.611 344.84 441.13 342.647 442.026 341.551C442.922 340.455 444.988 339.235 445.467 337.962C445.616 336.771 445.474 335.566 445.049 334.426C444.703 333.241 444.337 331.942 443.889 332.057V332.782C442.845 333.526 441.533 333.926 440.183 333.913C439.104 333.993 436.478 333.798 436.488 333.056Z" fill="#989BD1"/>
<path d="M410.763 322.457C410.376 322.457 410.061 322.961 409.216 323.792C407.959 324.939 406.49 325.895 404.869 326.62C402.1 327.876 396.725 329.803 394.271 330.802C392.744 331.42 392.816 333.082 394.394 334.028C395.971 334.974 399.769 335.655 404.329 334.735C406.813 334.232 410.05 332.154 412.107 332.269C414.163 332.384 417.981 332.349 419.497 331.385C421.014 330.422 420.403 328.424 419.976 326.7C419.508 324.808 418.958 321.864 418.235 321.997V322.66C417.349 323.88 412.758 324.375 410.804 323.482L410.763 322.457Z" fill="#989BD1"/>
<path d="M424.506 250.172C420.656 249.078 417.136 247.25 414.204 244.824C414.204 244.824 416.24 248.192 422.104 251.33L420.841 280.334L424.506 250.172Z" fill="#263238"/>
<path d="M440.794 190.113C440.794 190.113 446.902 191.333 446.464 200.915L445.192 216.164V239.06C439.756 244.417 415.67 244.028 407.373 238.636C407.373 238.636 408.31 211.541 408.87 201.11C409.267 193.702 411.231 189.971 419.62 189.158L429.932 189.547L440.794 190.113Z" fill="#5259CD"/>
<path d="M433.017 170.205C433.052 171.488 432.794 172.765 432.259 173.961C431.723 175.157 430.92 176.249 429.896 177.174C428.872 178.099 427.647 178.839 426.293 179.352C424.938 179.864 423.479 180.139 422.002 180.159C415.894 180.159 412.31 175.58 410.987 170.205C408.544 160.366 415.914 160.243 422.002 160.243C424.984 160.296 427.819 161.376 429.885 163.244C431.95 165.112 433.077 167.616 433.017 170.205Z" fill="#5259CD"/>
<path d="M438.636 174.228C438.636 174.228 436.946 181.406 436.264 182.59C435.835 183.303 435.106 183.845 434.228 184.102L434.35 179.054L438.636 174.228Z" fill="#5259CD"/>
<path d="M436.508 163.946C436.508 163.946 437.72 163.681 439.012 165.432C440.112 166.926 440.366 170.285 438.636 174.272L435.449 174.608L436.508 163.946Z" fill="#5259CD"/>
<path d="M437.679 165.405L441.588 165.467C441.615 165.248 441.589 165.026 441.512 164.815C441.436 164.605 441.31 164.411 441.142 164.245C440.975 164.079 440.77 163.945 440.54 163.851C440.31 163.757 440.061 163.705 439.807 163.699C439.272 163.706 438.759 163.883 438.367 164.198C437.974 164.513 437.729 164.943 437.679 165.405Z" fill="#5259CD"/>
<path d="M438.158 164.601L441.049 162.187C440.882 162.017 440.677 161.878 440.445 161.78C440.214 161.682 439.961 161.626 439.704 161.617C439.447 161.608 439.19 161.645 438.95 161.727C438.71 161.808 438.492 161.932 438.31 162.09C437.927 162.416 437.698 162.854 437.67 163.32C437.642 163.785 437.816 164.242 438.158 164.601Z" fill="#5259CD"/>
<path d="M434.493 174.563C435.134 174.908 436.04 173.803 436.834 173.052C437.628 172.3 440.092 171.611 441.374 174.051C442.657 176.491 440.468 178.904 438.636 179.699C435.348 181.114 434.309 179.054 434.309 179.054L434.034 190.422C429.413 196.61 418.927 196.416 422.704 190.122V186.665C421.151 186.89 419.573 186.961 418.001 186.878C415.436 186.524 413.827 184.694 413.043 182.184C411.801 178.152 411.323 174.899 412.382 166.97C413.542 158.289 424.72 158.192 430.706 161.666C436.691 165.14 434.493 174.563 434.493 174.563Z" fill="white"/>
<path d="M420.566 165.617C423.234 165.388 425.87 164.91 428.548 164.733C429.125 164.673 429.71 164.696 430.278 164.804C432.314 165.29 432.07 167.359 432.396 168.8C432.956 171.293 433.414 175.509 434.493 175.527C434.818 175.527 436.04 173.697 436.834 173.043C437.271 172.479 437.517 171.821 437.547 171.142C437.75 170.117 437.852 169.065 437.944 168.022C438.025 167.138 438.127 166.254 438.127 165.37C438.173 164.371 438.081 163.371 437.852 162.391C437.597 161.557 437.107 160.792 436.427 160.163L436.223 159.969C434.881 158.75 433.253 157.798 431.449 157.175C428.853 156.331 426.131 155.816 423.366 155.646C420.605 155.476 417.856 155.181 415.13 154.762C414.974 154.722 414.808 154.722 414.652 154.762C414.541 154.815 414.448 154.891 414.38 154.984C414.313 155.077 414.273 155.183 414.265 155.292C414.153 155.842 414.223 156.407 414.466 156.923C414.71 157.44 415.116 157.886 415.639 158.209C413.797 158.333 411.679 157.502 409.908 157.078C409.765 157.025 409.611 156.998 409.455 156.998C409.299 156.998 409.145 157.025 409.002 157.078C408.824 157.186 408.698 157.346 408.646 157.529C408.517 157.944 408.499 158.38 408.595 158.802C408.757 160.081 409.305 161.301 410.183 162.338C411.555 163.889 413.493 164.989 415.68 165.458C417.29 165.728 418.938 165.781 420.566 165.617Z" fill="#5259CD"/>
<path d="M422.714 186.665C422.714 186.665 428.436 185.622 430.431 184.659C431.619 184.094 432.584 183.232 433.2 182.184C432.899 183.236 432.363 184.228 431.622 185.101C430.166 186.798 422.714 188.036 422.714 188.036V186.665Z" fill="black"/>
<path d="M424.089 173.264C424.078 173.537 424.191 173.802 424.405 174.003C424.618 174.203 424.915 174.322 425.229 174.334C425.478 174.351 425.728 174.303 425.945 174.196C426.163 174.088 426.338 173.926 426.447 173.731C426.557 173.535 426.596 173.316 426.559 173.101C426.523 172.886 426.412 172.686 426.242 172.526C426.072 172.367 425.851 172.255 425.607 172.207C425.363 172.159 425.108 172.176 424.875 172.255C424.642 172.335 424.442 172.474 424.302 172.654C424.162 172.834 424.087 173.047 424.089 173.264Z" fill="#263238"/>
<path d="M425.921 168.977L428.374 170.205C428.553 169.902 428.594 169.552 428.488 169.225C428.382 168.897 428.138 168.616 427.804 168.437C427.642 168.358 427.462 168.309 427.276 168.294C427.091 168.278 426.903 168.296 426.726 168.347C426.549 168.397 426.386 168.48 426.247 168.588C426.109 168.697 425.998 168.829 425.921 168.977Z" fill="#263238"/>
<path d="M423.223 180.433L420.607 181.317C420.66 181.473 420.749 181.618 420.868 181.742C420.988 181.867 421.136 181.969 421.303 182.042C421.47 182.115 421.653 182.157 421.84 182.166C422.026 182.176 422.213 182.151 422.389 182.095C422.745 181.962 423.029 181.716 423.184 181.407C423.339 181.099 423.353 180.75 423.223 180.433Z" fill="black"/>
<path d="M413.562 169.887L415.802 168.331C415.702 168.195 415.57 168.08 415.414 167.991C415.259 167.903 415.084 167.843 414.9 167.818C414.717 167.792 414.529 167.8 414.35 167.841C414.17 167.882 414.002 167.956 413.858 168.057C413.558 168.278 413.363 168.586 413.308 168.923C413.254 169.261 413.344 169.604 413.562 169.887Z" fill="#263238"/>
<path d="M414.55 172.972C414.568 173.166 414.65 173.35 414.787 173.504C414.923 173.657 415.109 173.773 415.32 173.837C415.531 173.9 415.759 173.909 415.976 173.862C416.192 173.815 416.389 173.714 416.541 173.572C416.692 173.429 416.793 173.251 416.831 173.06C416.868 172.869 416.841 172.672 416.751 172.494C416.662 172.316 416.516 172.165 416.329 172.058C416.142 171.952 415.924 171.894 415.7 171.894C415.543 171.898 415.388 171.93 415.245 171.987C415.102 172.044 414.973 172.124 414.866 172.225C414.759 172.325 414.676 172.443 414.622 172.571C414.568 172.699 414.543 172.836 414.55 172.972Z" fill="#263238"/>
<path d="M420.688 172.141L420.556 178.427L416.443 177.613L420.688 172.141Z" fill="black"/>
<path d="M323.022 224.784L329.405 221.583L331.929 218.923L325.557 222.123L323.022 224.784Z" fill="#BA68C8"/>
<path opacity="0.4" d="M323.022 224.784L329.405 221.583L331.929 218.923L325.557 222.123L323.022 224.784Z" fill="black"/>
<path d="M340.378 233.482L346.761 230.282L352.085 226.189L345.713 229.38L340.378 233.482Z" fill="#BA68C8"/>
<path opacity="0.4" d="M340.378 233.482L346.761 230.282L352.085 226.189L345.713 229.38L340.378 233.482Z" fill="white"/>
<path d="M394.597 244.523C396.106 246.28 397.02 248.368 397.234 250.552C395.731 248.792 394.819 246.705 394.597 244.523ZM409.429 244.691C407.281 232.006 399.433 219.462 390.087 214.768C385.598 212.513 381.445 212.434 378.116 214.122L372.11 217.128L371.774 217.305C371.506 217.433 371.248 217.574 371 217.729C370.507 218.024 370.043 218.355 369.615 218.719L369.412 218.887C369.229 219.046 369.035 219.232 368.862 219.409C368.689 219.585 368.424 219.859 368.221 220.098C367.789 220.592 367.397 221.112 367.05 221.654C366.867 221.928 366.694 222.22 366.531 222.538L314.073 196.248L307.701 199.439V202.975L308.24 203.24L308.749 203.497V204.204L307.731 204.725V206.776L315.437 220.92L323.052 224.748L325.587 222.096L332.306 225.588L336.164 231.325L340.419 233.455L345.743 229.354L352.279 232.633L354.478 240.51L365.462 246.026C366.005 248.031 366.685 250.005 367.498 251.94C367.569 252.134 367.661 252.338 367.752 252.559C371.397 260.868 377.189 267.984 383.725 271.264C384.508 271.667 385.329 272.013 386.178 272.298C386.627 272.453 387.086 272.586 387.553 272.696C387.96 272.79 388.367 272.87 388.774 272.935C390.06 273.138 391.377 273.138 392.663 272.935L393.192 272.82C393.445 272.776 393.694 272.714 393.935 272.634L394.506 272.44C394.707 272.377 394.902 272.297 395.086 272.201C395.274 272.13 395.458 272.051 395.636 271.962L395.9 271.821C395.948 271.807 395.993 271.786 396.033 271.759C397.488 271.034 401.072 269.231 402.049 268.753C406.895 266.314 410.03 260.143 410.03 251.418C410.022 249.166 409.821 246.917 409.429 244.691Z" fill="white"/>
<path d="M392.734 255.228C390.21 253.964 388.174 250.216 388.174 246.857C388.174 243.498 390.21 241.792 392.734 243.047C395.259 244.302 397.285 248.059 397.285 251.427C397.285 254.795 395.249 256.493 392.734 255.228ZM403.047 247.882C400.909 235.206 393.06 222.653 383.705 217.968C379.368 215.793 375.357 215.634 372.099 217.128L371.763 217.305C371.496 217.433 371.238 217.574 370.99 217.729C370.496 218.024 370.033 218.355 369.605 218.719L369.402 218.887C369.218 219.046 369.025 219.232 368.852 219.409C368.679 219.586 368.414 219.86 368.211 220.098C367.778 220.592 367.387 221.112 367.04 221.654C366.857 221.928 366.684 222.22 366.521 222.538C365.572 224.247 364.887 226.057 364.485 227.922L307.69 199.439V202.975L308.23 203.24L308.739 203.497V204.204L307.721 204.726V206.776L315.427 220.92L323.042 224.748L325.577 222.096L332.296 225.588L336.154 231.325L340.409 233.456L345.733 229.354L352.269 232.633L354.468 240.51L365.462 246.026C366.005 248.031 366.685 250.005 367.498 251.94C367.569 252.134 367.661 252.338 367.752 252.559C371.397 260.868 377.189 267.985 383.725 271.264C384.508 271.668 385.329 272.014 386.178 272.298C386.627 272.454 387.086 272.586 387.553 272.696C387.96 272.791 388.367 272.87 388.774 272.935C390.06 273.138 391.377 273.138 392.663 272.935L393.192 272.82C393.445 272.776 393.694 272.714 393.935 272.634L394.505 272.44C394.707 272.377 394.902 272.297 395.086 272.201C395.274 272.131 395.457 272.051 395.635 271.963L395.9 271.821C395.948 271.807 395.993 271.787 396.032 271.759C400.675 269.213 403.657 263.131 403.657 254.618C403.64 252.363 403.436 250.112 403.047 247.882Z" fill="#5259CD"/>
<path opacity="0.4" d="M397.285 251.418C397.285 254.786 395.249 256.493 392.734 255.228C390.22 253.964 388.174 250.225 388.174 246.857C388.174 243.489 390.21 241.783 392.734 243.047C393.461 243.431 394.094 243.936 394.597 244.532C394.816 246.715 395.729 248.802 397.234 250.561C397.271 250.846 397.288 251.132 397.285 251.418Z" fill="white"/>
<path opacity="0.4" d="M410.01 251.41C410.01 260.135 406.874 266.305 402.029 268.745C401.011 269.222 397.468 271.026 396.012 271.75C400.654 269.205 403.637 263.123 403.637 254.61C403.626 252.358 403.429 250.11 403.047 247.882C400.909 235.206 393.06 222.653 383.705 217.968C379.368 215.793 375.357 215.634 372.099 217.128L378.106 214.122C381.434 212.434 385.588 212.514 390.077 214.768C399.433 219.462 407.281 232.006 409.419 244.691C409.807 246.915 410.004 249.161 410.01 251.41Z" fill="white"/>
<path d="M403.637 254.592C403.637 263.105 400.654 269.187 396.012 271.733C397.468 271.008 401.051 269.204 402.029 268.727C406.874 266.287 410.01 260.117 410.01 251.392C410.01 251.074 410.01 250.747 410.01 250.419L403.637 253.62C403.627 253.964 403.637 254.283 403.637 254.592Z" fill="white"/>
<path opacity="0.15" d="M364.729 231.537V233.332L307.701 204.743L308.749 204.213V203.47L364.729 231.537Z" fill="black"/>
<path opacity="0.15" d="M364.729 232.28V233.332L307.701 204.743L308.749 204.213V204.204L364.729 232.28Z" fill="white"/>
<path opacity="0.15" d="M389.528 268.736C387.366 268.687 385.258 268.141 383.42 267.154C374.125 262.495 366.562 248.634 366.562 236.258C366.562 229.036 369.076 223.643 373.464 221.442C376.518 219.904 380.131 220.098 383.929 221.999C393.213 226.658 400.777 240.563 400.777 252.939C400.777 260.152 398.262 265.554 393.874 267.746C392.551 268.402 391.052 268.744 389.528 268.736ZM377.872 221.309C376.515 221.303 375.18 221.608 374.003 222.193C370.002 224.2 367.61 229.46 367.61 236.249C367.61 248.342 374.94 261.885 383.959 266.376C387.41 268.144 390.678 268.303 393.396 266.941C397.397 264.935 399.789 259.684 399.789 252.895C399.789 240.793 392.459 227.259 383.45 222.759C381.766 221.87 379.842 221.382 377.872 221.345V221.309Z" fill="black"/>
<path d="M440.295 225.287C443.268 220.399 446.668 209.419 448.358 203.877C450.76 196.009 446.872 191.059 442.453 190.855C439.695 191.227 430.604 219.93 430.604 219.93C429.586 220.629 415.772 226.719 411.333 228.249C410.539 228.509 409.663 228.509 408.87 228.249C406.742 227.577 405.286 227.701 403.199 227.524C401.56 227.382 400.736 226.878 400.522 227.179C400.328 227.552 400.303 227.975 400.452 228.363C400.601 228.752 400.913 229.077 401.326 229.274C402.225 229.729 403.181 230.091 404.177 230.353C402.393 230.823 400.533 231.04 398.669 230.998C394.394 230.918 392.856 232.527 396.175 236.302C398.211 238.653 401.581 239.396 409.104 237.142C411.262 236.488 414.194 235.223 416.932 234.366C422.572 232.598 424.058 232.386 428.354 231.122C434.615 229.283 438.972 227.462 440.295 225.287Z" fill="white"/>
<path d="M440.794 190.113C443.39 190.422 445.884 190.926 447.421 192.765C448.958 194.604 450.19 197.185 448.684 204.213C447.53 209.155 445.986 214.023 444.062 218.781C444.062 218.781 438.015 221.027 431.591 215.334L436.009 200.5C436.009 200.5 436.722 190.856 440.794 190.113Z" fill="#5259CD"/>
</g>
<defs>
<clipPath id="clip0_669_848">
<rect width="509" height="442" fill="white"/>
</clipPath>
</defs>
</svg>
