<svg width="236" height="178" viewBox="0 0 236 178" fill="none" xmlns="http://www.w3.org/2000/svg">
<path d="M193 130.007L205 145V78" stroke="white" stroke-width="4.24" stroke-miterlimit="10"/>
<path d="M205 136L216 125" stroke="white" stroke-width="4.24" stroke-miterlimit="10"/>
<path d="M205 109L197 99" stroke="white" stroke-width="4.24" stroke-miterlimit="10"/>
<path d="M205 100L210 96" stroke="white" stroke-width="4.24" stroke-miterlimit="10"/>
<path d="M205 82C205 80.8847 201 73 201 73" stroke="white" stroke-width="4.24" stroke-miterlimit="10"/>
<path d="M193 150L193.559 150.029L196.682 150.092C197.834 150.112 198.933 150.648 199.741 151.583C200.549 152.519 201.001 153.78 201 155.092V174" stroke="white" stroke-width="4.24" stroke-miterlimit="10"/>
<path d="M183 126.213C183.54 125.515 184.119 124.783 184.747 124.041C206.123 98.5632 183.455 110.375 185.934 101.839C188.412 93.3023 196.107 94.4261 197.777 86.6992C198.865 81.6653 197.5 76.2475 197.821 71.1263C198.041 67.6733 199.305 63.3237 201.287 60.6452C203.825 57.2214 207.059 59.7103 208.736 62.9362C211.579 68.4242 210.305 75.1441 210.287 81.1649C210.287 85.8231 211.543 89.838 214.891 92.6795C217.891 95.2329 221.396 97.5387 222.645 101.813C224.002 106.471 217.281 105.251 215.374 107.126C211.926 110.521 218.993 118.344 220.949 120.585C225.86 126.21 235.38 136.389 228.703 145.647C224.514 151.447 220.388 150.18 215.829 150.386L213.373 150.352C212.708 150.338 212.047 150.474 211.43 150.752C210.812 151.031 210.25 151.445 209.776 151.971C209.303 152.497 208.927 153.124 208.672 153.816C208.416 154.508 208.286 155.251 208.289 156" stroke="white" stroke-width="4.24" stroke-miterlimit="10"/>
<path d="M165 138.587L174 150V99" stroke="white" stroke-width="4.24" stroke-miterlimit="10"/>
<path d="M177 140L174 143" stroke="#CCDDE2" stroke-width="4.24" stroke-miterlimit="10"/>
<path d="M174 122L169 115" stroke="white" stroke-width="4.24" stroke-miterlimit="10"/>
<path d="M174 115L179 113" stroke="white" stroke-width="4.24" stroke-miterlimit="10"/>
<path d="M174 102C174 101.127 171 95 171 95" stroke="white" stroke-width="4.24" stroke-miterlimit="10"/>
<path d="M183.006 126C178.17 132.181 176.676 136.774 177.056 140.188C178.01 148.491 190.192 149.803 193 150" stroke="white" stroke-width="4.24" stroke-miterlimit="10"/>
<path d="M171.329 172V157.468C171.33 156.461 170.978 155.494 170.35 154.775C169.721 154.055 168.866 153.641 167.967 153.622L165.524 153.578C165.524 153.578 142.509 152.888 158.878 133.496C175.247 114.103 157.885 123.097 159.788 116.596C161.691 110.095 167.567 110.955 168.839 105.083C169.669 101.246 168.627 97.1189 168.878 93.2236C169.041 90.5977 170.008 87.282 171.523 85.2532C173.47 82.6447 175.94 84.5431 177.228 86.9922C179.413 91.1744 178.428 96.2958 178.415 100.872C178.402 104.414 179.369 107.478 181.934 109.645C184.233 111.59 186.909 113.344 187.864 116.601C188.898 120.143 183.755 119.21 182.299 120.645C181.042 121.876 181.606 123.862 182.705 125.798" stroke="white" stroke-width="4.24" stroke-miterlimit="10"/>
<path d="M177 158C177 157.43 177.103 156.866 177.302 156.341C177.502 155.815 177.794 155.338 178.162 154.938C178.53 154.538 178.967 154.222 179.447 154.01C179.926 153.797 180.44 153.691 180.957 153.699L182.867 153.734C186.431 153.574 189.647 154.539 192.916 150.113L193 150" stroke="white" stroke-width="4.24" stroke-miterlimit="10"/>
<path d="M236 175H3" stroke="black" stroke-width="4.24" stroke-miterlimit="10"/>
<path d="M25.6318 173.26C23.9483 172.885 22.2934 172.438 20.68 171.916C14.0552 169.764 6.34954 166.091 3.71516 158.37C3.05537 156.375 2.84771 154.231 3.1105 152.126C3.37328 150.021 4.09844 148.021 5.222 146.301C6.41082 144.461 8.08485 143.077 10.0127 142.339C14.2059 140.836 18.8458 143.182 21.9634 146.647C25.081 150.112 27.0737 154.581 29.4977 158.661C27.2946 153.179 25.0603 147.55 24.7563 141.56C24.5173 136.892 25.663 131.831 28.5598 128.323C31.2279 125.094 37.466 122.553 41.1396 124.939C43.5635 126.505 44.53 129.844 44.9457 132.911C46.0862 141.333 44.6209 149.89 43.1634 158.249C44.1429 153.779 45.1951 149.267 47.1904 145.236C49.1856 141.206 52.2484 137.639 56.1662 136.148C58.9123 135.103 62.1702 135.216 64.4798 137.184C66.6258 139.019 67.5847 142.117 67.8783 145.109C68.3745 150.121 67.3093 155.208 65.4829 159.824C58.6554 177.043 39.7494 176.391 25.6318 173.26Z" stroke="white" stroke-width="4.24" stroke-miterlimit="10"/>
<path d="M41 164.721C41 164.721 51.3453 168.148 55 151" stroke="white" stroke-width="4.24" stroke-miterlimit="10"/>
<path d="M36 136C33.75 143.497 36 166 36 166" stroke="white" stroke-width="4.24" stroke-miterlimit="10"/>
<path d="M27 164C26.5427 163.909 22.1539 163.2 18.4117 161.213C15.511 159.676 13 157.374 13 154" stroke="white" stroke-width="4.24" stroke-miterlimit="10"/>
<path d="M19 154C19 154 15.0952 160.389 18.1978 162" stroke="white" stroke-width="4.24" stroke-miterlimit="10"/>
<path d="M16 166C16.625 165.191 19.8889 166.814 22 163" stroke="white" stroke-width="4.24" stroke-miterlimit="10"/>
<path d="M35 146C34 145.125 31.3775 146 31 139" stroke="white" stroke-width="4.24" stroke-miterlimit="10"/>
<path d="M36 153C36 153 40 151.107 40 147" stroke="white" stroke-width="4.24" stroke-miterlimit="10"/>
<path d="M45 165C45 165 47.1266 157.391 48 154" stroke="white" stroke-width="4.24" stroke-miterlimit="10"/>
<path d="M52 157.987C52 157.987 54.7273 161.277 58 156" stroke="white" stroke-width="4.24" stroke-miterlimit="10"/>
<path d="M52 154C52 154 50.4826 153.263 51.1862 149" stroke="white" stroke-width="4.24" stroke-miterlimit="10"/>
<path d="M163.355 136.396C162.778 134.886 162.186 133.362 161.577 131.852C161.559 131.813 161.545 131.772 161.533 131.73C160.216 128.448 158.852 125.207 157.499 122.179C157.482 122.16 157.47 122.137 157.463 122.112C149.61 107.156 138.215 100.418 134.688 98.6019C133.999 98.255 133.611 98.0831 133.611 98.0831C128.047 95.3523 122.848 93.219 118.489 91.6102C118.549 91.5694 118.606 91.5257 118.673 91.4849C119.289 91.0886 120.446 90.3483 121.779 89.4973L122.428 89.0776C123.821 88.1858 125.345 87.2153 126.655 86.3731C126.859 86.2419 127.066 86.1079 127.263 85.9855C128.215 85.3764 129.005 84.8634 129.481 84.5516C133.378 82.0102 137.398 79.3377 140.868 76.0649C141.256 75.7006 141.629 75.3305 142.002 74.9516C142.374 74.5727 142.726 74.1851 143.078 73.7858C144.861 71.8189 146.378 69.5684 147.581 67.1061C150.203 61.6562 150.666 54.991 149.17 49.0543C149.121 48.8562 149.07 48.658 149.018 48.4715C148.914 48.0839 148.806 47.7225 148.689 47.3669C148.63 47.195 148.57 47.0288 148.505 46.8656C148.469 46.7581 148.427 46.6532 148.381 46.5509C148.337 46.4261 148.285 46.3055 148.226 46.1895C148.092 45.8817 147.94 45.5839 147.773 45.2977C146.653 46.3361 145.232 46.8738 143.782 46.8073C142.435 46.7287 141.129 46.2533 139.996 45.4288C134.988 41.9899 133.544 34.2463 133.311 31.8653C133.211 31.8775 133.111 31.8822 133.011 31.8799C132.755 31.8828 132.501 31.8443 132.255 31.7662L131.15 31.4194L131.083 31.4019C129.665 30.9764 128.228 30.613 126.774 30.3119C126.166 30.1779 125.542 30.0642 124.928 29.9564C124.708 29.9156 124.488 29.8806 124.269 29.8485C123.352 29.6912 122.431 29.5571 121.507 29.4609C121.362 29.4376 121.207 29.4201 121.054 29.4026C120.342 29.3298 119.626 29.254 118.909 29.2045C117.941 29.1316 116.968 29.082 115.995 29.0412C114.038 28.9742 112.076 28.9917 110.107 29.0733C85.5749 30.105 60.7402 42.1881 50.3415 47.9673C50.2328 48.0314 50.1216 48.0897 50.0129 48.1567C47.3265 49.6576 45.6339 50.7039 45.2224 50.9691L45.1215 51.0332C41.6662 53.0345 38.4126 55.4488 35.4164 58.2347C33.4593 60.0506 31.7295 62.1563 30.274 64.4948L30.2171 64.5939C28.3278 67.5695 30.6415 71.3407 33.9283 71.2736C35.3931 71.2416 37.0494 70.4489 38.6152 68.502C40.8797 65.7071 42.756 64.8503 44.1225 64.7658C44.4652 64.7483 44.8065 64.8229 45.1186 64.9832C45.4308 65.1435 45.7046 65.3848 45.9176 65.6876C46.1308 65.9904 46.2768 66.346 46.3441 66.7249C46.4111 67.1034 46.3976 67.4948 46.3042 67.8667L45.9471 69.3035C45.8461 69.7112 45.826 70.1391 45.8883 70.5567C45.9504 70.974 46.0933 71.3713 46.3071 71.7195C46.5206 72.0681 46.7996 72.3592 47.1241 72.5729C47.4489 72.7862 47.8112 72.9168 48.1857 72.9552C48.2615 72.9593 48.3376 72.9593 48.4135 72.9552C48.944 72.9547 49.4616 72.7687 49.8943 72.4234C50.3273 72.0777 50.6544 71.5896 50.8307 71.0259C51.5928 68.5627 52.853 66.3326 54.5116 64.5117C56.1703 62.6908 58.182 61.3292 60.3883 60.5341L63.1186 59.5432C73.0742 55.9393 83.541 54.4655 93.9782 55.1979C93.5538 55.9818 92.089 59.1818 95.1791 60.8809C95.2309 60.9042 95.2826 60.9363 95.3395 60.9625L93.942 62.513L93.2614 63.2795L92.8343 63.7399C92.5134 64.1538 92.1899 64.5735 91.869 64.996C91.781 65.1097 91.6852 65.235 91.5973 65.3574C90.5206 66.8146 89.4518 68.3592 88.4062 70L88.2509 69.8776C88.2509 69.8776 86.6981 73.0339 78.1369 73.1418C77.5526 73.2336 77.0088 73.5314 76.5841 73.9928C76.2684 74.3786 76.0668 74.8653 76.007 75.3858C75.9832 75.5791 75.9832 75.7752 76.007 75.9687C76.007 76.0183 76.0225 76.0765 76.0277 76.1319C76.0344 76.185 76.0448 76.2377 76.0588 76.2893C76.1121 76.5297 76.1902 76.7626 76.2917 76.9829C76.3869 77.1855 76.4951 77.3802 76.6152 77.5658C78.6364 79.3873 82.5185 80.7308 82.5185 80.7308C82.6737 80.384 82.842 80.0459 83.0024 79.7079C82.8135 80.1275 82.6013 80.6376 82.3658 81.2496C83.2302 81.5556 84.2188 81.85 85.3161 82.1239C84.3793 81.8908 83.3622 81.6372 82.3425 81.305C82.3179 81.2991 82.2936 81.2913 82.27 81.2816C82.2659 81.2834 82.2612 81.2834 82.2571 81.2816C80.417 80.6813 78.6028 79.8244 77.2906 78.3964C77.2296 78.3422 77.1732 78.2816 77.1224 78.2157L77.0784 78.1662C76.9019 77.9692 76.7376 77.7587 76.5867 77.5366C76.0251 77.0091 75.6136 76.4583 75.5049 75.8813C75.4376 77.6853 75.9423 81.5964 80.8725 84.3913C79.9641 86.4926 79.0997 88.6959 78.2638 91.0128C63.4654 131.998 24.4768 101.542 24.4768 101.542L19.5414 97.3778L17.1967 100.901L19.2179 97.9636L25.2299 102.114L17 114.153C21.7904 119.107 64.1383 160.737 97.3349 118.152C97.3711 118.111 99.9229 114.631 99.9411 114.59C100.358 114.762 100.798 114.937 101.235 115.109C134.729 128.107 134.98 123.852 147.713 146.71C153.456 157.009 156.663 162.701 158.443 165.843L174 166C172.913 162.785 167.869 148.132 163.355 136.396ZM96.6594 84.98C97.6092 85.219 98.5332 85.4667 99.4778 85.7203C98.5332 85.4667 97.6092 85.2277 96.6594 84.98ZM101.059 56.1013L100.774 56.0343L100.516 55.976L100.215 55.909L100.032 55.8682C101.797 56.1334 103.554 56.4511 105.298 56.8678C105.32 56.8634 105.341 56.8634 105.363 56.8678C106.704 57.1572 108.036 57.4953 109.361 57.882L109.486 57.917C109.421 57.9578 109.361 57.9986 109.297 58.0307C108.841 57.9257 108.352 57.8092 107.845 57.6838H107.832C105.381 57.1243 102.56 56.4627 101.051 56.1013H101.059ZM112.54 89.5468C112.022 89.3836 111.504 89.235 111.031 89.0864C109.514 88.623 108.184 88.2121 106.968 87.8565C107.617 88.0314 108.621 88.3111 109.91 88.7075C110.767 88.9611 111.748 89.2904 112.848 89.6314C112.884 89.6459 112.92 89.6547 112.956 89.6722C113.044 89.6955 113.14 89.7305 113.228 89.7625C112.995 89.6867 112.762 89.6226 112.54 89.5468Z" fill="white"/>
<path d="M158 166L179.613 166.228C180.676 166.228 186.205 170.034 184.761 172.513C183.549 174.588 184.761 175 184.761 175H163.385L158 166Z" fill="#005086"/>
<path d="M94 63L92.9065 63.5537L92 64C92.2703 63.8463 92.5322 63.6905 92.8025 63.5432C93.0728 63.3958 93.2474 63.2863 93.4719 63.16C93.6241 63.0886 93.8037 63.0343 94 63Z" fill="#353642"/>
<path d="M198.569 39.975C198.496 39.8838 198.434 39.8015 198.364 39.7191C196.684 37.6194 197.38 35.0522 198.968 33.0848C200.193 31.5586 202.226 29.9941 204.126 30C205.983 30 208.029 31.8291 209.14 33.3907C211.041 36.0609 211.807 39.4633 209.881 42.3746C207.709 45.6382 205.228 48.6204 202.482 51.2674C196.318 57.2929 188.345 62.545 180.594 66.0857C172.022 69.9998 161.922 70.7497 152.726 69.344C150.996 69.0793 148.652 68.1354 147 67.5002" stroke="black" stroke-width="4.24" stroke-miterlimit="10"/>
<path d="M206.447 42.2604C205.533 43.5876 203.457 44.9264 202.331 43.1336C201.62 42.0014 202.191 40.5491 202.767 39.5391C203.769 37.7291 205.282 36.4639 207 36" stroke="black" stroke-width="4.24" stroke-miterlimit="10"/>
<path d="M203 34C201.256 34.8329 199.186 36.9071 199.008 39.4454C198.87 41.4372 200.493 42.8957 201.748 41.3582" stroke="black" stroke-width="4.24" stroke-miterlimit="10"/>
<path d="M155 31C155.287 32.9609 157.112 34.2451 159 33.9606" stroke="black" stroke-width="4.24" stroke-miterlimit="10"/>
<path d="M147.559 67.3506C143.706 75.399 136.357 80.3511 129.41 84.8987C127.639 86.051 120.838 90.3991 118.354 92C116.988 91.4781 115.699 91.0031 114.517 90.5721C114.481 90.5721 114.45 90.5486 114.413 90.5398C109.394 88.7484 106.129 87.8278 105.658 87.6929L110.854 89.4521C98.4807 85.6933 97.5558 85.6111 85.0447 82.4592C83.9042 82.166 82.8911 81.8728 82 81.5474C82.2364 81.0314 82.478 80.5183 82.7222 80.0198C82.7352 79.9876 82.7508 79.9612 82.7586 79.9377C82.7949 79.8615 82.8391 79.7794 82.8677 79.7032C82.943 79.5536 83.0158 79.41 83.0807 79.2634L83.2366 78.9702C83.2574 78.9262 83.2807 78.8851 83.3015 78.8441C83.3223 78.803 83.3171 78.8206 83.3327 78.7855C83.6912 78.0554 84.0601 77.3429 84.4342 76.6451C85.6318 74.3728 86.8735 72.2471 88.1387 70.265C89.5449 68.0678 90.9737 66.0301 92.4251 64.1518L92.4459 64.1254L93.0122 63.5038L93.6955 62.7327L99.7302 56.0214C99.7302 56.0214 105.419 57.3496 109.095 58.2292C110.322 57.5592 111.493 56.7673 112.595 55.863C117.066 52.1687 121.258 44.4018 120.5 37.9074C119.832 32.2252 114.465 29.3694 109.849 29.0733C117.045 28.7655 124.212 29.4046 130.982 31.4189C131.004 31.4204 131.026 31.4265 131.047 31.4365L132.159 31.7854C132.503 31.8927 132.861 31.9267 133.216 31.8851C133.453 34.2835 134.9 42.0738 139.929 45.5306C143.28 47.8293 146.081 46.9351 147.741 45.3987C148.382 46.5692 148.857 47.8466 149.146 49.1839C150.653 55.1564 150.191 61.859 147.559 67.3506Z" fill="#005086"/>
<path d="M25 102.19L14.5002 118.455C14.5002 118.455 10.2452 119.786 8.62261 118.287L7 116.785L19.2316 98L25 102.19Z" fill="#005086"/>
<path d="M100 114.966L97.3721 118.447C61.8857 162.597 16 114.089 16 114.089L18.0856 111" stroke="black" stroke-width="4.24" stroke-miterlimit="10"/>
<path d="M106 88C106 88 118.624 91.0632 133.911 98.4802C133.911 98.4802 134.302 98.6467 135 99" stroke="black" stroke-width="4.24" stroke-miterlimit="10"/>
<path d="M158 122C158 122.021 158.017 122.032 158.025 122.053C159.322 125.113 160.628 128.394 161.881 131.719C161.898 131.76 161.908 131.802 161.925 131.843C162.503 133.369 163.074 134.906 163.625 136.432C168.489 149.835 174 167 174 167" stroke="black" stroke-width="4.24" stroke-miterlimit="10"/>
<path d="M158 122C157.984 121.983 157.971 121.963 157.962 121.942C149.739 107.659 137.808 101.223 134.125 99.4953C133.404 99.1586 133 99 133 99" stroke="black" stroke-width="4.24" stroke-miterlimit="10"/>
<path d="M83.0773 79C83.0773 79 69.0518 103.373 100.886 115.602C134.726 128.588 134.977 124.337 147.844 147.17C155.848 161.365 158.975 166.807 160.181 168.874L160.942 170.155L163.98 175H185V172.589C185 171.128 184.479 169.727 183.551 168.694C182.623 167.661 181.365 167.08 180.053 167.08H171.594" stroke="black" stroke-width="4.24" stroke-miterlimit="10"/>
<path d="M24 102.184L19.2811 98L7 117.389L8.97962 119.147C9.36137 119.486 9.79612 119.731 10.2587 119.87C10.7212 120.008 11.2023 120.037 11.6742 119.953C12.146 119.87 12.5992 119.676 13.0074 119.384C13.4157 119.092 13.7709 118.707 14.0524 118.251L16.4304 114.392" stroke="black" stroke-width="4.24" stroke-miterlimit="10"/>
<path d="M147 45.2379C151.202 48.8559 157.375 49.8867 161.26 50.5098C161.84 50.6017 162.428 50.6591 163.014 50.7252C168.408 51.327 173.856 50.9388 179.133 49.5766C182.983 48.588 186.697 47.0512 190.181 45.0053C193.227 43.2021 194.596 40.0177 195.434 36.3452L197.01 28.7015C197.249 28.1054 197.669 27.6169 198.198 27.3177C198.728 27.0188 199.335 26.9272 199.918 27.0582C200.502 27.1891 201.027 27.5348 201.406 28.0376C201.785 28.5404 201.994 29.1701 202 29.8213C201.998 30.1515 201.943 30.4789 201.84 30.789L201.506 31.7969" stroke="black" stroke-width="4.24" stroke-linejoin="round"/>
<path d="M45.576 51C42.1105 53.1132 38.8461 55.6603 35.8382 58.5976C33.8927 60.4942 32.1759 62.698 30.7355 65.1472L30.6739 65.2508C27.9684 69.7472 33.9498 75.9556 39.0242 69.339C41.2672 66.4084 43.1223 65.5158 44.4891 65.4305C44.8285 65.4141 45.1667 65.493 45.4755 65.6611C45.7843 65.8293 46.0551 66.0821 46.2658 66.3983C46.4765 66.7146 46.6209 67.0856 46.6872 67.4807C46.7535 67.8758 46.7399 68.284 46.6474 68.6718L46.2928 70.1737C46.1926 70.5996 46.1726 71.0465 46.2342 71.4827C46.2956 71.9186 46.4375 72.3332 46.6492 72.6973C46.8611 73.0613 47.1379 73.3653 47.4598 73.5883C47.7817 73.8113 48.1412 73.9478 48.5127 73.9877C49.0774 74.0483 49.6432 73.8835 50.1198 73.5192C50.5967 73.1548 50.9569 72.6123 51.1437 71.9771C51.8998 69.4033 53.1503 67.0728 54.796 65.1695C56.4416 63.2664 58.438 61.8425 60.6271 61.0103L63.348 59.9806C80.6614 53.392 99.3157 53.6841 116.476 60.8123L123 63.5327" stroke="black" stroke-width="4.24" stroke-miterlimit="10"/>
<path d="M33.9221 72C33.9221 72 27.5541 69.7661 38 61" stroke="black" stroke-width="4.24" stroke-miterlimit="10"/>
<path d="M119 92C120.889 90.7621 127.832 86.2709 129.704 85.0242C136.552 80.4744 143.8 75.5198 147.596 67.4674C150.184 61.976 150.643 55.2671 149.163 49.2799C148.761 47.6519 148.357 46.3787 147.491 45" stroke="black" stroke-width="4.24" stroke-linejoin="round"/>
<path d="M172 13.2828C171.731 14.6776 171.083 15.9416 170.148 16.8967C169.213 17.8517 168.038 18.4493 166.788 18.6056C166.674 18.0346 166.439 17.5041 166.104 17.0596C164.678 15.2189 164.139 18.7444 159.622 16.3228C153.364 12.962 151.046 15.0224 151.046 15.0224C150.845 15.2044 150.896 16.8227 150.873 17.1088C150.738 18.7848 150.6 20.4522 150.455 22.1282C150.369 23.1512 150.282 24.1655 150.201 25.1798C150.114 25.0096 150.018 24.8455 149.913 24.6886C149.308 22.4317 147.623 19.7904 145.462 20.9926C145.026 21.2463 144.65 21.6136 144.363 22.0647C142.958 24.2464 144.088 26.2981 145.635 27.8037C146.019 28.271 146.445 28.6905 146.908 29.0549C146.671 29.6329 145.699 31.9822 145.699 31.9909C145.597 32.2279 141.976 27.7546 141.704 27.2633C141.286 26.0568 141.051 24.779 141.009 23.4835C140.856 18.1606 142.658 11.9246 146.401 8.78054C147.33 8.00609 147.656 7.26921 147.699 6.23757C147.707 6.18556 147.728 6.1373 147.759 6.09771C147.789 6.05841 147.829 6.02893 147.873 6.01333C147.918 5.99744 147.965 5.9957 148.01 6.00842C148.055 6.02084 148.096 6.04714 148.129 6.08442C149.348 7.61309 152.293 7.39058 152.293 7.39058C162.472 4.25232 165.997 9.33826 168.071 10.2052C168.917 10.5502 169.843 10.5502 170.689 10.2052C170.745 10.5251 170.876 10.8213 171.07 11.0623C171.263 11.3033 171.511 11.4796 171.786 11.572L171.743 12.1095C171.706 12.5225 171.797 12.9371 172 13.2828Z" fill="white"/>
<path d="M167.309 18.1371C168.626 17.9796 169.865 17.3779 170.85 16.4162C171.836 15.4548 172.518 14.182 172.802 12.7772C172.914 12.2391 172.981 11.6906 173 11.1389H172.917C172.801 11.1319 172.686 11.1075 172.576 11.0662C172.286 10.9736 172.025 10.7961 171.822 10.5535C171.619 10.3108 171.481 10.0119 171.423 9.68982C171.385 9.51174 171.374 9.32784 171.391 9.14568L171.619 6.49483C171.619 6.49483 169.698 8.10978 167.521 7.23683C165.343 6.36388 161.62 1.24257 150.892 4.40265C150.892 4.40265 147.789 4.62671 146.507 3.0874C146.473 3.04928 146.429 3.02193 146.381 3.00884C146.333 2.99575 146.283 2.9972 146.236 3.0132C146.189 3.0292 146.146 3.05889 146.114 3.09934C146.081 3.13949 146.06 3.18896 146.051 3.24162C146.006 4.28043 145.665 5.02245 144.686 5.80228C140.736 8.94781 138.858 15.2301 139.008 20.5901C139.11 22.8222 139.758 24.9848 140.886 26.8549C141.173 27.3496 144.989 31.854 145.096 31.6154C145.096 31.6154 146.121 29.2526 146.37 28.659L146.432 28.5281L146.311 28.4437C145.862 28.1297 145.433 27.7826 145.027 27.4049C143.418 25.8889 142.219 23.8229 143.686 21.626C143.988 21.172 144.385 20.8019 144.844 20.5464C147.121 19.3359 148.897 22.0013 149.535 24.2681C149.658 24.7019 149.737 25.1486 149.771 25.6008C149.793 25.3098 149.817 25.0508 149.838 24.7715C149.921 23.7501 150.013 22.7346 150.106 21.6987C150.259 20.011 150.404 18.332 150.546 16.6443C150.57 16.3533 150.517 14.7267 150.729 14.5434C150.729 14.5434 153.172 12.4687 159.767 15.8528C164.528 18.2913 165.096 14.7413 166.598 16.5949C166.952 17.0424 167.2 17.5766 167.32 18.1516C167.357 18.3358 167.382 18.5223 167.395 18.7103C167.399 18.7353 167.399 18.7609 167.395 18.786C167.424 19.1962 167.44 19.6094 167.456 20.011C167.561 23.9073 167.242 27.981 165.901 31.63C164.267 36.05 159.813 40.473 155.063 38.5292C153.582 37.921 152.239 36.9142 151.01 35.8463" stroke="black" stroke-width="4.24" stroke-miterlimit="10"/>
<path d="M142 27L134.274 31.3505C133.651 31.6716 132.948 31.7331 132.288 31.5243L131.187 31.1797C131.164 31.1703 131.14 31.1635 131.116 31.1591C101.24 22.2047 63.6819 40.3461 50.2292 47.9013L49.8973 48.0928C47.2037 49.6156 45.5133 50.673 45.0985 50.9381L45 51" stroke="black" stroke-width="4.24" stroke-miterlimit="10"/>
<path d="M133.007 33C132.904 33.3515 133.862 42.1705 139.489 45.7551C143.117 48.0636 146.067 46.7571 147.55 45.0963C147.71 44.9152 147.86 44.7248 148 44.5261V44.5067" stroke="black" stroke-width="4.24" stroke-miterlimit="10"/>
<path d="M147 45L153 37" stroke="black" stroke-width="4.24" stroke-miterlimit="10"/>
<path d="M115 90C114.963 90 114.932 89.977 114.896 89.9684L111.33 88.9128C98.8988 85.2341 97.9696 85.1537 85.3998 82.069C84.254 81.7821 83.236 81.4949 82.3408 81.1763C72.9708 77.9023 76.3978 73.2224 77.6663 73.2224C86.7152 73.2224 88.3673 70 88.3673 70L88.5213 70.1205L115 90Z" fill="#353642"/>
<path d="M157 25C157.552 25 158 24.7762 158 24.5C158 24.2239 157.552 24 157 24C156.448 24 156 24.2239 156 24.5C156 24.7762 156.448 25 157 25Z" fill="black"/>
<path d="M164 25C164.552 25 165 24.7762 165 24.5C165 24.2239 164.552 24 164 24C163.448 24 163 24.2239 163 24.5C163 24.7762 163.448 25 164 25Z" fill="black"/>
<path d="M161.09 24C161.09 24 161.881 27.7308 161.973 28.1059C162.272 29.3288 160 28.9419 160 28.9419" stroke="black" stroke-width="4.24" stroke-miterlimit="10"/>
<path d="M160 19.6452C160 19.6452 157.177 15.7172 155 20" stroke="black" stroke-width="4.24" stroke-miterlimit="10"/>
<path d="M157 28C159.209 28 161 26.2093 161 24C161 21.791 159.209 20 157 20C154.791 20 153 21.791 153 24C153 26.2093 154.791 28 157 28Z" stroke="black" stroke-width="4.24" stroke-miterlimit="10"/>
<path d="M165.5 28C167.433 28 169 26.209 169 24C169 21.7907 167.433 20 165.5 20C163.567 20 162 21.7907 162 24C162 26.209 163.567 28 165.5 28Z" stroke="black" stroke-width="4.24" stroke-miterlimit="10"/>
<path d="M165.005 21.5796C165.637 21.5689 166.248 21.8141 166.702 22.2609C167.156 22.7076 167.417 23.3193 167.428 23.9617C167.438 24.6039 167.197 25.224 166.757 25.6854C166.317 26.1472 165.715 26.4122 165.082 26.4228H165.002C164.381 26.4144 163.788 26.1608 163.348 25.7156C162.908 25.2705 162.657 24.6686 162.647 24.0379C162.637 23.4075 162.869 22.7977 163.294 22.3381C163.719 21.8786 164.304 21.6054 164.924 21.5768H165.005V21.5796ZM165.005 21H164.906C164.518 21.0063 164.135 21.0903 163.779 21.2471C163.423 21.4038 163.101 21.6302 162.831 21.9131C162.562 22.1964 162.349 22.5305 162.207 22.897C162.064 23.2633 161.994 23.6548 162 24.0488C162.007 24.4425 162.09 24.8313 162.244 25.1929C162.398 25.5545 162.621 25.8816 162.9 26.1556C163.178 26.4296 163.507 26.6451 163.868 26.7898C164.229 26.9346 164.614 27.0059 165.002 26.9996H165.101C165.883 26.9866 166.627 26.6587 167.171 26.0884C167.714 25.5178 168.012 24.7513 168 23.9576C167.987 23.1637 167.664 22.4075 167.102 21.8555C166.541 21.3034 165.786 21.0005 165.005 21.0136V21Z" fill="white"/>
<path d="M161 24H162" stroke="black" stroke-width="4.24" stroke-miterlimit="10"/>
<path opacity="0.53" d="M157 27C158.657 27 160 25.6568 160 24C160 22.3432 158.657 21 157 21C155.343 21 154 22.3432 154 24C154 25.6568 155.343 27 157 27Z" fill="white"/>
<path opacity="0.53" d="M165 27C166.657 27 168 25.657 168 24C168 22.3432 166.657 21 165 21C163.343 21 162 22.3432 162 24C162 25.657 163.343 27 165 27Z" fill="white"/>
<path d="M24 101.832C24 101.832 63.1255 133.088 77.9794 91.021C79.2453 87.4314 80.5855 84.091 82 81" stroke="black" stroke-width="4.24" stroke-miterlimit="10"/>
<path d="M109.793 58.0588L100.163 56.0013C99.9434 55.9551 98.9595 57.1556 98.7689 57.3374C95.8584 60.2634 93.1535 63.4304 90.6782 66.8109C88.9818 69.0848 87.301 71.0269 84.7067 72.0051C83.4717 72.4472 82.1965 72.7378 80.9041 72.8708C79.5782 73.0295 77.6025 72.7842 76.5977 73.9616C76.3767 74.2259 76.2104 74.5399 76.1099 74.8821C76.0094 75.2243 75.9773 75.5868 76.0157 75.944C76.1136 76.5864 76.3709 77.1857 76.7595 77.6754C78.7561 80.385 82.4753 81.2969 85.401 82.0183C99.1082 85.4032 98.9725 85.1925 115 90" stroke="black" stroke-width="4.24" stroke-miterlimit="10"/>
<path d="M93 63.023L92 64C92.2982 63.6636 92.5872 63.3226 92.8853 63L93 63.023Z" fill="#353642"/>
<path d="M109 58.7194C109 58.7194 103.453 62.9963 97.0071 61.7834C90.5607 60.5706 93.8279 56 93.8279 56C98.5297 56.1491 103.187 56.945 107.665 58.3644" fill="black"/>
<path d="M75.1669 75C75.1669 75 73.6155 81.0521 81.126 85L83 81.1531C83 81.1531 73.6478 78.1516 75.1669 75Z" fill="black"/>
<path d="M124 11H106" stroke="black" stroke-width="4.24" stroke-miterlimit="10"/>
<path d="M107 16H97" stroke="black" stroke-width="4.24" stroke-miterlimit="10"/>
<path d="M23 131C23 131 35.7072 147 63 147" stroke="black" stroke-width="4.24" stroke-miterlimit="10"/>
<path d="M141 145L147 156" stroke="black" stroke-width="4.24" stroke-miterlimit="10"/>
<path d="M42 45C35.0858 48.0173 28.56 52.5245 25 60" stroke="black" stroke-width="4.24" stroke-miterlimit="10"/>
<path d="M212 47C214.566 44.4274 216.702 41.1946 217 37" stroke="black" stroke-width="4.24" stroke-miterlimit="10"/>
</svg>
