<svg width="222" height="181" viewBox="0 0 222 181" fill="none" xmlns="http://www.w3.org/2000/svg">
<path d="M38 82C45.7348 72.9584 57.3263 68.8602 57.3263 68.8602C57.7047 68.7285 56.0924 56.3414 56.0595 55.4628C55.5707 40.9923 58.4403 25.936 71.4468 15.487C87.706 2.43361 117.207 -0.271014 135.858 10.7264C135.623 10.5809 141.995 6.38048 142.533 6.1112C146.014 4.35417 149.942 3.30961 153.998 3.0626C170.318 2.07981 185.285 12.804 191.407 25.7768C197.53 38.7496 196.124 68.3078 184.892 76.8325" stroke="#CCDDE2" stroke-width="5.05" stroke-miterlimit="10"/>
<path d="M38 82C45.7348 72.9584 57.3263 68.8602 57.3263 68.8602C57.7047 68.7285 56.0924 56.3414 56.0595 55.4628C55.5707 40.9923 58.4403 25.936 71.4468 15.487C87.706 2.43361 117.207 -0.271014 135.858 10.7264C135.623 10.5809 141.995 6.38048 142.533 6.1112C146.014 4.35417 149.942 3.30961 153.998 3.0626C170.318 2.07981 185.285 12.804 191.407 25.7768C197.53 38.7496 196.124 68.3078 184.892 76.8325" stroke="#CCDDE2" stroke-width="5.05" stroke-miterlimit="10"/>
<path d="M32 98C32.3206 94.5092 33.1934 91.0956 34.584 87.894C34.7165 87.5896 34.8552 87.2915 35 87" stroke="#CCDDE2" stroke-width="5.05" stroke-miterlimit="10"/>
<path d="M32 98C32.3206 94.5092 33.1934 91.0956 34.584 87.894C34.7165 87.5896 34.8552 87.2915 35 87" stroke="#CCDDE2" stroke-width="5.05" stroke-miterlimit="10"/>
<path d="M52 136C49.8378 134.356 47.8351 132.682 46 131" stroke="#CCDDE2" stroke-width="5.05" stroke-miterlimit="10"/>
<path d="M52 136C49.8378 134.356 47.8351 132.682 46 131" stroke="#CCDDE2" stroke-width="5.05" stroke-miterlimit="10"/>
<path d="M206.995 93.2252C207.009 94.2149 206.995 95.2244 206.939 96.2359C206.611 102.493 205.045 108.96 201.132 114.229C200.419 115.201 199.625 116.127 198.754 117C190.427 116.06 189.185 108.791 179.557 104.682C168.022 99.7474 149.134 101.515 149.134 101.515L158.439 94.1694C157.942 72.0475 138.965 73.4053 138.965 73.4053L138 75.4263C138.733 73.596 139.473 71.8891 140.223 70.3056L140.264 70.2224C149.054 51.5407 158.16 49.2248 165.244 46.5269C166.937 46.1828 168.67 46.0061 170.409 46.0003C188.522 45.9172 199.152 61.703 203.801 74.4109C204.957 77.5779 206.736 84.3515 206.974 91.9683C206.979 92.3761 206.995 92.8016 206.995 93.2252Z" fill="#2E2E2E"/>
<path d="M206.995 93.2252C207.009 94.2149 206.995 95.2244 206.939 96.2359C206.611 102.493 205.045 108.96 201.132 114.229C200.419 115.201 199.625 116.127 198.754 117C190.427 116.06 189.185 108.791 179.557 104.682C168.022 99.7474 149.134 101.515 149.134 101.515L158.439 94.1694C157.942 72.0475 138.965 73.4053 138.965 73.4053L138 75.4263C138.733 73.596 139.473 71.8891 140.223 70.3056L140.264 70.2224C149.054 51.5407 158.16 49.2248 165.244 46.5269C166.937 46.1828 168.67 46.0061 170.409 46.0003C188.522 45.9172 199.152 61.703 203.801 74.4109C204.957 77.5779 206.736 84.3515 206.974 91.9683C206.979 92.3761 206.995 92.8016 206.995 93.2252Z" fill="#2E2E2E"/>
<path d="M217.579 175.473C216.151 177.108 213.796 177.999 211.368 177.999H183.474C182.402 178.012 181.338 177.838 180.352 177.488C179.366 177.139 178.479 176.621 177.747 175.969C177.733 175.969 177.747 175.969 177.747 175.969C177.648 175.886 177.555 175.797 177.47 175.703C176.596 174.802 176.049 173.712 175.894 172.562C175.754 171.505 176.697 170.565 177.975 170.608C178.459 170.623 178.92 170.784 179.272 171.061C179.624 171.337 179.844 171.711 179.891 172.112C179.891 172.196 179.912 172.278 179.926 172.36C180.029 172.837 180.281 173.283 180.656 173.654C180.988 173.98 181.404 174.239 181.874 174.412C182.344 174.585 182.855 174.667 183.368 174.652H211.488C211.991 174.659 212.49 174.576 212.951 174.407C213.412 174.238 213.824 173.989 214.157 173.675C214.534 173.313 214.791 172.875 214.903 172.405C215.015 171.935 214.978 171.449 214.796 170.995L202.237 139.917C202.134 139.679 202.013 139.446 201.873 139.222C201.135 137.926 199.967 136.833 198.506 136.073C197.045 135.313 195.352 134.918 193.629 134.935C188.341 134.988 181.628 134.999 180.997 134.999C166.925 134.956 160.522 134.956 157 135.034C157.242 134.314 157.679 133.65 158.277 133.092C158.277 133.092 158.291 133.081 158.291 133.075C159.15 132.313 160.326 131.852 161.579 131.787C166.796 131.431 171.961 130.783 176.979 129.649C185.833 127.653 194.279 124.227 200.147 118.719C203.003 116.053 205.162 112.921 206.487 109.524C207.514 106.826 208.162 104.038 208.417 101.216C208.507 100.325 208.564 99.4272 208.586 98.5233V98.4823C208.586 98.2752 208.6 98.0622 208.6 97.8551C208.632 96.5675 208.561 95.2796 208.388 94C209.922 94.01 211.39 94.5158 212.483 95.4107C212.579 95.6212 212.65 95.8392 212.695 96.0614C212.737 96.2718 212.758 96.4848 212.758 96.6984V121.972C212.761 123.699 212.351 125.408 211.554 127.002C210.756 128.595 209.586 130.041 208.111 131.256C205.669 133.268 204.974 136.322 206.132 139.009L218.614 169.916C218.991 170.843 219.094 171.832 218.914 172.8C218.733 173.767 218.275 174.684 217.579 175.473Z" fill="#3FBDF1"/>
<path d="M217.579 175.473C216.151 177.108 213.796 177.999 211.368 177.999H183.474C182.402 178.012 181.338 177.838 180.352 177.488C179.366 177.139 178.479 176.621 177.747 175.969C177.733 175.969 177.747 175.969 177.747 175.969C177.648 175.886 177.555 175.797 177.47 175.703C176.596 174.802 176.049 173.712 175.894 172.562C175.754 171.505 176.697 170.565 177.975 170.608C178.459 170.623 178.92 170.784 179.272 171.061C179.624 171.337 179.844 171.711 179.891 172.112C179.891 172.196 179.912 172.278 179.926 172.36C180.029 172.837 180.281 173.283 180.656 173.654C180.988 173.98 181.404 174.239 181.874 174.412C182.344 174.585 182.855 174.667 183.368 174.652H211.488C211.991 174.659 212.49 174.576 212.951 174.407C213.412 174.238 213.824 173.989 214.157 173.675C214.534 173.313 214.791 172.875 214.903 172.405C215.015 171.935 214.978 171.449 214.796 170.995L202.237 139.917C202.134 139.679 202.013 139.446 201.873 139.222C201.135 137.926 199.967 136.833 198.506 136.073C197.045 135.313 195.352 134.918 193.629 134.935C188.341 134.988 181.628 134.999 180.997 134.999C166.925 134.956 160.522 134.956 157 135.034C157.242 134.314 157.679 133.65 158.277 133.092C158.277 133.092 158.291 133.081 158.291 133.075C159.15 132.313 160.326 131.852 161.579 131.787C166.796 131.431 171.961 130.783 176.979 129.649C185.833 127.653 194.279 124.227 200.147 118.719C203.003 116.053 205.162 112.921 206.487 109.524C207.514 106.826 208.162 104.038 208.417 101.216C208.507 100.325 208.564 99.4272 208.586 98.5233V98.4823C208.586 98.2752 208.6 98.0622 208.6 97.8551C208.632 96.5675 208.561 95.2796 208.388 94C209.922 94.01 211.39 94.5158 212.483 95.4107C212.579 95.6212 212.65 95.8392 212.695 96.0614C212.737 96.2718 212.758 96.4848 212.758 96.6984V121.972C212.761 123.699 212.351 125.408 211.554 127.002C210.756 128.595 209.586 130.041 208.111 131.256C205.669 133.268 204.974 136.322 206.132 139.009L218.614 169.916C218.991 170.843 219.094 171.832 218.914 172.8C218.733 173.767 218.275 174.684 217.579 175.473Z" fill="#3FBDF1"/>
<path d="M46 174.971V104H52V175L46 174.971Z" fill="#2E2E2E"/>
<path d="M46 174.971V104H52V175L46 174.971Z" fill="#2E2E2E"/>
<path d="M149 101C152.673 101 156.921 101 161 101" stroke="black" stroke-width="5.05" stroke-miterlimit="10"/>
<path d="M149 101C152.673 101 156.921 101 161 101" stroke="black" stroke-width="5.05" stroke-miterlimit="10"/>
<path d="M128.58 105C121.965 106.39 115.528 108.398 110.037 111.735C100.822 117.328 96.6092 127.763 100.375 136.803C100.375 136.814 115.185 172.405 115.185 172.405H111.288C110.447 172.405 109.616 172.543 108.84 172.812C108.065 173.081 107.361 173.475 106.769 173.972C105.61 174.931 105.039 176.531 105.039 178H140.12L126.789 141.671C126.456 140.776 126.381 139.828 126.57 138.904C126.759 137.98 127.207 137.106 127.877 136.352C128.547 135.599 129.42 134.988 130.426 134.568C131.431 134.148 132.542 133.932 133.667 133.936C141.263 134.114 148.318 134.357 156 134.079" stroke="black" stroke-width="5.05" stroke-miterlimit="10"/>
<path d="M128.58 105C121.965 106.39 115.528 108.398 110.037 111.735C100.822 117.328 96.6092 127.763 100.375 136.803C100.375 136.814 115.185 172.405 115.185 172.405H111.288C110.447 172.405 109.616 172.543 108.84 172.812C108.065 173.081 107.361 173.475 106.769 173.972C105.61 174.931 105.039 176.531 105.039 178H140.12L126.789 141.671C126.456 140.776 126.381 139.828 126.57 138.904C126.759 137.98 127.207 137.106 127.877 136.352C128.547 135.599 129.42 134.988 130.426 134.568C131.431 134.148 132.542 133.932 133.667 133.936C141.263 134.114 148.318 134.357 156 134.079" stroke="black" stroke-width="5.05" stroke-miterlimit="10"/>
<path d="M207 96V95.9608C206.662 88.3237 206.206 80.7884 203.721 74.1069C199.039 61.535 188.334 45.9181 170.095 46.0003C168.343 46.006 166.598 46.1809 164.894 46.5212C152.871 48.924 144.521 59.2811 139.739 69.9633L139.697 70.0455C139.241 71.0703 138.818 72.0925 138.43 73.1121C138.167 73.7983 137.842 74.4666 137.459 75.1115C135.994 77.5932 133.672 79.6454 130.797 80.9993C127.922 82.3532 124.628 82.9458 121.346 82.6996C99.2655 81.0116 70.1652 80.0482 61 93.092" stroke="black" stroke-width="5.05" stroke-miterlimit="10"/>
<path d="M207 96V95.9608C206.662 88.3237 206.206 80.7884 203.721 74.1069C199.039 61.535 188.334 45.9181 170.095 46.0003C168.343 46.006 166.598 46.1809 164.894 46.5212C152.871 48.924 144.521 59.2811 139.739 69.9633L139.697 70.0455C139.241 71.0703 138.818 72.0925 138.43 73.1121C138.167 73.7983 137.842 74.4666 137.459 75.1115C135.994 77.5932 133.672 79.6454 130.797 80.9993C127.922 82.3532 124.628 82.9458 121.346 82.6996C99.2655 81.0116 70.1652 80.0482 61 93.092" stroke="black" stroke-width="5.05" stroke-miterlimit="10"/>
<path d="M171 82C167.784 85.29 164.398 88.4675 160.898 91.5403C153.732 97.836 147.55 104.523 136.429 104.969C127.558 105.33 119.113 102.445 110.723 100.445C101.749 98.3061 97.2075 96.5959 88.844 94.4354C86.4351 93.8157 83.9363 93.4834 81.4195 93.448L73 93.5033" stroke="black" stroke-width="5.05" stroke-miterlimit="10"/>
<path d="M171 82C167.784 85.29 164.398 88.4675 160.898 91.5403C153.732 97.836 147.55 104.523 136.429 104.969C127.558 105.33 119.113 102.445 110.723 100.445C101.749 98.3061 97.2075 96.5959 88.844 94.4354C86.4351 93.8157 83.9363 93.4834 81.4195 93.448L73 93.5033" stroke="black" stroke-width="5.05" stroke-miterlimit="10"/>
<path d="M138.388 173C139.213 172.691 140.108 172.532 141.012 172.535H145C145 172.535 136.665 159.006 130 150" stroke="black" stroke-width="5.05" stroke-miterlimit="10"/>
<path d="M138.388 173C139.213 172.691 140.108 172.532 141.012 172.535H145C145 172.535 136.665 159.006 130 150" stroke="black" stroke-width="5.05" stroke-miterlimit="10"/>
<path d="M143.312 134L171 178H139.681H134" stroke="black" stroke-width="5.05" stroke-miterlimit="10"/>
<path d="M143.312 134L171 178H139.681H134" stroke="black" stroke-width="5.05" stroke-miterlimit="10"/>
<path d="M217.599 175.463C216.182 177.105 213.845 178 211.436 178H183.754C181.459 178 179.22 177.199 177.789 175.688C176.921 174.783 176.379 173.688 176.225 172.533C176.086 171.471 177.022 170.527 178.29 170.57C178.77 170.586 179.228 170.747 179.577 171.025C179.927 171.303 180.145 171.678 180.191 172.081C180.248 172.651 180.513 173.192 180.951 173.63C181.285 173.952 181.699 174.209 182.164 174.383C182.629 174.556 183.134 174.641 183.642 174.632H211.555C212.054 174.639 212.55 174.556 213.007 174.386C213.464 174.217 213.873 173.966 214.204 173.651C214.577 173.287 214.832 172.847 214.943 172.375C215.054 171.903 215.018 171.415 214.838 170.959L202.374 139.751C201.743 138.273 200.581 136.998 199.051 136.101C197.52 135.205 195.696 134.731 193.832 134.747C188.584 134.8 181.923 134.812 181.296 134.812C165.747 134.77 159.626 134.77 156.382 134.871C156.332 134.87 156.282 134.861 156.235 134.845C156.189 134.829 156.146 134.804 156.111 134.774C156.076 134.744 156.047 134.708 156.028 134.669C156.009 134.629 156 134.587 156 134.545C155.995 133.333 156.523 132.163 157.482 131.26C157.486 131.257 157.489 131.254 157.491 131.251C157.494 131.248 157.495 131.244 157.496 131.24C158.349 130.477 159.515 130.015 160.758 129.949C165.936 129.591 171.062 128.94 176.041 127.802C184.828 125.796 193.21 122.356 199.033 116.824C201.867 114.146 204.009 111 205.324 107.588C206.341 104.879 206.982 102.081 207.232 99.2475C207.324 98.3499 207.38 97.4485 207.4 96.5432V96.5C207.4 96.294 207.414 96.0801 207.414 95.872C207.446 94.5788 207.376 93.2853 207.204 92.0001C209.739 91.9883 212.296 93.5406 212.738 95.7072C212.78 95.9186 212.801 96.1325 212.801 96.347V121.728C212.804 123.462 212.397 125.179 211.606 126.779C210.814 128.38 209.653 129.832 208.19 131.052C205.767 133.073 205.077 136.14 206.226 138.839L218.613 169.881C218.989 170.812 219.093 171.805 218.917 172.776C218.74 173.748 218.288 174.669 217.599 175.463Z" stroke="black" stroke-width="5.05" stroke-miterlimit="10"/>
<path d="M217.599 175.463C216.182 177.105 213.845 178 211.436 178H183.754C181.459 178 179.22 177.199 177.789 175.688C176.921 174.783 176.379 173.688 176.225 172.533C176.086 171.471 177.022 170.527 178.29 170.57C178.77 170.586 179.228 170.747 179.577 171.025C179.927 171.303 180.145 171.678 180.191 172.081C180.248 172.651 180.513 173.192 180.951 173.63C181.285 173.952 181.699 174.209 182.164 174.383C182.629 174.556 183.134 174.641 183.642 174.632H211.555C212.054 174.639 212.55 174.556 213.007 174.386C213.464 174.217 213.873 173.966 214.204 173.651C214.577 173.287 214.832 172.847 214.943 172.375C215.054 171.903 215.018 171.415 214.838 170.959L202.374 139.751C201.743 138.273 200.581 136.998 199.051 136.101C197.52 135.205 195.696 134.731 193.832 134.747C188.584 134.8 181.923 134.812 181.296 134.812C165.747 134.77 159.626 134.77 156.382 134.871C156.332 134.87 156.282 134.861 156.235 134.845C156.189 134.829 156.146 134.804 156.111 134.774C156.076 134.744 156.047 134.708 156.028 134.669C156.009 134.629 156 134.587 156 134.545C155.995 133.333 156.523 132.163 157.482 131.26C157.486 131.257 157.489 131.254 157.491 131.251C157.494 131.248 157.495 131.244 157.496 131.24C158.349 130.477 159.515 130.015 160.758 129.949C165.936 129.591 171.062 128.94 176.041 127.802C184.828 125.796 193.21 122.356 199.033 116.824C201.867 114.146 204.009 111 205.324 107.588C206.341 104.879 206.982 102.081 207.232 99.2475C207.324 98.3499 207.38 97.4485 207.4 96.5432V96.5C207.4 96.294 207.414 96.0801 207.414 95.872C207.446 94.5788 207.376 93.2853 207.204 92.0001C209.739 91.9883 212.296 93.5406 212.738 95.7072C212.78 95.9186 212.801 96.1325 212.801 96.347V121.728C212.804 123.462 212.397 125.179 211.606 126.779C210.814 128.38 209.653 129.832 208.19 131.052C205.767 133.073 205.077 136.14 206.226 138.839L218.613 169.881C218.989 170.812 219.093 171.805 218.917 172.776C218.74 173.748 218.288 174.669 217.599 175.463Z" stroke="black" stroke-width="5.05" stroke-miterlimit="10"/>
<path d="M83.8219 98H12.1781C10.4229 98 9 99.3426 9 100.999V101.001C9 102.657 10.4229 104 12.1781 104H83.8219C85.5771 104 87 102.657 87 101.001V100.999C87 99.3426 85.5771 98 83.8219 98Z" stroke="black" stroke-width="5.05" stroke-miterlimit="10"/>
<path d="M83.8219 98H12.1781C10.4229 98 9 99.3426 9 100.999V101.001C9 102.657 10.4229 104 12.1781 104H83.8219C85.5771 104 87 102.657 87 101.001V100.999C87 99.3426 85.5771 98 83.8219 98Z" stroke="black" stroke-width="5.05" stroke-miterlimit="10"/>
<path d="M64.1942 175H34.8058C33.8085 175 33 175.672 33 176.5C33 177.328 33.8085 178 34.8058 178H64.1942C65.1915 178 66 177.328 66 176.5C66 175.672 65.1915 175 64.1942 175Z" stroke="black" stroke-width="5.05" stroke-miterlimit="10"/>
<path d="M64.1942 175H34.8058C33.8085 175 33 175.672 33 176.5C33 177.328 33.8085 178 34.8058 178H64.1942C65.1915 178 66 177.328 66 176.5C66 175.672 65.1915 175 64.1942 175Z" stroke="black" stroke-width="5.05" stroke-miterlimit="10"/>
<path d="M42 95.8366V96.0778C42.0473 97.7361 44.1591 97.9895 45.9801 98L81.1834 97.9825C82.7253 97.9825 83.9976 97.1088 84 96.0358V95.9904C83.9716 94.9419 82.7324 94.0874 81.2095 94.0856C81.2095 94.0856 61.5149 94.0332 46.2615 94C45.9872 94.5907 45.2919 95.0485 44.424 95.4225C43.6774 95.7117 42.8428 95.8543 42 95.8366Z" stroke="black" stroke-width="5.05" stroke-miterlimit="10"/>
<path d="M42 95.8366V96.0778C42.0473 97.7361 44.1591 97.9895 45.9801 98L81.1834 97.9825C82.7253 97.9825 83.9976 97.1088 84 96.0358V95.9904C83.9716 94.9419 82.7324 94.0874 81.2095 94.0856C81.2095 94.0856 61.5149 94.0332 46.2615 94C45.9872 94.5907 45.2919 95.0485 44.424 95.4225C43.6774 95.7117 42.8428 95.8543 42 95.8366Z" stroke="black" stroke-width="5.05" stroke-miterlimit="10"/>
<path d="M23.0008 69.1009C23.0082 69.4132 23.115 69.7182 23.3104 69.9845L39.6163 92.8929C39.8273 93.1683 40.104 93.4043 40.4294 93.586C40.7548 93.7676 41.1216 93.891 41.5068 93.9485C42.1583 94.0558 42.8335 93.9946 43.4422 93.7726C44.4418 93.4009 45.0185 92.6518 44.9995 91.8927C44.996 91.7972 44.984 91.7019 44.9641 91.608C44.9138 91.3987 44.8211 91.1981 44.69 91.015L28.3841 68.1066C27.6752 67.1044 25.9406 66.711 24.5464 67.2269C23.5515 67.5907 22.9748 68.3398 23.0008 69.1009Z" stroke="black" stroke-width="5.05" stroke-miterlimit="10"/>
<path d="M23.0008 69.1009C23.0082 69.4132 23.115 69.7182 23.3104 69.9845L39.6163 92.8929C39.8273 93.1683 40.104 93.4043 40.4294 93.586C40.7548 93.7676 41.1216 93.891 41.5068 93.9485C42.1583 94.0558 42.8335 93.9946 43.4422 93.7726C44.4418 93.4009 45.0185 92.6518 44.9995 91.8927C44.996 91.7972 44.984 91.7019 44.9641 91.608C44.9138 91.3987 44.8211 91.1981 44.69 91.015L28.3841 68.1066C27.6752 67.1044 25.9406 66.711 24.5464 67.2269C23.5515 67.5907 22.9748 68.3398 23.0008 69.1009Z" stroke="black" stroke-width="5.05" stroke-miterlimit="10"/>
<path d="M67 94C67 94 68.8184 92.4543 73 90" stroke="black" stroke-width="5.05" stroke-miterlimit="10"/>
<path d="M67 94C67 94 68.8184 92.4543 73 90" stroke="black" stroke-width="5.05" stroke-miterlimit="10"/>
<path d="M82.9197 67.5886L75.9386 74.2005C75.4525 74.6611 74.7777 74.9447 74.0538 74.9927C73.3296 75.0408 72.6117 74.8494 72.0481 74.4583C71.7368 74.2424 71.4828 73.9727 71.3026 73.6668C71.1223 73.3609 71.02 73.0259 71.0027 72.6838C70.9852 72.3417 71.0529 72.0002 71.2014 71.6821C71.3498 71.364 71.5757 71.0764 71.8638 70.8384L73.1406 69.7834C73.189 69.7243 73.2443 69.6712 73.2996 69.6161L74.2215 68.748L82.15 61.3901C83.1122 60.4868 84.324 59.804 85.6746 59.4038C87.0255 59.0034 88.4722 58.8987 89.8825 59.0989L90 59.1166" stroke="black" stroke-width="5.05" stroke-miterlimit="10"/>
<path d="M82.9197 67.5886L75.9386 74.2005C75.4525 74.6611 74.7777 74.9447 74.0538 74.9927C73.3296 75.0408 72.6117 74.8494 72.0481 74.4583C71.7368 74.2424 71.4828 73.9727 71.3026 73.6668C71.1223 73.3609 71.02 73.0259 71.0027 72.6838C70.9852 72.3417 71.0529 72.0002 71.2014 71.6821C71.3498 71.364 71.5757 71.0764 71.8638 70.8384L73.1406 69.7834C73.189 69.7243 73.2443 69.6712 73.2996 69.6161L74.2215 68.748L82.15 61.3901C83.1122 60.4868 84.324 59.804 85.6746 59.4038C87.0255 59.0034 88.4722 58.8987 89.8825 59.0989L90 59.1166" stroke="black" stroke-width="5.05" stroke-miterlimit="10"/>
<path d="M92.825 70H85.25C84.388 70 83.5615 69.7365 82.952 69.2677C82.3425 68.7988 82 68.1631 82 67.5C82 66.8369 82.3425 66.2012 82.952 65.7323C83.5615 65.2635 84.388 65 85.25 65H96" stroke="black" stroke-width="5.05" stroke-miterlimit="10"/>
<path d="M92.825 70H85.25C84.388 70 83.5615 69.7365 82.952 69.2677C82.3425 68.7988 82 68.1631 82 67.5C82 66.8369 82.3425 66.2012 82.952 65.7323C83.5615 65.2635 84.388 65 85.25 65H96" stroke="black" stroke-width="5.05" stroke-miterlimit="10"/>
<path d="M87 70C86.9094 70.9293 86.4714 71.6171 85.8263 72.1001C84.165 73.3251 81.1187 73.1904 79 72.3486" stroke="black" stroke-width="5.05" stroke-miterlimit="10"/>
<path d="M87 70C86.9094 70.9293 86.4714 71.6171 85.8263 72.1001C84.165 73.3251 81.1187 73.1904 79 72.3486" stroke="black" stroke-width="5.05" stroke-miterlimit="10"/>
<path d="M73.3878 68.854C71.3377 66.7956 71.759 63.9973 73.3525 61.8329C79.9313 52.877 92.4721 58.393 100.717 62.2529C105.626 64.5615 110.317 67.1762 114.753 70.0745C118.679 72.6255 122.313 75.6788 127.03 77.2134C129.854 78.1337 133.19 78.3534 136 77.2918" stroke="black" stroke-width="5.05" stroke-miterlimit="10"/>
<path d="M73.3878 68.854C71.3377 66.7956 71.759 63.9973 73.3525 61.8329C79.9313 52.877 92.4721 58.393 100.717 62.2529C105.626 64.5615 110.317 67.1762 114.753 70.0745C118.679 72.6255 122.313 75.6788 127.03 77.2134C129.854 78.1337 133.19 78.3534 136 77.2918" stroke="black" stroke-width="5.05" stroke-miterlimit="10"/>
<path d="M86 72C90.8961 75.0911 95.5711 78.4306 100 82" stroke="black" stroke-width="5.05" stroke-miterlimit="10"/>
<path d="M86 72C90.8961 75.0911 95.5711 78.4306 100 82" stroke="black" stroke-width="5.05" stroke-miterlimit="10"/>
<path d="M145.562 23.4984C146.769 24.4343 148.623 24.485 150.158 24.3594C152.119 24.2074 154.062 23.8043 155.983 23.4639L157.149 23.4133H157.166C157.39 23.4153 157.611 23.4544 157.817 23.5289C158.023 23.6033 158.209 23.7115 158.366 23.847C158.522 23.9827 158.646 24.1432 158.73 24.3195C158.813 24.4955 158.855 24.6841 158.853 24.874C158.88 27.0121 158.628 29.1462 158.104 31.2374L160.34 32.2645C160.628 31.5798 160.304 30.5931 160.989 30.5182C161.428 29.8233 162.082 29.3715 163.108 29.8881C165.117 30.9011 165.909 33.8771 163.974 35.2406L165.215 37.2098C165.647 37.9002 166.348 38.4416 167.199 38.7416C168.049 39.0416 168.996 39.0817 169.877 38.8548L168.61 36.4764C171.584 36.9241 173.664 33.7738 172.758 31.8512C172.14 30.5303 172.171 29.5032 172.996 28.2188C173.051 28.1316 172.49 28.0162 172.538 27.927C172.567 26.985 172.259 25.9761 171.724 25.4959C170.784 24.6369 168.892 24.483 169.278 23.1783C169.45 22.6106 169.514 22.0231 169.467 21.438C169.366 20.6732 169.073 19.9356 168.609 19.2749C168.144 18.6141 167.518 18.0454 166.773 17.607C165.208 16.7338 163.456 17.5259 161.783 17.5037C159.753 17.4854 158.297 16.0227 156.169 16.0004C155.109 15.9862 154.26 16.3367 153.353 16.7723C152.594 17.143 151.847 17.53 151.122 17.9494C150.396 18.3687 149.752 18.7314 148.886 18.7334C147.757 18.7455 146.667 18.1378 145.531 18.4214C144.957 18.5527 144.452 18.8454 144.099 19.252C143.739 20.7471 144.39 22.5968 145.562 23.4984Z" fill="#3FBDF1"/>
<path d="M145.562 23.4984C146.769 24.4343 148.623 24.485 150.158 24.3594C152.119 24.2074 154.062 23.8043 155.983 23.4639L157.149 23.4133H157.166C157.39 23.4153 157.611 23.4544 157.817 23.5289C158.023 23.6033 158.209 23.7115 158.366 23.847C158.522 23.9827 158.646 24.1432 158.73 24.3195C158.813 24.4955 158.855 24.6841 158.853 24.874C158.88 27.0121 158.628 29.1462 158.104 31.2374L160.34 32.2645C160.628 31.5798 160.304 30.5931 160.989 30.5182C161.428 29.8233 162.082 29.3715 163.108 29.8881C165.117 30.9011 165.909 33.8771 163.974 35.2406L165.215 37.2098C165.647 37.9002 166.348 38.4416 167.199 38.7416C168.049 39.0416 168.996 39.0817 169.877 38.8548L168.61 36.4764C171.584 36.9241 173.664 33.7738 172.758 31.8512C172.14 30.5303 172.171 29.5032 172.996 28.2188C173.051 28.1316 172.49 28.0162 172.538 27.927C172.567 26.985 172.259 25.9761 171.724 25.4959C170.784 24.6369 168.892 24.483 169.278 23.1783C169.45 22.6106 169.514 22.0231 169.467 21.438C169.366 20.6732 169.073 19.9356 168.609 19.2749C168.144 18.6141 167.518 18.0454 166.773 17.607C165.208 16.7338 163.456 17.5259 161.783 17.5037C159.753 17.4854 158.297 16.0227 156.169 16.0004C155.109 15.9862 154.26 16.3367 153.353 16.7723C152.594 17.143 151.847 17.53 151.122 17.9494C150.396 18.3687 149.752 18.7314 148.886 18.7334C147.757 18.7455 146.667 18.1378 145.531 18.4214C144.957 18.5527 144.452 18.8454 144.099 19.252C143.739 20.7471 144.39 22.5968 145.562 23.4984Z" fill="#3FBDF1"/>
<path d="M160 32.2953C160.153 31.7864 160.378 31.2925 160.671 30.8225C161.132 30.1526 161.821 29.717 162.895 30.2151C165.004 31.1917 165.835 34.061 163.804 35.3755L165.106 37.2741C165.56 37.9396 166.297 38.4617 167.189 38.7509C168.082 39.0402 169.075 39.0787 170 38.8601" stroke="black" stroke-width="5.05" stroke-linecap="round" stroke-linejoin="round"/>
<path d="M160 32.2953C160.153 31.7864 160.378 31.2925 160.671 30.8225C161.132 30.1526 161.821 29.717 162.895 30.2151C165.004 31.1917 165.835 34.061 163.804 35.3755L165.106 37.2741C165.56 37.9396 166.297 38.4617 167.189 38.7509C168.082 39.0402 169.075 39.0787 170 38.8601" stroke="black" stroke-width="5.05" stroke-linecap="round" stroke-linejoin="round"/>
<path d="M169 36L170.18 38.3468C170.476 38.9076 171.326 40.6318 172.216 42.4239C172.849 43.707 173.509 45.0281 174 46" stroke="black" stroke-width="5.05" stroke-linecap="round" stroke-linejoin="round"/>
<path d="M169 36L170.18 38.3468C170.476 38.9076 171.326 40.6318 172.216 42.4239C172.849 43.707 173.509 45.0281 174 46" stroke="black" stroke-width="5.05" stroke-linecap="round" stroke-linejoin="round"/>
<path d="M149 28.1426C149 28.1426 152.48 27.2349 154 30" stroke="black" stroke-width="5.05" stroke-miterlimit="10"/>
<path d="M149 28.1426C149 28.1426 152.48 27.2349 154 30" stroke="black" stroke-width="5.05" stroke-miterlimit="10"/>
<path d="M150 34.784C149.037 35.0166 147.743 35.225 147 34.4846L148.618 31.4786C149.011 30.7415 149.108 29.9082 148.893 29.1159C148.54 27.7828 147.658 25.7579 148.604 24" stroke="black" stroke-width="5.05" stroke-miterlimit="10"/>
<path d="M150 34.784C149.037 35.0166 147.743 35.225 147 34.4846L148.618 31.4786C149.011 30.7415 149.108 29.9082 148.893 29.1159C148.54 27.7828 147.658 25.7579 148.604 24" stroke="black" stroke-width="5.05" stroke-miterlimit="10"/>
<path d="M151.89 30.7891C152.142 30.5638 151.947 30.2517 151.456 30.0921C150.965 29.9325 150.362 29.9856 150.11 30.2109C149.858 30.4362 150.053 30.7482 150.544 30.9079C151.035 31.0676 151.638 31.0144 151.89 30.7891Z" fill="black"/>
<path d="M151.89 30.7891C152.142 30.5638 151.947 30.2517 151.456 30.0921C150.965 29.9325 150.362 29.9856 150.11 30.2109C149.858 30.4362 150.053 30.7482 150.544 30.9079C151.035 31.0676 151.638 31.0144 151.89 30.7891Z" fill="black"/>
<path d="M157 50V41" stroke="black" stroke-width="5.05" stroke-miterlimit="10"/>
<path d="M157 50V41" stroke="black" stroke-width="5.05" stroke-miterlimit="10"/>
<path d="M160 32L159.313 31.6594L158 31" stroke="black" stroke-width="5.05" stroke-linecap="round" stroke-linejoin="round"/>
<path d="M160 32L159.313 31.6594L158 31" stroke="black" stroke-width="5.05" stroke-linecap="round" stroke-linejoin="round"/>
<path d="M154 35C154 35 153.949 37.1253 152 38" stroke="black" stroke-width="5.05" stroke-miterlimit="10"/>
<path d="M154 35C154 35 153.949 37.1253 152 38" stroke="black" stroke-width="5.05" stroke-miterlimit="10"/>
<path d="M168.2 35.9586C171.126 36.3896 173.173 33.3568 172.281 31.5059C171.673 30.2343 171.703 29.2454 172.516 28.0089C172.57 27.925 172.615 27.8431 172.661 27.7612C173.265 26.6554 173.051 25.5593 172.103 24.6192C171.203 23.7298 169.848 23.4178 170.238 22.1208C170.413 21.5577 170.478 20.9749 170.431 20.3947C170.33 19.6374 170.034 18.907 169.564 18.2526C169.094 17.5983 168.461 17.0352 167.707 16.6012C166.124 15.7294 164.342 16.5193 162.637 16.4979C160.585 16.4725 159.103 15.0215 156.95 15C155.872 15 155.003 15.3335 154.087 15.7665C153.317 16.1351 152.554 16.5232 151.826 16.9367C151.098 17.3502 150.417 17.7169 149.553 17.7169C148.407 17.7169 147.301 17.1317 146.155 17.4048C145.009 17.6778 144.329 18.4658 144.103 19.3786C143.737 20.8101 144.378 22.5986 145.531 23.4743C146.719 24.3754 148.543 24.4241 150.053 24.3032C151.984 24.1569 153.895 23.7688 155.785 23.4412L156.933 23.3924H156.95C157.17 23.3942 157.388 23.432 157.59 23.5036C157.793 23.5753 157.977 23.6793 158.131 23.81C158.285 23.9405 158.406 24.0951 158.489 24.2646C158.571 24.4343 158.612 24.6157 158.61 24.7986C158.636 26.857 158.389 28.9113 157.873 30.9247" stroke="black" stroke-width="5.05" stroke-miterlimit="10"/>
<path d="M168.2 35.9586C171.126 36.3896 173.173 33.3568 172.281 31.5059C171.673 30.2343 171.703 29.2454 172.516 28.0089C172.57 27.925 172.615 27.8431 172.661 27.7612C173.265 26.6554 173.051 25.5593 172.103 24.6192C171.203 23.7298 169.848 23.4178 170.238 22.1208C170.413 21.5577 170.478 20.9749 170.431 20.3947C170.33 19.6374 170.034 18.907 169.564 18.2526C169.094 17.5983 168.461 17.0352 167.707 16.6012C166.124 15.7294 164.342 16.5193 162.637 16.4979C160.585 16.4725 159.103 15.0215 156.95 15C155.872 15 155.003 15.3335 154.087 15.7665C153.317 16.1351 152.554 16.5232 151.826 16.9367C151.098 17.3502 150.417 17.7169 149.553 17.7169C148.407 17.7169 147.301 17.1317 146.155 17.4048C145.009 17.6778 144.329 18.4658 144.103 19.3786C143.737 20.8101 144.378 22.5986 145.531 23.4743C146.719 24.3754 148.543 24.4241 150.053 24.3032C151.984 24.1569 153.895 23.7688 155.785 23.4412L156.933 23.3924H156.95C157.17 23.3942 157.388 23.432 157.59 23.5036C157.793 23.5753 157.977 23.6793 158.131 23.81C158.285 23.9405 158.406 24.0951 158.489 24.2646C158.571 24.4343 158.612 24.6157 158.61 24.7986C158.636 26.857 158.389 28.9113 157.873 30.9247" stroke="black" stroke-width="5.05" stroke-miterlimit="10"/>
<path d="M161 38.6717C161 38.6717 156.748 44.0242 152.97 42.8248C149.192 41.6255 149 35 149 35" stroke="black" stroke-width="5.05" stroke-linecap="round" stroke-linejoin="round"/>
<path d="M161 38.6717C161 38.6717 156.748 44.0242 152.97 42.8248C149.192 41.6255 149 35 149 35" stroke="black" stroke-width="5.05" stroke-linecap="round" stroke-linejoin="round"/>
<path d="M46 174.971V104H52V175" stroke="black" stroke-width="5.05" stroke-miterlimit="10"/>
<path d="M46 174.971V104H52V175" stroke="black" stroke-width="5.05" stroke-miterlimit="10"/>
<path d="M51.5 62C56.1942 62 60 58.866 60 55C60 51.134 56.1942 48 51.5 48C46.8055 48 43 51.134 43 55C43 58.866 46.8055 62 51.5 62Z" fill="#3FBDF1"/>
<path d="M51.5 62C56.1942 62 60 58.866 60 55C60 51.134 56.1942 48 51.5 48C46.8055 48 43 51.134 43 55C43 58.866 46.8055 62 51.5 62Z" fill="#3FBDF1"/>
<path d="M48.065 56.3396C47.8304 56.2029 47.6221 56.0361 47.4473 55.8452C47.1378 55.5184 46.9795 55.1063 47.0021 54.6868C47.0247 54.2672 47.2268 53.8693 47.5704 53.5681C47.7944 53.3715 48.0688 53.2216 48.372 53.1306C48.6753 53.0395 48.9991 53.0096 49.3183 53.0432C49.2476 52.6647 49.3232 52.2766 49.534 51.938C49.7446 51.5994 50.0788 51.3284 50.4861 51.1661C50.8932 51.0039 51.3513 50.9588 51.7911 51.0382C52.2309 51.1176 52.6286 51.3169 52.9238 51.6059C53.5482 52.2091 53.8414 53.1062 53.951 53.8964C54.0076 54.3089 54.0153 54.7253 53.9734 55.139C53.9533 55.347 53.866 56.5476 53.6377 56.624C52.1293 57.1164 49.5577 57.2233 48.065 56.3396Z" fill="white"/>
<path d="M48.065 56.3396C47.8304 56.2029 47.6221 56.0361 47.4473 55.8452C47.1378 55.5184 46.9795 55.1063 47.0021 54.6868C47.0247 54.2672 47.2268 53.8693 47.5704 53.5681C47.7944 53.3715 48.0688 53.2216 48.372 53.1306C48.6753 53.0395 48.9991 53.0096 49.3183 53.0432C49.2476 52.6647 49.3232 52.2766 49.534 51.938C49.7446 51.5994 50.0788 51.3284 50.4861 51.1661C50.8932 51.0039 51.3513 50.9588 51.7911 51.0382C52.2309 51.1176 52.6286 51.3169 52.9238 51.6059C53.5482 52.2091 53.8414 53.1062 53.951 53.8964C54.0076 54.3089 54.0153 54.7253 53.9734 55.139C53.9533 55.347 53.866 56.5476 53.6377 56.624C52.1293 57.1164 49.5577 57.2233 48.065 56.3396Z" fill="white"/>
<path d="M110.5 60C112.985 60 115 58.433 115 56.5C115 54.567 112.985 53 110.5 53C108.015 53 106 54.567 106 56.5C106 58.433 108.015 60 110.5 60Z" fill="#3FBDF1"/>
<path d="M110.5 60C112.985 60 115 58.433 115 56.5C115 54.567 112.985 53 110.5 53C108.015 53 106 54.567 106 56.5C106 58.433 108.015 60 110.5 60Z" fill="#3FBDF1"/>
<path d="M109.504 54.2037C109.642 54.1224 109.793 54.0641 109.95 54.0309C110.22 53.9673 110.505 54.0026 110.751 54.1297C110.997 54.2571 111.186 54.4677 111.284 54.722C111.348 54.8881 111.372 55.0666 111.354 55.2433C111.335 55.4197 111.275 55.59 111.178 55.7402C111.417 55.8141 111.625 55.9604 111.773 56.1578C111.92 56.3552 112 56.5932 112 56.8378C112 57.0822 111.92 57.3204 111.773 57.5178C111.625 57.715 111.417 57.8613 111.178 57.9355C110.638 58.0509 110.076 58.0108 109.559 57.8203C109.298 57.7344 109.047 57.6234 108.809 57.4886C108.689 57.4218 107.988 57.0486 108 56.9127C108.069 56.0189 108.623 54.7059 109.504 54.2037Z" fill="white"/>
<path d="M109.504 54.2037C109.642 54.1224 109.793 54.0641 109.95 54.0309C110.22 53.9673 110.505 54.0026 110.751 54.1297C110.997 54.2571 111.186 54.4677 111.284 54.722C111.348 54.8881 111.372 55.0666 111.354 55.2433C111.335 55.4197 111.275 55.59 111.178 55.7402C111.417 55.8141 111.625 55.9604 111.773 56.1578C111.92 56.3552 112 56.5932 112 56.8378C112 57.0822 111.92 57.3204 111.773 57.5178C111.625 57.715 111.417 57.8613 111.178 57.9355C110.638 58.0509 110.076 58.0108 109.559 57.8203C109.298 57.7344 109.047 57.6234 108.809 57.4886C108.689 57.4218 107.988 57.0486 108 56.9127C108.069 56.0189 108.623 54.7059 109.504 54.2037Z" fill="white"/>
<path d="M75.5054 51.6954C76.004 52.0472 76.5602 52.3356 77.1572 52.5514C78.2562 52.9393 79.4556 53.0791 80.6377 52.9573C81.8199 52.8354 82.9442 52.4558 83.901 51.856C84.6423 51.3781 85.291 50.718 86.0578 50.2381C86.5927 49.8835 87.2351 49.6638 87.9111 49.6034C88.1358 49.6087 88.3587 49.5692 88.5621 49.4879C89.0764 49.2175 88.4694 48.769 88.4161 48.4517C88.3445 47.9441 88.4954 47.4321 88.8401 47.0119C89.7199 45.9025 90.1189 44.5697 89.9692 43.2397C89.8196 41.9099 89.1304 40.6647 88.0186 39.7154C86.9068 38.7662 85.4409 38.1713 83.8695 38.0317C82.2983 37.8922 80.7181 38.2164 79.3974 38.9495C78.0931 39.6723 77.1248 40.7438 76.1425 41.7683C75.2761 42.6713 74.3703 43.5606 73.7355 44.5928C72.2436 47.0198 73.1147 50.0089 75.5054 51.6954Z" fill="#3FBDF1"/>
<path d="M75.5054 51.6954C76.004 52.0472 76.5602 52.3356 77.1572 52.5514C78.2562 52.9393 79.4556 53.0791 80.6377 52.9573C81.8199 52.8354 82.9442 52.4558 83.901 51.856C84.6423 51.3781 85.291 50.718 86.0578 50.2381C86.5927 49.8835 87.2351 49.6638 87.9111 49.6034C88.1358 49.6087 88.3587 49.5692 88.5621 49.4879C89.0764 49.2175 88.4694 48.769 88.4161 48.4517C88.3445 47.9441 88.4954 47.4321 88.8401 47.0119C89.7199 45.9025 90.1189 44.5697 89.9692 43.2397C89.8196 41.9099 89.1304 40.6647 88.0186 39.7154C86.9068 38.7662 85.4409 38.1713 83.8695 38.0317C82.2983 37.8922 80.7181 38.2164 79.3974 38.9495C78.0931 39.6723 77.1248 40.7438 76.1425 41.7683C75.2761 42.6713 74.3703 43.5606 73.7355 44.5928C72.2436 47.0198 73.1147 50.0089 75.5054 51.6954Z" fill="#3FBDF1"/>
<path d="M84.5 44C85.3286 44 86 43.3284 86 42.5C86 41.6714 85.3286 41 84.5 41C83.6716 41 83 41.6714 83 42.5C83 43.3284 83.6716 44 84.5 44Z" fill="white"/>
<path d="M84.5 44C85.3286 44 86 43.3284 86 42.5C86 41.6714 85.3286 41 84.5 41C83.6716 41 83 41.6714 83 42.5C83 43.3284 83.6716 44 84.5 44Z" fill="white"/>
<path d="M81.5 47C82.3284 47 83 46.3284 83 45.5C83 44.6716 82.3284 44 81.5 44C80.6716 44 80 44.6716 80 45.5C80 46.3284 80.6716 47 81.5 47Z" fill="white"/>
<path d="M81.5 47C82.3284 47 83 46.3284 83 45.5C83 44.6716 82.3284 44 81.5 44C80.6716 44 80 44.6716 80 45.5C80 46.3284 80.6716 47 81.5 47Z" fill="white"/>
<path d="M78.5 50C79.3284 50 80 49.3284 80 48.5C80 47.6716 79.3284 47 78.5 47C77.6716 47 77 47.6716 77 48.5C77 49.3284 77.6716 50 78.5 50Z" fill="white"/>
<path d="M78.5 50C79.3284 50 80 49.3284 80 48.5C80 47.6716 79.3284 47 78.5 47C77.6716 47 77 47.6716 77 48.5C77 49.3284 77.6716 50 78.5 50Z" fill="white"/>
<g opacity="0.46">
<path opacity="0.46" d="M122.045 36.7031C121.928 37.1987 121.681 37.6657 121.323 38.0705C120.965 38.4752 120.504 38.8071 119.975 39.042L107.487 44.6474C107.016 44.8598 106.5 44.9915 105.968 45.0351C105.437 45.0785 104.901 45.0329 104.39 44.9009C103.88 44.7688 103.405 44.5531 102.994 44.2657C102.582 43.9783 102.242 43.625 101.993 43.2263L92.0391 27.3911C91.5347 26.5879 91.4282 25.6486 91.7433 24.7792C92.0582 23.91 92.7686 23.1817 93.7186 22.7548L106.216 17.1513C108.097 16.3066 110.692 16.9539 111.701 18.5704L121.657 34.3998C122.105 35.1046 122.242 35.9208 122.045 36.7031Z" fill="#005086"/>
</g>
<g opacity="0.46">
<path opacity="0.46" d="M122.045 36.7031C121.928 37.1987 121.681 37.6657 121.323 38.0705C120.965 38.4752 120.504 38.8071 119.975 39.042L107.487 44.6474C107.016 44.8598 106.5 44.9915 105.968 45.0351C105.437 45.0785 104.901 45.0329 104.39 44.9009C103.88 44.7688 103.405 44.5531 102.994 44.2657C102.582 43.9783 102.242 43.625 101.993 43.2263L92.0391 27.3911C91.5347 26.5879 91.4282 25.6486 91.7433 24.7792C92.0582 23.91 92.7686 23.1817 93.7186 22.7548L106.216 17.1513C108.097 16.3066 110.692 16.9539 111.701 18.5704L121.657 34.3998C122.105 35.1046 122.242 35.9208 122.045 36.7031Z" fill="#005086"/>
</g>
<path d="M118.095 35.9608L106.429 31.8116C106.28 31.7577 106.157 31.6562 106.081 31.5255C106.005 31.3946 105.982 31.2428 106.015 31.0974L108.72 19.485C108.751 19.3614 108.821 19.2495 108.921 19.1641C109.022 19.0785 109.147 19.0233 109.282 19.006C109.417 18.9885 109.554 19.0096 109.675 19.0664C109.797 19.1232 109.897 19.2132 109.962 19.3242L118.923 35.0817C118.986 35.1938 119.011 35.3214 118.995 35.4473C118.979 35.5733 118.923 35.6919 118.833 35.7871C118.743 35.8825 118.624 35.95 118.493 35.9811C118.361 36.012 118.222 36.0049 118.095 35.9608Z" fill="white"/>
<path d="M118.095 35.9608L106.429 31.8116C106.28 31.7577 106.157 31.6562 106.081 31.5255C106.005 31.3946 105.982 31.2428 106.015 31.0974L108.72 19.485C108.751 19.3614 108.821 19.2495 108.921 19.1641C109.022 19.0785 109.147 19.0233 109.282 19.006C109.417 18.9885 109.554 19.0096 109.675 19.0664C109.797 19.1232 109.897 19.2132 109.962 19.3242L118.923 35.0817C118.986 35.1938 119.011 35.3214 118.995 35.4473C118.979 35.5733 118.923 35.6919 118.833 35.7871C118.743 35.8825 118.624 35.95 118.493 35.9811C118.361 36.012 118.222 36.0049 118.095 35.9608Z" fill="white"/>
<g opacity="0.46">
<path opacity="0.46" d="M136.528 47.7226C136.783 47.8773 136.994 48.0786 137.145 48.3117C137.297 48.5446 137.384 48.8034 137.401 49.0686L137.868 55.3431C137.886 55.58 137.848 55.8174 137.757 56.0418C137.666 56.2665 137.524 56.4735 137.338 56.6513C137.152 56.8292 136.926 56.9742 136.674 57.0783C136.421 57.1823 136.147 57.2433 135.866 57.2577L124.722 57.8379C124.157 57.8666 123.601 57.7047 123.178 57.3879C122.754 57.0714 122.496 56.6255 122.46 56.1484L122.005 49.87C121.985 49.3959 122.181 48.9334 122.552 48.578C122.924 48.2225 123.443 48.001 124.002 47.9594L135.145 47.3673C135.641 47.3438 136.131 47.4697 136.528 47.7226Z" fill="#3FBDF1"/>
</g>
<g opacity="0.46">
<path opacity="0.46" d="M136.528 47.7226C136.783 47.8773 136.994 48.0786 137.145 48.3117C137.297 48.5446 137.384 48.8034 137.401 49.0686L137.868 55.3431C137.886 55.58 137.848 55.8174 137.757 56.0418C137.666 56.2665 137.524 56.4735 137.338 56.6513C137.152 56.8292 136.926 56.9742 136.674 57.0783C136.421 57.1823 136.147 57.2433 135.866 57.2577L124.722 57.8379C124.157 57.8666 123.601 57.7047 123.178 57.3879C122.754 57.0714 122.496 56.6255 122.46 56.1484L122.005 49.87C121.985 49.3959 122.181 48.9334 122.552 48.578C122.924 48.2225 123.443 48.001 124.002 47.9594L135.145 47.3673C135.641 47.3438 136.131 47.4697 136.528 47.7226Z" fill="#3FBDF1"/>
</g>
<path d="M134.894 48.5635L130.106 52.9092C130.045 52.962 129.966 52.9939 129.882 52.9992C129.799 53.0046 129.716 52.9832 129.647 52.9386L124.143 49.1753C124.084 49.1348 124.041 49.0786 124.018 49.0145C123.995 48.9504 123.994 48.8812 124.015 48.8167C124.037 48.7521 124.079 48.6952 124.137 48.6531C124.194 48.6113 124.265 48.5867 124.338 48.5825L134.631 48.0001C134.703 47.9984 134.774 48.0165 134.834 48.0522C134.895 48.0878 134.942 48.1393 134.971 48.2C134.999 48.2606 135.007 48.3277 134.994 48.3926C134.98 48.4574 134.945 48.5169 134.894 48.5635Z" fill="white"/>
<path d="M134.894 48.5635L130.106 52.9092C130.045 52.962 129.966 52.9939 129.882 52.9992C129.799 53.0046 129.716 52.9832 129.647 52.9386L124.143 49.1753C124.084 49.1348 124.041 49.0786 124.018 49.0145C123.995 48.9504 123.994 48.8812 124.015 48.8167C124.037 48.7521 124.079 48.6952 124.137 48.6531C124.194 48.6113 124.265 48.5867 124.338 48.5825L134.631 48.0001C134.703 47.9984 134.774 48.0165 134.834 48.0522C134.895 48.0878 134.942 48.1393 134.971 48.2C134.999 48.2606 135.007 48.3277 134.994 48.3926C134.98 48.4574 134.945 48.5169 134.894 48.5635Z" fill="white"/>
<g opacity="0.46">
<path opacity="0.46" d="M60.8415 82.2017C60.1101 82.3033 59.3706 82.3562 58.6294 82.3596C51.5327 82.3596 51.771 76.7996 51.771 76.7996L57.6506 77.8733C57.4285 77.4134 57.3434 76.9145 57.403 76.4202C57.4623 75.926 57.6646 75.4517 57.9917 75.039C59.3372 73.3771 62.4627 74.2317 62.4627 74.2317L64.4062 73.1738L63.9858 75.1476L66.5904 74.7765L65.2518 76.0851C67.0505 77.5457 69.3421 81.9925 63.8152 84.3037C58.2883 86.615 55.9033 83.8458 55.9033 83.8458L58.6294 82.3616L60.8415 82.2017Z" fill="#3FBDF1"/>
</g>
<g opacity="0.46">
<path opacity="0.46" d="M60.8415 82.2017C60.1101 82.3033 59.3706 82.3562 58.6294 82.3596C51.5327 82.3596 51.771 76.7996 51.771 76.7996L57.6506 77.8733C57.4285 77.4134 57.3434 76.9145 57.403 76.4202C57.4623 75.926 57.6646 75.4517 57.9917 75.039C59.3372 73.3771 62.4627 74.2317 62.4627 74.2317L64.4062 73.1738L63.9858 75.1476L66.5904 74.7765L65.2518 76.0851C67.0505 77.5457 69.3421 81.9925 63.8152 84.3037C58.2883 86.615 55.9033 83.8458 55.9033 83.8458L58.6294 82.3616L60.8415 82.2017Z" fill="#3FBDF1"/>
</g>
<path d="M61 77C61.5525 77 62 76.5525 62 76C62 75.4478 61.5525 75 61 75C60.4478 75 60 75.4478 60 76C60 76.5525 60.4478 77 61 77Z" fill="white"/>
<path d="M61 77C61.5525 77 62 76.5525 62 76C62 75.4478 61.5525 75 61 75C60.4478 75 60 75.4478 60 76C60 76.5525 60.4478 77 61 77Z" fill="white"/>
<path d="M76 178H173" stroke="black" stroke-width="3.15" stroke-miterlimit="10"/>
<path d="M76 178H173" stroke="black" stroke-width="3.15" stroke-miterlimit="10"/>
<path d="M38 82C45.7348 72.9584 57.3263 68.8602 57.3263 68.8602C57.7047 68.7285 56.0924 56.3414 56.0595 55.4628C55.5707 40.9923 58.4403 25.936 71.4468 15.487C87.706 2.43361 117.207 -0.271014 135.858 10.7264C135.623 10.5809 141.995 6.38048 142.533 6.1112C146.014 4.35417 149.942 3.30961 153.998 3.0626C170.318 2.07981 185.285 12.804 191.407 25.7768C197.53 38.7496 196.124 68.3078 184.892 76.8325" stroke="#005086" stroke-width="5.05" stroke-miterlimit="10"/>
<path d="M38 82C45.7348 72.9584 57.3263 68.8602 57.3263 68.8602C57.7047 68.7285 56.0924 56.3414 56.0595 55.4628C55.5707 40.9923 58.4403 25.936 71.4468 15.487C87.706 2.43361 117.207 -0.271014 135.858 10.7264C135.623 10.5809 141.995 6.38048 142.533 6.1112C146.014 4.35417 149.942 3.30961 153.998 3.0626C170.318 2.07981 185.285 12.804 191.407 25.7768C197.53 38.7496 196.124 68.3078 184.892 76.8325" stroke="#005086" stroke-width="5.05" stroke-miterlimit="10"/>
<path d="M32 98C32.3206 94.5092 33.1934 91.0956 34.584 87.894C34.7165 87.5896 34.8552 87.2915 35 87" stroke="#005086" stroke-width="5.05" stroke-miterlimit="10"/>
<path d="M32 98C32.3206 94.5092 33.1934 91.0956 34.584 87.894C34.7165 87.5896 34.8552 87.2915 35 87" stroke="#005086" stroke-width="5.05" stroke-miterlimit="10"/>
<path d="M52 136C49.8378 134.356 47.8351 132.682 46 131" stroke="#CCDDE2" stroke-width="5.05" stroke-miterlimit="10"/>
<path d="M52 136C49.8378 134.356 47.8351 132.682 46 131" stroke="#CCDDE2" stroke-width="5.05" stroke-miterlimit="10"/>
<path d="M206.995 93.2252C207.009 94.2149 206.995 95.2244 206.939 96.2359C206.611 102.493 205.045 108.96 201.132 114.229C200.419 115.201 199.625 116.127 198.754 117C190.427 116.06 189.185 108.791 179.557 104.682C168.022 99.7474 149.134 101.515 149.134 101.515L158.439 94.1694C157.942 72.0475 138.965 73.4053 138.965 73.4053L138 75.4263C138.733 73.596 139.473 71.8891 140.223 70.3056L140.264 70.2224C149.054 51.5407 158.16 49.2248 165.244 46.5269C166.937 46.1828 168.67 46.0061 170.409 46.0003C188.522 45.9172 199.152 61.703 203.801 74.4109C204.957 77.5779 206.736 84.3515 206.974 91.9683C206.979 92.3761 206.995 92.8016 206.995 93.2252Z" fill="#005086"/>
<path d="M206.995 93.2252C207.009 94.2149 206.995 95.2244 206.939 96.2359C206.611 102.493 205.045 108.96 201.132 114.229C200.419 115.201 199.625 116.127 198.754 117C190.427 116.06 189.185 108.791 179.557 104.682C168.022 99.7474 149.134 101.515 149.134 101.515L158.439 94.1694C157.942 72.0475 138.965 73.4053 138.965 73.4053L138 75.4263C138.733 73.596 139.473 71.8891 140.223 70.3056L140.264 70.2224C149.054 51.5407 158.16 49.2248 165.244 46.5269C166.937 46.1828 168.67 46.0061 170.409 46.0003C188.522 45.9172 199.152 61.703 203.801 74.4109C204.957 77.5779 206.736 84.3515 206.974 91.9683C206.979 92.3761 206.995 92.8016 206.995 93.2252Z" fill="#005086"/>
<path d="M217.579 175.473C216.151 177.108 213.796 177.999 211.368 177.999H183.474C182.402 178.012 181.338 177.838 180.352 177.488C179.366 177.139 178.479 176.621 177.747 175.969C177.733 175.969 177.747 175.969 177.747 175.969C177.648 175.886 177.555 175.797 177.47 175.703C176.596 174.802 176.049 173.712 175.894 172.562C175.754 171.505 176.697 170.565 177.975 170.608C178.459 170.623 178.92 170.784 179.272 171.061C179.624 171.337 179.844 171.711 179.891 172.112C179.891 172.196 179.912 172.278 179.926 172.36C180.029 172.837 180.281 173.283 180.656 173.654C180.988 173.98 181.404 174.239 181.874 174.412C182.344 174.585 182.855 174.667 183.368 174.652H211.488C211.991 174.659 212.49 174.576 212.951 174.407C213.412 174.238 213.824 173.989 214.157 173.675C214.534 173.313 214.791 172.875 214.903 172.405C215.015 171.935 214.978 171.449 214.796 170.995L202.237 139.917C202.134 139.679 202.013 139.446 201.873 139.222C201.135 137.926 199.967 136.833 198.506 136.073C197.045 135.313 195.352 134.918 193.629 134.935C188.341 134.988 181.628 134.999 180.997 134.999C166.925 134.956 160.522 134.956 157 135.034C157.242 134.314 157.679 133.65 158.277 133.092C158.277 133.092 158.291 133.081 158.291 133.075C159.15 132.313 160.326 131.852 161.579 131.787C166.796 131.431 171.961 130.783 176.979 129.649C185.833 127.653 194.279 124.227 200.147 118.719C203.003 116.053 205.162 112.921 206.487 109.524C207.514 106.826 208.162 104.038 208.417 101.216C208.507 100.325 208.564 99.4272 208.586 98.5233V98.4823C208.586 98.2752 208.6 98.0622 208.6 97.8551C208.632 96.5675 208.561 95.2796 208.388 94C209.922 94.01 211.39 94.5158 212.483 95.4107C212.579 95.6212 212.65 95.8392 212.695 96.0614C212.737 96.2718 212.758 96.4848 212.758 96.6984V121.972C212.761 123.699 212.351 125.408 211.554 127.002C210.756 128.595 209.586 130.041 208.111 131.256C205.669 133.268 204.974 136.322 206.132 139.009L218.614 169.916C218.991 170.843 219.094 171.832 218.914 172.8C218.733 173.767 218.275 174.684 217.579 175.473Z" fill="#005086"/>
<path d="M217.579 175.473C216.151 177.108 213.796 177.999 211.368 177.999H183.474C182.402 178.012 181.338 177.838 180.352 177.488C179.366 177.139 178.479 176.621 177.747 175.969C177.733 175.969 177.747 175.969 177.747 175.969C177.648 175.886 177.555 175.797 177.47 175.703C176.596 174.802 176.049 173.712 175.894 172.562C175.754 171.505 176.697 170.565 177.975 170.608C178.459 170.623 178.92 170.784 179.272 171.061C179.624 171.337 179.844 171.711 179.891 172.112C179.891 172.196 179.912 172.278 179.926 172.36C180.029 172.837 180.281 173.283 180.656 173.654C180.988 173.98 181.404 174.239 181.874 174.412C182.344 174.585 182.855 174.667 183.368 174.652H211.488C211.991 174.659 212.49 174.576 212.951 174.407C213.412 174.238 213.824 173.989 214.157 173.675C214.534 173.313 214.791 172.875 214.903 172.405C215.015 171.935 214.978 171.449 214.796 170.995L202.237 139.917C202.134 139.679 202.013 139.446 201.873 139.222C201.135 137.926 199.967 136.833 198.506 136.073C197.045 135.313 195.352 134.918 193.629 134.935C188.341 134.988 181.628 134.999 180.997 134.999C166.925 134.956 160.522 134.956 157 135.034C157.242 134.314 157.679 133.65 158.277 133.092C158.277 133.092 158.291 133.081 158.291 133.075C159.15 132.313 160.326 131.852 161.579 131.787C166.796 131.431 171.961 130.783 176.979 129.649C185.833 127.653 194.279 124.227 200.147 118.719C203.003 116.053 205.162 112.921 206.487 109.524C207.514 106.826 208.162 104.038 208.417 101.216C208.507 100.325 208.564 99.4272 208.586 98.5233V98.4823C208.586 98.2752 208.6 98.0622 208.6 97.8551C208.632 96.5675 208.561 95.2796 208.388 94C209.922 94.01 211.39 94.5158 212.483 95.4107C212.579 95.6212 212.65 95.8392 212.695 96.0614C212.737 96.2718 212.758 96.4848 212.758 96.6984V121.972C212.761 123.699 212.351 125.408 211.554 127.002C210.756 128.595 209.586 130.041 208.111 131.256C205.669 133.268 204.974 136.322 206.132 139.009L218.614 169.916C218.991 170.843 219.094 171.832 218.914 172.8C218.733 173.767 218.275 174.684 217.579 175.473Z" fill="#005086"/>
<path d="M46 174.971V104H52V175L46 174.971Z" fill="#2E2E2E"/>
<path d="M46 174.971V104H52V175L46 174.971Z" fill="#2E2E2E"/>
<path d="M149 101C152.673 101 156.921 101 161 101" stroke="black" stroke-width="5.05" stroke-miterlimit="10"/>
<path d="M149 101C152.673 101 156.921 101 161 101" stroke="black" stroke-width="5.05" stroke-miterlimit="10"/>
<path d="M128.58 105C121.965 106.39 115.528 108.398 110.037 111.735C100.822 117.328 96.6092 127.763 100.375 136.803C100.375 136.814 115.185 172.405 115.185 172.405H111.288C110.447 172.405 109.616 172.543 108.84 172.812C108.065 173.081 107.361 173.475 106.769 173.972C105.61 174.931 105.039 176.531 105.039 178H140.12L126.789 141.671C126.456 140.776 126.381 139.828 126.57 138.904C126.759 137.98 127.207 137.106 127.877 136.352C128.547 135.599 129.42 134.988 130.426 134.568C131.431 134.148 132.542 133.932 133.667 133.936C141.263 134.114 148.318 134.357 156 134.079" stroke="black" stroke-width="5.05" stroke-miterlimit="10"/>
<path d="M128.58 105C121.965 106.39 115.528 108.398 110.037 111.735C100.822 117.328 96.6092 127.763 100.375 136.803C100.375 136.814 115.185 172.405 115.185 172.405H111.288C110.447 172.405 109.616 172.543 108.84 172.812C108.065 173.081 107.361 173.475 106.769 173.972C105.61 174.931 105.039 176.531 105.039 178H140.12L126.789 141.671C126.456 140.776 126.381 139.828 126.57 138.904C126.759 137.98 127.207 137.106 127.877 136.352C128.547 135.599 129.42 134.988 130.426 134.568C131.431 134.148 132.542 133.932 133.667 133.936C141.263 134.114 148.318 134.357 156 134.079" stroke="black" stroke-width="5.05" stroke-miterlimit="10"/>
<path d="M207 96V95.9608C206.662 88.3237 206.206 80.7884 203.721 74.1069C199.039 61.535 188.334 45.9181 170.095 46.0003C168.343 46.006 166.598 46.1809 164.894 46.5212C152.871 48.924 144.521 59.2811 139.739 69.9633L139.697 70.0455C139.241 71.0703 138.818 72.0925 138.43 73.1121C138.167 73.7983 137.842 74.4666 137.459 75.1115C135.994 77.5932 133.672 79.6454 130.797 80.9993C127.922 82.3532 124.628 82.9458 121.346 82.6996C99.2655 81.0116 70.1652 80.0482 61 93.092" stroke="black" stroke-width="5.05" stroke-miterlimit="10"/>
<path d="M207 96V95.9608C206.662 88.3237 206.206 80.7884 203.721 74.1069C199.039 61.535 188.334 45.9181 170.095 46.0003C168.343 46.006 166.598 46.1809 164.894 46.5212C152.871 48.924 144.521 59.2811 139.739 69.9633L139.697 70.0455C139.241 71.0703 138.818 72.0925 138.43 73.1121C138.167 73.7983 137.842 74.4666 137.459 75.1115C135.994 77.5932 133.672 79.6454 130.797 80.9993C127.922 82.3532 124.628 82.9458 121.346 82.6996C99.2655 81.0116 70.1652 80.0482 61 93.092" stroke="black" stroke-width="5.05" stroke-miterlimit="10"/>
<path d="M171 82C167.784 85.29 164.398 88.4675 160.898 91.5403C153.732 97.836 147.55 104.523 136.429 104.969C127.558 105.33 119.113 102.445 110.723 100.445C101.749 98.3061 97.2075 96.5959 88.844 94.4354C86.4351 93.8157 83.9363 93.4834 81.4195 93.448L73 93.5033" stroke="black" stroke-width="5.05" stroke-miterlimit="10"/>
<path d="M171 82C167.784 85.29 164.398 88.4675 160.898 91.5403C153.732 97.836 147.55 104.523 136.429 104.969C127.558 105.33 119.113 102.445 110.723 100.445C101.749 98.3061 97.2075 96.5959 88.844 94.4354C86.4351 93.8157 83.9363 93.4834 81.4195 93.448L73 93.5033" stroke="black" stroke-width="5.05" stroke-miterlimit="10"/>
<path d="M138.388 173C139.213 172.691 140.108 172.532 141.012 172.535H145C145 172.535 136.665 159.006 130 150" stroke="black" stroke-width="5.05" stroke-miterlimit="10"/>
<path d="M138.388 173C139.213 172.691 140.108 172.532 141.012 172.535H145C145 172.535 136.665 159.006 130 150" stroke="black" stroke-width="5.05" stroke-miterlimit="10"/>
<path d="M143.312 134L171 178H139.681H134" stroke="black" stroke-width="5.05" stroke-miterlimit="10"/>
<path d="M143.312 134L171 178H139.681H134" stroke="black" stroke-width="5.05" stroke-miterlimit="10"/>
<path d="M217.599 175.463C216.182 177.105 213.845 178 211.436 178H183.754C181.459 178 179.22 177.199 177.789 175.688C176.921 174.783 176.379 173.688 176.225 172.533C176.086 171.471 177.022 170.527 178.29 170.57C178.77 170.586 179.228 170.747 179.577 171.025C179.927 171.303 180.145 171.678 180.191 172.081C180.248 172.651 180.513 173.192 180.951 173.63C181.285 173.952 181.699 174.209 182.164 174.383C182.629 174.556 183.134 174.641 183.642 174.632H211.555C212.054 174.639 212.55 174.556 213.007 174.386C213.464 174.217 213.873 173.966 214.204 173.651C214.577 173.287 214.832 172.847 214.943 172.375C215.054 171.903 215.018 171.415 214.838 170.959L202.374 139.751C201.743 138.273 200.581 136.998 199.051 136.101C197.52 135.205 195.696 134.731 193.832 134.747C188.584 134.8 181.923 134.812 181.296 134.812C165.747 134.77 159.626 134.77 156.382 134.871C156.332 134.87 156.282 134.861 156.235 134.845C156.189 134.829 156.146 134.804 156.111 134.774C156.076 134.744 156.047 134.708 156.028 134.669C156.009 134.629 156 134.587 156 134.545C155.995 133.333 156.523 132.163 157.482 131.26C157.486 131.257 157.489 131.254 157.491 131.251C157.494 131.248 157.495 131.244 157.496 131.24C158.349 130.477 159.515 130.015 160.758 129.949C165.936 129.591 171.062 128.94 176.041 127.802C184.828 125.796 193.21 122.356 199.033 116.824C201.867 114.146 204.009 111 205.324 107.588C206.341 104.879 206.982 102.081 207.232 99.2475C207.324 98.3499 207.38 97.4485 207.4 96.5432V96.5C207.4 96.294 207.414 96.0801 207.414 95.872C207.446 94.5788 207.376 93.2853 207.204 92.0001C209.739 91.9883 212.296 93.5406 212.738 95.7072C212.78 95.9186 212.801 96.1325 212.801 96.347V121.728C212.804 123.462 212.397 125.179 211.606 126.779C210.814 128.38 209.653 129.832 208.19 131.052C205.767 133.073 205.077 136.14 206.226 138.839L218.613 169.881C218.989 170.812 219.093 171.805 218.917 172.776C218.74 173.748 218.288 174.669 217.599 175.463Z" stroke="black" stroke-width="5.05" stroke-miterlimit="10"/>
<path d="M217.599 175.463C216.182 177.105 213.845 178 211.436 178H183.754C181.459 178 179.22 177.199 177.789 175.688C176.921 174.783 176.379 173.688 176.225 172.533C176.086 171.471 177.022 170.527 178.29 170.57C178.77 170.586 179.228 170.747 179.577 171.025C179.927 171.303 180.145 171.678 180.191 172.081C180.248 172.651 180.513 173.192 180.951 173.63C181.285 173.952 181.699 174.209 182.164 174.383C182.629 174.556 183.134 174.641 183.642 174.632H211.555C212.054 174.639 212.55 174.556 213.007 174.386C213.464 174.217 213.873 173.966 214.204 173.651C214.577 173.287 214.832 172.847 214.943 172.375C215.054 171.903 215.018 171.415 214.838 170.959L202.374 139.751C201.743 138.273 200.581 136.998 199.051 136.101C197.52 135.205 195.696 134.731 193.832 134.747C188.584 134.8 181.923 134.812 181.296 134.812C165.747 134.77 159.626 134.77 156.382 134.871C156.332 134.87 156.282 134.861 156.235 134.845C156.189 134.829 156.146 134.804 156.111 134.774C156.076 134.744 156.047 134.708 156.028 134.669C156.009 134.629 156 134.587 156 134.545C155.995 133.333 156.523 132.163 157.482 131.26C157.486 131.257 157.489 131.254 157.491 131.251C157.494 131.248 157.495 131.244 157.496 131.24C158.349 130.477 159.515 130.015 160.758 129.949C165.936 129.591 171.062 128.94 176.041 127.802C184.828 125.796 193.21 122.356 199.033 116.824C201.867 114.146 204.009 111 205.324 107.588C206.341 104.879 206.982 102.081 207.232 99.2475C207.324 98.3499 207.38 97.4485 207.4 96.5432V96.5C207.4 96.294 207.414 96.0801 207.414 95.872C207.446 94.5788 207.376 93.2853 207.204 92.0001C209.739 91.9883 212.296 93.5406 212.738 95.7072C212.78 95.9186 212.801 96.1325 212.801 96.347V121.728C212.804 123.462 212.397 125.179 211.606 126.779C210.814 128.38 209.653 129.832 208.19 131.052C205.767 133.073 205.077 136.14 206.226 138.839L218.613 169.881C218.989 170.812 219.093 171.805 218.917 172.776C218.74 173.748 218.288 174.669 217.599 175.463Z" stroke="black" stroke-width="5.05" stroke-miterlimit="10"/>
<path d="M83.8219 98H12.1781C10.4229 98 9 99.3426 9 100.999V101.001C9 102.657 10.4229 104 12.1781 104H83.8219C85.5771 104 87 102.657 87 101.001V100.999C87 99.3426 85.5771 98 83.8219 98Z" stroke="black" stroke-width="5.05" stroke-miterlimit="10"/>
<path d="M83.8219 98H12.1781C10.4229 98 9 99.3426 9 100.999V101.001C9 102.657 10.4229 104 12.1781 104H83.8219C85.5771 104 87 102.657 87 101.001V100.999C87 99.3426 85.5771 98 83.8219 98Z" stroke="black" stroke-width="5.05" stroke-miterlimit="10"/>
<path d="M64.1942 175H34.8058C33.8085 175 33 175.672 33 176.5C33 177.328 33.8085 178 34.8058 178H64.1942C65.1915 178 66 177.328 66 176.5C66 175.672 65.1915 175 64.1942 175Z" stroke="black" stroke-width="5.05" stroke-miterlimit="10"/>
<path d="M64.1942 175H34.8058C33.8085 175 33 175.672 33 176.5C33 177.328 33.8085 178 34.8058 178H64.1942C65.1915 178 66 177.328 66 176.5C66 175.672 65.1915 175 64.1942 175Z" stroke="black" stroke-width="5.05" stroke-miterlimit="10"/>
<path d="M42 95.8366V96.0778C42.0473 97.7361 44.1591 97.9895 45.9801 98L81.1834 97.9825C82.7253 97.9825 83.9976 97.1088 84 96.0358V95.9904C83.9716 94.9419 82.7324 94.0874 81.2095 94.0856C81.2095 94.0856 61.5149 94.0332 46.2615 94C45.9872 94.5907 45.2919 95.0485 44.424 95.4225C43.6774 95.7117 42.8428 95.8543 42 95.8366Z" stroke="black" stroke-width="5.05" stroke-miterlimit="10"/>
<path d="M42 95.8366V96.0778C42.0473 97.7361 44.1591 97.9895 45.9801 98L81.1834 97.9825C82.7253 97.9825 83.9976 97.1088 84 96.0358V95.9904C83.9716 94.9419 82.7324 94.0874 81.2095 94.0856C81.2095 94.0856 61.5149 94.0332 46.2615 94C45.9872 94.5907 45.2919 95.0485 44.424 95.4225C43.6774 95.7117 42.8428 95.8543 42 95.8366Z" stroke="black" stroke-width="5.05" stroke-miterlimit="10"/>
<path d="M23.0008 69.1009C23.0082 69.4132 23.115 69.7182 23.3104 69.9845L39.6163 92.8929C39.8273 93.1683 40.104 93.4043 40.4294 93.586C40.7548 93.7676 41.1216 93.891 41.5068 93.9485C42.1583 94.0558 42.8335 93.9946 43.4422 93.7726C44.4418 93.4009 45.0185 92.6518 44.9995 91.8927C44.996 91.7972 44.984 91.7019 44.9641 91.608C44.9138 91.3987 44.8211 91.1981 44.69 91.015L28.3841 68.1066C27.6752 67.1044 25.9406 66.711 24.5464 67.2269C23.5515 67.5907 22.9748 68.3398 23.0008 69.1009Z" stroke="black" stroke-width="5.05" stroke-miterlimit="10"/>
<path d="M23.0008 69.1009C23.0082 69.4132 23.115 69.7182 23.3104 69.9845L39.6163 92.8929C39.8273 93.1683 40.104 93.4043 40.4294 93.586C40.7548 93.7676 41.1216 93.891 41.5068 93.9485C42.1583 94.0558 42.8335 93.9946 43.4422 93.7726C44.4418 93.4009 45.0185 92.6518 44.9995 91.8927C44.996 91.7972 44.984 91.7019 44.9641 91.608C44.9138 91.3987 44.8211 91.1981 44.69 91.015L28.3841 68.1066C27.6752 67.1044 25.9406 66.711 24.5464 67.2269C23.5515 67.5907 22.9748 68.3398 23.0008 69.1009Z" stroke="black" stroke-width="5.05" stroke-miterlimit="10"/>
<path d="M67 94C67 94 68.8184 92.4543 73 90" stroke="black" stroke-width="5.05" stroke-miterlimit="10"/>
<path d="M67 94C67 94 68.8184 92.4543 73 90" stroke="black" stroke-width="5.05" stroke-miterlimit="10"/>
<path d="M82.9197 67.5886L75.9386 74.2005C75.4525 74.6611 74.7777 74.9447 74.0538 74.9927C73.3296 75.0408 72.6117 74.8494 72.0481 74.4583C71.7368 74.2424 71.4828 73.9727 71.3026 73.6668C71.1223 73.3609 71.02 73.0259 71.0027 72.6838C70.9852 72.3417 71.0529 72.0002 71.2014 71.6821C71.3498 71.364 71.5757 71.0764 71.8638 70.8384L73.1406 69.7834C73.189 69.7243 73.2443 69.6712 73.2996 69.6161L74.2215 68.748L82.15 61.3901C83.1122 60.4868 84.324 59.804 85.6746 59.4038C87.0255 59.0034 88.4722 58.8987 89.8825 59.0989L90 59.1166" stroke="black" stroke-width="5.05" stroke-miterlimit="10"/>
<path d="M82.9197 67.5886L75.9386 74.2005C75.4525 74.6611 74.7777 74.9447 74.0538 74.9927C73.3296 75.0408 72.6117 74.8494 72.0481 74.4583C71.7368 74.2424 71.4828 73.9727 71.3026 73.6668C71.1223 73.3609 71.02 73.0259 71.0027 72.6838C70.9852 72.3417 71.0529 72.0002 71.2014 71.6821C71.3498 71.364 71.5757 71.0764 71.8638 70.8384L73.1406 69.7834C73.189 69.7243 73.2443 69.6712 73.2996 69.6161L74.2215 68.748L82.15 61.3901C83.1122 60.4868 84.324 59.804 85.6746 59.4038C87.0255 59.0034 88.4722 58.8987 89.8825 59.0989L90 59.1166" stroke="black" stroke-width="5.05" stroke-miterlimit="10"/>
<path d="M92.825 70H85.25C84.388 70 83.5615 69.7365 82.952 69.2677C82.3425 68.7988 82 68.1631 82 67.5C82 66.8369 82.3425 66.2012 82.952 65.7323C83.5615 65.2635 84.388 65 85.25 65H96" stroke="black" stroke-width="5.05" stroke-miterlimit="10"/>
<path d="M92.825 70H85.25C84.388 70 83.5615 69.7365 82.952 69.2677C82.3425 68.7988 82 68.1631 82 67.5C82 66.8369 82.3425 66.2012 82.952 65.7323C83.5615 65.2635 84.388 65 85.25 65H96" stroke="black" stroke-width="5.05" stroke-miterlimit="10"/>
<path d="M87 70C86.9094 70.9293 86.4714 71.6171 85.8263 72.1001C84.165 73.3251 81.1187 73.1904 79 72.3486" stroke="black" stroke-width="5.05" stroke-miterlimit="10"/>
<path d="M87 70C86.9094 70.9293 86.4714 71.6171 85.8263 72.1001C84.165 73.3251 81.1187 73.1904 79 72.3486" stroke="black" stroke-width="5.05" stroke-miterlimit="10"/>
<path d="M73.3878 68.854C71.3377 66.7956 71.759 63.9973 73.3525 61.8329C79.9313 52.877 92.4721 58.393 100.717 62.2529C105.626 64.5615 110.317 67.1762 114.753 70.0745C118.679 72.6255 122.313 75.6788 127.03 77.2134C129.854 78.1337 133.19 78.3534 136 77.2918" stroke="black" stroke-width="5.05" stroke-miterlimit="10"/>
<path d="M73.3878 68.854C71.3377 66.7956 71.759 63.9973 73.3525 61.8329C79.9313 52.877 92.4721 58.393 100.717 62.2529C105.626 64.5615 110.317 67.1762 114.753 70.0745C118.679 72.6255 122.313 75.6788 127.03 77.2134C129.854 78.1337 133.19 78.3534 136 77.2918" stroke="black" stroke-width="5.05" stroke-miterlimit="10"/>
<path d="M86 72C90.8961 75.0911 95.5711 78.4306 100 82" stroke="black" stroke-width="5.05" stroke-miterlimit="10"/>
<path d="M86 72C90.8961 75.0911 95.5711 78.4306 100 82" stroke="black" stroke-width="5.05" stroke-miterlimit="10"/>
<path d="M145.562 23.4984C146.769 24.4343 148.623 24.485 150.158 24.3594C152.119 24.2074 154.062 23.8043 155.983 23.4639L157.149 23.4133H157.166C157.39 23.4153 157.611 23.4544 157.817 23.5289C158.023 23.6033 158.209 23.7115 158.366 23.847C158.522 23.9827 158.646 24.1432 158.73 24.3195C158.813 24.4955 158.855 24.6841 158.853 24.874C158.88 27.0121 158.628 29.1462 158.104 31.2374L160.34 32.2645C160.628 31.5798 160.304 30.5931 160.989 30.5182C161.428 29.8233 162.082 29.3715 163.108 29.8881C165.117 30.9011 165.909 33.8771 163.974 35.2406L165.215 37.2098C165.647 37.9002 166.348 38.4416 167.199 38.7416C168.049 39.0416 168.996 39.0817 169.877 38.8548L168.61 36.4764C171.584 36.9241 173.664 33.7738 172.758 31.8512C172.14 30.5303 172.171 29.5032 172.996 28.2188C173.051 28.1316 172.49 28.0162 172.538 27.927C172.567 26.985 172.259 25.9761 171.724 25.4959C170.784 24.6369 168.892 24.483 169.278 23.1783C169.45 22.6106 169.514 22.0231 169.467 21.438C169.366 20.6732 169.073 19.9356 168.609 19.2749C168.144 18.6141 167.518 18.0454 166.773 17.607C165.208 16.7338 163.456 17.5259 161.783 17.5037C159.753 17.4854 158.297 16.0227 156.169 16.0004C155.109 15.9862 154.26 16.3367 153.353 16.7723C152.594 17.143 151.847 17.53 151.122 17.9494C150.396 18.3687 149.752 18.7314 148.886 18.7334C147.757 18.7455 146.667 18.1378 145.531 18.4214C144.957 18.5527 144.452 18.8454 144.099 19.252C143.739 20.7471 144.39 22.5968 145.562 23.4984Z" fill="#005086"/>
<path d="M145.562 23.4984C146.769 24.4343 148.623 24.485 150.158 24.3594C152.119 24.2074 154.062 23.8043 155.983 23.4639L157.149 23.4133H157.166C157.39 23.4153 157.611 23.4544 157.817 23.5289C158.023 23.6033 158.209 23.7115 158.366 23.847C158.522 23.9827 158.646 24.1432 158.73 24.3195C158.813 24.4955 158.855 24.6841 158.853 24.874C158.88 27.0121 158.628 29.1462 158.104 31.2374L160.34 32.2645C160.628 31.5798 160.304 30.5931 160.989 30.5182C161.428 29.8233 162.082 29.3715 163.108 29.8881C165.117 30.9011 165.909 33.8771 163.974 35.2406L165.215 37.2098C165.647 37.9002 166.348 38.4416 167.199 38.7416C168.049 39.0416 168.996 39.0817 169.877 38.8548L168.61 36.4764C171.584 36.9241 173.664 33.7738 172.758 31.8512C172.14 30.5303 172.171 29.5032 172.996 28.2188C173.051 28.1316 172.49 28.0162 172.538 27.927C172.567 26.985 172.259 25.9761 171.724 25.4959C170.784 24.6369 168.892 24.483 169.278 23.1783C169.45 22.6106 169.514 22.0231 169.467 21.438C169.366 20.6732 169.073 19.9356 168.609 19.2749C168.144 18.6141 167.518 18.0454 166.773 17.607C165.208 16.7338 163.456 17.5259 161.783 17.5037C159.753 17.4854 158.297 16.0227 156.169 16.0004C155.109 15.9862 154.26 16.3367 153.353 16.7723C152.594 17.143 151.847 17.53 151.122 17.9494C150.396 18.3687 149.752 18.7314 148.886 18.7334C147.757 18.7455 146.667 18.1378 145.531 18.4214C144.957 18.5527 144.452 18.8454 144.099 19.252C143.739 20.7471 144.39 22.5968 145.562 23.4984Z" fill="#005086"/>
<path d="M160 32.2953C160.153 31.7864 160.378 31.2925 160.671 30.8225C161.132 30.1526 161.821 29.717 162.895 30.2151C165.004 31.1917 165.835 34.061 163.804 35.3755L165.106 37.2741C165.56 37.9396 166.297 38.4617 167.189 38.7509C168.082 39.0402 169.075 39.0787 170 38.8601" stroke="black" stroke-width="5.05" stroke-linecap="round" stroke-linejoin="round"/>
<path d="M160 32.2953C160.153 31.7864 160.378 31.2925 160.671 30.8225C161.132 30.1526 161.821 29.717 162.895 30.2151C165.004 31.1917 165.835 34.061 163.804 35.3755L165.106 37.2741C165.56 37.9396 166.297 38.4617 167.189 38.7509C168.082 39.0402 169.075 39.0787 170 38.8601" stroke="black" stroke-width="5.05" stroke-linecap="round" stroke-linejoin="round"/>
<path d="M169 36L170.18 38.3468C170.476 38.9076 171.326 40.6318 172.216 42.4239C172.849 43.707 173.509 45.0281 174 46" stroke="black" stroke-width="5.05" stroke-linecap="round" stroke-linejoin="round"/>
<path d="M169 36L170.18 38.3468C170.476 38.9076 171.326 40.6318 172.216 42.4239C172.849 43.707 173.509 45.0281 174 46" stroke="black" stroke-width="5.05" stroke-linecap="round" stroke-linejoin="round"/>
<path d="M149 28.1426C149 28.1426 152.48 27.2349 154 30" stroke="black" stroke-width="5.05" stroke-miterlimit="10"/>
<path d="M149 28.1426C149 28.1426 152.48 27.2349 154 30" stroke="black" stroke-width="5.05" stroke-miterlimit="10"/>
<path d="M150 34.784C149.037 35.0166 147.743 35.225 147 34.4846L148.618 31.4786C149.011 30.7415 149.108 29.9082 148.893 29.1159C148.54 27.7828 147.658 25.7579 148.604 24" stroke="black" stroke-width="5.05" stroke-miterlimit="10"/>
<path d="M150 34.784C149.037 35.0166 147.743 35.225 147 34.4846L148.618 31.4786C149.011 30.7415 149.108 29.9082 148.893 29.1159C148.54 27.7828 147.658 25.7579 148.604 24" stroke="black" stroke-width="5.05" stroke-miterlimit="10"/>
<path d="M151.89 30.7891C152.142 30.5638 151.947 30.2517 151.456 30.0921C150.965 29.9325 150.362 29.9856 150.11 30.2109C149.858 30.4362 150.053 30.7482 150.544 30.9079C151.035 31.0676 151.638 31.0144 151.89 30.7891Z" fill="black"/>
<path d="M151.89 30.7891C152.142 30.5638 151.947 30.2517 151.456 30.0921C150.965 29.9325 150.362 29.9856 150.11 30.2109C149.858 30.4362 150.053 30.7482 150.544 30.9079C151.035 31.0676 151.638 31.0144 151.89 30.7891Z" fill="black"/>
<path d="M157 50V41" stroke="black" stroke-width="5.05" stroke-miterlimit="10"/>
<path d="M157 50V41" stroke="black" stroke-width="5.05" stroke-miterlimit="10"/>
<path d="M160 32L159.313 31.6594L158 31" stroke="black" stroke-width="5.05" stroke-linecap="round" stroke-linejoin="round"/>
<path d="M160 32L159.313 31.6594L158 31" stroke="black" stroke-width="5.05" stroke-linecap="round" stroke-linejoin="round"/>
<path d="M154 35C154 35 153.949 37.1253 152 38" stroke="black" stroke-width="5.05" stroke-miterlimit="10"/>
<path d="M154 35C154 35 153.949 37.1253 152 38" stroke="black" stroke-width="5.05" stroke-miterlimit="10"/>
<path d="M168.2 35.9586C171.126 36.3896 173.173 33.3568 172.281 31.5059C171.673 30.2343 171.703 29.2454 172.516 28.0089C172.57 27.925 172.615 27.8431 172.661 27.7612C173.265 26.6554 173.051 25.5593 172.103 24.6192C171.203 23.7298 169.848 23.4178 170.238 22.1208C170.413 21.5577 170.478 20.9749 170.431 20.3947C170.33 19.6374 170.034 18.907 169.564 18.2526C169.094 17.5983 168.461 17.0352 167.707 16.6012C166.124 15.7294 164.342 16.5193 162.637 16.4979C160.585 16.4725 159.103 15.0215 156.95 15C155.872 15 155.003 15.3335 154.087 15.7665C153.317 16.1351 152.554 16.5232 151.826 16.9367C151.098 17.3502 150.417 17.7169 149.553 17.7169C148.407 17.7169 147.301 17.1317 146.155 17.4048C145.009 17.6778 144.329 18.4658 144.103 19.3786C143.737 20.8101 144.378 22.5986 145.531 23.4743C146.719 24.3754 148.543 24.4241 150.053 24.3032C151.984 24.1569 153.895 23.7688 155.785 23.4412L156.933 23.3924H156.95C157.17 23.3942 157.388 23.432 157.59 23.5036C157.793 23.5753 157.977 23.6793 158.131 23.81C158.285 23.9405 158.406 24.0951 158.489 24.2646C158.571 24.4343 158.612 24.6157 158.61 24.7986C158.636 26.857 158.389 28.9113 157.873 30.9247" stroke="black" stroke-width="5.05" stroke-miterlimit="10"/>
<path d="M168.2 35.9586C171.126 36.3896 173.173 33.3568 172.281 31.5059C171.673 30.2343 171.703 29.2454 172.516 28.0089C172.57 27.925 172.615 27.8431 172.661 27.7612C173.265 26.6554 173.051 25.5593 172.103 24.6192C171.203 23.7298 169.848 23.4178 170.238 22.1208C170.413 21.5577 170.478 20.9749 170.431 20.3947C170.33 19.6374 170.034 18.907 169.564 18.2526C169.094 17.5983 168.461 17.0352 167.707 16.6012C166.124 15.7294 164.342 16.5193 162.637 16.4979C160.585 16.4725 159.103 15.0215 156.95 15C155.872 15 155.003 15.3335 154.087 15.7665C153.317 16.1351 152.554 16.5232 151.826 16.9367C151.098 17.3502 150.417 17.7169 149.553 17.7169C148.407 17.7169 147.301 17.1317 146.155 17.4048C145.009 17.6778 144.329 18.4658 144.103 19.3786C143.737 20.8101 144.378 22.5986 145.531 23.4743C146.719 24.3754 148.543 24.4241 150.053 24.3032C151.984 24.1569 153.895 23.7688 155.785 23.4412L156.933 23.3924H156.95C157.17 23.3942 157.388 23.432 157.59 23.5036C157.793 23.5753 157.977 23.6793 158.131 23.81C158.285 23.9405 158.406 24.0951 158.489 24.2646C158.571 24.4343 158.612 24.6157 158.61 24.7986C158.636 26.857 158.389 28.9113 157.873 30.9247" stroke="black" stroke-width="5.05" stroke-miterlimit="10"/>
<path d="M161 38.6717C161 38.6717 156.748 44.0242 152.97 42.8248C149.192 41.6255 149 35 149 35" stroke="black" stroke-width="5.05" stroke-linecap="round" stroke-linejoin="round"/>
<path d="M161 38.6717C161 38.6717 156.748 44.0242 152.97 42.8248C149.192 41.6255 149 35 149 35" stroke="black" stroke-width="5.05" stroke-linecap="round" stroke-linejoin="round"/>
<path d="M46 174.971V104H52V175" stroke="black" stroke-width="5.05" stroke-miterlimit="10"/>
<path d="M46 174.971V104H52V175" stroke="black" stroke-width="5.05" stroke-miterlimit="10"/>
<path d="M51.5 62C56.1942 62 60 58.866 60 55C60 51.134 56.1942 48 51.5 48C46.8055 48 43 51.134 43 55C43 58.866 46.8055 62 51.5 62Z" fill="#005086"/>
<path d="M51.5 62C56.1942 62 60 58.866 60 55C60 51.134 56.1942 48 51.5 48C46.8055 48 43 51.134 43 55C43 58.866 46.8055 62 51.5 62Z" fill="#005086"/>
<path d="M48.065 56.3396C47.8304 56.2029 47.6221 56.0361 47.4473 55.8452C47.1378 55.5184 46.9795 55.1063 47.0021 54.6868C47.0247 54.2672 47.2268 53.8693 47.5704 53.5681C47.7944 53.3715 48.0688 53.2216 48.372 53.1306C48.6753 53.0395 48.9991 53.0096 49.3183 53.0432C49.2476 52.6647 49.3232 52.2766 49.534 51.938C49.7446 51.5994 50.0788 51.3284 50.4861 51.1661C50.8932 51.0039 51.3513 50.9588 51.7911 51.0382C52.2309 51.1176 52.6286 51.3169 52.9238 51.6059C53.5482 52.2091 53.8414 53.1062 53.951 53.8964C54.0076 54.3089 54.0153 54.7253 53.9734 55.139C53.9533 55.347 53.866 56.5476 53.6377 56.624C52.1293 57.1164 49.5577 57.2233 48.065 56.3396Z" fill="white"/>
<path d="M48.065 56.3396C47.8304 56.2029 47.6221 56.0361 47.4473 55.8452C47.1378 55.5184 46.9795 55.1063 47.0021 54.6868C47.0247 54.2672 47.2268 53.8693 47.5704 53.5681C47.7944 53.3715 48.0688 53.2216 48.372 53.1306C48.6753 53.0395 48.9991 53.0096 49.3183 53.0432C49.2476 52.6647 49.3232 52.2766 49.534 51.938C49.7446 51.5994 50.0788 51.3284 50.4861 51.1661C50.8932 51.0039 51.3513 50.9588 51.7911 51.0382C52.2309 51.1176 52.6286 51.3169 52.9238 51.6059C53.5482 52.2091 53.8414 53.1062 53.951 53.8964C54.0076 54.3089 54.0153 54.7253 53.9734 55.139C53.9533 55.347 53.866 56.5476 53.6377 56.624C52.1293 57.1164 49.5577 57.2233 48.065 56.3396Z" fill="white"/>
<path d="M110.5 60C112.985 60 115 58.433 115 56.5C115 54.567 112.985 53 110.5 53C108.015 53 106 54.567 106 56.5C106 58.433 108.015 60 110.5 60Z" fill="#005086"/>
<path d="M110.5 60C112.985 60 115 58.433 115 56.5C115 54.567 112.985 53 110.5 53C108.015 53 106 54.567 106 56.5C106 58.433 108.015 60 110.5 60Z" fill="#005086"/>
<path d="M109.504 54.2037C109.642 54.1224 109.793 54.0641 109.95 54.0309C110.22 53.9673 110.505 54.0026 110.751 54.1297C110.997 54.2571 111.186 54.4677 111.284 54.722C111.348 54.8881 111.372 55.0666 111.354 55.2433C111.335 55.4197 111.275 55.59 111.178 55.7402C111.417 55.8141 111.625 55.9604 111.773 56.1578C111.92 56.3552 112 56.5932 112 56.8378C112 57.0822 111.92 57.3204 111.773 57.5178C111.625 57.715 111.417 57.8613 111.178 57.9355C110.638 58.0509 110.076 58.0108 109.559 57.8203C109.298 57.7344 109.047 57.6234 108.809 57.4886C108.689 57.4218 107.988 57.0486 108 56.9127C108.069 56.0189 108.623 54.7059 109.504 54.2037Z" fill="white"/>
<path d="M109.504 54.2037C109.642 54.1224 109.793 54.0641 109.95 54.0309C110.22 53.9673 110.505 54.0026 110.751 54.1297C110.997 54.2571 111.186 54.4677 111.284 54.722C111.348 54.8881 111.372 55.0666 111.354 55.2433C111.335 55.4197 111.275 55.59 111.178 55.7402C111.417 55.8141 111.625 55.9604 111.773 56.1578C111.92 56.3552 112 56.5932 112 56.8378C112 57.0822 111.92 57.3204 111.773 57.5178C111.625 57.715 111.417 57.8613 111.178 57.9355C110.638 58.0509 110.076 58.0108 109.559 57.8203C109.298 57.7344 109.047 57.6234 108.809 57.4886C108.689 57.4218 107.988 57.0486 108 56.9127C108.069 56.0189 108.623 54.7059 109.504 54.2037Z" fill="white"/>
<path d="M75.5054 51.6954C76.004 52.0472 76.5602 52.3356 77.1572 52.5514C78.2562 52.9393 79.4556 53.0791 80.6377 52.9573C81.8199 52.8354 82.9442 52.4558 83.901 51.856C84.6423 51.3781 85.291 50.718 86.0578 50.2381C86.5927 49.8835 87.2351 49.6638 87.9111 49.6034C88.1358 49.6087 88.3587 49.5692 88.5621 49.4879C89.0764 49.2175 88.4694 48.769 88.4161 48.4517C88.3445 47.9441 88.4954 47.4321 88.8401 47.0119C89.7199 45.9025 90.1189 44.5697 89.9692 43.2397C89.8196 41.9099 89.1304 40.6647 88.0186 39.7154C86.9068 38.7662 85.4409 38.1713 83.8695 38.0317C82.2983 37.8922 80.7181 38.2164 79.3974 38.9495C78.0931 39.6723 77.1248 40.7438 76.1425 41.7683C75.2761 42.6713 74.3703 43.5606 73.7355 44.5928C72.2436 47.0198 73.1147 50.0089 75.5054 51.6954Z" fill="#005086"/>
<path d="M75.5054 51.6954C76.004 52.0472 76.5602 52.3356 77.1572 52.5514C78.2562 52.9393 79.4556 53.0791 80.6377 52.9573C81.8199 52.8354 82.9442 52.4558 83.901 51.856C84.6423 51.3781 85.291 50.718 86.0578 50.2381C86.5927 49.8835 87.2351 49.6638 87.9111 49.6034C88.1358 49.6087 88.3587 49.5692 88.5621 49.4879C89.0764 49.2175 88.4694 48.769 88.4161 48.4517C88.3445 47.9441 88.4954 47.4321 88.8401 47.0119C89.7199 45.9025 90.1189 44.5697 89.9692 43.2397C89.8196 41.9099 89.1304 40.6647 88.0186 39.7154C86.9068 38.7662 85.4409 38.1713 83.8695 38.0317C82.2983 37.8922 80.7181 38.2164 79.3974 38.9495C78.0931 39.6723 77.1248 40.7438 76.1425 41.7683C75.2761 42.6713 74.3703 43.5606 73.7355 44.5928C72.2436 47.0198 73.1147 50.0089 75.5054 51.6954Z" fill="#005086"/>
<path d="M84.5 44C85.3286 44 86 43.3284 86 42.5C86 41.6714 85.3286 41 84.5 41C83.6716 41 83 41.6714 83 42.5C83 43.3284 83.6716 44 84.5 44Z" fill="white"/>
<path d="M84.5 44C85.3286 44 86 43.3284 86 42.5C86 41.6714 85.3286 41 84.5 41C83.6716 41 83 41.6714 83 42.5C83 43.3284 83.6716 44 84.5 44Z" fill="white"/>
<path d="M81.5 47C82.3284 47 83 46.3284 83 45.5C83 44.6716 82.3284 44 81.5 44C80.6716 44 80 44.6716 80 45.5C80 46.3284 80.6716 47 81.5 47Z" fill="white"/>
<path d="M81.5 47C82.3284 47 83 46.3284 83 45.5C83 44.6716 82.3284 44 81.5 44C80.6716 44 80 44.6716 80 45.5C80 46.3284 80.6716 47 81.5 47Z" fill="white"/>
<path d="M78.5 50C79.3284 50 80 49.3284 80 48.5C80 47.6716 79.3284 47 78.5 47C77.6716 47 77 47.6716 77 48.5C77 49.3284 77.6716 50 78.5 50Z" fill="white"/>
<path d="M78.5 50C79.3284 50 80 49.3284 80 48.5C80 47.6716 79.3284 47 78.5 47C77.6716 47 77 47.6716 77 48.5C77 49.3284 77.6716 50 78.5 50Z" fill="white"/>
<path d="M118.095 35.9608L106.429 31.8116C106.28 31.7577 106.157 31.6562 106.081 31.5255C106.005 31.3946 105.982 31.2428 106.015 31.0974L108.72 19.485C108.751 19.3614 108.821 19.2495 108.921 19.1641C109.022 19.0785 109.147 19.0233 109.282 19.006C109.417 18.9885 109.554 19.0096 109.675 19.0664C109.797 19.1232 109.897 19.2132 109.962 19.3242L118.923 35.0817C118.986 35.1938 119.011 35.3214 118.995 35.4473C118.979 35.5733 118.923 35.6919 118.833 35.7871C118.743 35.8825 118.624 35.95 118.493 35.9811C118.361 36.012 118.222 36.0049 118.095 35.9608Z" fill="white"/>
<path d="M118.095 35.9608L106.429 31.8116C106.28 31.7577 106.157 31.6562 106.081 31.5255C106.005 31.3946 105.982 31.2428 106.015 31.0974L108.72 19.485C108.751 19.3614 108.821 19.2495 108.921 19.1641C109.022 19.0785 109.147 19.0233 109.282 19.006C109.417 18.9885 109.554 19.0096 109.675 19.0664C109.797 19.1232 109.897 19.2132 109.962 19.3242L118.923 35.0817C118.986 35.1938 119.011 35.3214 118.995 35.4473C118.979 35.5733 118.923 35.6919 118.833 35.7871C118.743 35.8825 118.624 35.95 118.493 35.9811C118.361 36.012 118.222 36.0049 118.095 35.9608Z" fill="white"/>
<g opacity="0.46">
<path opacity="0.46" d="M136.528 47.7226C136.783 47.8773 136.994 48.0786 137.145 48.3117C137.297 48.5446 137.384 48.8034 137.401 49.0686L137.868 55.3431C137.886 55.58 137.848 55.8174 137.757 56.0418C137.666 56.2665 137.524 56.4735 137.338 56.6513C137.152 56.8292 136.926 56.9742 136.674 57.0783C136.421 57.1823 136.147 57.2433 135.866 57.2577L124.722 57.8379C124.157 57.8666 123.601 57.7047 123.178 57.3879C122.754 57.0714 122.496 56.6255 122.46 56.1484L122.005 49.87C121.985 49.3959 122.181 48.9334 122.552 48.578C122.924 48.2225 123.443 48.001 124.002 47.9594L135.145 47.3673C135.641 47.3438 136.131 47.4697 136.528 47.7226Z" fill="#005086"/>
</g>
<g opacity="0.46">
<path opacity="0.46" d="M136.528 47.7226C136.783 47.8773 136.994 48.0786 137.145 48.3117C137.297 48.5446 137.384 48.8034 137.401 49.0686L137.868 55.3431C137.886 55.58 137.848 55.8174 137.757 56.0418C137.666 56.2665 137.524 56.4735 137.338 56.6513C137.152 56.8292 136.926 56.9742 136.674 57.0783C136.421 57.1823 136.147 57.2433 135.866 57.2577L124.722 57.8379C124.157 57.8666 123.601 57.7047 123.178 57.3879C122.754 57.0714 122.496 56.6255 122.46 56.1484L122.005 49.87C121.985 49.3959 122.181 48.9334 122.552 48.578C122.924 48.2225 123.443 48.001 124.002 47.9594L135.145 47.3673C135.641 47.3438 136.131 47.4697 136.528 47.7226Z" fill="#005086"/>
</g>
<path d="M134.894 48.5635L130.106 52.9092C130.045 52.962 129.966 52.9939 129.882 52.9992C129.799 53.0046 129.716 52.9832 129.647 52.9386L124.143 49.1753C124.084 49.1348 124.041 49.0786 124.018 49.0145C123.995 48.9504 123.994 48.8812 124.015 48.8167C124.037 48.7521 124.079 48.6952 124.137 48.6531C124.194 48.6113 124.265 48.5867 124.338 48.5825L134.631 48.0001C134.703 47.9984 134.774 48.0165 134.834 48.0522C134.895 48.0878 134.942 48.1393 134.971 48.2C134.999 48.2606 135.007 48.3277 134.994 48.3926C134.98 48.4574 134.945 48.5169 134.894 48.5635Z" fill="white"/>
<path d="M134.894 48.5635L130.106 52.9092C130.045 52.962 129.966 52.9939 129.882 52.9992C129.799 53.0046 129.716 52.9832 129.647 52.9386L124.143 49.1753C124.084 49.1348 124.041 49.0786 124.018 49.0145C123.995 48.9504 123.994 48.8812 124.015 48.8167C124.037 48.7521 124.079 48.6952 124.137 48.6531C124.194 48.6113 124.265 48.5867 124.338 48.5825L134.631 48.0001C134.703 47.9984 134.774 48.0165 134.834 48.0522C134.895 48.0878 134.942 48.1393 134.971 48.2C134.999 48.2606 135.007 48.3277 134.994 48.3926C134.98 48.4574 134.945 48.5169 134.894 48.5635Z" fill="white"/>
<g opacity="0.46">
<path opacity="0.46" d="M61.0715 82.0279C60.3401 82.1295 59.6006 82.1824 58.8594 82.1858C51.7627 82.1858 52.0009 76.6258 52.0009 76.6258L57.8806 77.6995C57.6584 77.2396 57.5734 76.7406 57.633 76.2464C57.6923 75.7522 57.8946 75.2779 58.2216 74.8652C59.5672 73.2033 62.6927 74.0579 62.6927 74.0579L64.6362 73L64.2157 74.9737L66.8203 74.6027L65.4818 75.9113C67.2805 77.3718 69.5721 81.8187 64.0452 84.1299C58.5183 86.4411 56.1333 83.672 56.1333 83.672L58.8594 82.1877L61.0715 82.0279Z" fill="#005086"/>
</g>
<g opacity="0.46">
<path opacity="0.46" d="M61.0715 82.0279C60.3401 82.1295 59.6006 82.1824 58.8594 82.1858C51.7627 82.1858 52.0009 76.6258 52.0009 76.6258L57.8806 77.6995C57.6584 77.2396 57.5734 76.7406 57.633 76.2464C57.6923 75.7522 57.8946 75.2779 58.2216 74.8652C59.5672 73.2033 62.6927 74.0579 62.6927 74.0579L64.6362 73L64.2157 74.9737L66.8203 74.6027L65.4818 75.9113C67.2805 77.3718 69.5721 81.8187 64.0452 84.1299C58.5183 86.4411 56.1333 83.672 56.1333 83.672L58.8594 82.1877L61.0715 82.0279Z" fill="#005086"/>
</g>
<path d="M61 77C61.5525 77 62 76.5525 62 76C62 75.4478 61.5525 75 61 75C60.4478 75 60 75.4478 60 76C60 76.5525 60.4478 77 61 77Z" fill="white"/>
<path d="M61 77C61.5525 77 62 76.5525 62 76C62 75.4478 61.5525 75 61 75C60.4478 75 60 75.4478 60 76C60 76.5525 60.4478 77 61 77Z" fill="white"/>
<path d="M76 178H173" stroke="black" stroke-width="3.15" stroke-miterlimit="10"/>
<path d="M76 178H173" stroke="black" stroke-width="3.15" stroke-miterlimit="10"/>
</svg>
