<svg width="55" height="48" viewBox="0 0 55 48" fill="none" xmlns="http://www.w3.org/2000/svg">
<path d="M30.7322 24L45.1697 11.42C45.6012 11.0434 45.8436 10.5326 45.8436 10C45.8436 9.46739 45.6012 8.9566 45.1697 8.58C44.7381 8.20339 44.1529 7.99181 43.5426 7.99181C42.9323 7.99181 42.347 8.20339 41.9155 8.58L27.5009 21.18L13.0863 8.58C12.6548 8.20339 12.0695 7.99181 11.4593 7.99181C10.849 7.99181 10.2637 8.20339 9.83217 8.58C9.40064 8.9566 9.15821 9.46739 9.15821 10C9.15821 10.5326 9.40064 11.0434 9.83217 11.42L24.2697 24L9.83217 36.58C9.61737 36.7659 9.44689 36.9871 9.33054 37.2308C9.2142 37.4746 9.1543 37.736 9.1543 38C9.1543 38.264 9.2142 38.5254 9.33054 38.7691C9.44689 39.0129 9.61737 39.2341 9.83217 39.42C10.0452 39.6075 10.2987 39.7562 10.5779 39.8578C10.8572 39.9593 11.1567 40.0116 11.4593 40.0116C11.7618 40.0116 12.0613 39.9593 12.3406 39.8578C12.6198 39.7562 12.8733 39.6075 13.0863 39.42L27.5009 26.82L41.9155 39.42C42.1285 39.6075 42.382 39.7562 42.6613 39.8578C42.9405 39.9593 43.2401 40.0116 43.5426 40.0116C43.8451 40.0116 44.1446 39.9593 44.4239 39.8578C44.7032 39.7562 44.9566 39.6075 45.1697 39.42C45.3845 39.2341 45.555 39.0129 45.6713 38.7691C45.7876 38.5254 45.8475 38.264 45.8475 38C45.8475 37.736 45.7876 37.4746 45.6713 37.2308C45.555 36.9871 45.3845 36.7659 45.1697 36.58L30.7322 24Z" fill="white"/>
</svg>
