<svg width="244" height="278" viewBox="0 0 244 278" fill="none" xmlns="http://www.w3.org/2000/svg">
<path d="M67 185.492C70.5756 177.561 72.833 168.411 73.0459 157.8C74.0792 105.899 134.319 65.8481 201.144 109.87C267.969 153.892 208.909 275 208.909 275" stroke="white" stroke-width="4.47" stroke-miterlimit="10"/>
<path d="M19.2512 275C16.2947 272.726 -6.24465 251.153 7.2934 238.806C13.0779 233.536 25.528 227.382 38 218" stroke="white" stroke-width="4.47" stroke-miterlimit="10"/>
<path d="M180 144C180.4 145.151 181.451 146.201 183 147" stroke="#CCDDE2" stroke-width="4.47" stroke-miterlimit="10"/>
<path d="M128.057 167.611C127.602 167.726 127.217 167.809 126.913 167.876C126.685 167.915 126.498 167.953 126.369 167.971H126.341L126.162 168C126.162 168 126.144 167.979 126.132 167.979C123.056 165.817 124.001 161.793 124.001 161.793C133.196 163.181 135.102 156.046 135.102 156.046C134.982 152.627 134.303 151.018 132.734 150.093C131.095 149.109 128.481 148.856 124.486 148.031L123.825 147.89C117.884 146.597 115.113 140.756 114.018 137.515C113.763 136.797 113.558 136.064 113.403 135.321C106.674 137.742 102.461 141.171 100.035 143.742C99.0755 125.512 118.179 128.13 118.179 128.13C121.394 128.175 124.589 128.622 127.682 129.462C128.383 129.756 129.053 130.051 129.693 130.346C130 130.496 130.326 130.658 130.615 130.826C130.905 130.994 131.231 131.159 131.513 131.326C131.72 131.441 131.929 131.565 132.129 131.695C136.331 134.249 139.69 137.894 141.816 142.205C141.846 142.263 141.873 142.323 141.896 142.384C141.992 142.584 142.078 142.789 142.151 142.997C146.475 161.119 133.134 166.306 128.057 167.611Z" fill="#3FBDF1"/>
<path d="M128.057 168C126.716 165.844 127.337 163.243 127.337 163.243C136.523 164.646 138.436 157.445 138.436 157.445C138.239 152.15 136.76 151.157 132.734 150.309C131.243 149.985 129.41 149.688 127.159 149.203C126.224 149 125.324 148.669 124.486 148.219C118.37 144.978 116.721 136.507 116.721 136.507C115.774 136.849 114.876 137.221 114.018 137.604C113.763 136.88 113.558 136.14 113.403 135.389C106.674 137.833 102.461 141.294 100.035 143.89C99.0755 125.488 118.179 128.132 118.179 128.132C121.394 128.176 124.589 128.628 127.682 129.476C128.383 129.773 129.053 130.07 129.693 130.368C130 130.519 130.326 130.683 130.615 130.852C130.905 131.022 131.231 131.188 131.513 131.358C131.72 131.474 131.929 131.598 132.129 131.729C136.331 134.308 139.69 137.987 141.816 142.338C141.846 142.397 141.873 142.457 141.896 142.519C141.992 142.721 142.078 142.927 142.151 143.138C146.475 161.447 133.134 166.683 128.057 168Z" fill="white"/>
<path d="M161.651 252.076C163.107 261.254 164.888 270.283 166.748 275H83.1413C73.0754 247.411 77.8482 217.272 77.8482 217.272L63 217.723C71.931 202.599 68.7533 189.812 67.2464 185.545C78.9106 183.631 90.5748 182.128 102.362 182C102.047 188.512 109.411 195.998 120.032 194.029C124.338 193.238 129.587 191.595 129.7 184.313L132.471 184.781C136.305 185.39 139.773 186.041 143.061 186.775C151.572 188.667 158.886 191.035 168 194.029C155.39 203.04 161.657 223.852 161.657 223.852L161.972 224.546L157.947 223.852C157.947 223.852 159.438 238.127 161.651 252.076Z" fill="#005086"/>
<path d="M74.5 51C83.0603 51 90 44.2841 90 36C90 27.7155 83.0603 21 74.5 21C65.9397 21 59 27.7155 59 36C59 44.2841 65.9397 51 74.5 51Z" fill="white"/>
<path d="M79.4152 30.6464C79.2098 30.1661 78.9329 29.7203 78.5941 29.3247C78.0167 28.6312 77.2084 28.1746 76.3209 28.0409C75.4333 27.9069 74.528 28.105 73.7747 28.5976C73.2827 28.9186 72.8713 29.3512 72.5737 29.8611C72.2758 30.3706 72.0997 30.9434 72.0594 31.5337C71.2908 31.253 70.453 31.2317 69.6713 31.473C68.89 31.7142 68.2069 32.2047 67.7253 32.8714C67.2436 33.5378 66.9891 34.344 67.0004 35.1688C67.0113 35.9935 67.287 36.7927 67.7863 37.4459C68.8332 38.823 70.6126 39.7288 72.2242 40.2556C73.07 40.5273 73.9398 40.7141 74.8216 40.8133C75.2672 40.8625 77.8158 41.2076 78.0539 40.8133C79.6105 38.3085 80.7398 33.7088 79.4152 30.6464Z" fill="#989BD1"/>
<path d="M49.9843 31.3791C48.9964 31.2668 47.9959 31.1962 46.9985 31.1417C45.9288 31.1962 44.8591 31.2764 43.7893 31.4112C40.4109 31.7955 37.1017 32.6593 33.9573 33.9774C32.549 34.568 31.1914 35.2772 29.8986 36.0978C28.966 36.6694 28.0725 37.3049 27.2243 38C26.5985 37.0848 26.0957 36.0878 25.7298 35.036C25.1075 33.2611 24.8787 31.3679 25.0606 29.4919C25.2421 27.616 25.8299 25.8049 26.7807 24.1885C27.7318 22.572 29.0227 21.1908 30.5603 20.1444C32.0978 19.098 33.844 18.4122 35.6729 18.1369C37.5019 17.8614 39.3679 18.0028 41.1367 18.5511C42.9056 19.0996 44.5328 20.0411 45.9017 21.3082C47.2707 22.5749 48.3467 24.1355 49.0527 25.8777C49.7588 27.6199 50.0768 29.4999 49.9843 31.3823V31.3791Z" fill="white"/>
<path d="M43.7472 31.6268C40.0938 31.9822 36.515 32.7811 33.1151 34C32.9177 33.5432 32.7544 33.11 32.7 32.9617C32.4271 32.2877 32.2301 31.5924 32.1114 30.8852C31.9039 29.5324 31.9345 27.9187 32.6558 26.6876C32.9926 26.0963 33.541 25.6169 34.2181 25.3215C34.8951 25.026 35.6641 24.9308 36.4088 25.05C37.1536 25.1693 37.8334 25.4968 38.3457 25.9827C38.8581 26.4686 39.1755 27.0865 39.2494 27.7436C39.755 27.5719 40.299 27.503 40.8396 27.5425C41.3806 27.5823 41.9035 27.7291 42.3693 27.9721C43.0596 28.339 43.5774 28.9086 43.8299 29.5784C44.0823 30.248 44.0531 30.9742 43.7472 31.6268Z" fill="#989BD1"/>
<path d="M29 36.0044C28.106 36.5415 27.2493 37.1393 26.4361 37.7929C25.8914 38.2149 25.3678 38.6637 24.8677 39.1381C24.227 39.7492 23.663 40.436 23.1876 41.1831C22.743 41.8783 22.3575 42.61 22.0354 43.3698C21.5485 44.5316 21.16 45.7323 20.8741 46.959C20.3007 49.605 19.9547 52.2951 19.8395 55C17.7188 53.9407 16.016 52.1983 15.0059 50.0535C13.996 47.9088 13.7372 45.4865 14.2717 43.1767C14.8059 40.8673 16.1023 38.8046 17.9516 37.3212C19.8009 35.8379 22.096 35.0202 24.4665 35C24.6505 35 24.8224 35 25.0064 35C26.3912 35.0664 27.7488 35.4078 29 36.0044Z" fill="white"/>
<path d="M23 41.1379C22.6261 41.8438 22.302 42.5861 22.0311 43.3572C21.6215 44.5364 21.2951 45.755 21.0546 47C20.5271 46.1153 20.0781 45.0562 20.0071 43.997C19.9822 43.6162 20.0228 43.2336 20.1261 42.8724C20.2295 42.5115 20.3934 42.1799 20.6075 41.8986C20.8218 41.6173 21.0818 41.3926 21.3712 41.238C21.6606 41.0834 21.9733 41.0026 22.2898 41.0002C22.5313 40.9968 22.7715 41.0433 23 41.1379Z" fill="#989BD1"/>
<g opacity="0.72">
<path opacity="0.72" d="M92.2421 34.1122C96.8097 34.1122 100.513 30.5063 100.513 26.0576C100.513 21.6092 96.8097 18.0029 92.2421 18.0029C87.6745 18.0029 83.9717 21.6092 83.9717 26.0576C83.9717 30.5063 87.6745 34.1122 92.2421 34.1122Z" fill="white"/>
<path opacity="0.72" d="M95.8312 27.4941C96.0348 27.2893 96.2061 27.0568 96.3395 26.8035C96.5754 26.365 96.6388 25.8578 96.5174 25.3771C96.3959 24.8965 96.0985 24.4757 95.6806 24.194C95.4092 24.0116 95.098 23.8924 94.7714 23.8462C94.4447 23.8004 94.1119 23.8282 93.7981 23.9281C93.7809 23.4765 93.6133 23.0426 93.3206 22.6921C93.0279 22.3417 92.6259 22.0935 92.1754 21.9851C91.7252 21.8769 91.2508 21.9142 90.8241 22.0914C90.3974 22.2689 90.0416 22.5769 89.8104 22.9687C89.3209 23.7906 89.2331 24.8845 89.3084 25.8165C89.3482 26.3039 89.4386 26.7861 89.5782 27.2557C89.6472 27.4941 90.0143 28.863 90.2653 28.9058C91.8968 29.1747 94.526 28.7988 95.8312 27.4941Z" fill="#989BD1"/>
</g>
<g opacity="0.72">
<path opacity="0.72" d="M88.5554 116.238C91.8165 116.238 94.4601 113.664 94.4601 110.488C94.4601 107.312 91.8165 104.737 88.5554 104.737C85.2943 104.737 82.6506 107.312 82.6506 110.488C82.6506 113.664 85.2943 116.238 88.5554 116.238Z" fill="white"/>
<path opacity="0.72" d="M91.1152 111.524C91.2605 111.378 91.3822 111.211 91.476 111.029C91.6439 110.716 91.6894 110.355 91.6031 110.012C91.5171 109.669 91.3057 109.369 91.0085 109.168C90.8137 109.036 90.59 108.95 90.3553 108.918C90.1206 108.885 89.8812 108.906 89.6563 108.978C89.6422 108.657 89.5217 108.349 89.3127 108.1C89.1038 107.851 88.8179 107.675 88.4976 107.597C88.177 107.52 87.8397 107.546 87.5357 107.671C87.2313 107.796 86.9769 108.013 86.8106 108.291C86.4909 108.921 86.3657 109.628 86.4498 110.326C86.4786 110.674 86.5439 111.018 86.6443 111.353C86.6945 111.521 86.958 112.501 87.1337 112.529C88.3072 112.712 90.1834 112.44 91.1152 111.524Z" fill="#989BD1"/>
</g>
<path d="M75.4513 41.4133L71.5734 49.6133C70.1664 52.5887 71.4378 56.1416 74.413 57.5486L82.6133 61.4265C85.5888 62.8336 89.1416 61.5624 90.5487 58.587L94.4266 50.3866C95.8336 47.4112 94.5622 43.8584 91.5867 42.4513L83.3867 38.5734C80.4112 37.1664 76.8584 38.4378 75.4513 41.4133Z" fill="white"/>
<path d="M92 52.3283L89.3036 58.1105C88.7394 59.3182 87.7262 60.2504 86.4859 60.7023C85.2456 61.1542 83.8793 61.0897 82.686 60.5223L75.8484 57.2423C74.6578 56.6695 73.7394 55.6421 73.2938 54.3846C72.8482 53.1272 72.9115 51.7419 73.4701 50.5315L73.6514 50.1396C75.5095 48.6322 78.7232 46.6064 79.8945 49.3708C81.5831 53.3503 83.777 52.063 86.5834 50.3989C88.9379 48.991 91.7503 48.5237 92 52.3283Z" fill="#989BD1"/>
<path d="M81 45C82.1045 45 83 44.1045 83 43C83 41.8955 82.1045 41 81 41C79.8955 41 79 41.8955 79 43C79 44.1045 79.8955 45 81 45Z" fill="white"/>
<path d="M102.936 67.4073L97.7644 78.0021C95.8888 81.8442 97.5835 86.4321 101.55 88.2491L112.486 93.2595C116.452 95.0765 121.188 93.4347 123.063 89.5924L128.236 78.9979C130.111 75.1556 128.417 70.5679 124.45 68.7509L113.514 63.7405C109.548 61.9235 104.812 63.5653 102.936 67.4073Z" fill="white"/>
<path d="M126 81.6671L122.149 89.2307C121.344 90.8084 119.903 92.0246 118.14 92.6135C116.378 93.2021 114.437 93.1158 112.743 92.3726L103.038 88.0894C101.348 87.3381 100.045 85.9929 99.4143 84.3478C98.7833 82.7026 98.8761 80.8913 99.672 79.3097L99.9319 78.7974C102.573 76.8324 107.136 74.1754 108.802 77.791C111.206 82.9971 114.322 81.3133 118.311 79.1356C121.645 77.3054 125.647 76.6886 126 81.6671Z" fill="#989BD1"/>
<path d="M110 73C111.657 73 113 71.8806 113 70.5C113 69.1191 111.657 68 110 68C108.343 68 107 69.1191 107 70.5C107 71.8806 108.343 73 110 73Z" fill="#989BD1"/>
<path d="M124.854 37.9281C125.294 38.7042 125.614 39.537 125.804 40.4008C126.141 41.9908 126.042 43.637 125.516 45.1791C124.991 46.7212 124.056 48.1065 122.804 49.199C121.813 50.0394 120.549 50.6977 119.542 51.5776C118.81 52.1843 118.271 52.9762 117.987 53.8621C117.934 54.1645 117.807 54.4503 117.616 54.6964C117.027 55.3032 116.454 54.3505 115.944 54.1776C115.126 53.9234 114.239 53.9655 113.451 54.2959C111.381 55.1132 109.081 55.2225 106.937 54.6054C104.793 53.9883 102.936 52.6825 101.679 50.908C100.423 49.1332 99.8426 46.9979 100.037 44.8615C100.231 42.7253 101.188 40.7181 102.746 39.1781C104.298 37.6612 106.331 36.6994 108.292 35.7043C110.021 34.8245 111.741 33.884 113.616 33.3652C118.031 32.1092 122.722 34.2056 124.854 37.9281Z" fill="white"/>
<path d="M107 48C108.105 48 109 47.3285 109 46.5C109 45.6715 108.105 45 107 45C105.895 45 105 45.6715 105 46.5C105 47.3285 105.895 48 107 48Z" fill="#989BD1"/>
<path d="M112.5 45C113.328 45 114 44.1046 114 43C114 41.8954 113.328 41 112.5 41C111.672 41 111 41.8954 111 43C111 44.1046 111.672 45 112.5 45Z" fill="#989BD1"/>
<path d="M118 43C119.105 43 120 41.8808 120 40.5C120 39.1196 119.105 38 118 38C116.895 38 116 39.1196 116 40.5C116 41.8808 116.895 43 118 43Z" fill="#989BD1"/>
<path d="M189 175.116V175.165L188.229 192.501L187.798 202C187.798 201.649 187.817 201.286 187.839 200.934C182.509 199.191 175.662 196.712 170.379 194.959C159.982 191.491 152.149 188.825 142.835 186.73C142.273 184.077 141.742 178.386 144.355 170.078C148.102 158.225 149.335 146.198 147.431 143.874C147.413 143.848 147.389 143.825 147.362 143.807C146.007 139.029 142.423 142.122 142.423 142.122C142.423 142.122 142.445 142.171 142.454 142.198C141.708 140.989 140.889 139.824 140 138.711C140.029 138.538 140.076 138.368 140.14 138.204C141.293 134.815 147.431 134 147.431 134C156.417 134.647 161.144 138.565 163.529 143.709C165.63 150.204 164.391 157.245 164.119 163.907C164.01 166.795 163.588 171.235 165.843 173.574C167.925 177.424 173.164 175.76 174.585 175.339C175.047 175.21 176.246 175.131 177.819 175.082C181.026 175.006 185.744 175.064 188.619 175.113C188.76 175.116 188.881 175.116 189 175.116Z" fill="white"/>
<path d="M63.2231 18.8372C62.5459 18.9798 61.8499 19.0289 61.1575 18.9838C59.8877 18.8891 58.6655 18.4842 57.611 17.8093C56.5565 17.1342 55.7057 16.212 55.1417 15.133C54.7117 14.281 54.4951 13.2825 54.0264 12.4153C53.7206 11.7925 53.2357 11.2635 52.6267 10.8885C52.4095 10.7906 52.2197 10.6451 52.0739 10.464C51.7507 9.93877 52.5782 9.74334 52.8142 9.43186C53.1746 8.92517 53.3275 8.31188 53.2441 7.70655C53.0521 6.12223 53.4455 4.5239 54.3574 3.18188C55.269 1.83987 56.6438 0.836561 58.2485 0.341657C59.8531 -0.153247 61.5897 -0.109336 63.1643 0.465909C64.7386 1.04115 66.0545 2.11246 66.8889 3.49863C67.71 4.86972 68.0106 6.45456 68.3532 7.99665C68.6571 9.35552 68.9998 10.7205 68.9998 12.1099C69.0288 15.3743 66.4719 18.1471 63.2231 18.8372Z" fill="white"/>
<path d="M63 15C64.1043 15 65 14.3284 65 13.5C65 12.6715 64.1043 12 63 12C61.8953 12 61 12.6715 61 13.5C61 14.3284 61.8953 15 63 15Z" fill="#989BD1"/>
<g opacity="0.72">
<path opacity="0.72" d="M155.977 73.3985C162.444 73.3985 167.686 68.2929 167.686 61.9949C167.686 55.697 162.444 50.5913 155.977 50.5913C149.51 50.5913 144.268 55.697 144.268 61.9949C144.268 68.2929 149.51 73.3985 155.977 73.3985Z" fill="white"/>
<path opacity="0.72" d="M156.416 67.3209C156.811 67.4434 157.222 67.5064 157.636 67.5073C158.356 67.5165 159.054 67.2696 159.6 66.8134C160.145 66.3571 160.502 65.7228 160.601 65.0292C160.666 64.5763 160.621 64.1152 160.472 63.6819C160.322 63.2487 160.071 62.8554 159.739 62.5327C160.312 62.2223 160.767 61.7386 161.034 61.1546C161.301 60.5707 161.366 59.9183 161.219 59.2953C161.072 58.6722 160.721 58.1128 160.219 57.7009C159.717 57.289 159.092 57.0469 158.436 57.0112C157.059 56.9348 155.584 57.5245 154.42 58.209C153.815 58.5699 153.247 58.9885 152.726 59.4588C152.46 59.6971 150.916 61.0263 151.023 61.3594C151.713 63.5502 153.881 66.5539 156.416 67.3209Z" fill="#989BD1"/>
</g>
<path d="M161.55 108.441C160.814 109.464 159.926 110.379 158.913 111.156C157.039 112.573 154.812 113.5 152.451 113.847C150.091 114.194 147.676 113.949 145.444 113.136C143.706 112.475 142.041 111.368 140.243 110.722C138.981 110.227 137.599 110.08 136.254 110.3C135.823 110.428 135.367 110.457 134.923 110.384C133.756 110.058 134.639 108.767 134.541 108.043C134.354 106.897 133.737 105.856 132.803 105.116C130.397 103.147 128.777 100.442 128.217 97.4604C127.656 94.4787 128.191 91.4034 129.729 88.7554C131.267 86.1074 133.715 84.0492 136.657 82.9299C139.6 81.8102 142.857 81.6983 145.876 82.6125C148.859 83.5176 151.41 85.3549 153.965 87.0837C156.217 88.6073 158.535 90.1007 160.421 92.0074C164.864 96.536 165.088 103.517 161.55 108.441Z" fill="white"/>
<path d="M138.5 95C140.433 95 142 93.8808 142 92.5C142 91.1194 140.433 90 138.5 90C136.567 90 135 91.1194 135 92.5C135 93.8808 136.567 95 138.5 95Z" fill="#989BD1"/>
<path d="M145.5 101C147.433 101 149 99.4332 149 97.5C149 95.5672 147.433 94 145.5 94C143.567 94 142 95.5672 142 97.5C142 99.4332 143.567 101 145.5 101Z" fill="#989BD1"/>
<path d="M153 105C154.657 105 156 103.881 156 102.5C156 101.119 154.657 100 153 100C151.343 100 150 101.119 150 102.5C150 103.881 151.343 105 153 105Z" fill="#989BD1"/>
<g opacity="0.54">
<path opacity="0.54" d="M71.4724 22.9409C71.4332 23.439 71.3545 23.9337 71.2371 24.4199L69.9257 29.9597C69.5241 31.6556 69.0723 33.4432 67.8267 34.6899C65.5049 37.003 61.6176 36.4743 58.3766 35.7715L50.4199 34.0512C48.5939 33.654 46.7365 33.2506 45.0862 32.3645C43.4358 31.4784 42.0302 30.0392 41.6349 28.2516C41.3557 26.9347 41.6569 25.5749 41.9487 24.261L43.188 18.9381C43.5864 17.1964 44.0382 15.3538 45.3277 14.0888C47.6275 11.8307 51.4364 12.344 54.6273 13.0163L62.7628 14.7366C67.6761 15.7847 71.8646 18.003 71.4724 22.9409Z" fill="white"/>
<path opacity="0.54" d="M60.5 23.0906C60.8404 23.3995 61.0914 23.79 61.2276 24.2233C61.3637 24.6566 61.3807 25.1171 61.2765 25.5586C61.172 26.0002 60.9505 26.4072 60.6337 26.7387C60.3165 27.0703 59.9158 27.315 59.4709 27.4479L57.0456 28.1721L54.6235 28.8932C54.1776 29.0268 53.7039 29.0433 53.2496 28.9412C52.7949 28.8392 52.3764 28.6222 52.0357 28.3124C51.6946 28.0025 51.444 27.6105 51.3084 27.176C51.1729 26.7415 51.1572 26.2798 51.2632 25.8376L51.8311 23.4298L52.399 21.025C52.5041 20.5835 52.7262 20.1764 53.0438 19.8452C53.361 19.5137 53.7622 19.2692 54.2071 19.1366C54.6523 19.0037 55.1252 18.9872 55.5788 19.0886C56.0322 19.1901 56.4504 19.4058 56.7915 19.7141L58.6457 21.3978L60.5 23.0906Z" fill="#989BD1"/>
</g>
<g opacity="0.54">
<path opacity="0.54" d="M160.885 33.6051C160.845 34.1031 160.767 34.5975 160.649 35.084L159.338 40.633C158.936 42.3289 158.484 44.1164 157.239 45.3601C154.917 47.6763 151.03 47.1446 147.789 46.4448L139.832 44.7215C138.006 44.3273 136.149 43.9209 134.498 43.0378C132.848 42.1547 131.442 40.7094 131.047 38.9249C130.768 37.6079 131.069 36.2482 131.361 34.9343L132.603 29.6327C132.999 27.888 133.45 26.0485 134.74 24.7804C137.04 22.5253 140.849 23.0356 144.039 23.7109L152.162 25.419C157.088 26.4549 161.277 28.6763 160.885 33.6051Z" fill="white"/>
<path opacity="0.54" d="M149.912 33.7612C150.252 34.0701 150.503 34.4612 150.639 34.8945C150.775 35.3278 150.792 35.7886 150.688 36.2301C150.584 36.672 150.362 37.079 150.045 37.4111C149.729 37.743 149.328 37.988 148.883 38.1216L146.458 38.8427L144.036 39.5669C143.59 39.7001 143.116 39.7166 142.662 39.6146C142.207 39.5128 141.788 39.2958 141.448 38.9857C141.107 38.6759 140.856 38.2838 140.72 37.8496C140.585 37.4151 140.569 36.9534 140.676 36.5113L141.243 34.1065L141.811 31.7017C141.916 31.2601 142.139 30.8531 142.456 30.5216C142.773 30.1901 143.175 29.9459 143.62 29.813C144.064 29.6801 144.538 29.6636 144.991 29.765C145.445 29.8665 145.863 30.0822 146.204 30.3908L148.058 32.0745L149.912 33.7612Z" fill="#989BD1"/>
</g>
<g opacity="0.54">
<path opacity="0.54" d="M123.338 107.943C123.318 108.174 123.28 108.404 123.225 108.63L122.616 111.218C122.428 112.007 122.218 112.838 121.637 113.418C120.558 114.497 118.748 114.249 117.245 113.922L113.539 113.122C112.679 112.976 111.844 112.712 111.061 112.337C110.67 112.146 110.325 111.876 110.049 111.546C109.773 111.216 109.573 110.832 109.461 110.421C109.375 109.798 109.425 109.165 109.608 108.563L110.173 106.088C110.358 105.278 110.568 104.419 111.17 103.83C112.24 102.779 114.013 103.017 115.497 103.332L119.287 104.132C121.568 104.609 123.52 105.642 123.338 107.943Z" fill="white"/>
<path opacity="0.54" d="M118.226 108.013C118.385 108.157 118.502 108.339 118.566 108.541C118.629 108.742 118.637 108.957 118.589 109.163C118.54 109.369 118.437 109.558 118.289 109.712C118.141 109.867 117.954 109.981 117.746 110.042L116.62 110.378L115.49 110.714C115.283 110.777 115.062 110.786 114.85 110.739C114.639 110.693 114.443 110.592 114.284 110.448C114.125 110.304 114.007 110.122 113.944 109.92C113.88 109.718 113.872 109.502 113.921 109.297L114.197 108.163L114.461 107.041C114.509 106.835 114.612 106.645 114.76 106.49C114.907 106.335 115.094 106.22 115.302 106.158C115.51 106.096 115.73 106.089 115.942 106.137C116.153 106.184 116.348 106.286 116.507 106.43L117.369 107.213L118.226 108.013Z" fill="#989BD1"/>
</g>
<g opacity="0.54">
<path opacity="0.54" d="M84.2789 0.644071C84.5362 0.774455 84.7834 0.92253 85.0194 1.08714L87.6549 2.96329C88.4643 3.5347 89.3083 4.15499 89.6911 5.05335C90.4033 6.72478 89.2675 8.5551 88.1851 10.0218L85.5276 13.6275C84.9585 14.4859 84.2654 15.2598 83.4694 15.9253C82.6411 16.5364 81.5681 16.9459 80.5422 16.7412C79.786 16.5945 79.1334 16.13 78.5059 15.7053L75.9646 13.93C75.1331 13.3494 74.2609 12.7077 73.875 11.791C73.1879 10.141 74.2954 8.34732 75.3528 6.902L78.0479 3.20469C79.6637 0.974079 81.7564 -0.636238 84.2789 0.644071Z" fill="white"/>
<path opacity="0.54" d="M81.9445 6.17161C82.1814 6.06937 82.4415 6.02941 82.6991 6.05572C82.9567 6.08199 83.2027 6.1736 83.4126 6.3214C83.6225 6.4692 83.7887 6.66803 83.8951 6.89806C84.0015 7.12806 84.0438 7.38119 84.0184 7.63221L83.8678 9.00724L83.7172 10.3823C83.6896 10.6342 83.5945 10.8747 83.4411 11.0794C83.2877 11.2842 83.0819 11.4459 82.844 11.5485C82.6059 11.651 82.3445 11.6907 82.0857 11.6635C81.8272 11.6363 81.5803 11.5433 81.3704 11.3937L80.2252 10.5809L79.08 9.77115C78.8692 9.62213 78.7022 9.42156 78.5965 9.18969C78.4908 8.95783 78.4497 8.70287 78.4773 8.45057C78.5049 8.19823 78.6006 7.95751 78.7543 7.75266C78.9081 7.54784 79.1145 7.38611 79.353 7.28386L80.6487 6.72469L81.9445 6.17161Z" fill="#989BD1"/>
</g>
<path d="M209 231.59C208.999 231.643 208.992 231.695 208.981 231.747C208.976 231.76 208.976 231.773 208.981 231.786C208.53 234.605 207.289 237.258 205.386 239.473C205.363 239.491 205.354 239.521 205.335 239.539C202.409 242.977 198.167 245.457 193.874 247.014C189.489 248.623 185.042 249.272 181.876 249.048H181.806C177.933 248.777 173.681 249.251 169.962 249.909C169.571 249.978 169.181 250.044 168.79 250.123C166.335 250.588 163.911 251.167 161.51 251.807L161.059 251.925L160.758 252C158.517 238.166 157 224 157 224L202.777 231.668C204.837 232.021 206.951 231.994 209 231.59Z" fill="white"/>
<path d="M116.809 164.202C114.463 166.424 111.321 166.853 108.235 167.509C101.224 168.998 95.3453 167.306 95.0364 159.612C94.8367 154.662 95.3859 149.708 98.5248 145.598C102.285 140.674 108.06 137.395 113.814 135C113.814 135 116.454 147.891 128.479 148.451C140.504 149.011 137.578 164.146 123.487 161.623" stroke="black" stroke-width="4.47" stroke-miterlimit="10"/>
<path d="M126 168C126.186 168 126.356 168 126.529 168C126.571 168 126.613 168 126.655 168H126.672H127" stroke="black" stroke-width="4.47" stroke-miterlimit="10"/>
<path d="M139 136.552C137.034 134.188 134.684 132.18 132.052 130.614C131.758 130.419 131.455 130.24 131.143 130.079C130.832 129.899 130.521 129.726 130.209 129.566C129.553 129.223 128.871 128.899 128.174 128.622C124.06 126.879 119.641 125.988 115.18 126C91.1826 126 97.851 147 97.851 147" stroke="black" stroke-width="4.47" stroke-miterlimit="10"/>
<path d="M142.626 187C141.716 182.517 142.855 175.54 144.118 169.96C145.25 164.99 146.488 161.137 146.488 161.137C148.356 150.995 148.277 145.557 147.412 142.759C145.927 137.818 142 141.021 142 141.021" stroke="black" stroke-width="4.47" stroke-miterlimit="10"/>
<path d="M147.12 143.597C145.757 138.885 142.151 141.939 142.151 141.939C141.527 140.577 140.758 139.28 139.854 138.071C139.49 137.585 139.107 137.111 138.705 136.648C139.782 133.902 142.656 132.265 145.615 132.045C153.384 131.472 161.042 136.407 163.383 143.501C165.497 149.913 164.25 156.864 163.976 163.442C163.866 166.294 163.442 170.677 165.71 172.986C165.83 173.104 165.943 173.209 166.072 173.315C167.956 174.873 170.959 174.961 174.519 174.729C175.555 174.659 176.645 174.575 177.773 174.475C181.228 174.174 184.998 173.915 188.639 174.506L189 174.563C188.89 180.26 188.526 185.976 188.224 191.674C188.064 194.447 187.91 197.224 187.831 200C182.469 198.279 175.58 195.831 170.265 194.1L167.432 193.163C158.35 190.194 151.075 187.851 142.581 185.976C139.305 185.25 135.849 184.602 132.029 184.002L127.968 183.317C127.695 183.272 127.449 183.135 127.271 182.931C127.094 182.728 126.998 182.47 127 182.205V168.413C129.713 168.192 132.335 167.372 134.662 166.016C136.989 164.661 138.957 162.807 140.413 160.599C144.343 154.534 144.717 148.327 142.568 142.88C142.492 142.662 142.403 142.449 142.301 142.24C142.278 142.178 142.25 142.116 142.22 142.057C142.22 142.039 142.201 142.008 142.191 141.987" stroke="black" stroke-width="4.47" stroke-miterlimit="10"/>
<path d="M43 194C43.823 184.076 44.2016 173.982 45 164" stroke="black" stroke-width="4.47" stroke-miterlimit="10"/>
<path d="M46 163C46.3295 160.437 46.7195 157.874 47.2093 155.342C47.2274 155.217 47.2486 155.099 47.2758 154.984C47.5479 153.484 47.8502 151.993 48.1828 150.502C49.1925 146.041 52.7176 142.777 55.2238 139.142L55.378 138.754C60.785 130.853 63.7785 121.539 63.9911 111.954C64.0515 108.486 63.9155 101.63 59.9581 100.215C57.7361 99.4159 55.378 100.977 54.1475 102.759C53.642 103.495 53.2354 104.294 52.9382 105.137" stroke="black" stroke-width="4.47" stroke-miterlimit="10"/>
<path d="M83 275C72.9217 247.47 77.7005 217.396 77.7005 217.396L62.8371 217.845L23.6287 219.042C21.3258 219.115 19.0336 218.711 16.9066 217.859C14.7798 217.006 12.868 215.725 11.3002 214.1C9.73276 212.476 8.54565 210.546 7.81969 208.443C7.09372 206.339 6.84594 204.11 7.09246 201.906L18.7395 161" stroke="black" stroke-width="4.47" stroke-miterlimit="10"/>
<path d="M20 158L20.9257 154.72L22 151" stroke="black" stroke-width="4.47" stroke-miterlimit="10"/>
<path d="M23.9571 147L24.5972 144.599C25.4447 141.412 25.2351 138.019 24.0018 134.972L22.7307 131.804C21.9001 129.164 21.6411 127.888 22.683 125.307C23.176 124.089 23.8678 122.97 24.7282 122C27.2377 119.111 30.7713 117.676 34.412 117.186C38.0528 116.695 42.0716 117.077 45.0009 119.54C46.9895 121.211 48.8709 125.189 47.57 127.788C46.6263 129.68 44.6288 130.23 42.929 129.552C42.3339 129.32 41.7981 128.948 41.3631 128.466C39.3567 126.273 35.1116 125.795 33.6232 127.928" stroke="black" stroke-width="4.47" stroke-miterlimit="10"/>
<path d="M188 204C188 203.106 188 202.219 188 201.314V201.243C188 200.833 188 200.41 188 200" stroke="black" stroke-width="4.47" stroke-miterlimit="10"/>
<path d="M183.689 131C180.038 132.905 175.554 137.693 183.119 148.95C185.613 152.659 188.248 156.669 188.619 161.248C188.965 165.824 189.075 170.413 188.95 175" stroke="black" stroke-width="4.47" stroke-miterlimit="10"/>
<path d="M148 222.302L156.73 223.822L157.357 223.93L161.361 224.631L202.192 231.748C204.213 232.109 206.286 232.082 208.297 231.668C211.788 230.947 214.935 229.102 217.236 226.427C219.537 223.751 220.862 220.398 221 216.899L214.967 168.435L213.631 158.09C213.207 154.837 213.919 151.539 215.65 148.734L217.441 145.811C217.441 145.811 220.558 141.349 215.105 141.023C212.167 140.854 209.109 141.638 206.453 142.82C204.936 143.481 202.803 144.666 201.947 146.294C201.599 146.91 201.482 147.626 201.615 148.318C202.242 151.497 206.318 152.838 209.009 151.497" stroke="black" stroke-width="4.47" stroke-miterlimit="10"/>
<path d="M217.261 141.843C217.261 141.843 220.375 140.001 218.269 135.472C217.521 133.86 215.256 132.743 210.381 133.051C197.393 133.873 192.306 147.144 202.167 146.999" stroke="black" stroke-width="4.47" stroke-miterlimit="10"/>
<path d="M214.132 133.215C217.085 129.467 211.86 125.881 208.054 126.003C204.464 126.12 200.833 127.342 197.688 128.872C193.313 131 187.667 135.122 189.283 140.337C189.76 141.873 193.534 143.771 196.001 142.674" stroke="black" stroke-width="4.47" stroke-miterlimit="10"/>
<path d="M189.617 138.482C189.617 138.482 189.617 138.482 189.617 138.501C187.648 142.337 178.328 138.501 183.59 130.515C184.819 128.749 186.292 127.173 187.964 125.838C201.085 114.901 204.019 126.021 204 125.36" stroke="black" stroke-width="4.47" stroke-miterlimit="10"/>
<path d="M195 143C195 143 201.652 146.375 199.611 152" stroke="black" stroke-width="4.47" stroke-miterlimit="10"/>
<path d="M24.1843 115.571C23.8726 114.393 23.9132 112.907 24.6424 111.005C25.6927 108.272 28.7532 106.479 31.7326 105.298C32.8203 104.867 33.9142 104.511 34.8492 104.233C38.0998 103.276 41.6682 102.768 45.1338 103.103C46.3016 103.212 47.4566 103.424 48.5839 103.737C49.8841 104.097 51.1283 104.622 52.2833 105.298C55.1318 106.978 57.0609 109.528 58.2203 112.877C59.2301 115.765 59.6196 119.197 57.1202 121" stroke="black" stroke-width="4.47" stroke-miterlimit="10"/>
<path d="M57.9927 160.64L57.0807 165.09C57.0504 165.24 56.9907 165.381 56.9048 165.507C56.8188 165.633 56.7088 165.74 56.5811 165.822C56.4531 165.904 56.3103 165.959 56.1609 165.985C56.0113 166.01 55.8586 166.004 55.7111 165.968C52.202 165.13 49.1258 164.351 45.8919 163.6C44.2873 163.22 42.6301 162.862 40.8741 162.491C34.0105 161.061 27.1562 159.447 20.2556 158.2C17.371 157.68 14.4834 157.228 11.5772 156.888C9.95099 156.698 8.30313 156.62 6.66762 156.499C6.31022 156.491 5.96364 156.372 5.67519 156.159C4.12934 155.019 5.67519 151.31 6.01218 149.771C6.01218 149.752 6.01218 149.731 6.01218 149.712C6.25024 148.531 12.9839 148.871 22.3981 150.351C25.6815 150.871 29.2895 151.519 33.0706 152.301C38.3853 153.401 43.1774 154.589 47.0945 155.729C47.7685 155.928 48.4147 156.119 49.0299 156.309C49.0299 156.309 49.0299 156.309 49.0485 156.309C49.8307 156.558 50.5665 156.798 51.259 157.038C55.6338 158.543 58.1535 159.852 57.9927 160.64Z" fill="white"/>
<path d="M57.9927 160.64L57.0807 165.09C57.0504 165.24 56.9907 165.381 56.9048 165.507C56.8188 165.633 56.7088 165.74 56.5811 165.822C56.4531 165.904 56.3103 165.959 56.1609 165.985C56.0113 166.01 55.8586 166.004 55.7111 165.968C52.202 165.13 49.1258 164.351 45.8919 163.6C44.2873 163.22 42.6301 162.862 40.8741 162.491C34.0105 161.061 27.1562 159.447 20.2556 158.2C17.371 157.68 14.4834 157.228 11.5772 156.888C9.95099 156.698 8.30313 156.62 6.66762 156.499C6.31022 156.491 5.96364 156.372 5.67519 156.159C4.12934 155.019 5.67519 151.31 6.01218 149.771C6.01218 149.752 6.01218 149.731 6.01218 149.712C6.25024 148.531 12.9839 148.871 22.3981 150.351C25.6815 150.871 29.2895 151.519 33.0706 152.301C38.3853 153.401 43.1774 154.589 47.0945 155.729C47.7685 155.928 48.4147 156.119 49.0299 156.309C49.0299 156.309 49.0299 156.309 49.0485 156.309C49.8307 156.558 50.5665 156.798 51.259 157.038C55.6338 158.543 58.1535 159.852 57.9927 160.64Z" stroke="black" stroke-width="4.47" stroke-miterlimit="10"/>
<path d="M47.9591 125.76L48.8695 127.449C50.0139 128.61 51.5974 129.343 53.7676 128.838C58.0246 127.859 58.4445 124.591 57.704 121.469C57.5768 120.902 57.412 120.343 57.2104 119.795C56.2134 117.04 54.6716 114.823 52.511 113.206C50.9759 112.055 49.2019 111.209 47.2988 110.719C45.7483 110.304 44.1484 110.068 42.5353 110.015C39.366 109.914 36.2015 110.316 33.1783 111.202C30.1555 112.06 26.0203 113.535 23.8213 116.067C23.3289 116.623 22.9388 117.251 22.6673 117.925C21.9909 119.629 21.8755 121.009 22.1127 122.125L22.3403 123.163" stroke="black" stroke-width="4.47" stroke-miterlimit="10"/>
<path d="M49.4489 104L50.5431 99.7257L51.8428 94.6915C52.0265 93.9654 52.0494 93.2119 51.9105 92.4771C51.7715 91.7426 51.4735 91.0428 51.0351 90.4215C50.5971 89.8002 50.0278 89.2705 49.3631 88.8659C48.6979 88.461 47.9519 88.1899 47.1711 88.0689C46.8654 88.0211 46.556 87.9982 46.246 88.0001C44.934 87.997 43.6608 88.4185 42.6386 89.1942C41.6164 89.97 40.9072 91.0528 40.6293 92.262C40.2977 93.719 39.8833 95.492 39.4257 97.49C38.9914 99.3848 38.5106 101.461 38 103.65" stroke="black" stroke-width="4.47" stroke-miterlimit="10"/>
<path d="M33 128C32.6841 129.552 32.5041 130.528 32.5136 130.695C32.5136 130.695 32.5136 130.695 32.5136 130.718C31.1458 139.913 27.1215 144.83 22.7435 147.393C20.0658 148.917 17.0751 149.809 14 150" stroke="black" stroke-width="4.47" stroke-miterlimit="10"/>
<path d="M43.361 130C43.361 130 35.8648 149.406 47.5869 156.285C48.2067 156.646 48.8543 156.961 49.5239 157.226C50.3261 157.549 51.1542 157.808 52 158" stroke="black" stroke-width="4.47" stroke-miterlimit="10"/>
<path d="M57 165.783C57 165.783 57.0496 166.588 46.1721 165.098C42.4502 164.591 37.4472 163.814 30.7197 162.639C26.5015 161.907 22.9966 161.256 20.0935 160.696C4.83954 157.732 6.02127 157 6.02127 157" stroke="black" stroke-width="4.47" stroke-miterlimit="10"/>
<path d="M87.658 60.2496C85.3117 72.2498 77.5825 84.8825 68.2096 92.9906C64.3764 96.3197 59.9189 98.6411 55.107 99.5551C53.6305 99.8447 52.1283 99.9939 50.6213 100L51.8416 95.1303C52.1411 93.9309 51.9953 92.6682 51.4288 91.562C50.8626 90.4558 49.9118 89.5766 48.7424 89.0773C48.3202 88.9023 47.8779 88.7752 47.4249 88.6989C47.1348 88.6526 46.8408 88.6302 46.5466 88.6324C45.3028 88.6305 44.0961 89.0409 43.1287 89.7952C42.1613 90.5497 41.4919 91.602 41.2328 92.7757C41.0414 93.6594 40.8093 94.6612 40.5584 95.7568C28.6384 88.1542 23.4689 71.8926 24.0429 58.6879C24.2248 54.2994 24.4758 48.5218 26.4677 44.0547C27.1399 42.4627 28.1434 41.0206 29.4163 39.8175C35.0626 34.6906 42.7918 32.3511 50.7625 32C56.8803 32.2784 62.9011 33.5832 68.5547 35.8558C79.0944 40.1504 90.0922 47.7652 87.658 60.2496Z" fill="#005086"/>
<path d="M87.658 60.0175C85.3117 71.919 77.5825 84.448 68.2096 92.4894C64.3764 95.7912 59.9189 98.0935 55.107 99L56.2206 94.6116C56.3944 93.9149 56.416 93.1912 56.2846 92.4858C56.1532 91.7807 55.8712 91.1089 55.4565 90.5125C55.0421 89.9161 54.5035 89.4076 53.8746 89.0192C53.2453 88.6308 52.5395 88.3702 51.8008 88.2541C51.5116 88.2081 51.2189 88.1862 50.9256 88.188C50.1693 88.185 49.4212 88.3354 48.7298 88.6293C48.3076 88.4558 47.8653 88.3297 47.4124 88.2541C47.1222 88.2081 46.8283 88.1859 46.534 88.188C45.2956 88.1877 44.0939 88.5933 43.1296 89.3371C42.1651 90.0809 41.4956 91.1179 41.2328 92.2763C41.0414 93.1528 40.8093 94.1463 40.5584 95.2329C28.6384 87.6928 23.4689 71.5648 24.0429 58.4686C24.2248 54.1162 24.4758 48.386 26.4677 43.9556C27.1399 42.3767 28.1434 40.9464 29.4163 39.7533C35.0626 34.6685 42.7918 32.3482 50.7625 32C56.8803 32.2762 62.9011 33.5702 68.5547 35.8241C79.0944 40.0835 90.0922 47.6356 87.658 60.0175Z" fill="white"/>
<path d="M87.66 60.2734C85.3296 72.2664 77.643 84.8916 68.3186 92.9948C63.3273 97.3322 57.3034 99.9698 50.8178 100L52.0406 95.1302C52.2132 94.4282 52.2347 93.6989 52.104 92.9881C51.9733 92.2776 51.6931 91.6007 51.2807 90.9997C50.8683 90.3987 50.3327 89.8863 49.7072 89.4949C49.0817 89.1032 48.3798 88.8409 47.6452 88.7239C47.3575 88.6776 47.0662 88.6555 46.7748 88.6573C45.5404 88.6543 44.3422 89.0623 43.3804 89.8125C42.4186 90.5629 41.7513 91.6104 41.4902 92.78C41.1783 94.1895 40.7883 95.9045 40.3578 97.8373C25.727 91.549 19.4099 73.2767 20.0431 58.7127C20.221 54.3269 20.4705 48.5527 22.4546 44.0882C23.1219 42.4966 24.1198 41.055 25.387 39.8536C36.4334 29.7813 55.441 30.477 68.6617 35.8943C79.1404 40.1863 90.0808 47.7935 87.66 60.2734Z" stroke="black" stroke-width="4.47" stroke-miterlimit="10"/>
<path d="M87.4346 60C89.9295 62.9133 92.2703 67.7948 90.2102 75.0479C89.8935 76.1924 89.4401 77.2963 88.8594 78.3373C85.5842 84.0555 79.2621 85.0577 75 84.9975" stroke="black" stroke-width="4.47" stroke-miterlimit="10"/>
<path d="M86.1289 66C88.5065 68.5275 90.7041 72.53 89.787 78.2698C89.6413 79.1912 89.4269 80.103 89.145 80.9994C85.7485 91.8334 73.2797 91.2996 69 90.7717" stroke="black" stroke-width="4.47" stroke-miterlimit="10"/>
<path d="M24 80.9483C21.4739 81.4237 7.18 78.7424 7.00557 67.8491C6.95421 66.3726 7.25882 64.9038 7.89712 63.5467C10.1357 58.9342 16.0406 57.4754 19.4421 57" stroke="black" stroke-width="4.47" stroke-miterlimit="10"/>
<path d="M22 74.9967C19.4053 75.1395 5.61784 70.7158 7.11303 60.0399C7.29141 58.5938 7.81943 57.2005 8.66011 55.9574C11.5791 51.7261 17.6896 51.0467 21.1405 51" stroke="black" stroke-width="4.47" stroke-miterlimit="10"/>
<path d="M78 217C78 217 78.154 215.159 79 211" stroke="black" stroke-width="4.47" stroke-miterlimit="10"/>
<path d="M129 184.227V184.248C128.888 191.319 123.709 192.922 119.455 193.691C108.969 195.596 101.69 188.329 102.01 182" stroke="black" stroke-width="4.47" stroke-miterlimit="10"/>
<path d="M104.987 144C104.987 144 105.428 147.516 101.203 152.051C100.073 153.271 103.985 153.773 104.916 154" stroke="black" stroke-width="4.47" stroke-miterlimit="10"/>
<path d="M115.984 150.549C117.742 147.549 117.161 143.977 114.685 142.57C112.208 141.162 108.775 142.452 107.016 145.451C105.257 148.45 105.839 152.023 108.316 153.43C110.792 154.838 114.225 153.548 115.984 150.549Z" stroke="black" stroke-width="4.47" stroke-miterlimit="10"/>
<path d="M103.991 147.251C105.744 143.999 105.155 140.132 102.675 138.612C100.195 137.093 96.7627 138.498 95.0093 141.749C93.2559 145.001 93.8452 148.868 96.3252 150.388C98.8055 151.907 102.237 150.502 103.991 147.251Z" stroke="black" stroke-width="4.48539" stroke-miterlimit="10"/>
<path d="M99.8931 140V140.952C100.427 140.948 100.953 141.084 101.416 141.349C101.847 141.612 102.211 141.967 102.484 142.389C102.755 142.812 102.928 143.29 102.987 143.787C103.161 145.029 102.9 146.292 102.248 147.365C101.288 149 99.6884 150.054 98.1047 150.054C97.5708 150.06 97.0452 149.924 96.5819 149.66C96.1519 149.398 95.7875 149.042 95.5156 148.62C95.2433 148.197 95.0712 147.72 95.0111 147.222C94.8374 145.98 95.0984 144.716 95.7501 143.641C96.7099 142.009 98.3095 140.952 99.8931 140.952V140ZM99.8931 140C98.044 140 96.0828 141.168 94.9247 143.175C93.3251 145.924 93.8529 149.206 96.1052 150.476C96.7131 150.824 97.4035 151.005 98.1047 151C99.9539 151 101.915 149.828 103.076 147.825C104.676 145.079 104.145 141.794 101.893 140.524C101.284 140.178 100.594 139.999 99.8931 140.003V140Z" fill="white"/>
<path d="M103.076 147.836C104.675 145.087 104.146 141.812 101.895 140.522C99.6446 139.232 96.5232 140.415 94.9241 143.164C93.3251 145.913 93.8536 149.188 96.1044 150.478C98.3555 151.768 101.477 150.585 103.076 147.836Z" fill="white"/>
<path d="M116.082 150.539C117.676 147.537 117.141 143.967 114.887 142.565C112.632 141.163 109.512 142.46 107.918 145.461C106.324 148.463 106.859 152.033 109.113 153.435C111.368 154.837 114.488 153.54 116.082 150.539Z" fill="white"/>
<path d="M105 144.536C105 144.536 105.614 142.633 107 146" stroke="black" stroke-width="4.47" stroke-miterlimit="10"/>
<path d="M113.615 148.315C114.169 147.62 114.119 146.691 113.504 146.241C112.888 145.791 111.94 145.99 111.385 146.685C110.831 147.381 110.881 148.309 111.496 148.759C112.112 149.209 113.06 149.01 113.615 148.315Z" fill="#353642"/>
<path d="M103.486 145.315C104.225 144.62 104.159 143.691 103.338 143.241C102.518 142.791 101.253 142.99 100.514 143.685C99.7746 144.381 99.8409 145.309 100.662 145.759C101.482 146.209 102.747 146.01 103.486 145.315Z" fill="#353642"/>
<path d="M111 159C103.786 163.214 100 159.46 100 159.46" stroke="black" stroke-width="4.47" stroke-miterlimit="10"/>
<path d="M43 189C48.4963 188.009 54.0422 187.233 59.4888 186.22C62.1454 185.728 64.7998 185.25 67.4523 184.788C79.2704 182.761 91.0698 181.185 103.018 181.135C103.595 181.135 104.153 180.925 104.588 180.544C105.023 180.162 105.307 179.635 105.386 179.059L105.607 177.392L107 167" stroke="black" stroke-width="4.47" stroke-miterlimit="10"/>
<path d="M6 275H74.5154H82.265H148.65H161.088H244" stroke="black" stroke-width="4.47" stroke-miterlimit="10"/>
<path d="M157 224C157 224 158.522 238.24 160.786 252.147C162.276 261.297 164.097 270.298 166 275" stroke="black" stroke-width="4.47" stroke-miterlimit="10"/>
<path d="M161 252L161.296 251.922L161.748 251.801C164.137 251.142 166.547 250.558 168.99 250.067C169.378 249.987 169.767 249.918 170.155 249.847C172.879 249.357 175.64 249.094 178.41 249.061C179.636 249.061 180.811 249.02 181.935 248.961H182.005C186.715 248.7 190.651 247.964 193.94 246.867C199.313 245.084 202.94 242.344 205.341 239.171C205.36 239.153 205.37 239.122 205.392 239.103C207.139 236.739 208.357 234.043 208.968 231.19C208.963 231.176 208.963 231.162 208.968 231.149L209 231" stroke="black" stroke-width="4.47" stroke-miterlimit="10"/>
</svg>
