<svg width="270" height="292" viewBox="0 0 270 292" fill="none" xmlns="http://www.w3.org/2000/svg">
<path d="M14 164C14 161 14 157.997 14 155" stroke="black" stroke-width="4.05" stroke-miterlimit="10"/>
<path d="M162 267H88" stroke="#989BD1" stroke-width="4.05" stroke-miterlimit="10"/>
<path d="M184 62.905C184 62.905 206.058 51.5675 224.772 73.6877C230.886 80.9167 235.058 90.5095 235.353 100.407C235.487 105.236 234.772 110.049 233.246 114.586C231.693 119.217 228.906 122.283 226.764 126.408C223.478 132.768 230.347 133.893 234.033 136.976C236.483 139.041 238.807 141.278 240.99 143.672C245.91 149.021 250.239 154.976 253.89 161.418C261.119 174.249 265.471 188.752 266.595 203.753C267.706 218.545 266.855 234.606 259.886 247.746C256.533 254.074 251.482 260.28 245.271 263.231C237.021 267.147 227.754 266.999 218.938 266.999H200.177" stroke="#005086" stroke-width="4.05" stroke-miterlimit="10"/>
<path d="M92.4185 209.724C91.6952 215.453 90.6175 222.025 89.4274 228.604L88.024 229.05C83.5328 230.454 78.7631 230.299 74.3537 228.604L76.1921 221.65L65 185.405C65 185.405 73.5555 182.325 80.5808 180.039L81.3877 180C85.226 180.901 93.136 184.285 93.3838 196.958C93.4011 197.568 93.3838 198.209 93.3838 198.909C94.499 202.998 94.0552 206.603 92.4185 209.724Z" fill="white"/>
<path d="M65 72.7317C64.8928 72.426 64.6828 72.18 64.4155 72.0458C64.1481 71.9113 63.8444 71.9 63.5695 72.0138C63.4152 72.0659 63.273 72.1546 63.1523 72.274C62.7212 72.6658 62.6232 73.3523 62.6092 74.0043C62.57 75.4933 62.4945 76.9854 62.3965 78.4681C62.3965 78.5684 62.3825 78.6813 62.3825 78.7816C62.3209 79.9759 62.3657 81.4241 61.9122 82.4649C61.8831 82.5442 61.8332 82.6119 61.7694 82.6592C61.6182 82.7376 61.4586 82.5683 61.3607 82.4147C61.0807 81.9571 60.8008 81.5088 60.5208 81.0417C60.2997 80.6687 60.0505 80.2643 59.6642 80.1452C59.0903 79.9665 58.5444 80.5339 58.228 81.1107C57.2062 82.9915 57.1082 86.0729 58.69 87.6496C60.2717 89.2264 56.7303 92.3266 54.194 93.6306C53.7693 93.898 53.3242 94.1225 52.8642 94.3014C52.8418 94.3014 53.7797 94.5366 53.7573 94.546C51.7836 95.3152 49.7277 95.7885 47.6432 95.9534C45.1684 96.1384 42.7553 95.7904 41 94.5867C41.0756 94.2732 41.6747 92.079 41.7111 91.7655C41.8398 90.6715 41.9322 89.5869 41.991 88.4866C42.0974 86.4208 42.089 84.352 42.019 82.2925C41.7643 74.8821 42.9428 68.6566 45.6751 67.7068C45.8907 67.6343 46.0976 67.5322 46.291 67.4027C47.5228 66.641 48.1807 65.0329 47.6152 63.5157C47.576 63.4122 47.5312 63.3119 47.492 63.2022C47.4478 63.0941 47.3971 62.9894 47.3408 62.8887C52.6767 61.033 56.2992 62.3214 59.9609 64.5658C60.6577 65.1893 61.3125 65.8692 61.9206 66.6002C63.3536 68.3425 64.4076 70.4324 65 72.7066V72.7317Z" fill="#005086"/>
<path d="M201.118 145.078H181.876V95.454C181.876 95.454 178.324 138.571 168.591 163H109C116.024 158.183 121.658 150.907 125.408 143.075C126.888 139.977 129.256 135.377 133.193 136.585C134.129 136.869 135.505 137.051 136.201 136.128C136.441 135.774 136.577 135.349 136.592 134.911C136.929 130.388 132.584 126.581 129.002 125.38C125.42 124.179 121.234 124.741 118.384 127.548C116.329 129.577 115.042 132.269 113.538 134.764C112.635 136.242 111.565 137.593 110.353 138.785C111.898 128.66 113.274 118.982 113.473 115.42C117.241 112.21 120.009 106.975 120.992 102.344C122.072 97.2842 123.025 92.3365 124.704 87.5996L138.442 87.6508C138.959 87.6508 139.455 87.4291 139.821 87.0343C140.187 86.6395 140.393 86.1042 140.393 85.5458V60.9256C140.393 60.3724 140.191 59.8415 139.83 59.4486C139.469 59.0561 138.978 58.8337 138.466 58.8302L129.111 58.744C132.511 57.9774 135.958 57.4807 139.425 57.2587C139.496 57.2587 139.561 57.2587 139.623 57.2587C141.905 57.0958 145.904 57.0256 148.207 57C145.463 58.5971 143.767 61.9892 144.063 64.9853C144.115 65.6235 144.266 66.2476 144.51 66.8315C146.855 72.3893 153.03 74.031 158.127 72.4148C163.799 70.6293 167.967 65.0013 167.718 58.5268C171.27 59.089 174.787 59.8022 178.268 60.6669C183.558 61.9796 188.717 63.7492 192.9 67.6077C196.547 70.9583 199.637 75.2735 201.067 80.151C207.207 101.005 205.318 124.278 201.118 145.078Z" fill="#005086"/>
<path d="M113 115C112.686 122.677 111.877 130.348 111 138" stroke="black" stroke-width="4.05" stroke-miterlimit="10"/>
<path d="M124 87.4595C122.389 92.1484 121.478 97.046 120.443 102.054C119.492 106.623 116.846 111.821 113.238 114.998C110.208 117.664 106.497 118.919 102.526 117.237C97.1987 114.973 95.3293 108.428 94.6769 102.658C93.829 95.473 93.7774 88.199 94.5237 81C95.2754 82.8623 98.3476 88.5282 107.876 87.039C108.132 87.2521 108.439 87.3744 108.758 87.3899L124 87.4595Z" fill="#2E2E2E"/>
<path d="M118.869 71.1066C120.981 70.46 122.267 72.891 121.953 74.7402C121.443 77.7563 117.818 78.9427 115.66 78.9977C113.931 79.0397 109.718 78.4934 108 78.2542" stroke="black" stroke-width="4.05" stroke-miterlimit="10"/>
<path d="M106.463 72.3146C109.301 73.1742 112.306 73.2262 115.169 72.4652C117.578 71.8165 120.423 70.6205 121.684 68.2192C122.42 66.8233 121.834 64.5973 120.297 64.1054C118.522 63.5428 116.879 65.3937 115.272 65.861C114.235 66.1571 113.176 66.3628 112.107 66.4759C111.814 66.5097 111.538 66.5343 111.253 66.5589C109.757 66.6847 108.252 66.6733 106.757 66.5251C106.598 66.5251 106.442 66.4725 106.314 66.3751C106.185 66.2773 106.088 66.1396 106.038 65.9812C105.988 65.8232 105.987 65.6522 106.035 65.4933C106.083 65.3343 106.177 65.195 106.305 65.0954L106.575 64.8894" stroke="black" stroke-width="4.05" stroke-miterlimit="10"/>
<path d="M124 87.4139C122.389 92.1101 121.478 97.0153 120.443 102.031C118.696 110.452 111.244 120.943 102.528 117.232C97.2006 114.964 95.3313 108.409 94.6789 102.63C93.6578 93.6808 93.7429 84.4878 95.2462 75.6148C96.4943 68.306 98.7096 60.6299 105.08 57.0357L108.07 55.3669C108.783 54.9647 109.609 54.89 110.371 55.1585C111.132 55.4274 111.77 56.0183 112.146 56.8046C112.376 57.2935 112.497 57.8363 112.501 58.3879C112.504 58.4687 112.498 58.5494 112.484 58.6286" stroke="black" stroke-width="4.05" stroke-miterlimit="10"/>
<path d="M188 157.022C189.491 156.969 190.984 157.012 192.472 157.15C193.686 157.262 194.944 157.328 196.1 157.843C197.053 158.274 198.048 159.302 197.998 160.557C197.908 163.019 195.073 163 193.518 163" stroke="black" stroke-width="4.05" stroke-miterlimit="10"/>
<path opacity="0.54" d="M159.066 154.506L172.862 116.24C173.033 115.498 173.045 114.724 172.898 113.976C172.751 113.229 172.448 112.528 172.013 111.926C171.577 111.324 171.021 110.838 170.386 110.504C169.751 110.17 169.053 109.998 168.348 110H113.562C112.334 110.003 111.143 110.453 110.179 111.277C109.216 112.101 108.536 113.252 108.25 114.545L93.1285 152.802C92.9647 153.54 92.9573 154.309 93.1074 155.051C93.2578 155.793 93.5615 156.489 93.9957 157.085C94.4299 157.682 94.9837 158.164 95.6148 158.496C96.246 158.827 96.9387 159 97.6403 159H153.751C154.973 158.999 156.159 158.557 157.122 157.742C158.085 156.928 158.769 155.789 159.066 154.506Z" fill="white"/>
<path d="M159.066 154.506L172.862 116.24C173.033 115.498 173.045 114.724 172.898 113.976C172.751 113.229 172.448 112.528 172.013 111.926C171.577 111.324 171.021 110.838 170.386 110.504C169.751 110.17 169.053 109.998 168.348 110H113.562C112.334 110.003 111.143 110.453 110.179 111.277C109.216 112.101 108.536 113.252 108.25 114.545L93.1285 152.802C92.9647 153.54 92.9573 154.309 93.1074 155.051C93.2578 155.793 93.5615 156.489 93.9957 157.085C94.4299 157.682 94.9837 158.164 95.6148 158.496C96.246 158.827 96.9387 159 97.6403 159H153.751C154.973 158.999 156.159 158.557 157.122 157.742C158.085 156.928 158.769 155.789 159.066 154.506Z" fill="#989BD1"/>
<path d="M159.066 154.506L172.862 116.24C173.033 115.498 173.045 114.724 172.898 113.976C172.751 113.229 172.448 112.528 172.013 111.926C171.577 111.324 171.021 110.838 170.386 110.504C169.751 110.17 169.053 109.998 168.348 110H113.562C112.334 110.003 111.143 110.453 110.179 111.277C109.216 112.101 108.536 113.252 108.25 114.545L93.1285 152.802C92.9647 153.54 92.9573 154.309 93.1074 155.051C93.2578 155.793 93.5615 156.489 93.9957 157.085C94.4299 157.682 94.9837 158.164 95.6148 158.496C96.246 158.827 96.9387 159 97.6403 159H153.751C154.973 158.999 156.159 158.557 157.122 157.742C158.085 156.928 158.769 155.789 159.066 154.506Z" stroke="black" stroke-width="4.05" stroke-linecap="square" stroke-linejoin="round"/>
<path d="M157.107 152.877L169.872 117.732C170.03 117.051 170.042 116.341 169.907 115.655C169.771 114.969 169.492 114.326 169.09 113.773C168.689 113.221 168.175 112.774 167.589 112.467C167.002 112.159 166.358 112 165.706 112H115.006C113.868 112 112.763 112.411 111.869 113.168C110.975 113.926 110.345 114.984 110.079 116.174L96.1172 151.313C95.9667 151.991 95.9611 152.697 96.1007 153.377C96.2404 154.058 96.5214 154.696 96.923 155.243C97.3246 155.79 97.8365 156.233 98.4201 156.537C99.0034 156.841 99.6434 156.999 100.292 157H152.191C153.321 157.001 154.419 156.596 155.31 155.848C156.2 155.101 156.833 154.055 157.107 152.877Z" fill="#005086"/>
<path d="M118.492 118.275C119.161 117.191 120.244 116.694 120.933 117.197C121.622 117.7 121.622 118.965 120.957 120.043C120.852 120.209 120.734 120.366 120.606 120.511L125.553 131.824C126.341 131.255 127.208 131.113 127.833 131.562C128.034 131.72 128.2 131.924 128.32 132.158C128.44 132.393 128.511 132.654 128.528 132.922L131.91 131.688L134.865 130.61L135.828 130.268C135.95 129.875 136.119 129.501 136.331 129.155C137.268 127.627 138.801 126.941 139.756 127.637C140.711 128.333 140.722 130.088 139.811 131.603L145.447 139.936C146.676 138.845 148.122 138.507 149.123 139.228C150.487 140.212 150.507 142.776 149.17 144.952C149.115 145.041 149.053 145.11 148.998 145.193L152.747 150.746L152.782 150.8C152.974 151.114 153.043 151.497 152.974 151.865C152.905 152.233 152.704 152.557 152.414 152.764C152.125 152.972 151.772 153.047 151.431 152.972C151.091 152.897 150.793 152.679 150.601 152.366L147.272 146.923C146.218 147.584 145.097 147.71 144.276 147.119C142.974 146.17 142.91 143.804 144.072 141.695L138.678 132.877C137.881 133.462 137.002 133.611 136.372 133.159C136.021 132.889 135.782 132.482 135.706 132.023L135.303 132.144L132.298 133.032L128.449 134.158C128.329 134.658 128.132 135.131 127.865 135.559C126.928 137.084 125.395 137.773 124.44 137.077C123.485 136.382 123.471 134.595 124.408 133.067C124.546 132.843 124.7 132.631 124.869 132.435L120.159 120.91C119.593 121.33 118.965 121.438 118.515 121.112C117.838 120.625 117.826 119.347 118.492 118.275Z" fill="#D7E8F0"/>
<path d="M155 119H162.351C162.687 118.999 163.015 118.905 163.297 118.729C163.578 118.553 163.8 118.302 163.935 118.007C163.976 117.918 163.998 117.822 164 117.725C163.999 117.533 163.919 117.348 163.777 117.212C163.635 117.076 163.442 117 163.241 117H155.429C155.797 117.59 155.612 118.416 155 119Z" fill="#D7E8F0"/>
<path d="M150 118.28C150.001 118.471 150.075 118.654 150.207 118.789C150.339 118.924 150.518 119 150.704 119H154.425C154.995 118.418 155.167 117.594 154.825 117H151.539C151.226 117 150.92 117.093 150.658 117.268C150.396 117.444 150.189 117.693 150.063 117.987C150.023 118.079 150.001 118.179 150 118.28Z" fill="#989BD1"/>
<path d="M152.149 118.399C152.166 118.434 152.186 118.467 152.208 118.498C152.631 119.115 153.551 119.173 154.263 118.619C154.348 118.553 154.427 118.479 154.501 118.399C154.995 117.876 155.145 117.135 154.848 116.601C154.832 116.566 154.813 116.533 154.791 116.503C154.37 115.883 153.451 115.83 152.738 116.379C152.654 116.446 152.574 116.521 152.5 116.601C152.006 117.127 151.856 117.863 152.149 118.399Z" fill="white"/>
<path d="M148 123.28C148.002 123.471 148.083 123.655 148.227 123.789C148.371 123.924 148.565 124 148.768 124H156.572C156.194 123.404 156.381 122.594 157 122H149.66C149.32 122 148.987 122.094 148.701 122.27C148.416 122.446 148.191 122.696 148.054 122.99C148.016 123.083 147.998 123.181 148 123.28Z" fill="#989BD1"/>
<path d="M156.211 124H160.189C160.556 124 160.916 123.907 161.224 123.731C161.533 123.555 161.776 123.305 161.926 123.01C161.971 122.921 161.996 122.825 162 122.727C162 122.631 161.979 122.537 161.938 122.448C161.896 122.36 161.835 122.28 161.758 122.212C161.681 122.145 161.59 122.091 161.489 122.055C161.388 122.018 161.281 122 161.172 122H156.675C156.005 122.577 155.802 123.4 156.211 124Z" fill="#D7E8F0"/>
<path d="M156.208 123.398C156.226 123.433 156.25 123.466 156.278 123.496C156.84 124.116 158.068 124.172 159.02 123.62C159.133 123.553 159.239 123.478 159.338 123.398C159.992 122.872 160.192 122.133 159.801 121.6C159.778 121.565 159.753 121.533 159.725 121.501C159.157 120.884 157.928 120.828 156.976 121.382C156.863 121.448 156.757 121.52 156.659 121.6C156.005 122.126 155.805 122.862 156.208 123.398Z" fill="white"/>
<path d="M154 129H158.418C158.74 128.999 159.055 128.859 159.324 128.596C159.594 128.333 159.807 127.958 159.938 127.517C159.977 127.383 159.998 127.24 160 127.094C160 126.805 159.924 126.527 159.788 126.322C159.651 126.117 159.467 126.001 159.274 126H154.419C154.768 126.892 154.588 128.121 154 129Z" fill="#989BD1"/>
<path d="M146 127.926C146 128.068 146.023 128.207 146.065 128.338C146.108 128.469 146.169 128.587 146.248 128.687C146.326 128.787 146.418 128.866 146.52 128.919C146.622 128.973 146.731 129.001 146.841 129H154.316C154.99 128.124 155.199 126.893 154.794 126H147.839C147.464 126 147.098 126.14 146.784 126.404C146.471 126.669 146.224 127.045 146.075 127.487C146.027 127.625 146.001 127.775 146 127.926Z" fill="#D7E8F0"/>
<path d="M151.202 128.399C151.225 128.433 151.252 128.466 151.282 128.497C151.843 129.117 153.066 129.171 154.02 128.619C154.133 128.552 154.239 128.479 154.337 128.399C154.99 127.872 155.193 127.134 154.8 126.597C154.779 126.562 154.754 126.529 154.724 126.498C154.157 125.883 152.933 125.83 151.979 126.379C151.867 126.446 151.761 126.519 151.662 126.597C151.009 127.123 150.806 127.865 151.202 128.399Z" fill="white"/>
<path d="M124 152H128.421C128.742 151.999 129.057 151.906 129.326 151.73C129.595 151.554 129.808 151.304 129.938 151.01C129.977 150.921 129.997 150.825 130 150.728C130 150.535 129.923 150.35 129.787 150.213C129.651 150.077 129.466 150 129.274 150H124.419C124.76 150.592 124.58 151.413 124 152Z" fill="#989BD1"/>
<path d="M106 151.283C106 151.377 106.019 151.471 106.056 151.558C106.092 151.645 106.145 151.724 106.211 151.791C106.278 151.858 106.357 151.91 106.444 151.946C106.531 151.982 106.624 152 106.718 152H123.416C123.991 151.415 124.17 150.594 123.824 150H107.57C107.25 150 106.938 150.093 106.67 150.269C106.403 150.445 106.192 150.695 106.064 150.99C106.024 151.082 106.003 151.182 106 151.283Z" fill="#D7E8F0"/>
<path d="M121.151 152.198C121.168 152.244 121.188 152.288 121.211 152.329C121.632 153.156 122.549 153.227 123.265 152.495C123.349 152.404 123.428 152.304 123.503 152.198C123.993 151.496 124.145 150.511 123.85 149.799C123.834 149.752 123.815 149.708 123.793 149.667C123.367 148.844 122.449 148.773 121.734 149.506C121.649 149.594 121.569 149.692 121.496 149.799C121.009 150.497 120.854 151.486 121.151 152.198Z" fill="white"/>
<path d="M8.83172 164.53C8.83172 164.53 -0.742283 212.265 23.8862 222.237C48.5146 232.208 115.042 222.842 87.3938 188.399C59.7452 153.957 8.83172 164.53 8.83172 164.53Z" fill="#005086"/>
<path d="M129 58C132.389 57.5608 135.825 57.2761 139.281 57.1478C139.355 57.1478 139.417 57.1478 139.481 57.1478C141.752 57.0547 145.729 57.0146 148 57" stroke="black" stroke-width="4.05" stroke-miterlimit="10"/>
<path d="M113 66C112.619 66 112.381 66 112 66" stroke="black" stroke-width="4.05" stroke-miterlimit="10"/>
<path d="M151 46.4952C149.069 47.5782 146.851 46.8446 146 45" stroke="black" stroke-width="4.05" stroke-miterlimit="10"/>
<path d="M141.011 22.1795C140.934 23.6537 141.272 25.1177 141.977 26.3657C142.682 27.614 143.718 28.5838 144.94 29.1394C145.199 28.6082 145.569 28.1561 146.02 27.8219C147.923 26.4434 147.584 30.1258 152.751 29.1554C159.913 27.8026 161.739 30.5949 161.739 30.5949C161.897 30.8392 161.452 32.4329 161.389 32.7253C161.102 34.438 160.815 36.141 160.553 37.8665C160.385 38.9118 160.215 39.9506 160.042 40.9834C160.173 40.842 160.311 40.7099 160.456 40.5881C161.633 38.5317 163.358 36.2245 165.238 38.1075C165.616 38.4995 165.905 38.9863 166.082 39.5278C166.943 42.1465 165.295 43.8303 163.369 44.8392C162.861 45.1834 162.321 45.4645 161.759 45.6779C161.854 46.3398 162.247 48.9779 162.247 48.9843C162.287 49.2542 167.069 45.9542 167.468 45.5526C168.189 44.4855 168.745 43.2908 169.113 42.018C170.6 36.7676 170.348 29.9812 167.354 25.6626C166.61 24.5926 167.107 23.9757 167.322 22.9346C167.332 22.8784 167.328 22.8202 167.308 22.7675C167.288 22.7145 167.255 22.6695 167.212 22.638C167.17 22.6065 167.12 22.5901 167.069 22.5908C167.018 22.5917 166.968 22.6094 166.926 22.6422C165.313 23.7765 162.393 22.6165 162.393 22.6165C152.921 16.2477 148.066 20.1873 145.744 20.3865C144.802 20.4588 143.867 20.1609 143.1 19.5446C142.965 19.8428 142.76 20.0941 142.508 20.2718C142.255 20.4495 141.964 20.5468 141.665 20.5536L141.573 21.1063C141.503 21.5262 141.304 21.9057 141.011 22.1795Z" fill="#005086"/>
<path d="M144.981 28.9205C143.746 28.3609 142.699 27.3836 141.987 26.1256C141.275 24.8675 140.933 23.3922 141.011 21.9065C141.039 21.3359 141.113 20.7692 141.231 20.2129L141.315 20.2323C141.429 20.2611 141.546 20.2708 141.663 20.2615C141.965 20.255 142.259 20.1569 142.514 19.9778C142.77 19.7987 142.977 19.5452 143.113 19.2446C143.193 19.0776 143.249 18.8972 143.279 18.7103L143.725 16C143.725 16 145.175 18.1922 147.495 17.9882C149.815 17.7842 154.719 13.8142 164.315 20.2355C164.315 20.2355 166.618 21.1844 168.248 20.0413C168.29 20.0085 168.34 19.9904 168.392 19.9898C168.443 19.9891 168.494 20.0056 168.537 20.0374C168.58 20.0691 168.614 20.1144 168.633 20.1675C168.653 20.221 168.658 20.2796 168.648 20.3359C168.43 21.3819 168.575 22.2271 169.326 23.3054C172.351 27.6576 172.606 34.4967 171.104 39.788C170.446 41.981 169.278 43.9388 167.72 45.4614C167.317 45.8662 162.485 49.1919 162.445 48.9199C162.445 48.9199 162.047 46.2548 161.952 45.5877L161.929 45.4355L162.065 45.3902C162.582 45.2117 163.087 44.9954 163.579 44.7425C165.525 43.7257 167.198 42.0289 166.319 39.3897C166.14 38.8444 165.848 38.3538 165.467 37.9584C163.567 36.0608 161.824 38.3859 160.635 40.4583C160.405 40.8518 160.216 41.2734 160.073 41.7148C160.119 41.4298 160.165 41.1513 160.215 40.8664C160.389 39.8236 160.561 38.7767 160.731 37.7253C161.021 35.996 161.291 34.2798 161.575 32.5441C161.627 32.2494 162.088 30.6432 161.929 30.3971C161.929 30.3971 160.084 27.5831 152.849 28.9464C147.629 29.9179 147.971 26.2133 146.048 27.6025C145.593 27.9393 145.219 28.3953 144.958 28.9302C144.877 29.1048 144.805 29.2842 144.743 29.4678C144.733 29.4908 144.724 29.5147 144.717 29.539C144.586 29.9405 144.468 30.3453 144.352 30.7404C143.267 34.5907 142.551 38.7485 142.933 42.7931C143.4 47.6958 146.599 53.4599 151.689 52.9709C153.29 52.7614 154.852 52.2717 156.317 51.5202" stroke="black" stroke-width="4.05" stroke-miterlimit="10"/>
<path d="M145.034 38.9997C145.586 38.9867 146.018 38.5287 145.999 37.9765C145.98 37.4243 145.518 36.9873 144.966 37.0003C144.414 37.0131 143.982 37.4711 144.001 38.0233C144.02 38.5755 144.482 39.0125 145.034 38.9997Z" fill="black"/>
<path d="M152.034 40.9997C152.586 40.9867 153.018 40.5287 152.999 39.9767C152.98 39.4245 152.518 38.9873 151.966 39.0003C151.414 39.0133 150.982 39.4713 151.001 40.0233C151.02 40.5755 151.482 41.0127 152.034 40.9997Z" fill="black"/>
<path d="M149 41.8674C149 41.8674 146.395 42.489 146.659 41.0406C146.739 40.5867 147.393 36.1294 147.393 36.1294C147.393 36.1294 146.178 33.4749 143 34.0935" stroke="black" stroke-width="4.05" stroke-miterlimit="10"/>
<path d="M150 36.0706C150 36.0706 154.338 35.2785 156 39" stroke="black" stroke-width="4.05" stroke-miterlimit="10"/>
<path d="M148.105 57C144.844 58.9113 143.104 63.5111 144.468 66.8399C146.743 72.3858 152.733 74.0167 157.682 72.4145C163.186 70.6306 167.231 65.0051 166.99 58.5545" stroke="black" stroke-width="4.05" stroke-miterlimit="10"/>
<path d="M168.077 163C177.789 138.449 181.315 95.1153 181.315 95.1153V155.575C181.315 156.55 181.491 157.515 181.834 158.416C182.177 159.318 182.68 160.136 183.313 160.826C183.947 161.515 184.7 162.062 185.528 162.435C186.357 162.808 187.244 163 188.141 163H209.683C210.49 163.013 211.274 162.702 211.883 162.125C212.493 161.549 212.885 160.748 212.985 159.876C213.028 159.396 212.979 158.911 212.839 158.453C212.699 157.995 212.473 157.574 212.175 157.216C211.877 156.859 211.513 156.574 211.107 156.379C210.701 156.184 210.262 156.084 209.818 156.085H200.995C200.643 156.084 200.296 155.995 199.981 155.826C199.665 155.657 199.389 155.412 199.174 155.109C198.959 154.806 198.81 154.454 198.739 154.079C198.668 153.704 198.676 153.316 198.764 152.945C204.076 130.154 207.36 103.401 200.446 79.726C199.018 74.8403 195.94 70.4873 192.304 67.1231C188.132 63.2453 182.988 61.4669 177.718 60.1508C174.242 59.284 170.735 58.5669 167.198 58C167.187 58.0039 167.176 58.0039 167.165 58C167.142 58 167.118 58 167.103 58H167.08H167.047H167" stroke="black" stroke-width="4.05" stroke-miterlimit="10"/>
<path d="M164.468 48L164.005 55.0618C163.961 55.752 164.218 56.4319 164.728 56.9731C165.237 57.5143 165.965 57.8797 166.772 58H166.877C166.895 57.9959 166.915 57.9959 166.933 58H166.951H167" stroke="black" stroke-width="4.05" stroke-miterlimit="10"/>
<path d="M167 58H166.928H166.901H166.88H166.863H166.808H166.706C165.918 57.8797 165.208 57.5143 164.71 56.9731C164.213 56.4316 163.962 55.7517 164.005 55.0618L164.457 48" stroke="black" stroke-width="4.05" stroke-miterlimit="10"/>
<path d="M148 53.0005C147.838 52.926 148 60.6469 144 64" stroke="black" stroke-width="4.05" stroke-miterlimit="10"/>
<path d="M85 163H70" stroke="black" stroke-width="4.05" stroke-miterlimit="10"/>
<path d="M233 163H109" stroke="black" stroke-width="4.05" stroke-miterlimit="10"/>
<path d="M41.8076 81.7854C41.9559 85.0541 41.848 88.3305 41.4847 91.579C41.0182 95.3966 37.7619 100.248 37.0563 104.024C36.0486 109.455 37.5736 115.068 39.6667 120.111C42.1963 126.207 46.1822 132.338 45.7935 139.319C45.5943 142.359 44.7595 145.31 43.3526 147.949C41.9455 150.588 40.0031 152.845 37.6722 154.55C34.4794 156.865 30.8326 158.341 27.0213 158.861C26.4891 158.929 25.9479 158.984 25.4066 159C25.1076 159 24.8086 158.964 24.5096 158.938C14.3729 158.008 3.97612 149.628 4.00004 137.961C4.00004 130.507 9.22683 124.674 10.1089 117.44C10.6501 113.017 9.45408 108.421 10.5604 104.127C12.3545 97.2698 19.2888 93.53 22.3268 87.2169C24.5634 82.5567 24.9282 77.1187 26.6984 72.2316C29.1623 65.426 33.0973 57.6482 38.4796 57C40.0413 57.1919 41.5511 57.7256 42.917 58.5685C46.254 60.513 47.1032 60.6361 47.7819 62.37C48.4757 64.1815 47.4411 66.1163 45.7128 66.6964C42.7944 67.6978 41.5355 74.1242 41.8076 81.7854Z" fill="#005086"/>
<path d="M44 60.8512C52.7174 58.2344 58.2572 62.084 62.2202 66.5224C66.1831 70.9607 65.9987 76 65.9987 76" stroke="black" stroke-width="4.05" stroke-miterlimit="10"/>
<path d="M71 150C70.8978 157.749 70.2273 165.46 69 173" stroke="black" stroke-width="4.05" stroke-miterlimit="10"/>
<path d="M92.4064 209.989C89.2935 215.9 81.9103 220.098 72.8764 222.711C56.8452 227.347 35.6211 226.986 23.895 222.234C-0.746511 212.266 8.83278 164.532 8.83278 164.532C8.83278 164.532 51.4521 155.678 79.8709 180.542C82.586 182.911 85.1061 185.54 87.402 188.397C90.5439 192.32 92.4731 195.909 93.384 199.188C94.5009 203.274 94.0542 206.873 92.4064 209.989Z" stroke="black" stroke-width="4.05" stroke-miterlimit="10"/>
<path d="M76.2179 222C76.2179 222 61.1943 267.893 86.4341 279.614C111.674 291.336 -6.25318 292.897 19.7777 279.614C45.8086 266.332 30.8463 224.804 30.8463 224.804" stroke="black" stroke-width="4.05" stroke-miterlimit="10"/>
<path d="M107.194 66.1056C106.886 65.065 107.013 61.4468 107.114 59.4038C107.133 59.0182 107.288 58.6557 107.545 58.3938C107.802 58.1319 108.142 57.9906 108.492 58.0005L138.122 58.2869C138.622 58.292 139.1 58.5144 139.451 58.9058C139.803 59.2976 140 59.8264 140 60.3776V84.9093C140 85.1845 139.951 85.4572 139.855 85.7115C139.759 85.9658 139.619 86.1968 139.442 86.3909C139.265 86.5853 139.055 86.739 138.824 86.8434C138.593 86.9481 138.346 87.0012 138.096 87L109.222 86.8822C108.804 86.8631 108.408 86.6665 108.119 86.3333C107.829 85.9998 107.667 85.5556 107.667 85.0938V83.2227C109.721 84.2792 113.603 84.6038 113.603 84.6038C114.985 84.5624 117.168 84.3778 118.365 83.6205C119.461 82.9267 120.846 81.9307 121.033 80.4223C121.106 79.8391 120.966 79.2478 120.644 78.7778C120.322 78.3078 119.845 77.9975 119.317 77.9148C118.999 77.8448 118.671 77.8702 118.365 77.988" stroke="black" stroke-width="4.05" stroke-miterlimit="10"/>
<path d="M135.983 135.135C135.969 135.575 135.833 136 135.592 136.353C134.902 137.278 133.536 137.095 132.608 136.811C128.705 135.602 126.361 140.207 124.886 143.31C121.162 151.152 115.576 158.438 108.606 163.261C108.153 163.581 107.692 163.882 107.225 164.176C100.414 168.455 91.588 167.659 85 163.217L93.4237 140.684L94.2578 141.41C99.345 145.782 105.607 143.329 109.942 139.014C111.145 137.821 112.207 136.468 113.103 134.988C114.595 132.49 115.872 129.793 117.914 127.763C120.739 124.951 124.875 124.401 128.446 125.591C132.018 126.781 136.306 130.606 135.983 135.135Z" fill="white"/>
<path d="M136 133C136 133 135.101 129.135 127 132.151" stroke="black" stroke-width="4.05" stroke-miterlimit="10"/>
<path d="M131 126.39C131 126.39 125.861 124.511 123 129" stroke="black" stroke-width="4.05" stroke-miterlimit="10"/>
<path d="M23.1214 158.91C24.5559 159.052 25.9995 159.026 27.429 158.833C31.1656 158.306 34.7404 156.826 37.8709 154.509C40.1566 152.802 42.0617 150.542 43.4414 147.901C44.8213 145.259 45.6397 142.306 45.835 139.262C46.2162 132.272 42.3163 126.135 39.8267 120.033C37.7741 114.982 36.2787 109.364 37.2698 103.934C37.9589 100.151 41.1463 95.2986 41.6066 91.4741C41.9647 88.2225 42.0726 84.9429 41.9292 81.6712C41.6624 73.9995 42.8939 67.5604 45.7558 66.5808C47.4507 66.0001 48.4682 64.0603 47.785 62.2503C47.1311 60.5115 46.2895 60.4077 43.0142 58.4387C34.4753 53.3005 28.5374 62.8796 25.2591 72.1148C23.5202 77.0098 23.1684 82.4465 20.9721 87.1111C17.9929 93.4334 11.1782 97.167 9.43644 104.044C8.34855 108.339 9.52147 112.942 8.99366 117.363C8.13156 124.6 3.0147 130.436 3.00004 137.903C2.97658 149.578 13.1839 157.973 23.1214 158.91Z" stroke="black" stroke-width="4.05" stroke-miterlimit="10"/>
<path d="M93 210C92.252 215.802 91.1374 222.458 89.9095 229.12C86.4286 248.003 82 267 82 267" stroke="black" stroke-width="4.05" stroke-miterlimit="10"/>
<path d="M93.9858 200C94.0002 199.273 94.0088 198.606 93.9858 197.972C93.7307 184.296 85.2784 181.027 81.6429 180.243C81.1004 180.12 80.5516 180.039 80 180" stroke="black" stroke-width="4.05" stroke-miterlimit="10"/>
<path d="M83.2158 260.514C83.6924 260.19 84.2383 260.012 84.7974 260.001C85.3561 259.989 85.9076 260.143 86.395 260.446C86.8825 260.75 87.2882 261.192 87.5703 261.728C87.8525 262.264 88.0009 262.874 88 263.494C88 263.539 88 263.595 88 263.659C87.9536 265.261 87.5736 266.828 86.8898 268.24C86.2064 269.651 85.2378 270.867 84.0599 271.793L80 275" stroke="black" stroke-width="4.05" stroke-miterlimit="10"/>
<path d="M37 108.062C37.5662 107.808 38.144 107.582 38.7277 107.372C39.9564 104.863 39.7667 99.3721 39.6499 97.3761L40.8786 94.316C44.2698 96.6183 48.7583 95.7541 52.9229 94.1515C53.5077 93.9258 54.0765 93.652 54.6243 93.3325C57.2684 91.9911 60.9748 88.8181 59.3113 87.18C57.6478 85.542 57.7645 82.3884 58.8298 80.4536C59.1537 79.8603 59.7286 79.2767 60.3269 79.4605C60.7297 79.583 60.9894 79.999 61.22 80.3827C61.5118 80.8631 61.8036 81.3243 62.0955 81.795C62.1976 81.953 62.364 82.1175 62.5216 82.0466C62.5881 81.9982 62.6401 81.9285 62.6704 81.8466C63.184 80.6793 63.0877 79.0058 63.1753 77.7257C63.2774 76.2004 63.3562 74.6656 63.3971 73.1339C63.4204 72.2891 63.578 71.383 64.3981 71.0863C64.5636 71.016 64.7416 70.988 64.9182 71.0047C65.095 71.0215 65.266 71.0824 65.4181 71.183C65.5704 71.284 65.6997 71.4217 65.7966 71.5858C65.8935 71.7502 65.9551 71.9366 65.977 72.1311C66.5738 75.837 66.6613 79.621 66.2367 83.3557C65.834 87.2671 65.1073 91.4171 62.8368 94.5707C61.543 96.39 59.8098 97.7672 57.8375 98.5434C55.9289 99.2753 55.9901 101.82 55.9901 104.051V107.756C61.8591 109.072 67.372 110.658 71.9305 115.172C74.9453 118.218 77.782 121.471 80.4231 124.914C88.7377 135.693 90.5355 137.715 94.5395 141.201C99.5942 145.609 105.819 143.136 110.124 138.786C111.317 137.582 112.37 136.218 113.258 134.726C114.741 132.208 116.01 129.489 118.036 127.442C120.846 124.607 124.955 124.053 128.504 125.252C132.053 126.452 136.32 130.308 135.981 134.874C135.967 135.317 135.833 135.745 135.596 136.103C134.91 137.035 133.553 136.851 132.631 136.564C128.749 135.345 126.423 139.989 124.955 143.116C121.258 151.023 115.704 158.368 108.778 163.231C108.329 163.554 107.874 163.857 107.407 164.153C99.6701 169.087 89.298 167.326 82.6441 161.042L66.5928 145.986" stroke="black" stroke-width="4.05" stroke-miterlimit="10"/>
<path d="M39 107.457C39 107.457 46.5501 103.842 56 108" stroke="black" stroke-width="4.05" stroke-miterlimit="10"/>
<path d="M108 84C108 84 108.048 94.8303 110 99" stroke="black" stroke-width="4.05" stroke-miterlimit="10"/>
<path d="M115.63 33.9754C113.784 37.4572 113.87 39.9288 114.349 43.9402C114.388 44.2818 114.34 44.6287 114.209 44.9413C114.078 45.2538 113.869 45.5189 113.607 45.7063C113.346 45.8936 113.042 45.9953 112.73 45.9999C112.418 46.0041 112.112 45.9113 111.846 45.7318C101.194 38.9578 91.2263 44.3162 78.5097 40.9978C73.8408 39.7849 68.021 37.2774 64.0297 33.2398C62.7057 31.0667 61.9988 28.5065 62 25.8872C62 14.9055 75.5776 6 92.3181 6C103.049 6 112.476 9.65833 117.867 15.1704C117.867 15.1704 117.867 15.1704 117.882 15.19C119.234 17.3386 119.972 19.8864 120 22.5035C120 26.456 117.349 30.7061 115.63 33.9754Z" fill="#005086"/>
<path d="M120 22.6787V22.9537C119.937 26.7621 118.184 30.3019 116.103 33.3661C114.71 35.4176 113.057 37.6922 113.45 40.2064C113.623 41.313 114.192 42.3193 114.344 43.442C114.495 44.5648 113.942 45.94 112.909 45.9982C112.254 46.0338 111.694 45.5258 111.176 45.089C108.101 42.5005 104.105 41.5298 100.22 41.3615C96.335 41.1932 92.4558 41.7465 88.5677 41.8663C82.9648 42.041 77.2726 41.2806 72.0954 38.9542C67.4422 36.8445 63.1998 33.4147 60.4073 28.8491C57.6654 24.3483 59.2879 17.8186 62.2114 13.9067C64.9563 10.2374 68.9278 7.88831 73.0034 6.23488C83.9622 1.78581 96.4719 1.89259 107.282 6.76229C110.491 8.19246 113.587 10.0821 115.999 12.8065C118.351 15.463 119.979 19.0029 120 22.6787Z" stroke="black" stroke-width="4.05" stroke-miterlimit="10"/>
<path d="M75.5 27C77.9852 27 80 24.9855 80 22.5C80 20.0148 77.9852 18 75.5 18C73.0148 18 71 20.0148 71 22.5C71 24.9855 73.0148 27 75.5 27Z" fill="white"/>
<path d="M88.5 27C90.9852 27 93 24.9855 93 22.5C93 20.0148 90.9852 18 88.5 18C86.0145 18 84 20.0148 84 22.5C84 24.9855 86.0145 27 88.5 27Z" fill="white"/>
<path d="M102 27C104.209 27 106 24.9855 106 22.5C106 20.0148 104.209 18 102 18C99.791 18 98 20.0148 98 22.5C98 24.9855 99.791 27 102 27Z" fill="white"/>
<g opacity="0.54">
<path opacity="0.54" d="M181.998 212.386L180.31 239.005C179.538 240.611 178.573 242.099 177.441 243.427C177.317 243.379 177.194 243.328 177.073 243.267C176.847 243.183 176.624 243.084 176.413 242.988C172.992 241.349 170.393 238.296 169.635 234.835C168.951 231.805 169.568 228.53 168.246 225.682C166.634 222.174 162.25 219.974 161.713 216.016C161.208 212.312 164.262 208.916 163.768 205.285C163.181 201.18 158.585 198.746 157.725 194.737C157.187 192.245 157.669 189.385 157.466 186.819C157.243 183.949 156.802 181.104 156.148 178.314C162.952 177.775 169.876 181.871 172.081 187.736C173.882 192.547 172.798 198.15 175.605 202.524C177.138 204.894 179.69 206.668 181.011 209.147C181.419 209.92 181.716 210.757 181.892 211.629C181.892 211.69 181.892 211.751 181.913 211.799C181.913 211.898 181.936 211.969 181.948 212.043C181.977 212.264 181.998 212.386 181.998 212.386Z" fill="#989BD1"/>
<path opacity="0.54" d="M182.01 212.363C182.01 212.363 181.99 212.254 181.966 212.043C181.987 212.127 182.001 212.213 182.01 212.299C182.015 212.309 182.017 212.32 182.017 212.331C182.017 212.342 182.015 212.353 182.01 212.363Z" fill="#989BD1"/>
</g>
<path d="M204.426 202.149C203.572 205.594 198.896 207.688 198.333 211.22C197.835 214.352 200.914 217.273 200.405 220.454C199.861 223.864 195.435 225.75 193.81 228.764C192.487 231.212 193.104 234.028 192.421 236.633C191.63 239.592 189.006 242.236 185.545 243.636C185.329 243.722 185.124 243.805 184.905 243.879C184.785 243.917 184.654 243.965 184.535 244C183.396 242.942 182.073 241.079 181 239.068L182.628 212.524C183.897 211.316 185.349 210.21 186.359 208.867C187.455 207.419 187.964 205.837 188.289 204.179H188.323V203.996C188.798 201.379 188.841 198.636 189.937 196.153C192.159 191.1 199.135 187.577 206 188.041C205.352 190.428 204.909 192.879 204.677 195.36C204.48 197.556 204.964 200.017 204.426 202.149Z" fill="#989BD1"/>
<path d="M188 203.626L187.966 203.805C187.638 205.434 187.124 206.988 186.017 208.409C184.997 209.728 183.532 210.814 182.25 212C182.255 211.984 182.255 211.966 182.25 211.95C182.241 211.865 182.226 211.781 182.207 211.699C182.207 211.627 182.184 211.557 182.172 211.46C182.172 211.413 182.172 211.353 182.152 211.294C181.98 210.441 181.689 209.622 181.29 208.865C179.997 206.438 177.5 204.703 176 202.383C176 202.383 176.678 190.159 182.405 186.439C187.836 182.924 188 201.592 188 203.626Z" fill="#989BD1"/>
<path d="M181.706 212.525C183.019 211.317 184.545 210.195 185.598 208.857C188.555 205.09 187.414 200.275 189.309 196.143C191.616 191.098 198.87 187.58 206 188.04C205.323 190.426 204.861 192.876 204.622 195.357C204.409 197.568 204.918 200.025 204.359 202.166C203.451 205.61 198.61 207.7 198.021 211.231C197.498 214.359 200.707 217.279 200.177 220.455C199.612 223.867 195.017 225.753 193.325 228.762C191.944 231.213 192.592 234.022 191.876 236.632C191.01 239.779 187.993 242.559 184.063 243.872C183.939 243.917 183.803 243.965 183.676 244C182.493 242.942 181.118 241.08 180 239.067" stroke="#005086" stroke-width="4.05" stroke-miterlimit="10"/>
<path d="M201 192C190.371 204.364 185.371 230.431 183.426 243.891C183.266 245.025 183.13 246.064 183 247" stroke="white" stroke-width="4.05" stroke-miterlimit="10"/>
<path d="M202 255.003L197.183 285.906C197.069 286.752 196.682 287.528 196.09 288.094C195.499 288.66 194.741 288.981 193.952 289H168.691C167.894 288.98 167.13 288.653 166.537 288.076C165.943 287.499 165.559 286.712 165.455 285.856L161 255L202 255.003Z" stroke="#005086" stroke-width="4.05" stroke-miterlimit="10"/>
<path d="M206.989 251.324C206.946 252.3 206.586 253.221 205.981 253.903C205.375 254.585 204.57 254.976 203.725 255H160.273C159.438 254.977 158.641 254.593 158.038 253.924C157.435 253.255 157.07 252.349 157.015 251.384C156.832 249.024 158.341 247 160.273 247H203.725C205.64 247.003 207.144 248.997 206.989 251.324Z" stroke="#005086" stroke-width="4.05" stroke-miterlimit="10"/>
<path d="M176.493 244C178.39 241.937 180.714 237.335 181.743 233.579C182.591 230.482 181.1 227.294 180.756 224.116C180.222 219.141 182.475 213.792 180.101 209.281C178.776 206.766 176.2 204.979 174.653 202.571C171.804 198.135 172.898 192.461 171.078 187.597C168.852 181.647 161.865 177.497 155 178.049C155.656 180.877 156.101 183.76 156.331 186.667C156.535 189.267 156.034 192.166 156.586 194.687C157.454 198.749 162.114 201.209 162.686 205.372C163.19 209.051 160.104 212.495 160.611 216.242C161.157 220.258 165.576 222.478 167.209 226.039C168.537 228.928 167.915 232.243 168.603 235.311C169.465 239.145 172.521 242.515 176.493 244Z" stroke="#005086" stroke-width="4.05" stroke-miterlimit="10"/>
<path d="M160 183C170.02 197.371 174.735 227.655 176.591 243.289C176.747 244.644 176.881 245.888 177 247" stroke="white" stroke-width="4.05" stroke-miterlimit="10"/>
<path d="M175 202.803C175 202.803 175.737 190.266 181.934 186.455C188.13 182.645 188 204 188 204" stroke="white" stroke-width="4.05" stroke-miterlimit="10"/>
<path d="M181.273 212C181.273 212 180.31 204.941 182 198" stroke="white" stroke-width="4.05" stroke-miterlimit="10"/>
</svg>
