<svg width="118" height="115" viewBox="0 0 118 115" fill="none" xmlns="http://www.w3.org/2000/svg">
<path d="M112.078 13.8757L116.266 9.85228C117.376 8.76995 118 7.30198 118 5.77133C118 4.24068 117.376 2.77272 116.266 1.69038C115.155 0.608049 113.649 0 112.078 0C110.508 0 109.001 0.608049 107.891 1.69038L99.6338 9.7948L82.9432 26.0611L45.7283 62.2723C39.6303 58.3514 32.2559 56.7761 25.0341 57.8516C17.8123 58.9272 11.2572 62.5771 6.63911 68.094C2.02097 73.611 -0.331438 80.6022 0.0376932 87.713C0.406824 94.8238 3.47122 101.548 8.63709 106.582C13.803 111.617 20.7025 114.604 27.9988 114.963C35.2952 115.323 42.4688 113.03 48.1296 108.53C53.7905 104.029 57.5356 97.6406 58.6392 90.6023C59.7428 83.5641 58.1264 76.3772 54.1032 70.4342L87.0716 38.2465L99.5749 50.4893C100.125 51.0215 100.777 51.4428 101.494 51.7294C102.211 52.0159 102.979 52.1621 103.754 52.1594C104.529 52.1567 105.295 52.0053 106.01 51.7138C106.725 51.4224 107.374 50.9965 107.92 50.4606C108.466 49.9247 108.899 49.2892 109.193 48.5904C109.487 47.8917 109.637 47.1433 109.634 46.3881C109.631 45.6328 109.476 44.8855 109.177 44.1888C108.878 43.4921 108.441 42.8596 107.891 42.3274L95.3875 30.1421L103.762 22.0376L107.891 26.0611C108.437 26.597 109.086 27.0229 109.801 27.3144C110.516 27.6059 111.282 27.7573 112.057 27.7599C112.832 27.7626 113.6 27.6165 114.317 27.3299C115.034 27.0434 115.686 26.622 116.236 26.0899C116.786 25.5577 117.223 24.9252 117.522 24.2285C117.821 23.5318 117.976 22.7845 117.979 22.0292C117.982 21.274 117.832 20.5256 117.538 19.8269C117.244 19.1281 116.812 18.4926 116.266 17.9567L112.078 13.8757ZM29.5095 103.484C26.0101 103.484 22.5893 102.473 19.6797 100.578C16.77 98.6834 14.5022 95.9903 13.1631 92.8395C11.8239 89.6887 11.4735 86.2216 12.1562 82.8767C12.8389 79.5318 14.524 76.4593 16.9985 74.0478C19.4729 71.6362 22.6256 69.994 26.0577 69.3286C29.4899 68.6633 33.0474 69.0047 36.2804 70.3099C39.5135 71.615 42.2768 73.8251 44.2209 76.6608C46.1651 79.4965 47.2028 82.8303 47.2028 86.2407C47.2028 90.814 45.3387 95.1999 42.0205 98.4337C38.7024 101.667 34.2021 103.484 29.5095 103.484Z" fill="#005086" fill-opacity="0.5"/>
</svg>
