<svg width="55" height="48" viewBox="0 0 55 48" fill="none" xmlns="http://www.w3.org/2000/svg">
<path d="M30.7313 24L45.1688 11.42C45.6003 11.0434 45.8427 10.5326 45.8427 10C45.8427 9.4674 45.6003 8.95661 45.1688 8.58C44.7372 8.2034 44.1519 7.99182 43.5417 7.99182C42.9314 7.99182 42.3461 8.2034 41.9146 8.58L27.5 21.18L13.0854 8.58C12.6539 8.2034 12.0686 7.99182 11.4583 7.99182C10.8481 7.99182 10.2628 8.2034 9.83125 8.58C9.39972 8.95661 9.15729 9.4674 9.15729 10C9.15729 10.5326 9.39972 11.0434 9.83125 11.42L24.2688 24L9.83125 36.58C9.61646 36.7659 9.44597 36.9871 9.32963 37.2309C9.21328 37.4746 9.15338 37.736 9.15338 38C9.15338 38.264 9.21328 38.5254 9.32963 38.7692C9.44597 39.0129 9.61646 39.2341 9.83125 39.42C10.0443 39.6075 10.2978 39.7563 10.577 39.8578C10.8563 39.9593 11.1558 40.0116 11.4583 40.0116C11.7609 40.0116 12.0604 39.9593 12.3397 39.8578C12.6189 39.7563 12.8724 39.6075 13.0854 39.42L27.5 26.82L41.9146 39.42C42.1276 39.6075 42.3811 39.7563 42.6603 39.8578C42.9396 39.9593 43.2391 40.0116 43.5417 40.0116C43.8442 40.0116 44.1437 39.9593 44.423 39.8578C44.7023 39.7563 44.9557 39.6075 45.1688 39.42C45.3835 39.2341 45.554 39.0129 45.6704 38.7692C45.7867 38.5254 45.8466 38.264 45.8466 38C45.8466 37.736 45.7867 37.4746 45.6704 37.2309C45.554 36.9871 45.3835 36.7659 45.1688 36.58L30.7313 24Z" fill="white"/>
</svg>
