<svg width="47" height="46" viewBox="0 0 47 46" fill="none" xmlns="http://www.w3.org/2000/svg">
<rect width="47" height="46" rx="23" fill="white"/>
<path d="M23.5 13.5783C26.6145 13.5783 27.0392 13.5783 28.3133 13.5783C29.4458 13.5783 30.012 13.8554 30.4367 13.994C31.003 14.2711 31.4277 14.4096 31.8524 14.8253C32.2771 15.241 32.5602 15.6566 32.7018 16.2108C32.8434 16.6265 32.9849 17.1807 33.1265 18.2892C33.1265 19.5361 33.1265 19.8133 33.1265 23C33.1265 26.1867 33.1265 26.4639 33.1265 27.7108C33.1265 28.8193 32.8434 29.3735 32.7018 29.7892C32.4187 30.3434 32.2771 30.759 31.8524 31.1747C31.4277 31.5904 31.003 31.8675 30.4367 32.006C30.012 32.1446 29.4458 32.2831 28.3133 32.4217C27.0392 32.4217 26.756 32.4217 23.5 32.4217C20.244 32.4217 19.9608 32.4217 18.6867 32.4217C17.5542 32.4217 16.988 32.1446 16.5633 32.006C15.997 31.7289 15.5723 31.5904 15.1476 31.1747C14.7229 30.759 14.4398 30.3434 14.2982 29.7892C14.1566 29.3735 14.0151 28.8193 13.8735 27.7108C13.8735 26.4639 13.8735 26.1867 13.8735 23C13.8735 19.8133 13.8735 19.5361 13.8735 18.2892C13.8735 17.1807 14.1566 16.6265 14.2982 16.2108C14.5813 15.6566 14.7229 15.241 15.1476 14.8253C15.5723 14.4096 15.997 14.1325 16.5633 13.994C16.988 13.8554 17.5542 13.7169 18.6867 13.5783C19.9608 13.5783 20.3855 13.5783 23.5 13.5783ZM23.5 11.5C20.244 11.5 19.9608 11.5 18.6867 11.5C17.4127 11.5 16.5633 11.7771 15.8554 12.0542C15.1476 12.3313 14.4398 12.747 13.7319 13.4398C13.0241 14.1325 12.741 14.6867 12.3163 15.5181C12.0331 16.2108 11.8916 17.0422 11.75 18.2892C11.75 19.5361 11.75 19.9518 11.75 23C11.75 26.1867 11.75 26.4639 11.75 27.7108C11.75 28.9578 12.0331 29.7892 12.3163 30.4819C12.5994 31.1747 13.0241 31.8675 13.7319 32.5602C14.4398 33.253 15.006 33.5301 15.8554 33.9458C16.5633 34.2229 17.4127 34.3614 18.6867 34.5C19.9608 34.5 20.3855 34.5 23.5 34.5C26.6145 34.5 27.0392 34.5 28.3133 34.5C29.5874 34.5 30.4367 34.2229 31.1446 33.9458C31.8524 33.6687 32.5602 33.253 33.2681 32.5602C33.9759 31.8675 34.259 31.3133 34.6837 30.4819C34.9669 29.7892 35.1084 28.9578 35.25 27.7108C35.25 26.4639 35.25 26.0482 35.25 23C35.25 19.9518 35.25 19.5361 35.25 18.2892C35.25 17.0422 34.9669 16.2108 34.6837 15.5181C34.4006 14.8253 33.9759 14.1325 33.2681 13.4398C32.5602 12.747 31.994 12.4699 31.1446 12.0542C30.4367 11.7771 29.5874 11.6386 28.3133 11.5C27.0392 11.5 26.756 11.5 23.5 11.5Z" fill="#005086"/>
<path d="M23.5 17.0422C20.1024 17.0422 17.4127 19.6747 17.4127 23C17.4127 26.3253 20.1024 28.9578 23.5 28.9578C26.8976 28.9578 29.5874 26.3253 29.5874 23C29.5874 19.6747 26.8976 17.0422 23.5 17.0422ZM23.5 26.8795C21.3765 26.8795 19.5361 25.2169 19.5361 23C19.5361 20.9217 21.2349 19.1205 23.5 19.1205C25.6235 19.1205 27.4639 20.7831 27.4639 23C27.4639 25.0783 25.6235 26.8795 23.5 26.8795Z" fill="#005086"/>
<path d="M29.7289 18.2892C30.5108 18.2892 31.1446 17.6688 31.1446 16.9036C31.1446 16.1384 30.5108 15.5181 29.7289 15.5181C28.9471 15.5181 28.3133 16.1384 28.3133 16.9036C28.3133 17.6688 28.9471 18.2892 29.7289 18.2892Z" fill="#005086"/>
</svg>
