<svg width="45" height="40" viewBox="0 0 45 40" fill="none" xmlns="http://www.w3.org/2000/svg">
<path d="M42.7417 4.82635L44.3385 3.42688C44.7621 3.05042 45 2.53982 45 2.00742C45 1.47502 44.7621 0.964424 44.3385 0.58796C43.915 0.211495 43.3406 0 42.7417 0C42.1427 0 41.5683 0.211495 41.1448 0.58796L37.996 3.40689L31.6309 9.06474L17.4388 21.6599C15.1133 20.2961 12.301 19.7482 9.54691 20.1223C6.79282 20.4964 4.29302 21.7659 2.53186 23.6849C0.77071 25.6038 -0.126396 28.0355 0.0143745 30.5089C0.155145 32.9822 1.32377 35.321 3.29381 37.0722C5.26384 38.8233 7.89503 39.8621 10.6775 39.9872C13.46 40.1124 16.1957 39.3149 18.3545 37.7495C20.5133 36.184 21.9415 33.9619 22.3624 31.5139C22.7833 29.0658 22.1668 26.566 20.6326 24.4989L33.2053 13.3031L37.9735 17.5615C38.1832 17.7466 38.4318 17.8932 38.7053 17.9928C38.9787 18.0925 39.2715 18.1433 39.5671 18.1424C39.8626 18.1415 40.155 18.0888 40.4277 17.9874C40.7003 17.886 40.9478 17.7379 41.156 17.5515C41.3642 17.3651 41.5291 17.1441 41.6413 16.901C41.7534 16.658 41.8106 16.3977 41.8095 16.135C41.8085 15.8723 41.7492 15.6124 41.6352 15.37C41.5211 15.1277 41.3545 14.9077 41.1448 14.7226L36.3766 10.4842L39.5704 7.66527L41.1448 9.06474C41.353 9.25114 41.6005 9.39927 41.8731 9.50065C42.1457 9.60204 42.4382 9.6547 42.7337 9.65562C43.0292 9.65655 43.3221 9.60573 43.5955 9.50606C43.8689 9.40639 44.1176 9.25983 44.3273 9.07473C44.537 8.88964 44.7036 8.66964 44.8177 8.4273C44.9318 8.18497 44.991 7.92503 44.9921 7.66234C44.9931 7.39965 44.9359 7.13935 44.8238 6.8963C44.7117 6.65325 44.5468 6.43221 44.3385 6.24581L42.7417 4.82635ZM11.2536 35.9945C9.91911 35.9945 8.61456 35.6427 7.50495 34.9837C6.39534 34.3247 5.53051 33.3879 5.01981 32.292C4.50911 31.1961 4.37549 29.9901 4.63584 28.8267C4.89619 27.6632 5.53883 26.5945 6.48247 25.7557C7.42612 24.917 8.62839 24.3457 9.93727 24.1143C11.2461 23.8829 12.6028 24.0017 13.8358 24.4556C15.0687 24.9096 16.1225 25.6783 16.8639 26.6646C17.6053 27.6509 18.0011 28.8105 18.0011 29.9968C18.0011 31.5875 17.2902 33.113 16.0248 34.2378C14.7594 35.3626 13.0432 35.9945 11.2536 35.9945Z" fill="#005086"/>
</svg>
