<svg width="112" height="31" viewBox="0 0 112 31" fill="none" xmlns="http://www.w3.org/2000/svg">
<rect width="112" height="31" rx="8" fill="white"/>
<path d="M46.01 10.32C42.875 10.32 41.525 12.825 41.525 15.75C41.525 18.675 42.875 21.195 46.01 21.195C49.16 21.195 50.51 18.675 50.51 15.75C50.51 12.825 49.16 10.32 46.01 10.32ZM46.01 18.72C44.6 18.72 44.09 17.295 44.09 15.75C44.09 14.22 44.6 12.795 46.01 12.795C47.435 12.795 47.945 14.22 47.945 15.75C47.945 17.295 47.435 18.72 46.01 18.72ZM55.9692 9.06L51.6342 22.455H53.7792L58.1142 9.06H55.9692ZM63.075 17.565L60.57 21H63.33L65.985 17.1C66.375 16.53 67.155 15.465 67.155 14.01C67.155 11.82 65.55 10.32 63.195 10.32C60.795 10.32 59.235 11.88 59.235 14.01C59.235 16.155 60.78 17.52 63.075 17.565ZM63.195 12.585C64.035 12.585 64.62 13.2 64.62 14.01C64.62 14.805 64.005 15.435 63.195 15.435C62.34 15.435 61.77 14.82 61.77 14.01C61.77 13.2 62.355 12.585 63.195 12.585Z" fill="#005086"/>
<path d="M100.046 8.0512L100.721 7.45642C100.9 7.29643 101 7.07942 101 6.85315C101 6.62688 100.9 6.40988 100.721 6.24988C100.542 6.08989 100.299 6 100.046 6C99.7936 6 99.5511 6.08989 99.3722 6.24988L98.0427 7.44793L95.3553 9.85251L89.363 15.2055C88.3812 14.6259 87.1937 14.393 86.0309 14.552C84.8681 14.711 83.8126 15.2505 83.069 16.0661C82.3254 16.8816 81.9466 17.9151 82.0061 18.9663C82.0655 20.0174 82.5589 21.0114 83.3907 21.7557C84.2225 22.4999 85.3335 22.9414 86.5083 22.9946C87.6831 23.0477 88.8382 22.7088 89.7497 22.0435C90.6612 21.3782 91.2642 20.4338 91.4419 19.3934C91.6196 18.353 91.3593 17.2905 90.7115 16.412L96.02 11.6538L98.0332 13.4636C98.1218 13.5423 98.2268 13.6046 98.3422 13.647C98.4577 13.6893 98.5813 13.7109 98.7061 13.7105C98.8309 13.7101 98.9543 13.6877 99.0695 13.6447C99.1846 13.6016 99.2891 13.5386 99.377 13.4594C99.4649 13.3802 99.5345 13.2862 99.5819 13.1829C99.6292 13.0796 99.6533 12.969 99.6529 12.8574C99.6525 12.7457 99.6274 12.6352 99.5793 12.5323C99.5311 12.4293 99.4608 12.3358 99.3722 12.2571L97.359 10.4558L98.7075 9.25774L99.3722 9.85251C99.4602 9.93174 99.5647 9.99469 99.6798 10.0378C99.7949 10.0809 99.9183 10.1032 100.043 10.1036C100.168 10.104 100.292 10.0824 100.407 10.0401C100.522 9.99772 100.627 9.93543 100.716 9.85676C100.805 9.7781 100.875 9.6846 100.923 9.5816C100.971 9.47861 100.996 9.36814 100.997 9.25649C100.997 9.14485 100.973 9.03422 100.926 8.93093C100.878 8.82763 100.809 8.73369 100.721 8.65447L100.046 8.0512ZM86.7515 21.2977C86.1881 21.2977 85.6373 21.1482 85.1688 20.8681C84.7003 20.588 84.3351 20.1899 84.1195 19.7241C83.9038 19.2583 83.8474 18.7458 83.9574 18.2513C84.0673 17.7569 84.3386 17.3027 84.737 16.9462C85.1355 16.5897 85.6431 16.3469 86.1957 16.2486C86.7484 16.1502 87.3212 16.2007 87.8418 16.3936C88.3623 16.5866 88.8073 16.9133 89.1203 17.3325C89.4334 17.7516 89.6004 18.2445 89.6004 18.7486C89.6004 19.4247 89.3003 20.073 88.766 20.5511C88.2317 21.0291 87.5071 21.2977 86.7515 21.2977Z" fill="#005086"/>
</svg>
