<svg width="39" height="41" viewBox="0 0 39 41" fill="none" xmlns="http://www.w3.org/2000/svg">
<ellipse cx="19.5" cy="20.5" rx="19.5" ry="20.5" fill="white"/>
<path d="M25.4756 8C22.9032 8 20.7052 9.94309 19.4975 11.2827C18.2899 9.94309 16.0968 8 13.5256 8C9.09395 8 6 11.2736 6 15.9596C6 21.123 9.84259 24.4603 13.56 27.6884C15.315 29.214 17.1314 30.7903 18.5243 32.5383C18.7587 32.8309 19.1024 33 19.4632 33H19.5344C19.8964 33 20.2388 32.8296 20.472 32.5383C21.8674 30.7903 23.6825 29.2127 25.4388 27.6884C29.155 24.4616 33 21.1243 33 15.9596C33 11.2736 29.906 8 25.4756 8Z" fill="#005086"/>
</svg>
