<svg width="34" height="36" viewBox="0 0 34 36" fill="none" xmlns="http://www.w3.org/2000/svg">
<path d="M33 32.5203L32.6235 32.1501C31.5553 31.0897 30.6204 29.8736 29.844 28.5347C28.996 26.6869 28.4877 24.6691 28.349 22.5995V16.5039C28.3563 13.2532 27.2981 10.1114 25.3732 7.66886C23.4482 5.22629 20.7891 3.65104 17.8953 3.23907V1.6473C17.8953 1.21041 17.7395 0.791412 17.4623 0.482483C17.1851 0.173555 16.809 0 16.4169 0C16.0249 0 15.6488 0.173555 15.3716 0.482483C15.0943 0.791412 14.9386 1.21041 14.9386 1.6473V3.26375C12.0708 3.70541 9.44373 5.29019 7.54408 7.72455C5.64442 10.1589 4.60088 13.2779 4.60671 16.5039V22.5995C4.46802 24.6691 3.95975 26.6869 3.11175 28.5347C2.34863 29.8702 1.42874 31.0862 0.37651 32.1501L0 32.5203V36H33V32.5203Z" fill="#989BD1"/>
<path d="M34 13C34 17.9706 30.6421 22 26.5 22C22.3579 22 19 17.9706 19 13C19 8.02944 22.3579 4 26.5 4C30.6421 4 34 8.02944 34 13Z" fill="white"/>
</svg>
