<svg width="32" height="32" viewBox="0 0 32 32" fill="none" xmlns="http://www.w3.org/2000/svg">
<path fill-rule="evenodd" clip-rule="evenodd" d="M29.3334 16C29.3334 20.0178 27.5562 23.6206 24.7451 26.0651C22.4041 28.1008 19.346 29.3333 16 29.3333C12.654 29.3333 9.59594 28.1008 7.25491 26.0651C4.44382 23.6206 2.66669 20.0178 2.66669 16C2.66669 8.6362 8.63622 2.66667 16 2.66667C23.3638 2.66667 29.3334 8.6362 29.3334 16ZM16.0001 25.3333C18.3422 25.3333 20.4829 24.4706 22.1216 23.0456C22.3103 22.8815 22.4923 22.71 22.6672 22.5315C21.2259 20.2005 18.7778 18.6667 16 18.6667C13.2223 18.6667 10.7742 20.2005 9.33295 22.5315C9.50783 22.71 9.68983 22.8815 9.87847 23.0456C11.5172 24.4706 13.6579 25.3333 16.0001 25.3333ZM16 16C18.2092 16 20 14.2091 20 12C20 9.79086 18.2092 8 16 8C13.7909 8 12 9.79086 12 12C12 14.2091 13.7909 16 16 16Z" fill="white" fill-opacity="0.5"/>
</svg>
