<svg width="27" height="27" viewBox="0 0 27 27" fill="none" xmlns="http://www.w3.org/2000/svg">
<path fill-rule="evenodd" clip-rule="evenodd" d="M26.6667 13.3333C26.6667 17.3512 24.8895 20.9539 22.0784 23.3984C19.7374 25.4342 16.6793 26.6667 13.3333 26.6667C9.98736 26.6667 6.92925 25.4342 4.58822 23.3984C1.77713 20.9539 0 17.3512 0 13.3333C0 5.96954 5.96954 0 13.3333 0C20.6971 0 26.6667 5.96954 26.6667 13.3333ZM13.3334 22.6667C15.6755 22.6667 17.8162 21.8039 19.4549 20.3789C19.6436 20.2149 19.8256 20.0434 20.0005 19.8649C18.5593 17.5338 16.1111 16 13.3334 16C10.5557 16 8.10747 17.5338 6.66626 19.8649C6.84114 20.0434 7.02314 20.2149 7.21179 20.3789C8.85051 21.8039 10.9912 22.6667 13.3334 22.6667ZM13.3333 13.3333C15.5425 13.3333 17.3333 11.5425 17.3333 9.33333C17.3333 7.12419 15.5425 5.33333 13.3333 5.33333C11.1242 5.33333 9.33333 7.12419 9.33333 9.33333C9.33333 11.5425 11.1242 13.3333 13.3333 13.3333Z" fill="white"/>
</svg>
