<svg width="87" height="79" viewBox="0 0 87 79" fill="none" xmlns="http://www.w3.org/2000/svg">
<path d="M87 39.5C87 49.9761 82.417 60.023 74.2591 67.4307C66.1013 74.8384 55.0369 79 43.5 79C31.9631 79 20.8987 74.8384 12.7409 67.4307C4.58302 60.023 0 49.9761 0 39.5C0 29.0239 4.58302 18.977 12.7409 11.5693C20.8987 4.1616 31.9631 0 43.5 0C55.0369 0 66.1013 4.1616 74.2591 11.5693C82.417 18.977 87 29.0239 87 39.5ZM29.8845 29.7879H34.3704C35.1208 29.7879 35.7189 29.23 35.8168 28.5536C36.3062 25.3146 38.7531 22.9544 43.1139 22.9544C46.8441 22.9544 50.2588 24.648 50.2588 28.7214C50.2588 31.8567 48.2252 33.2985 45.0116 35.4907C41.3522 37.9052 38.454 40.7245 38.6606 45.3016L38.6769 46.373C38.6826 46.6969 38.8284 47.0059 39.0827 47.2331C39.337 47.4603 39.6795 47.5877 40.0363 47.5876H44.4461C44.8067 47.5876 45.1524 47.4576 45.4073 47.2261C45.6623 46.9946 45.8055 46.6806 45.8055 46.3532V45.8348C45.8055 42.2897 47.2899 41.2578 51.2974 38.4977C54.6088 36.2116 58.0616 33.6738 58.0616 28.3462C58.0616 20.8856 51.1234 17.2812 43.5272 17.2812C36.6379 17.2812 29.0906 20.1944 28.5741 28.5684C28.5666 28.7278 28.5952 28.887 28.658 29.036C28.7208 29.1851 28.8165 29.3209 28.9392 29.4351C29.062 29.5494 29.2091 29.6396 29.3717 29.7003C29.5343 29.7609 29.7088 29.7908 29.8845 29.7879ZM42.5267 61.6003C45.8436 61.6003 48.1219 59.6549 48.1219 57.0232C48.1219 54.2977 45.8381 52.3819 42.5267 52.3819C39.3512 52.3819 37.0402 54.2977 37.0402 57.0232C37.0402 59.6549 39.3512 61.6003 42.5321 61.6003H42.5267Z" fill="white"/>
</svg>
