<svg width="118" height="116" viewBox="0 0 118 116" fill="none" xmlns="http://www.w3.org/2000/svg">
<path d="M112.078 13.9964L116.266 9.93795C117.376 8.84621 118 7.36548 118 5.82152C118 4.27755 117.376 2.79683 116.266 1.70508C115.155 0.613336 113.649 0 112.078 0C110.508 0 109.001 0.613336 107.891 1.70508L99.6338 9.87997L82.9432 26.2877L45.7283 62.8138C39.6303 58.8588 32.2559 57.2698 25.0341 58.3547C17.8123 59.4396 11.2572 63.1212 6.63911 68.6861C2.02097 74.251 -0.331438 81.3031 0.0376932 88.4757C0.406824 95.6484 3.47122 102.431 8.63709 107.509C13.803 112.588 20.7025 115.6 27.9988 115.963C35.2952 116.326 42.4688 114.013 48.1296 109.473C53.7905 104.934 57.5356 98.4896 58.6392 91.3902C59.7428 84.2908 58.1264 77.0414 54.1032 71.0467L87.0716 38.5791L99.5749 50.9284C100.125 51.4651 100.777 51.8902 101.494 52.1792C102.211 52.4683 102.979 52.6156 103.754 52.6129C104.529 52.6102 105.295 52.4575 106.01 52.1635C106.725 51.8695 107.374 51.4399 107.92 50.8994C108.466 50.3588 108.899 49.7178 109.193 49.0129C109.487 48.3081 109.637 47.5532 109.634 46.7914C109.631 46.0296 109.476 45.2758 109.177 44.573C108.878 43.8703 108.441 43.2323 107.891 42.6955L95.3875 30.4042L103.762 22.2293L107.891 26.2877C108.437 26.8283 109.086 27.2579 109.801 27.5519C110.516 27.8459 111.282 27.9986 112.057 28.0013C112.832 28.004 113.6 27.8566 114.317 27.5676C115.034 27.2785 115.686 26.8535 116.236 26.3167C116.786 25.78 117.223 25.142 117.522 24.4392C117.821 23.7364 117.976 22.9826 117.979 22.2208C117.982 21.459 117.832 20.7041 117.538 19.9993C117.244 19.2944 116.812 18.6534 116.266 18.1128L112.078 13.9964ZM29.5095 104.384C26.0101 104.384 22.5893 103.364 19.6797 101.453C16.77 99.5415 14.5022 96.825 13.1631 93.6468C11.8239 90.4686 11.4735 86.9713 12.1562 83.5974C12.8389 80.2234 14.524 77.1242 16.9985 74.6917C19.4729 72.2592 22.6256 70.6026 26.0577 69.9315C29.4899 69.2603 33.0474 69.6048 36.2804 70.9212C39.5135 72.2377 42.2768 74.4671 44.2209 77.3274C46.1651 80.1877 47.2028 83.5506 47.2028 86.9906C47.2028 91.6037 45.3387 96.0277 42.0205 99.2896C38.7024 102.552 34.2021 104.384 29.5095 104.384Z" fill="#DD0000" fill-opacity="0.84"/>
</svg>
