<svg width="32" height="32" viewBox="0 0 32 32" fill="none" xmlns="http://www.w3.org/2000/svg">
<path fill-rule="evenodd" clip-rule="evenodd" d="M13.3333 2.66667H18.6667C20.1394 2.66667 21.3333 3.86058 21.3333 5.33334C21.3333 6.8061 20.1394 8.00001 18.6667 8.00001H13.3333C11.8606 8.00001 10.6667 6.8061 10.6667 5.33334C10.6667 3.86058 11.8606 2.66667 13.3333 2.66667ZM8.67643 5.3737C8.66996 5.47062 8.66667 5.56842 8.66667 5.66698C8.66667 8.06022 10.6068 10.0003 13 10.0003H19C21.3932 10.0003 23.3333 8.06022 23.3333 5.66698C23.3333 5.56842 23.33 5.47063 23.3236 5.37371C25.9592 5.69743 28 7.94387 28 10.667V24.0003C28 26.9458 25.6122 29.3336 22.6667 29.3336H9.33333C6.38781 29.3336 4 26.9458 4 24.0003V10.667C4 7.94387 6.04083 5.69742 8.67643 5.3737ZM9.66667 13.3337C9.66667 12.7814 10.1144 12.3337 10.6667 12.3337H21.3333C21.8856 12.3337 22.3333 12.7814 22.3333 13.3337C22.3333 13.8859 21.8856 14.3337 21.3333 14.3337H10.6667C10.1144 14.3337 9.66667 13.8859 9.66667 13.3337ZM10.6667 17.667C10.1144 17.667 9.66667 18.1147 9.66667 18.667C9.66667 19.2193 10.1144 19.667 10.6667 19.667H21.3333C21.8856 19.667 22.3333 19.2193 22.3333 18.667C22.3333 18.1147 21.8856 17.667 21.3333 17.667H10.6667ZM9.66667 24.0003C9.66667 23.448 10.1144 23.0003 10.6667 23.0003H16C16.5523 23.0003 17 23.448 17 24.0003C17 24.5526 16.5523 25.0003 16 25.0003H10.6667C10.1144 25.0003 9.66667 24.5526 9.66667 24.0003Z" fill="#989BD1"/>
</svg>
