<svg width="32" height="32" viewBox="0 0 32 32" fill="none" xmlns="http://www.w3.org/2000/svg">
<path fill-rule="evenodd" clip-rule="evenodd" d="M24.7501 6.66666H26.6667C28.1394 6.66666 29.3334 7.86057 29.3334 9.33333V10.6667C29.3334 12.1394 28.1394 13.3333 26.6667 13.3333H5.33335C3.8606 13.3333 2.66669 12.1394 2.66669 10.6667V9.33333C2.66669 7.86057 3.86059 6.66666 5.33335 6.66666H7.24998C7.0886 6.25342 7.00002 5.80372 7.00002 5.33333C7.00002 3.30829 8.64164 1.66666 10.6667 1.66666C12.906 1.66666 14.8738 2.82883 16 4.58291C17.1262 2.82883 19.0941 1.66666 21.3334 1.66666C23.3584 1.66666 25 3.30829 25 5.33333C25 5.80372 24.9114 6.25342 24.7501 6.66666ZM9.66653 6.66666H14.791C14.2286 4.92582 12.5947 3.66666 10.6667 3.66666C9.74621 3.66666 9.00002 4.41286 9.00002 5.33333C9.00002 5.87853 9.2618 6.36259 9.66653 6.66666ZM22.3335 6.66666C22.7382 6.36259 23 5.87853 23 5.33333C23 4.41286 22.2538 3.66666 21.3334 3.66666C19.4053 3.66666 17.7714 4.92582 17.209 6.66666H22.3335ZM26.6667 15.3333H5.33335V26.6667C5.33335 28.1394 6.52726 29.3333 8.00002 29.3333H24C25.4728 29.3333 26.6667 28.1394 26.6667 26.6667V15.3333Z" fill="#989BD1"/>
</svg>
