<svg width="20" height="13" viewBox="0 0 20 13" fill="none" xmlns="http://www.w3.org/2000/svg">
<path d="M18.9963 1.56856L19.706 1.11374C19.8943 0.991385 20 0.825442 20 0.652411C20 0.479381 19.8943 0.313438 19.706 0.191087C19.5178 0.068736 19.2625 0 18.9963 0C18.7301 0 18.4748 0.068736 18.2866 0.191087L16.8871 1.10724L14.0582 2.94604L7.75057 7.03948C6.717 6.59624 5.4671 6.41816 4.24307 6.53975C3.01903 6.66134 1.90801 7.07393 1.12527 7.69758C0.342538 8.32124 -0.0561759 9.11155 0.00638867 9.91538C0.0689532 10.7192 0.588342 11.4793 1.46391 12.0485C2.33949 12.6176 3.5089 12.9552 4.74557 12.9958C5.98223 13.0365 7.19809 12.7773 8.15756 12.2686C9.11703 11.7598 9.75179 11.0376 9.93884 10.242C10.1259 9.44638 9.85193 8.63395 9.17003 7.96213L14.7579 4.32351L16.8771 5.70749C16.9703 5.76764 17.0808 5.81528 17.2023 5.84767C17.3239 5.88006 17.454 5.89658 17.5854 5.89628C17.7167 5.89598 17.8467 5.87886 17.9678 5.84591C18.089 5.81296 18.199 5.76482 18.2916 5.70424C18.3841 5.64366 18.4574 5.57182 18.5072 5.49283C18.5571 5.41384 18.5825 5.32924 18.582 5.24387C18.5815 5.15849 18.5552 5.07401 18.5045 4.99525C18.4538 4.91649 18.3798 4.84499 18.2866 4.78484L16.1674 3.40736L17.5868 2.49121L18.2866 2.94604C18.3791 3.00662 18.4891 3.05476 18.6103 3.08771C18.7314 3.12066 18.8614 3.13778 18.9928 3.13808C19.1241 3.13838 19.2543 3.12186 19.3758 3.08947C19.4973 3.05708 19.6078 3.00944 19.701 2.94929C19.7942 2.88913 19.8683 2.81763 19.919 2.73887C19.9697 2.66011 19.996 2.57563 19.9965 2.49026C19.9969 2.40489 19.9715 2.32029 19.9217 2.2413C19.8719 2.16231 19.7986 2.09047 19.706 2.02989L18.9963 1.56856ZM5.00161 11.6982C4.40849 11.6982 3.82869 11.5839 3.33553 11.3697C2.84238 11.1555 2.458 10.8511 2.23103 10.4949C2.00405 10.1387 1.94466 9.74679 2.06037 9.36867C2.17609 8.99055 2.4617 8.64323 2.8811 8.37062C3.3005 8.09801 3.83484 7.91236 4.41656 7.83715C4.99829 7.76193 5.60126 7.80054 6.14923 7.94807C6.6972 8.09561 7.16555 8.34545 7.49507 8.666C7.82459 8.98656 8.00047 9.36342 8.00047 9.74895C8.00047 10.2659 7.68452 10.7617 7.12213 11.1273C6.55973 11.4928 5.79696 11.6982 5.00161 11.6982Z" fill="#005086"/>
</svg>
