<svg width="27" height="21" viewBox="0 0 27 21" fill="none" xmlns="http://www.w3.org/2000/svg">
<path d="M26.3815 0.60771C26.2029 0.415147 25.9904 0.262306 25.7563 0.158003C25.5222 0.0536998 25.2711 0 25.0175 0C24.7639 0 24.5127 0.0536998 24.2786 0.158003C24.0445 0.262306 23.832 0.415147 23.6534 0.60771L9.34063 15.9341L3.32734 9.48304C3.1419 9.29148 2.923 9.14086 2.68313 9.03977C2.44326 8.93868 2.18712 8.88911 1.92934 8.89388C1.67155 8.89865 1.41717 8.95767 1.18071 9.06757C0.944256 9.17747 0.730358 9.3361 0.55123 9.5344C0.372102 9.7327 0.231252 9.96679 0.136723 10.2233C0.0421928 10.4798 -0.00416617 10.7537 0.000293784 11.0294C0.00475374 11.3051 0.0599451 11.5771 0.162716 11.83C0.265486 12.0828 0.413824 12.3116 0.599259 12.5031L7.9766 20.3923C8.15519 20.5849 8.36768 20.7377 8.60179 20.842C8.83591 20.9463 9.08702 21 9.34063 21C9.59425 21 9.84536 20.9463 10.0795 20.842C10.3136 20.7377 10.5261 20.5849 10.7047 20.3923L26.3815 3.62779C26.5765 3.4354 26.7321 3.20191 26.8386 2.94202C26.945 2.68213 27 2.40147 27 2.11775C27 1.83402 26.945 1.55337 26.8386 1.29348C26.7321 1.03359 26.5765 0.800095 26.3815 0.60771Z" fill="white"/>
</svg>
