<svg width="47" height="46" viewBox="0 0 47 46" fill="none" xmlns="http://www.w3.org/2000/svg">
<rect width="47" height="46" rx="23" fill="white"/>
<path d="M35.955 17.1349C35.1325 17.4799 34.1925 17.71 33.2525 17.825C34.1925 17.25 35.015 16.33 35.3675 15.295C34.4275 15.87 33.4875 16.215 32.3125 16.445C31.49 15.525 30.1975 14.95 28.905 14.95C26.32 14.95 24.205 17.02 24.205 19.55C24.205 19.895 24.205 20.2399 24.3225 20.5849C20.445 20.3549 16.92 18.5149 14.57 15.7549C14.2175 16.4449 13.9825 17.2499 13.9825 18.0549C13.9825 19.6649 14.805 21.045 16.0975 21.85C15.275 21.85 14.57 21.62 13.9825 21.275C13.9825 23.46 15.6275 25.4149 17.7425 25.7599C17.39 25.8749 16.92 25.875 16.45 25.875C16.0975 25.875 15.8625 25.8749 15.51 25.7599C16.0975 27.5999 17.86 28.9799 19.975 28.9799C18.33 30.2449 16.3325 30.9349 14.1 30.9349C13.7475 30.9349 13.395 30.935 12.925 30.82C15.04 32.085 17.5075 32.89 20.21 32.89C28.905 32.89 33.605 25.8749 33.605 19.7799V19.2049C34.545 18.8599 35.3675 18.0549 35.955 17.1349Z" fill="#005086"/>
</svg>
