<svg width="25" height="24" viewBox="0 0 25 24" fill="none" xmlns="http://www.w3.org/2000/svg">
<path d="M12.5 1.5C15.4008 1.5 18.1828 2.60625 20.234 4.57538C22.2852 6.54451 23.4375 9.21523 23.4375 12C23.4375 14.7848 22.2852 17.4555 20.234 19.4246C18.1828 21.3938 15.4008 22.5 12.5 22.5C9.59919 22.5 6.8172 21.3938 4.76602 19.4246C2.71484 17.4555 1.5625 14.7848 1.5625 12C1.5625 9.21523 2.71484 6.54451 4.76602 4.57538C6.8172 2.60625 9.59919 1.5 12.5 1.5ZM12.5 6C12.3016 5.99984 12.1054 6.0394 11.9238 6.11615C11.7423 6.1929 11.5794 6.30516 11.4456 6.44575C11.3118 6.58635 11.21 6.75218 11.1467 6.93268C11.0835 7.11317 11.0601 7.30435 11.0781 7.494L11.6484 13.503C11.6705 13.705 11.7698 13.892 11.927 14.028C12.0843 14.1639 12.2884 14.2391 12.5 14.2391C12.7116 14.2391 12.9157 14.1639 13.073 14.028C13.2302 13.892 13.3295 13.705 13.3516 13.503L13.9203 7.494C13.9383 7.30447 13.915 7.11342 13.8518 6.93303C13.7886 6.75264 13.687 6.58688 13.5534 6.4463C13.4197 6.30573 13.257 6.19344 13.0757 6.1166C12.8943 6.03976 12.6982 6.00005 12.5 6ZM12.5 18C12.8315 18 13.1495 17.8736 13.3839 17.6485C13.6183 17.4235 13.75 17.1183 13.75 16.8C13.75 16.4817 13.6183 16.1765 13.3839 15.9515C13.1495 15.7264 12.8315 15.6 12.5 15.6C12.1685 15.6 11.8505 15.7264 11.6161 15.9515C11.3817 16.1765 11.25 16.4817 11.25 16.8C11.25 17.1183 11.3817 17.4235 11.6161 17.6485C11.8505 17.8736 12.1685 18 12.5 18Z" fill="white"/>
</svg>
