<svg width="22" height="24" viewBox="0 0 22 24" fill="none" xmlns="http://www.w3.org/2000/svg">
<path d="M20.8959 2.89581L21.6766 2.05613C21.8837 1.83025 22 1.52389 22 1.20445C22 0.885011 21.8837 0.578654 21.6766 0.352776C21.4696 0.126897 21.1887 0 20.8959 0C20.6031 0 20.3223 0.126897 20.1152 0.352776L18.5758 2.04413L15.464 5.43884L8.52562 12.996C7.3887 12.1777 6.01382 11.8489 4.66738 12.0734C3.32094 12.2979 2.09881 13.0596 1.2378 14.2109C0.376792 15.3623 -0.0617935 16.8213 0.00702754 18.3053C0.0758486 19.7893 0.647176 21.1926 1.61031 22.2433C2.57343 23.294 3.85979 23.9173 5.22012 23.9923C6.58045 24.0674 7.9179 23.589 8.97332 22.6497C10.0287 21.7104 10.727 20.3772 10.9327 18.9083C11.1385 17.4395 10.8371 15.9396 10.087 14.6993L16.2337 7.98187L18.5648 10.5369C18.6673 10.648 18.7889 10.7359 18.9226 10.7957C19.0563 10.8555 19.1994 10.886 19.3439 10.8854C19.4884 10.8849 19.6313 10.8533 19.7646 10.7925C19.8979 10.7316 20.0189 10.6427 20.1207 10.5309C20.2225 10.4191 20.3031 10.2864 20.3579 10.1406C20.4128 9.99478 20.4407 9.8386 20.4402 9.68099C20.4397 9.52337 20.4107 9.36741 20.355 9.22201C20.2992 9.0766 20.2177 8.94461 20.1152 8.83355L17.7841 6.29052L19.3455 4.59916L20.1152 5.43884C20.217 5.55069 20.338 5.63956 20.4713 5.70039C20.6046 5.76122 20.7476 5.79282 20.892 5.79337C21.0365 5.79393 21.1797 5.76344 21.3134 5.70364C21.447 5.64384 21.5686 5.5559 21.6711 5.44484C21.7736 5.33378 21.8551 5.20179 21.9109 5.05638C21.9666 4.91098 21.9956 4.75502 21.9961 4.5974C21.9966 4.43979 21.9687 4.28361 21.9139 4.13778C21.859 3.99195 21.7784 3.85933 21.6766 3.74748L20.8959 2.89581ZM5.50177 21.5967C4.84934 21.5967 4.21156 21.3856 3.66909 20.9902C3.12661 20.5948 2.7038 20.0328 2.45413 19.3752C2.20446 18.7176 2.13913 17.9941 2.26641 17.296C2.3937 16.5979 2.70787 15.9567 3.16921 15.4534C3.63055 14.9502 4.21833 14.6074 4.85822 14.4686C5.49811 14.3297 6.16138 14.401 6.76415 14.6734C7.36692 14.9457 7.88211 15.407 8.24458 15.9988C8.60705 16.5906 8.80052 17.2863 8.80052 17.9981C8.80052 18.9525 8.45297 19.8678 7.83434 20.5427C7.2157 21.2176 6.37666 21.5967 5.50177 21.5967Z" fill="white"/>
</svg>
