<svg width="47" height="46" viewBox="0 0 47 46" fill="none" xmlns="http://www.w3.org/2000/svg">
<rect width="47" height="46" rx="23" fill="white"/>
<path fill-rule="evenodd" clip-rule="evenodd" d="M13.2334 31.1153C12.7725 30.9819 12.352 30.7444 12.0073 30.4231C11.6626 30.1017 11.4039 29.7059 11.2529 29.2689C10.3904 27.0105 10.1349 17.58 11.796 15.7183C12.3488 15.1127 13.1293 14.7398 13.9681 14.6806C18.4243 14.2228 32.192 14.2839 33.7733 14.8332C34.218 14.9711 34.6243 15.2033 34.9618 15.5125C35.2992 15.8217 35.5591 16.1998 35.7218 16.6186C36.6642 18.9533 36.6961 27.4377 35.5941 29.6809C35.3017 30.2648 34.8123 30.7378 34.2045 31.0238C32.5434 31.8173 15.4376 31.802 13.2334 31.1153ZM20.309 26.69L28.2949 22.7225L20.309 18.7244V26.69Z" fill="#005086"/>
</svg>
